<svg width="86" height="87" viewBox="0 0 86 87" fill="none" xmlns="http://www.w3.org/2000/svg">
<rect opacity="0.203637" x="9.66968" y="10.1208" width="66.3991" height="67.4361" rx="14.0562" fill="#D1C4E9"/>
<path fill-rule="evenodd" clip-rule="evenodd" d="M20.5353 1.12485C19.2156 0.765713 17.8592 1.56102 17.5056 2.90134C17.1521 4.24133 17.9351 5.61918 19.2548 5.97831C20.5745 6.33745 21.9309 5.54181 22.2845 4.20182C22.6381 2.8615 21.855 1.48399 20.5353 1.12485Z" fill="#D1C4E9"/>
<path fill-rule="evenodd" clip-rule="evenodd" d="M14.9796 22.1842C13.6599 21.825 12.3036 22.6203 11.95 23.9607C11.5964 25.3007 12.3794 26.6785 13.6991 27.0376C15.0189 27.3968 16.3753 26.6011 16.7288 25.2611C17.0824 23.9208 16.2993 22.5433 14.9796 22.1842Z" fill="#D1C4E9"/>
<path fill-rule="evenodd" clip-rule="evenodd" d="M9.42396 43.2433C8.10425 42.8841 6.74792 43.6794 6.3943 45.0197C6.04069 46.3601 6.82377 47.7376 8.14348 48.0967C9.46319 48.4559 10.8195 47.6605 11.1731 46.3202C11.5268 44.9799 10.7437 43.6024 9.42396 43.2433Z" fill="#D1C4E9"/>
<path fill-rule="evenodd" clip-rule="evenodd" d="M3.86714 64.3023C2.54743 63.9432 1.19101 64.7388 0.83748 66.0788C0.483865 67.4191 1.26694 68.7967 2.58665 69.1558C3.90636 69.5149 5.2627 68.7196 5.61631 67.3793C5.96984 66.0393 5.18685 64.6615 3.86714 64.3023Z" fill="#D1C4E9"/>
<path fill-rule="evenodd" clip-rule="evenodd" d="M41.271 6.76865C39.9513 6.40951 38.595 7.20482 38.2413 8.54514C37.8878 9.88513 38.6708 11.263 39.9905 11.6221C41.3102 11.9812 42.6667 11.1856 43.0202 9.84562C43.3738 8.5053 42.5907 7.12779 41.271 6.76865Z" fill="#D1C4E9"/>
<path fill-rule="evenodd" clip-rule="evenodd" d="M35.7141 27.8265C34.3944 27.4674 33.0381 28.2627 32.6845 29.603C32.3309 30.943 33.1139 32.3208 34.4336 32.68C35.7533 33.0391 37.1098 32.2435 37.4633 30.9035C37.8169 29.5632 37.0338 28.1856 35.7141 27.8265Z" fill="#D1C4E9"/>
<path fill-rule="evenodd" clip-rule="evenodd" d="M30.1585 48.8858C28.8387 48.5267 27.4824 49.322 27.1288 50.6623C26.7752 52.0026 27.5583 53.3802 28.878 53.7393C30.1977 54.0984 31.554 53.3031 31.9076 51.9628C32.2612 50.6225 31.4782 49.245 30.1585 48.8858Z" fill="#D1C4E9"/>
<path fill-rule="evenodd" clip-rule="evenodd" d="M24.6028 69.9449C23.2831 69.5858 21.9267 70.3814 21.5731 71.7214C21.2195 73.0617 22.0026 74.4392 23.3223 74.7984C24.642 75.1575 25.9984 74.3622 26.352 73.0219C26.7055 71.6819 25.9225 70.3041 24.6028 69.9449Z" fill="#D1C4E9"/>
<path fill-rule="evenodd" clip-rule="evenodd" d="M62.0054 12.41C60.6857 12.0509 59.3294 12.8462 58.9758 14.1865C58.6223 15.5265 59.4053 16.9043 60.725 17.2635C62.0447 17.6226 63.4011 16.827 63.7546 15.487C64.1082 14.1467 63.3252 12.7691 62.0054 12.41Z" fill="#D1C4E9"/>
<path fill-rule="evenodd" clip-rule="evenodd" d="M56.4498 33.4691C55.1301 33.11 53.7737 33.9053 53.4201 35.2456C53.0666 36.5856 53.8496 37.9634 55.1693 38.3226C56.489 38.6817 57.8454 37.886 58.199 36.5461C58.5526 35.2057 57.7695 33.8282 56.4498 33.4691Z" fill="#D1C4E9"/>
<path fill-rule="evenodd" clip-rule="evenodd" d="M50.8929 54.5296C49.5732 54.1705 48.2169 54.9658 47.8632 56.3061C47.5096 57.6464 48.2927 59.024 49.6124 59.3831C50.9321 59.7422 52.2885 58.9469 52.6421 57.6066C52.9957 56.2663 52.2126 54.8888 50.8929 54.5296Z" fill="#D1C4E9"/>
<path fill-rule="evenodd" clip-rule="evenodd" d="M45.3372 75.5875C44.0175 75.2284 42.6611 76.024 42.3076 77.364C41.954 78.7043 42.737 80.0818 44.0567 80.441C45.3765 80.8001 46.7328 80.0048 47.0864 78.6645C47.4399 77.3245 46.6569 75.9466 45.3372 75.5875Z" fill="#D1C4E9"/>
<path fill-rule="evenodd" clip-rule="evenodd" d="M82.7411 18.0538C81.4214 17.6947 80.0651 18.49 79.7114 19.8303C79.3579 21.1703 80.1409 22.5481 81.4606 22.9073C82.7803 23.2664 84.1367 22.4708 84.4903 21.1308C84.8439 19.7905 84.0608 18.4129 82.7411 18.0538Z" fill="#D1C4E9"/>
<path fill-rule="evenodd" clip-rule="evenodd" d="M77.1842 39.1117C75.8645 38.7525 74.5082 39.5478 74.1546 40.8882C73.801 42.2281 74.584 43.606 75.9037 43.9651C77.2234 44.3243 78.5799 43.5286 78.9334 42.1886C79.287 40.8483 78.5039 39.4708 77.1842 39.1117Z" fill="#D1C4E9"/>
<path fill-rule="evenodd" clip-rule="evenodd" d="M71.6298 60.171C70.3101 59.8119 68.9537 60.6072 68.6001 61.9475C68.2465 63.2878 69.0296 64.6653 70.3493 65.0245C71.669 65.3836 73.0253 64.5883 73.3789 63.248C73.7326 61.9076 72.9495 60.5301 71.6298 60.171Z" fill="#D1C4E9"/>
<path fill-rule="evenodd" clip-rule="evenodd" d="M66.0729 81.2301C64.7532 80.8709 63.3968 81.6666 63.0432 83.0066C62.6896 84.3469 63.4727 85.7244 64.7924 86.0835C66.1121 86.4427 67.4684 85.6474 67.8221 84.307C68.1756 82.9671 67.3926 81.5892 66.0729 81.2301Z" fill="#D1C4E9"/>
</svg>
