<svg width="162" height="83" viewBox="0 0 162 83" fill="none" xmlns="http://www.w3.org/2000/svg">
<path d="M2.16598 8.19129L2.28494 15.6173L9.93819 15.7219L17.5518 15.7916V11.8171C17.5518 8.15643 17.4725 7.70319 16.4415 5.99486C14.4191 2.54333 10.533 0.800136 4.98142 0.800136H2.08667L2.16598 8.19129Z" fill="#D8EBEF"/>
<path d="M19.9246 9.50418V12.9557L21.9073 14.1062C23.1762 14.8384 28.133 19.4055 35.588 26.6921C42.0119 32.9676 47.2859 38.2321 47.2859 38.3715C47.2859 38.5458 47.0877 38.8247 46.8497 39.0339C46.5722 39.278 48.3962 41.2652 52.9168 45.6232C56.4857 49.0399 59.9356 52.3868 60.6097 53.0492L61.839 54.2695L58.9443 56.1173C56.3271 57.7559 55.7719 57.965 54.0271 57.965H52.0444V65.8094V73.6538H54.9392H57.7943L57.8736 71.4574C57.9926 68.0756 59.2615 65.4956 62.1166 62.9854C63.901 61.4166 65.17 60.6496 66.9147 60.0917C76.2335 57.0237 86.4246 62.846 86.5039 71.2831L86.5435 73.6538H92.0951H97.6467L97.5674 63.2644L97.4484 52.9098L95.5847 52.8052L93.6813 52.7006V42.0671V31.4685H88.6452H83.5695L78.4144 40.4634C74.1715 47.8545 73.2198 49.772 73.0611 51.3409L72.8629 53.2584L70.8405 53.363L68.8181 53.4676L64.8924 49.7023C62.7511 47.6453 60.8873 45.8673 60.7683 45.7627C60.6097 45.6232 57.9529 43.0433 51.5686 36.9072C50.6962 36.0356 50.4186 35.931 49.9031 36.3145C49.4273 36.6632 49.0704 36.5237 47.8014 35.2686C36.6586 24.4608 31.5036 19.4404 31.5829 19.3358C31.6622 19.3009 41.2585 24.2516 52.9168 30.3877C64.5751 36.5237 74.3301 41.579 74.6077 41.6487C74.8852 41.7185 76.1542 39.9055 77.6214 37.3953C79.0093 35.0246 80.1196 33.0373 80.0799 33.0025C80.0403 32.9676 70.7215 28.7491 59.3805 23.6241C48.0394 18.4991 34.6363 12.4328 29.6002 10.1666C24.5244 7.90044 20.3211 6.01779 20.1625 6.01779C20.0435 6.01779 19.9246 7.58667 19.9246 9.50418Z" fill="#D8EBEF"/>
<path d="M4.46631 24.1481V31.1209H9.22481H13.9833V24.1481V17.1753H9.22481H4.46631V24.1481Z" fill="#D8EBEF"/>
<path d="M110.737 43.4943V56.9169H113.513H116.289V54.4765V52.036H117.479H118.668V54.4765V56.9518L122.753 56.8472L126.797 56.7426L126.916 51.9663C126.996 47.5386 126.956 47.1202 126.202 46.4578C125.052 45.4467 120.611 45.4467 119.461 46.4578C119.025 46.8413 118.668 47.2945 118.668 47.5037C118.668 47.678 118.153 47.8523 117.479 47.8523C116.329 47.8523 116.289 47.7826 116.289 46.2835V44.7146H118.272H120.254V39.0318V33.3489L118.351 31.7103L116.448 30.0717H113.592H110.737V43.4943Z" fill="#D8EBEF"/>
<path d="M6.84467 35.9719V39.0748L5.06023 40.0161C2.99821 41.062 0.5 42.9098 0.5 43.3631C0.5 43.7466 2.52236 43.7814 3.75164 43.3631C4.26715 43.2236 5.13954 42.9796 5.774 42.8401L6.84467 42.6309V45.1411L6.80501 47.6862L4.22749 49.0807C1.0155 50.8239 0.182767 51.5561 0.817233 52.1139C1.17412 52.4277 1.92755 52.358 4.06887 51.8001L6.88432 51.1028L6.76536 53.7176L6.6464 56.3673L4.66369 57.3784C2.60167 58.4243 0.5 59.9932 0.5 60.4812C0.5 60.9345 3.03787 60.795 4.86196 60.2372C5.774 59.9583 6.60674 59.7142 6.68605 59.7142C6.76536 59.7142 6.84467 60.8647 6.84467 62.2942V64.8741L4.78265 65.92C1.09481 67.7329 -0.412046 69.4761 1.64997 69.4761C2.04651 69.4761 3.3551 69.1972 4.58438 68.8137L6.84467 68.1862V70.8358V73.4855L5.13954 74.2874C3.11717 75.2287 0.5 77.0416 0.5 77.5297C0.5 78.0178 3.27579 77.8783 5.06023 77.3205C5.93262 77.0416 6.68605 76.7976 6.76536 76.7976C6.80501 76.7976 6.84467 77.4251 6.84467 78.227C6.84467 79.238 7.20155 80.0748 8.07395 81.2253L9.30322 82.7942L10.4532 81.2601C11.4445 79.9702 11.6032 79.4124 11.6032 77.3205V74.88L13.3083 74.0782C15.6082 72.9974 17.9478 71.2891 17.9478 70.6615C17.9478 69.9991 16.9168 70.034 14.0221 70.8358L11.6032 71.4982V68.9532V66.443L14.0617 65.1181C16.6392 63.6887 17.9478 62.7125 17.9478 62.1547C17.9478 61.6318 16.0048 61.7363 13.7445 62.329C12.6738 62.6079 11.7618 62.852 11.7221 62.852C11.6428 62.852 11.6032 61.7015 11.6032 60.3069V57.727L13.5859 56.7857C19.2564 54.0663 19.415 52.079 13.8635 53.7525L11.6032 54.4498V51.7304V49.0459L13.3479 48.3137C15.1324 47.5467 17.9478 45.5595 17.9478 45.0714C17.9478 44.3741 16.0048 44.5136 12.5152 45.5595C11.6032 45.8035 11.6032 45.7687 11.6032 43.1887V40.5391L13.11 39.8767C15.4496 38.7959 17.9478 37.0876 17.9478 36.5297C17.9478 35.8673 16.6392 35.8673 14.141 36.5297C13.0704 36.8086 12.079 37.0527 11.9204 37.0527C11.7221 37.0527 11.6032 36.1114 11.6032 34.9609V32.869H9.22392H6.84467V35.9719Z" fill="#D8EBEF"/>
<path d="M129.381 47.1572V57.965H118.873H108.365V65.8094V73.6538H116.85H125.336L125.376 71.4225C125.455 62.5322 136.321 56.6751 145.798 60.3707C148.296 61.3468 151.231 63.857 152.619 66.2278C153.531 67.8315 153.808 68.8077 153.927 70.9344L154.046 73.6538H157.774H161.501V69.9931V66.3324H159.915H158.329V62.1836C158.329 58.4531 158.091 56.9888 155.95 47.9591C154.641 42.4506 153.491 37.5696 153.372 37.1164L153.174 36.3494H141.277H129.381V47.1572ZM153.293 47.0875C154.601 52.0033 155.712 56.3962 155.831 56.8145C156.029 57.5815 155.95 57.6164 153.055 57.6164H150.081L148.613 55.8732L147.146 54.13H140.445H133.743V46.1113V38.0926H142.388H150.993L153.293 47.0875Z" fill="#D8EBEF"/>
<path d="M42.9297 64.7711V76.1019H46.102H49.2347L49.3537 64.7711L49.4726 53.4403H46.221H42.9297V64.7711Z" fill="#D8EBEF"/>
<path d="M99.6384 64.7711V76.1019H102.811H105.983V64.7711V53.4403H102.811H99.6384V64.7711Z" fill="#D8EBEF"/>
<path d="M66.9236 62.0831C64.1478 63.2684 62.2444 65.0116 60.8565 67.6613C60.0237 69.2999 59.9048 69.8926 60.0634 72.4028C60.341 76.9002 62.5219 79.8288 66.9236 81.6766C72.9113 84.1868 79.9698 82.1995 83.1818 77.1094C84.2524 75.4011 84.3714 74.9478 84.3714 71.9147C84.3714 69.1604 84.2128 68.3586 83.4593 67.1383C82.1508 64.9419 80.4853 63.4427 78.1457 62.3271C76.4009 61.4904 75.4889 61.2812 72.6734 61.1766C69.62 61.072 69.1045 61.1417 66.9236 62.0831ZM75.0923 68.0099C76.5992 68.7421 77.4319 70.2063 77.4319 72.089C77.4319 73.5533 77.2336 73.9019 75.8854 75.0873C74.5372 76.2727 74.1406 76.447 72.4751 76.447C69.1838 76.447 67.1218 74.7038 67.1218 71.9147C67.1218 68.0796 71.2062 66.0575 75.0923 68.0099Z" fill="#D8EBEF"/>
<path d="M134.211 62.1585C131.634 63.309 129.889 64.8082 128.501 67.1441C127.748 68.3643 127.589 69.1662 127.589 71.9204C127.589 74.9536 127.708 75.4068 128.779 77.1152C133.498 84.6109 145.949 84.6109 150.589 77.1152C151.501 75.5811 151.778 74.7095 151.897 72.4085C152.056 69.9332 151.937 69.3056 151.104 67.667C149.716 65.0522 147.971 63.4136 145.156 62.1585C143.094 61.2521 142.301 61.1126 139.684 61.1126C137.066 61.1126 136.273 61.2521 134.211 62.1585ZM142.539 67.9808C143.966 68.5735 144.839 70.1075 144.839 71.9204C144.839 74.7095 142.777 76.4527 139.485 76.4527C137.82 76.4527 137.423 76.2784 136.075 75.0931C134.727 73.9077 134.529 73.559 134.529 72.1296C134.529 68.0505 138.335 66.0982 142.539 67.9808Z" fill="#D8EBEF"/>
<path d="M44.5164 78.1905C44.5164 79.2015 44.5957 79.2364 46.3008 79.2364C48.0059 79.2364 48.0852 79.2015 48.0852 78.1905C48.0852 77.1794 48.0059 77.1446 46.3008 77.1446C44.5957 77.1446 44.5164 77.1794 44.5164 78.1905Z" fill="#D8EBEF"/>
<path d="M101.219 78.1908C101.219 79.2019 101.298 79.2367 103.003 79.2367C104.708 79.2367 104.787 79.2019 104.787 78.1908C104.787 77.1798 104.708 77.1449 103.003 77.1449C101.298 77.1449 101.219 77.1798 101.219 78.1908Z" fill="#D8EBEF"/>
<path d="M39.3635 81.331V82.7255H46.1047H52.8459V81.331V79.9364H46.1047H39.3635V81.331Z" fill="#D8EBEF"/>
<path d="M96.0652 81.3313V82.7259H102.806H109.548V81.3313V79.9367H102.806H96.0652V81.3313Z" fill="#D8EBEF"/>
</svg>
