<svg width="70" height="75" viewBox="0 0 70 75" fill="none" xmlns="http://www.w3.org/2000/svg">
<path d="M32.5941 5.21619C32.5941 8.96436 32.4241 9.9014 31.7443 9.9014C31.1777 9.9014 30.8944 9.01948 30.7811 6.31859L30.6111 2.68067L28.3448 4.33427C25.4552 6.37371 23.4722 9.73604 23.019 13.374C22.7357 15.7992 22.4524 16.2402 21.2626 16.5158C20.3561 16.7363 19.7895 17.2875 19.6762 18.0041C19.5062 18.9411 20.0161 19.4923 21.8858 20.3742C29.5346 24.1775 43.9257 24.3429 51.1779 20.7049C54.0674 19.2167 54.1241 16.5709 51.2345 16.5158C50.5546 16.5158 50.2147 15.7441 49.988 13.4291C49.5914 9.9014 47.2685 6.04299 44.3223 3.94843L42.5092 2.73579L42.2259 6.15323C41.9993 8.85412 41.716 9.68092 40.9795 9.79116C40.0729 9.95652 39.9596 9.46044 39.9596 5.27131V0.530983H36.2769H32.5941V5.21619ZM37.6933 14.8622C37.6933 15.4685 37.3534 15.9646 36.9001 15.9646C36.3902 15.9646 36.1069 15.4685 36.1636 14.8622C36.2202 14.2559 36.5602 13.7598 36.9568 13.7598C37.3534 13.7598 37.6933 14.2559 37.6933 14.8622ZM36.5602 16.1851C38.5998 16.1851 41.6027 15.9646 43.2458 15.689C47.1552 15.0827 47.2118 16.1851 43.2458 17.3426C38.0899 18.8309 27.7216 17.9489 27.0417 15.9646C26.815 15.3583 27.3816 15.3032 29.8179 15.689C31.5176 15.9646 34.5205 16.1851 36.5602 16.1851Z" fill="#0CB9DE"/>
<path d="M21.9424 24.8941C21.0359 25.9965 21.7725 30.4061 22.9056 30.6817C23.4155 30.7919 24.322 32.2251 24.8886 33.7684C26.0218 36.8551 30.2145 41.375 31.9142 41.2647C32.4808 41.2647 32.5941 41.0994 32.1975 40.934C31.8009 40.8238 31.4609 40.3828 31.4609 40.0521C31.4609 39.6663 30.6111 38.7292 29.5912 37.9024C28.2881 36.9654 27.2116 35.3118 26.3617 33.0519C25.6818 31.2329 24.6053 29.469 24.0388 29.1383C22.7356 28.4769 22.6223 26.4374 23.8688 26.4374C25.0019 26.4374 24.662 24.5634 23.4722 24.3429C22.9623 24.2878 22.2824 24.5082 21.9424 24.8941Z" fill="#0CB9DE"/>
<path d="M49.1937 24.6186C48.1739 25.0045 48.2872 26.4376 49.307 26.4376C50.6668 26.4376 50.2702 28.4219 48.7405 29.4141C47.9473 29.9102 47.324 30.6267 47.324 31.0126C47.324 32.7213 44.4345 37.5167 42.8481 38.4538C41.6016 39.1703 41.3183 39.6664 41.7149 40.2176C42.0549 40.8239 42.2248 40.8791 42.2248 40.3279C42.2248 39.942 42.4515 39.7215 42.7347 39.8869C43.7546 40.5483 46.7008 37.3514 47.8339 34.4851C48.4572 32.8315 49.5903 30.8472 50.4402 30.0755C51.97 28.5873 52.2532 27.0439 51.2901 25.2801C50.6668 24.2328 50.3835 24.1225 49.1937 24.6186Z" fill="#0CB9DE"/>
<path d="M45.9078 44.6817C45.3979 46.2251 41.3752 47.9889 37.7491 48.3196C33.6131 48.7055 29.987 47.7133 27.8907 45.6739L26.1909 44.0203L23.7547 45.1778L21.2617 46.2802V49.6425C21.2617 51.4615 21.545 53.5009 21.885 54.1072C22.3382 54.8789 22.3382 55.375 21.885 55.816C21.545 56.1467 21.2617 58.6271 21.2617 61.8241V67.2258L36.276 67.1156L51.2903 67.0605V56.6979V46.3904L48.7407 45.0124C46.3044 43.6896 46.2478 43.6896 45.9078 44.6817Z" fill="#0CB9DE"/>
<path d="M11.6302 51.7924C5.34119 55.4855 4.15138 57.4698 1.7151 67.9426C1.26184 70.0372 0.865234 72.4073 0.865234 73.3444V74.9429H8.23074H15.5962V62.2653C15.5962 55.265 15.5396 49.5876 15.4829 49.5876C15.3696 49.6428 13.6699 50.5798 11.6302 51.7924ZM6.53101 68.0529C6.53101 68.9348 6.19106 69.4309 5.68114 69.4309C5.17122 69.4309 4.83128 68.9348 4.83128 68.0529C4.83128 67.1709 5.17122 66.6749 5.68114 66.6749C6.19106 66.6749 6.53101 67.1709 6.53101 68.0529Z" fill="#0CB9DE"/>
<path d="M53.6671 61.309V74.0417H61.3725H69.1346L68.738 72.333C68.568 71.396 68.521 70.1795 68.3981 69.6873C68.3981 68.9156 67.9789 67.7335 67.9789 67.7335L67.8705 67.2185L67.6537 66.3173L67.2649 64.7816C67.2649 64.7816 65.3952 58.2223 64.3754 56.2931C63.6955 55.0253 61.9957 53.4268 59.4461 51.7732C53.1005 47.6943 53.6671 46.7022 53.6671 61.309Z" fill="#0CB9DE"/>
</svg>
