<svg width="572" height="408" viewBox="0 0 572 408" fill="none" xmlns="http://www.w3.org/2000/svg">
<g filter="url(#filter0_bi_0_1)">
<path d="M568.119 42.1521C568.119 32.3891 560.204 24.4746 550.441 24.4746H24.7964C15.0334 24.4746 7.1189 32.3891 7.1189 42.1521V328.373C7.1189 338.136 15.0344 346.051 24.7974 346.051C51.0861 346.051 76.0012 346.051 99.8996 346.051C112.762 346.051 87.5705 388.475 99.8996 388.475C112.724 388.475 163.049 346.051 175.419 346.051C299.123 346.051 403.246 346.051 550.418 346.051C560.181 346.051 568.119 338.136 568.119 328.373V42.1521Z" fill="#136469"/>
</g>
<g opacity="0.4" filter="url(#filter1_df_0_1)">
<path d="M27.0006 38.4226C27.0006 32.1142 32.1146 27.0002 38.423 27.0002H490.578C496.887 27.0002 502.001 32.1142 502.001 38.4226V68.6464C502.001 74.9548 496.885 80.0688 490.577 80.0688C467.009 80.0688 444.749 80.0688 423.443 80.0688C412.552 80.0688 411.046 88.0002 400.606 88.0002C389.748 88.0002 369.974 80.0688 359.501 80.0688C253.766 80.0688 164.928 80.0688 38.431 80.0688C32.1226 80.0688 27.0006 74.9548 27.0006 68.6464V38.4226Z" fill="url(#paint0_linear_0_1)"/>
<path d="M38.423 27.1893H490.578C496.782 27.1893 501.812 32.2186 501.812 38.4226V68.6464C501.812 74.8504 496.781 79.8797 490.577 79.8797H490.439H490.301H490.163H490.025H489.887H489.749H489.611H489.473H489.335H489.198H489.06H488.922H488.784H488.647H488.509H488.371H488.234H488.096H487.959H487.821H487.684H487.546H487.409H487.271H487.134H486.997H486.859H486.722H486.585H486.448H486.31H486.173H486.036H485.899H485.762H485.625H485.488H485.351H485.214H485.077H484.94H484.803H484.666H484.53H484.393H484.256H484.119H483.983H483.846H483.709H483.573H483.436H483.3H483.163H483.027H482.89H482.754H482.617H482.481H482.345H482.208H482.072H481.936H481.8H481.663H481.527H481.391H481.255H481.119H480.983H480.847H480.711H480.575H480.439H480.303H480.167H480.031H479.896H479.76H479.624H479.488H479.353H479.217H479.081H478.946H478.81H478.674H478.539H478.403H478.268H478.133H477.997H477.862H477.726H477.591H477.456H477.32H477.185H477.05H476.915H476.78H476.644H476.509H476.374H476.239H476.104H475.969H475.834H475.699H475.564H475.43H475.295H475.16H475.025H474.89H474.756H474.621H474.486H474.352H474.217H474.082H473.948H473.813H473.679H473.544H473.41H473.275H473.141H473.006H472.872H472.738H472.604H472.469H472.335H472.201H472.067H471.932H471.798H471.664H471.53H471.396H471.262H471.128H470.994H470.86H470.726H470.592H470.459H470.325H470.191H470.057H469.923H469.79H469.656H469.522H469.389H469.255H469.122H468.988H468.855H468.721H468.588H468.454H468.321H468.187H468.054H467.921H467.787H467.654H467.521H467.388H467.254H467.121H466.988H466.855H466.722H466.589H466.456H466.323H466.19H466.057H465.924H465.791H465.658H465.525H465.393H465.26H465.127H464.994H464.862H464.729H464.596H464.464H464.331H464.198H464.066H463.933H463.801H463.668H463.536H463.404H463.271H463.139H463.007H462.874H462.742H462.61H462.478H462.345H462.213H462.081H461.949H461.817H461.685H461.553H461.421H461.289H461.157H461.025H460.893H460.761H460.629H460.497H460.366H460.234H460.102H459.97H459.839H459.707H459.575H459.444H459.312H459.181H459.049H458.918H458.786H458.655H458.523H458.392H458.26H458.129H457.998H457.866H457.735H457.604H457.473H457.341H457.21H457.079H456.948H456.817H456.686H456.555H456.424H456.293H456.162H456.031H455.9H455.769H455.638H455.507H455.377H455.246H455.115H454.984H454.854H454.723H454.592H454.462H454.331H454.201H454.07H453.939H453.809H453.678H453.548H453.418H453.287H453.157H453.026H452.896H452.766H452.636H452.505H452.375H452.245H452.115H451.985H451.855H451.724H451.594H451.464H451.334H451.204H451.074H450.944H450.815H450.685H450.555H450.425H450.295H450.165H450.036H449.906H449.776H449.646H449.517H449.387H449.258H449.128H448.998H448.869H448.739H448.61H448.48H448.351H448.222H448.092H447.963H447.833H447.704H447.575H447.446H447.316H447.187H447.058H446.929H446.8H446.671H446.541H446.412H446.283H446.154H446.025H445.896H445.767H445.639H445.51H445.381H445.252H445.123H444.994H444.866H444.737H444.608H444.479H444.351H444.222H444.093H443.965H443.836H443.708H443.579H443.451H443.322H443.194H443.065H442.937H442.809H442.68H442.552H442.424H442.295H442.167H442.039H441.911H441.782H441.654H441.526H441.398H441.27H441.142H441.014H440.886H440.758H440.63H440.502H440.374H440.246H440.118H439.99H439.862H439.735H439.607H439.479H439.351H439.224H439.096H438.968H438.841H438.713H438.586H438.458H438.33H438.203H438.075H437.948H437.821H437.693H437.566H437.438H437.311H437.184H437.056H436.929H436.802H436.675H436.547H436.42H436.293H436.166H436.039H435.912H435.785H435.658H435.531H435.404H435.277H435.15H435.023H434.896H434.769H434.642H434.515H434.388H434.262H434.135H434.008H433.881H433.755H433.628H433.501H433.375H433.248H433.122H432.995H432.868H432.742H432.615H432.489H432.363H432.236H432.11H431.983H431.857H431.731H431.604H431.478H431.352H431.226H431.099H430.973H430.847H430.721H430.595H430.469H430.343H430.217H430.091H429.965H429.839H429.713H429.587H429.461H429.335H429.209H429.083H428.957H428.831H428.706H428.58H428.454H428.328H428.203H428.077H427.951H427.826H427.7H427.575H427.449H427.324H427.198H427.073H426.947H426.822H426.696H426.571H426.445H426.32H426.195H426.069H425.944H425.819H425.694H425.568H425.443H425.318H425.193H425.068H424.943H424.818H424.692H424.567H424.442H424.317H424.192H424.067H423.942H423.818H423.693H423.568H423.443C417.94 79.8797 414.801 81.8893 411.752 83.8761L411.66 83.9359C408.653 85.8962 405.714 87.8112 400.606 87.8112C395.207 87.8112 387.577 85.837 379.957 83.8516L379.728 83.7918C372.206 81.8317 364.715 79.8797 359.501 79.8797H358.881H358.262H357.644H357.026H356.408H355.79H355.173H354.556H353.94H353.324H352.709H352.093H351.478H350.864H350.25H349.636H349.022H348.409H347.796H347.184H346.572H345.96H345.349H344.737H344.127H343.516H342.906H342.296H341.687H341.078H340.469H339.86H339.252H338.644H338.036H337.429H336.822H336.215H335.609H335.002H334.397H333.791H333.186H332.581H331.976H331.371H330.767H330.163H329.56H328.956H328.353H327.75H327.148H326.545H325.943H325.341H324.74H324.139H323.537H322.937H322.336H321.736H321.136H320.536H319.936H319.337H318.737H318.138H317.54H316.941H316.343H315.745H315.147H314.549H313.951H313.354H312.757H312.16H311.563H310.967H310.371H309.775H309.179H308.583H307.987H307.392H306.797H306.202H305.607H305.012H304.418H303.823H303.229H302.635H302.041H301.447H300.854H300.26H299.667H299.074H298.481H297.888H297.295H296.703H296.11H295.518H294.926H294.334H293.742H293.15H292.558H291.967H291.375H290.784H290.193H289.602H289.011H288.42H287.829H287.238H286.647H286.057H285.466H284.876H284.286H283.696H283.105H282.515H281.925H281.335H280.746H280.156H279.566H278.977H278.387H277.797H277.208H276.619H276.029H275.44H274.851H274.261H273.672H273.083H272.494H271.905H271.316H270.727H270.138H269.549H268.96H268.371H267.782H267.193H266.604H266.015H265.426H264.837H264.249H263.66H263.071H262.482H261.893H261.304H260.715H260.126H259.537H258.948H258.359H257.77H257.181H256.592H256.003H255.414H254.825H254.236H253.646H253.057H252.468H251.878H251.289H250.699H250.11H249.52H248.93H248.341H247.751H247.161H246.571H245.981H245.391H244.8H244.21H243.62H243.029H242.439H241.848H241.257H240.667H240.076H239.485H238.894H238.302H237.711H237.12H236.528H235.936H235.345H234.753H234.161H233.568H232.976H232.384H231.791H231.198H230.606H230.013H229.42H228.826H228.233H227.639H227.046H226.452H225.858H225.264H224.669H224.075H223.48H222.885H222.29H221.695H221.1H220.504H219.908H219.312H218.716H218.12H217.524H216.927H216.33H215.733H215.136H214.538H213.941H213.343H212.745H212.146H211.548H210.949H210.35H209.751H209.152H208.552H207.952H207.352H206.752H206.151H205.55H204.949H204.348H203.746H203.145H202.543H201.94H201.338H200.735H200.132H199.528H198.925H198.321H197.717H197.112H196.508H195.903H195.297H194.692H194.086H193.48H192.873H192.267H191.66H191.052H190.445H189.837H189.229H188.62H188.011H187.402H186.793H186.183H185.573H184.962H184.352H183.741H183.129H182.518H181.905H181.293H180.68H180.067H179.454H178.84H178.226H177.611H176.996H176.381H175.766H175.15H174.534H173.917H173.3H172.682H172.065H171.447H170.828H170.209H169.59H168.97H168.35H167.73H167.109H166.488H165.866H165.244H164.621H163.999H163.375H162.752H162.127H161.503H160.878H160.253H159.627H159.001H158.374H157.747H157.12H156.492H155.863H155.235H154.605H153.976H153.346H152.715H152.084H151.452H150.82H150.188H149.555H148.922H148.288H147.654H147.019H146.384H145.748H145.112H144.475H143.838H143.201H142.563H141.924H141.285H140.645H140.005H139.365H138.724H138.082H137.44H136.797H136.154H135.51H134.866H134.222H133.576H132.931H132.284H131.638H130.99H130.342H129.694H129.045H128.396H127.746H127.095H126.444H125.792H125.14H124.487H123.834H123.18H122.526H121.87H121.215H120.559H119.902H119.245H118.587H117.928H117.269H116.609H115.949H115.288H114.627H113.965H113.302H112.639H111.975H111.311H110.646H109.98H109.314H108.647H107.979H107.311H106.643H105.973H105.303H104.633H103.961H103.289H102.617H101.944H101.27H100.595H99.9204H99.2446H98.5682H97.8911H97.2134H96.535H95.856H95.1763H94.4959H93.8148H93.1331H92.4507H91.7677H91.0839H90.3995H89.7144H89.0286H88.3421H87.6549H86.9671H86.2785H85.5892H84.8993H84.2086H83.5172H82.8251H82.1323H81.4388H80.7446H80.0497H79.354H78.6576H77.9605H77.2627H76.5641H75.8648H75.1648H74.464H73.7625H73.0602H72.3572H71.6535H70.949H70.2437H69.5377H68.8309H68.1234H67.4151H66.7061H65.9963H65.2857H64.5743H63.8622H63.1493H62.4356H61.7211H61.0059H60.2899H59.573H58.8554H58.137H57.4178H56.6978H55.977H55.2554H54.533H53.8097H53.0857H52.3608H51.6352H50.9087H50.1814H49.4533H48.7243H47.9945H47.2639H46.5325H45.8002H45.0671H44.3332H43.5984H42.8627H42.1262H41.3889H40.6507H39.9117H39.1718H38.431C32.2268 79.8797 27.1897 74.8502 27.1897 68.6464V38.4226C27.1897 32.2186 32.219 27.1893 38.423 27.1893Z" stroke="#979797" stroke-width="0.378129"/>
</g>
<path d="M5.83715 118.648L2.66727 320.086C2.47334 332.409 12.3108 342.707 24.6336 343.079L101.177 345.393C102.55 345.434 103.536 346.759 103.176 348.08L94.7258 379.03C92.9112 385.676 100.251 391.205 106.091 387.59L171.045 347.387C173.263 346.015 175.825 345.285 178.45 345.278L552.435 344.291C561.12 344.268 568.093 337.312 568.139 328.623L569.667 42.8628C569.671 42.1173 569.588 41.3726 569.421 40.6436L569.158 39.4981C567.565 32.5531 561.955 27.192 554.952 25.9206V25.9206V25.9206C547.823 25.0326 540.684 27.0714 535.169 31.5703L533.902 32.6033" stroke="#2190A4" stroke-width="2.94625" stroke-linecap="round"/>
<g clip-path="url(#clip0_0_1)">
<path d="M491.12 47.8431C500.94 38.6859 510.21 43.3764 515.622 38.3293L526.093 49.5574C520.681 54.6044 524.713 64.1791 514.893 73.3362C507.299 80.4181 495.821 80.4523 489.256 73.4125C482.691 66.3727 483.526 54.925 491.12 47.8431Z" fill="#E6F8FC"/>
<path d="M501.511 69.8623C501.251 69.5836 501.154 69.1671 501.294 68.7577L501.955 66.8224L499.978 67.3462C499.575 67.4531 499.161 67.3416 498.892 67.0535C498.623 66.7655 498.541 66.3447 498.676 65.9498L499.336 64.0146L497.36 64.5386C496.956 64.6454 496.542 64.534 496.274 64.246C496.005 63.958 495.923 63.5371 496.058 63.1422L496.718 61.2069L494.742 61.7309C494.118 61.8961 493.516 61.5358 493.396 60.9265C493.277 60.3169 493.686 59.6887 494.309 59.5234L498.242 58.4812C498.645 58.3743 499.059 58.4857 499.328 58.7738C499.596 59.0617 499.678 59.4826 499.544 59.8775L498.883 61.8128L500.86 61.2888C501.263 61.182 501.677 61.2934 501.946 61.5814C502.214 61.8695 502.297 62.2903 502.162 62.6852L501.501 64.6203L503.478 64.0965C503.881 63.9897 504.295 64.1011 504.564 64.3891C504.833 64.6772 504.915 65.0979 504.78 65.4929L503.466 69.3432C503.258 69.9537 502.603 70.3176 502.003 70.156C501.805 70.1027 501.638 69.9991 501.511 69.8623Z" fill="white"/>
<g opacity="0.15">
<path d="M495.06 56.5961C494.644 56.1507 494.697 55.4266 495.178 54.9786C499.139 51.2842 502.913 49.6742 506.562 48.117C510.238 46.5482 514.039 44.9262 518.177 41.0677C518.657 40.6197 519.383 40.6176 519.799 41.0629C520.214 41.5082 520.161 42.2324 519.681 42.6803C515.216 46.8439 511.207 48.5548 507.33 50.2089C503.723 51.7481 500.316 53.2021 496.681 56.5912C496.201 57.0392 495.475 57.0414 495.06 56.5961Z" fill="#235D67"/>
<path d="M506.437 68.7977C506.022 68.3524 506.075 67.6283 506.555 67.1803C510.19 63.7914 511.878 60.4939 513.665 57.0028C515.586 53.2508 517.572 49.3709 522.037 45.2074C522.517 44.7594 523.243 44.7572 523.659 45.2025C524.074 45.6479 524.021 46.372 523.541 46.82C519.403 50.6782 517.52 54.3571 515.698 57.9153C513.89 61.4468 512.021 65.0986 508.059 68.7929C507.579 69.2408 506.853 69.2429 506.437 68.7977Z" fill="#235D67"/>
</g>
<path opacity="0.1" d="M493.286 48.6877C500.788 41.6922 508.377 44.2085 514.66 41.0106L524.508 51.5713C524.927 50.8404 525.441 50.166 526.093 49.558L515.622 38.33C510.21 43.377 500.94 38.6867 491.12 47.8438C483.526 54.9257 482.691 66.3735 489.256 73.4132C491.161 75.456 493.48 76.9017 495.997 77.7539C494.368 76.9122 492.73 75.6606 491.421 74.2574C484.857 67.2174 485.692 55.7696 493.286 48.6877Z" fill="#0E6271"/>
<path opacity="0.3" d="M521.451 62.7058C521.418 62.6698 521.388 62.6325 521.355 62.5968C517.988 58.9863 512.101 59.0038 508.206 62.636C504.311 66.2682 503.883 72.1395 507.25 75.7501C507.774 76.3119 508.359 76.7856 508.987 77.1718C511.096 76.2861 513.103 75.008 514.895 73.3375C518.732 69.759 520.454 66.1168 521.451 62.7058Z" fill="white"/>
<path opacity="0.3" d="M497.33 74.2049C498.291 75.2352 499.971 75.2302 501.082 74.1937C502.194 73.1573 502.316 71.4819 501.355 70.4516C500.394 69.4214 498.715 69.4264 497.603 70.4628C496.492 71.4992 496.37 73.1746 497.33 74.2049Z" fill="white"/>
<path d="M531.346 34.1626C532.566 35.4712 534.7 35.4648 536.112 34.1485C537.523 32.8321 537.678 30.7042 536.458 29.3957C535.238 28.0871 533.104 28.0935 531.693 29.4099C530.281 30.7262 530.126 32.8541 531.346 34.1626Z" fill="#7E858B"/>
<path opacity="0.1" d="M537.148 30.6106C536.574 30.632 535.991 30.8592 535.523 31.2962C534.541 32.212 534.433 33.6923 535.282 34.6027C535.31 34.6329 535.34 34.6594 535.37 34.6877C535.631 34.5427 535.881 34.3636 536.111 34.1492C537.139 33.1903 537.5 31.8006 537.148 30.6106Z" fill="white"/>
<path d="M521.825 43.0396C524.764 46.1905 529.901 46.1752 533.3 43.0055C536.699 39.8358 537.073 34.7119 534.135 31.5611C531.196 28.4102 526.059 28.4255 522.66 31.5952C519.261 34.7649 518.887 39.8888 521.825 43.0396Z" fill="#394049"/>
<path opacity="0.1" d="M535.567 33.8095C534.395 33.9776 533.239 34.5079 532.282 35.4002C529.934 37.5902 529.676 41.1303 531.706 43.3072C531.885 43.4992 532.076 43.6732 532.277 43.8312C532.632 43.5846 532.976 43.3097 533.303 43.0048C535.976 40.5117 536.777 36.8097 535.567 33.8095Z" fill="white"/>
<path d="M533.986 43.74L521.976 30.8609C521.339 30.1775 520.225 30.1808 519.488 30.8683L515.033 35.0219C514.296 35.7094 514.215 36.8206 514.852 37.504L526.862 50.3831C527.5 51.0665 528.614 51.0631 529.351 50.3757L533.805 46.222C534.543 45.5345 534.624 44.4234 533.986 43.74Z" fill="#7E858B"/>
<path opacity="0.1" d="M528.253 50.3793L516.243 37.5002C515.606 36.8168 515.687 35.7056 516.424 35.0181L520.878 30.8645C521.053 30.7016 521.249 30.5786 521.455 30.4925C520.832 30.2192 520.051 30.344 519.488 30.8686L515.034 35.0222C514.297 35.7097 514.216 36.8209 514.853 37.5043L526.863 50.3834C527.349 50.9049 528.113 51.0253 528.775 50.748C528.582 50.6631 528.404 50.5412 528.253 50.3793Z" fill="black"/>
<path opacity="0.2" d="M532.448 47.4864L518.131 32.1331L516.392 33.7552L530.709 49.1086L532.448 47.4864Z" fill="black"/>
<path opacity="0.1" d="M533.987 43.7395L530.973 40.5083C530.762 40.6551 530.557 40.8188 530.363 41.0004C528.339 42.8878 528.116 45.9392 529.866 47.8156C530.229 48.2055 530.65 48.5126 531.106 48.7398L533.806 46.2218C534.543 45.5341 534.624 44.4229 533.987 43.7395Z" fill="white"/>
<path d="M488.304 45.9893L484.481 41.8895C484.066 41.4442 484.119 40.72 484.599 40.2721C485.079 39.8241 485.805 39.8219 486.221 40.2672L490.044 44.3671C490.459 44.8124 490.406 45.5365 489.926 45.9845C489.445 46.4324 488.719 46.4347 488.304 45.9893Z" fill="#E45D4C"/>
<path d="M475.059 61.2136C474.866 61.0073 474.759 60.7218 474.782 60.4059C474.828 59.7743 475.379 59.2607 476.012 59.259L481.843 59.2416C482.476 59.2398 482.952 59.7502 482.906 60.3818C482.86 61.0135 482.309 61.527 481.676 61.5288L475.845 61.5461C475.529 61.5472 475.251 61.4199 475.059 61.2136Z" fill="#E45D4C"/>
<path d="M481.665 80.4905C481.25 80.0451 481.303 79.321 481.783 78.873L486.206 74.7486C486.686 74.3007 487.412 74.2985 487.828 74.7438C488.243 75.1891 488.19 75.9133 487.71 76.3612L483.287 80.4856C482.806 80.9336 482.08 80.9358 481.665 80.4905Z" fill="#E45D4C"/>
<path d="M500.435 88.4271C500.243 88.2208 500.135 87.9353 500.158 87.6194L500.582 81.804C500.628 81.1724 501.179 80.6588 501.812 80.6571C502.446 80.6552 502.922 81.1658 502.875 81.7972L502.451 87.6126C502.405 88.2442 501.855 88.7577 501.221 88.7595C500.905 88.7607 500.628 88.6335 500.435 88.4271Z" fill="#E45D4C"/>
<path d="M520.369 80.3751L516.545 76.2752C516.13 75.8299 516.183 75.1058 516.663 74.6578C517.144 74.2098 517.87 74.2077 518.285 74.653L522.108 78.7528C522.524 79.1981 522.471 79.9223 521.99 80.3703C521.51 80.8181 520.784 80.8203 520.369 80.3751Z" fill="#E45D4C"/>
</g>
<defs>
<filter id="filter0_bi_0_1" x="-3.40344" y="13.9523" width="582.045" height="385.045" filterUnits="userSpaceOnUse" color-interpolation-filters="sRGB">
<feFlood flood-opacity="0" result="BackgroundImageFix"/>
<feGaussianBlur in="BackgroundImageFix" stdDeviation="5.26117"/>
<feComposite in2="SourceAlpha" operator="in" result="effect1_backgroundBlur_0_1"/>
<feBlend mode="normal" in="SourceGraphic" in2="effect1_backgroundBlur_0_1" result="shape"/>
<feColorMatrix in="SourceAlpha" type="matrix" values="0 0 0 0 0 0 0 0 0 0 0 0 0 0 0 0 0 0 127 0" result="hardAlpha"/>
<feOffset dy="1.68357"/>
<feGaussianBlur stdDeviation="8.41787"/>
<feComposite in2="hardAlpha" operator="arithmetic" k2="-1" k3="1"/>
<feColorMatrix type="matrix" values="0 0 0 0 1 0 0 0 0 1 0 0 0 0 1 0 0 0 0.35 0"/>
<feBlend mode="normal" in2="shape" result="effect2_innerShadow_0_1"/>
</filter>
<filter id="filter1_df_0_1" x="0.484316" y="0.48395" width="528.033" height="114.033" filterUnits="userSpaceOnUse" color-interpolation-filters="sRGB">
<feFlood flood-opacity="0" result="BackgroundImageFix"/>
<feColorMatrix in="SourceAlpha" type="matrix" values="0 0 0 0 0 0 0 0 0 0 0 0 0 0 0 0 0 0 127 0" result="hardAlpha"/>
<feOffset dy="12.6268"/>
<feGaussianBlur stdDeviation="2.08342"/>
<feComposite in2="hardAlpha" operator="out"/>
<feColorMatrix type="matrix" values="0 0 0 0 0 0 0 0 0 0 0 0 0 0 0 0 0 0 0.25 0"/>
<feBlend mode="normal" in2="BackgroundImageFix" result="effect1_dropShadow_0_1"/>
<feBlend mode="normal" in="SourceGraphic" in2="effect1_dropShadow_0_1" result="shape"/>
<feGaussianBlur stdDeviation="13.2581" result="effect2_foregroundBlur_0_1"/>
</filter>
<linearGradient id="paint0_linear_0_1" x1="27.0006" y1="21.9877" x2="44.2145" y2="237.242" gradientUnits="userSpaceOnUse">
<stop offset="0.263157" stop-color="#ECFDFF"/>
<stop offset="0.493168" stop-color="#20505A"/>
<stop offset="1" stop-color="#0B414A"/>
</linearGradient>
<clipPath id="clip0_0_1">
<rect width="69.4474" height="74.9191" fill="white" transform="translate(512.776 4) rotate(47)"/>
</clipPath>
</defs>
</svg>
