<svg width="162" height="41" viewBox="0 0 162 41" fill="none" xmlns="http://www.w3.org/2000/svg">
<rect x="1.2" y="1.2" width="155.6" height="38.6" rx="6.8" fill="url(#paint0_linear_0_1)"/>
<rect x="1.2" y="1.2" width="155.6" height="38.6" rx="6.8" stroke="#BFA7A7" stroke-width="1.6"/>
<rect x="1.2" y="1.2" width="155.6" height="38.6" rx="6.8" stroke="black" stroke-opacity="0.2" stroke-width="1.6"/>
<path d="M31.4013 15.8182V26H29.5419L25.1122 19.5916H25.0376V26H22.8849V15.8182H24.7741L29.169 22.2216H29.2585V15.8182H31.4013ZM33.1799 26V15.8182H40.0407V17.593H35.3326V20.0192H39.6877V21.794H35.3326V24.2251H40.0605V26H33.1799ZM44.044 26L41.1307 15.8182H43.4822L45.1676 22.8928H45.2521L47.1115 15.8182H49.125L50.9794 22.9077H51.0689L52.7543 15.8182H55.1058L52.1925 26H50.0945L48.1555 19.343H48.076L46.142 26H44.044ZM59.4982 26V15.8182H61.6509V24.2251H66.016V26H59.4982ZM69.5943 15.8182V26H67.4416V15.8182H69.5943ZM80.3491 19.3828H78.1715C78.1317 19.1011 78.0505 18.8509 77.9279 18.6321C77.8053 18.41 77.6478 18.2211 77.4556 18.0653C77.2634 17.9096 77.0413 17.7902 76.7894 17.7074C76.5408 17.6245 76.2707 17.5831 75.979 17.5831C75.4521 17.5831 74.993 17.714 74.6019 17.9759C74.2108 18.2344 73.9076 18.6122 73.6921 19.1094C73.4767 19.6032 73.369 20.2031 73.369 20.9091C73.369 21.6349 73.4767 22.2448 73.6921 22.7386C73.9109 23.2325 74.2158 23.6054 74.6069 23.8572C74.998 24.1091 75.4504 24.2351 75.9641 24.2351C76.2525 24.2351 76.5193 24.197 76.7646 24.1207C77.0131 24.0445 77.2335 23.9335 77.4258 23.7876C77.618 23.6385 77.7771 23.4579 77.9031 23.2457C78.0323 23.0336 78.1218 22.7917 78.1715 22.5199L80.3491 22.5298C80.2927 22.9972 80.1519 23.4479 79.9265 23.8821C79.7044 24.313 79.4045 24.6991 79.0266 25.0405C78.6521 25.3786 78.2047 25.647 77.6843 25.8459C77.1673 26.0414 76.5823 26.1392 75.9293 26.1392C75.0212 26.1392 74.2092 25.9337 73.4933 25.5227C72.7807 25.1117 72.2172 24.5168 71.8029 23.7379C71.3919 22.959 71.1864 22.0161 71.1864 20.9091C71.1864 19.7988 71.3952 18.8542 71.8129 18.0753C72.2305 17.2964 72.7972 16.7031 73.5131 16.2955C74.229 15.8845 75.0344 15.679 75.9293 15.679C76.5193 15.679 77.0662 15.7618 77.57 15.9276C78.0771 16.0933 78.5262 16.3352 78.9173 16.6534C79.3084 16.9683 79.6265 17.3544 79.8718 17.8118C80.1204 18.2692 80.2795 18.7929 80.3491 19.3828ZM81.8928 26V15.8182H88.7536V17.593H84.0455V20.0192H88.4006V21.794H84.0455V24.2251H88.7734V26H81.8928ZM98.9814 15.8182V26H97.122L92.6923 19.5916H92.6177V26H90.465V15.8182H92.3542L96.7491 22.2216H96.8386V15.8182H98.9814ZM106.283 18.7464C106.244 18.3454 106.073 18.0339 105.771 17.8118C105.47 17.5897 105.06 17.4787 104.543 17.4787C104.192 17.4787 103.895 17.5284 103.653 17.6278C103.411 17.724 103.226 17.8582 103.097 18.0305C102.971 18.2029 102.908 18.3984 102.908 18.6172C102.901 18.7995 102.939 18.9586 103.022 19.0945C103.108 19.2304 103.226 19.348 103.375 19.4474C103.524 19.5436 103.696 19.6281 103.892 19.701C104.088 19.7706 104.296 19.8303 104.518 19.88L105.433 20.0987C105.877 20.1982 106.285 20.3307 106.656 20.4964C107.027 20.6622 107.349 20.866 107.621 21.108C107.893 21.3499 108.103 21.6349 108.252 21.9631C108.405 22.2912 108.482 22.6674 108.486 23.0916C108.482 23.7147 108.323 24.255 108.009 24.7124C107.697 25.1664 107.246 25.5194 106.656 25.7713C106.07 26.0199 105.362 26.1442 104.533 26.1442C103.711 26.1442 102.996 26.0182 102.386 25.7663C101.779 25.5144 101.305 25.1416 100.964 24.6477C100.626 24.1506 100.448 23.5357 100.432 22.8033H102.515C102.538 23.1446 102.636 23.4297 102.808 23.6584C102.984 23.8838 103.218 24.0545 103.509 24.1705C103.804 24.2831 104.137 24.3395 104.509 24.3395C104.873 24.3395 105.19 24.2865 105.458 24.1804C105.73 24.0743 105.94 23.9268 106.089 23.7379C106.239 23.549 106.313 23.3319 106.313 23.0866C106.313 22.858 106.245 22.6657 106.109 22.5099C105.977 22.3542 105.781 22.2216 105.523 22.1122C105.268 22.0028 104.954 21.9034 104.583 21.8139L103.474 21.5355C102.616 21.3267 101.938 21.0002 101.441 20.5561C100.944 20.112 100.697 19.5137 100.7 18.7614C100.697 18.1449 100.861 17.6063 101.192 17.1456C101.527 16.6849 101.986 16.3253 102.57 16.0668C103.153 15.8082 103.816 15.679 104.558 15.679C105.314 15.679 105.973 15.8082 106.537 16.0668C107.104 16.3253 107.545 16.6849 107.859 17.1456C108.174 17.6063 108.337 18.1399 108.347 18.7464H106.283ZM109.934 26V15.8182H116.795V17.593H112.086V20.0192H116.442V21.794H112.086V24.2251H116.814V26H109.934Z" fill="white"/>
<rect x="2.2" y="1.2" width="155.6" height="38.6" rx="6.8" fill="url(#paint1_linear_0_1)"/>
<rect x="2.2" y="1.2" width="155.6" height="38.6" rx="6.8" stroke="#BFA7A7" stroke-width="1.6"/>
<rect x="2.2" y="1.2" width="155.6" height="38.6" rx="6.8" stroke="black" stroke-opacity="0.2" stroke-width="1.6"/>
<path d="M32.4013 15.8182V26H30.5419L26.1122 19.5916H26.0376V26H23.8849V15.8182H25.7741L30.169 22.2216H30.2585V15.8182H32.4013ZM34.1799 26V15.8182H41.0407V17.593H36.3326V20.0192H40.6877V21.794H36.3326V24.2251H41.0605V26H34.1799ZM45.044 26L42.1307 15.8182H44.4822L46.1676 22.8928H46.2521L48.1115 15.8182H50.125L51.9794 22.9077H52.0689L53.7543 15.8182H56.1058L53.1925 26H51.0945L49.1555 19.343H49.076L47.142 26H45.044ZM60.4982 26V15.8182H62.6509V24.2251H67.016V26H60.4982ZM70.5943 15.8182V26H68.4416V15.8182H70.5943ZM81.3491 19.3828H79.1715C79.1317 19.1011 79.0505 18.8509 78.9279 18.6321C78.8053 18.41 78.6478 18.2211 78.4556 18.0653C78.2634 17.9096 78.0413 17.7902 77.7894 17.7074C77.5408 17.6245 77.2707 17.5831 76.979 17.5831C76.4521 17.5831 75.993 17.714 75.6019 17.9759C75.2108 18.2344 74.9076 18.6122 74.6921 19.1094C74.4767 19.6032 74.369 20.2031 74.369 20.9091C74.369 21.6349 74.4767 22.2448 74.6921 22.7386C74.9109 23.2325 75.2158 23.6054 75.6069 23.8572C75.998 24.1091 76.4504 24.2351 76.9641 24.2351C77.2525 24.2351 77.5193 24.197 77.7646 24.1207C78.0131 24.0445 78.2335 23.9335 78.4258 23.7876C78.618 23.6385 78.7771 23.4579 78.9031 23.2457C79.0323 23.0336 79.1218 22.7917 79.1715 22.5199L81.3491 22.5298C81.2927 22.9972 81.1519 23.4479 80.9265 23.8821C80.7044 24.313 80.4045 24.6991 80.0266 25.0405C79.6521 25.3786 79.2047 25.647 78.6843 25.8459C78.1673 26.0414 77.5823 26.1392 76.9293 26.1392C76.0212 26.1392 75.2092 25.9337 74.4933 25.5227C73.7807 25.1117 73.2172 24.5168 72.8029 23.7379C72.3919 22.959 72.1864 22.0161 72.1864 20.9091C72.1864 19.7988 72.3952 18.8542 72.8129 18.0753C73.2305 17.2964 73.7972 16.7031 74.5131 16.2955C75.229 15.8845 76.0344 15.679 76.9293 15.679C77.5193 15.679 78.0662 15.7618 78.57 15.9276C79.0771 16.0933 79.5262 16.3352 79.9173 16.6534C80.3084 16.9683 80.6265 17.3544 80.8718 17.8118C81.1204 18.2692 81.2795 18.7929 81.3491 19.3828ZM82.8928 26V15.8182H89.7536V17.593H85.0455V20.0192H89.4006V21.794H85.0455V24.2251H89.7734V26H82.8928ZM99.9814 15.8182V26H98.122L93.6923 19.5916H93.6177V26H91.465V15.8182H93.3542L97.7491 22.2216H97.8386V15.8182H99.9814ZM107.283 18.7464C107.244 18.3454 107.073 18.0339 106.771 17.8118C106.47 17.5897 106.06 17.4787 105.543 17.4787C105.192 17.4787 104.895 17.5284 104.653 17.6278C104.411 17.724 104.226 17.8582 104.097 18.0305C103.971 18.2029 103.908 18.3984 103.908 18.6172C103.901 18.7995 103.939 18.9586 104.022 19.0945C104.108 19.2304 104.226 19.348 104.375 19.4474C104.524 19.5436 104.696 19.6281 104.892 19.701C105.088 19.7706 105.296 19.8303 105.518 19.88L106.433 20.0987C106.877 20.1982 107.285 20.3307 107.656 20.4964C108.027 20.6622 108.349 20.866 108.621 21.108C108.893 21.3499 109.103 21.6349 109.252 21.9631C109.405 22.2912 109.482 22.6674 109.486 23.0916C109.482 23.7147 109.323 24.255 109.009 24.7124C108.697 25.1664 108.246 25.5194 107.656 25.7713C107.07 26.0199 106.362 26.1442 105.533 26.1442C104.711 26.1442 103.996 26.0182 103.386 25.7663C102.779 25.5144 102.305 25.1416 101.964 24.6477C101.626 24.1506 101.448 23.5357 101.432 22.8033H103.515C103.538 23.1446 103.636 23.4297 103.808 23.6584C103.984 23.8838 104.218 24.0545 104.509 24.1705C104.804 24.2831 105.137 24.3395 105.509 24.3395C105.873 24.3395 106.19 24.2865 106.458 24.1804C106.73 24.0743 106.94 23.9268 107.089 23.7379C107.239 23.549 107.313 23.3319 107.313 23.0866C107.313 22.858 107.245 22.6657 107.109 22.5099C106.977 22.3542 106.781 22.2216 106.523 22.1122C106.268 22.0028 105.954 21.9034 105.583 21.8139L104.474 21.5355C103.616 21.3267 102.938 21.0002 102.441 20.5561C101.944 20.112 101.697 19.5137 101.7 18.7614C101.697 18.1449 101.861 17.6063 102.192 17.1456C102.527 16.6849 102.986 16.3253 103.57 16.0668C104.153 15.8082 104.816 15.679 105.558 15.679C106.314 15.679 106.973 15.8082 107.537 16.0668C108.104 16.3253 108.545 16.6849 108.859 17.1456C109.174 17.6063 109.337 18.1399 109.347 18.7464H107.283ZM110.934 26V15.8182H117.795V17.593H113.086V20.0192H117.442V21.794H113.086V24.2251H117.814V26H110.934Z" fill="white"/>
<rect x="2.2" y="1.2" width="158.6" height="38.6" rx="6.8" fill="url(#paint2_linear_0_1)"/>
<rect x="2.2" y="1.2" width="158.6" height="38.6" rx="6.8" stroke="#BFA7A7" stroke-width="1.6"/>
<rect x="2.2" y="1.2" width="158.6" height="38.6" rx="6.8" stroke="black" stroke-opacity="0.2" stroke-width="1.6"/>
<path d="M32.4013 15.8182V26H30.5419L26.1122 19.5916H26.0376V26H23.8849V15.8182H25.7741L30.169 22.2216H30.2585V15.8182H32.4013ZM34.1799 26V15.8182H41.0407V17.593H36.3326V20.0192H40.6877V21.794H36.3326V24.2251H41.0605V26H34.1799ZM45.044 26L42.1307 15.8182H44.4822L46.1676 22.8928H46.2521L48.1115 15.8182H50.125L51.9794 22.9077H52.0689L53.7543 15.8182H56.1058L53.1925 26H51.0945L49.1555 19.343H49.076L47.142 26H45.044ZM60.4982 26V15.8182H62.6509V24.2251H67.016V26H60.4982ZM70.5943 15.8182V26H68.4416V15.8182H70.5943ZM81.3491 19.3828H79.1715C79.1317 19.1011 79.0505 18.8509 78.9279 18.6321C78.8053 18.41 78.6478 18.2211 78.4556 18.0653C78.2634 17.9096 78.0413 17.7902 77.7894 17.7074C77.5408 17.6245 77.2707 17.5831 76.979 17.5831C76.4521 17.5831 75.993 17.714 75.6019 17.9759C75.2108 18.2344 74.9076 18.6122 74.6921 19.1094C74.4767 19.6032 74.369 20.2031 74.369 20.9091C74.369 21.6349 74.4767 22.2448 74.6921 22.7386C74.9109 23.2325 75.2158 23.6054 75.6069 23.8572C75.998 24.1091 76.4504 24.2351 76.9641 24.2351C77.2525 24.2351 77.5193 24.197 77.7646 24.1207C78.0131 24.0445 78.2335 23.9335 78.4258 23.7876C78.618 23.6385 78.7771 23.4579 78.9031 23.2457C79.0323 23.0336 79.1218 22.7917 79.1715 22.5199L81.3491 22.5298C81.2927 22.9972 81.1519 23.4479 80.9265 23.8821C80.7044 24.313 80.4045 24.6991 80.0266 25.0405C79.6521 25.3786 79.2047 25.647 78.6843 25.8459C78.1673 26.0414 77.5823 26.1392 76.9293 26.1392C76.0212 26.1392 75.2092 25.9337 74.4933 25.5227C73.7807 25.1117 73.2172 24.5168 72.8029 23.7379C72.3919 22.959 72.1864 22.0161 72.1864 20.9091C72.1864 19.7988 72.3952 18.8542 72.8129 18.0753C73.2305 17.2964 73.7972 16.7031 74.5131 16.2955C75.229 15.8845 76.0344 15.679 76.9293 15.679C77.5193 15.679 78.0662 15.7618 78.57 15.9276C79.0771 16.0933 79.5262 16.3352 79.9173 16.6534C80.3084 16.9683 80.6265 17.3544 80.8718 17.8118C81.1204 18.2692 81.2795 18.7929 81.3491 19.3828ZM82.8928 26V15.8182H89.7536V17.593H85.0455V20.0192H89.4006V21.794H85.0455V24.2251H89.7734V26H82.8928ZM99.9814 15.8182V26H98.122L93.6923 19.5916H93.6177V26H91.465V15.8182H93.3542L97.7491 22.2216H97.8386V15.8182H99.9814ZM107.283 18.7464C107.244 18.3454 107.073 18.0339 106.771 17.8118C106.47 17.5897 106.06 17.4787 105.543 17.4787C105.192 17.4787 104.895 17.5284 104.653 17.6278C104.411 17.724 104.226 17.8582 104.097 18.0305C103.971 18.2029 103.908 18.3984 103.908 18.6172C103.901 18.7995 103.939 18.9586 104.022 19.0945C104.108 19.2304 104.226 19.348 104.375 19.4474C104.524 19.5436 104.696 19.6281 104.892 19.701C105.088 19.7706 105.296 19.8303 105.518 19.88L106.433 20.0987C106.877 20.1982 107.285 20.3307 107.656 20.4964C108.027 20.6622 108.349 20.866 108.621 21.108C108.893 21.3499 109.103 21.6349 109.252 21.9631C109.405 22.2912 109.482 22.6674 109.486 23.0916C109.482 23.7147 109.323 24.255 109.009 24.7124C108.697 25.1664 108.246 25.5194 107.656 25.7713C107.07 26.0199 106.362 26.1442 105.533 26.1442C104.711 26.1442 103.996 26.0182 103.386 25.7663C102.779 25.5144 102.305 25.1416 101.964 24.6477C101.626 24.1506 101.448 23.5357 101.432 22.8033H103.515C103.538 23.1446 103.636 23.4297 103.808 23.6584C103.984 23.8838 104.218 24.0545 104.509 24.1705C104.804 24.2831 105.137 24.3395 105.509 24.3395C105.873 24.3395 106.19 24.2865 106.458 24.1804C106.73 24.0743 106.94 23.9268 107.089 23.7379C107.239 23.549 107.313 23.3319 107.313 23.0866C107.313 22.858 107.245 22.6657 107.109 22.5099C106.977 22.3542 106.781 22.2216 106.523 22.1122C106.268 22.0028 105.954 21.9034 105.583 21.8139L104.474 21.5355C103.616 21.3267 102.938 21.0002 102.441 20.5561C101.944 20.112 101.697 19.5137 101.7 18.7614C101.697 18.1449 101.861 17.6063 102.192 17.1456C102.527 16.6849 102.986 16.3253 103.57 16.0668C104.153 15.8082 104.816 15.679 105.558 15.679C106.314 15.679 106.973 15.8082 107.537 16.0668C108.104 16.3253 108.545 16.6849 108.859 17.1456C109.174 17.6063 109.337 18.1399 109.347 18.7464H107.283ZM110.934 26V15.8182H117.795V17.593H113.086V20.0192H117.442V21.794H113.086V24.2251H117.814V26H110.934Z" fill="white"/>
<rect x="3.2" y="1.2" width="155.6" height="38.6" rx="6.8" fill="url(#paint3_linear_0_1)"/>
<rect x="3.2" y="1.2" width="155.6" height="38.6" rx="6.8" stroke="#BFA7A7" stroke-width="1.6"/>
<rect x="3.2" y="1.2" width="155.6" height="38.6" rx="6.8" stroke="black" stroke-opacity="0.2" stroke-width="1.6"/>
<path d="M33.4013 15.8182V26H31.5419L27.1122 19.5916H27.0376V26H24.8849V15.8182H26.7741L31.169 22.2216H31.2585V15.8182H33.4013ZM35.1799 26V15.8182H42.0407V17.593H37.3326V20.0192H41.6877V21.794H37.3326V24.2251H42.0605V26H35.1799ZM46.044 26L43.1307 15.8182H45.4822L47.1676 22.8928H47.2521L49.1115 15.8182H51.125L52.9794 22.9077H53.0689L54.7543 15.8182H57.1058L54.1925 26H52.0945L50.1555 19.343H50.076L48.142 26H46.044ZM61.4982 26V15.8182H63.6509V24.2251H68.016V26H61.4982ZM71.5943 15.8182V26H69.4416V15.8182H71.5943ZM82.3491 19.3828H80.1715C80.1317 19.1011 80.0505 18.8509 79.9279 18.6321C79.8053 18.41 79.6478 18.2211 79.4556 18.0653C79.2634 17.9096 79.0413 17.7902 78.7894 17.7074C78.5408 17.6245 78.2707 17.5831 77.979 17.5831C77.4521 17.5831 76.993 17.714 76.6019 17.9759C76.2108 18.2344 75.9076 18.6122 75.6921 19.1094C75.4767 19.6032 75.369 20.2031 75.369 20.9091C75.369 21.6349 75.4767 22.2448 75.6921 22.7386C75.9109 23.2325 76.2158 23.6054 76.6069 23.8572C76.998 24.1091 77.4504 24.2351 77.9641 24.2351C78.2525 24.2351 78.5193 24.197 78.7646 24.1207C79.0131 24.0445 79.2335 23.9335 79.4258 23.7876C79.618 23.6385 79.7771 23.4579 79.9031 23.2457C80.0323 23.0336 80.1218 22.7917 80.1715 22.5199L82.3491 22.5298C82.2927 22.9972 82.1519 23.4479 81.9265 23.8821C81.7044 24.313 81.4045 24.6991 81.0266 25.0405C80.6521 25.3786 80.2047 25.647 79.6843 25.8459C79.1673 26.0414 78.5823 26.1392 77.9293 26.1392C77.0212 26.1392 76.2092 25.9337 75.4933 25.5227C74.7807 25.1117 74.2172 24.5168 73.8029 23.7379C73.3919 22.959 73.1864 22.0161 73.1864 20.9091C73.1864 19.7988 73.3952 18.8542 73.8129 18.0753C74.2305 17.2964 74.7972 16.7031 75.5131 16.2955C76.229 15.8845 77.0344 15.679 77.9293 15.679C78.5193 15.679 79.0662 15.7618 79.57 15.9276C80.0771 16.0933 80.5262 16.3352 80.9173 16.6534C81.3084 16.9683 81.6265 17.3544 81.8718 17.8118C82.1204 18.2692 82.2795 18.7929 82.3491 19.3828ZM83.8928 26V15.8182H90.7536V17.593H86.0455V20.0192H90.4006V21.794H86.0455V24.2251H90.7734V26H83.8928ZM100.981 15.8182V26H99.122L94.6923 19.5916H94.6177V26H92.465V15.8182H94.3542L98.7491 22.2216H98.8386V15.8182H100.981ZM108.283 18.7464C108.244 18.3454 108.073 18.0339 107.771 17.8118C107.47 17.5897 107.06 17.4787 106.543 17.4787C106.192 17.4787 105.895 17.5284 105.653 17.6278C105.411 17.724 105.226 17.8582 105.097 18.0305C104.971 18.2029 104.908 18.3984 104.908 18.6172C104.901 18.7995 104.939 18.9586 105.022 19.0945C105.108 19.2304 105.226 19.348 105.375 19.4474C105.524 19.5436 105.696 19.6281 105.892 19.701C106.088 19.7706 106.296 19.8303 106.518 19.88L107.433 20.0987C107.877 20.1982 108.285 20.3307 108.656 20.4964C109.027 20.6622 109.349 20.866 109.621 21.108C109.893 21.3499 110.103 21.6349 110.252 21.9631C110.405 22.2912 110.482 22.6674 110.486 23.0916C110.482 23.7147 110.323 24.255 110.009 24.7124C109.697 25.1664 109.246 25.5194 108.656 25.7713C108.07 26.0199 107.362 26.1442 106.533 26.1442C105.711 26.1442 104.996 26.0182 104.386 25.7663C103.779 25.5144 103.305 25.1416 102.964 24.6477C102.626 24.1506 102.448 23.5357 102.432 22.8033H104.515C104.538 23.1446 104.636 23.4297 104.808 23.6584C104.984 23.8838 105.218 24.0545 105.509 24.1705C105.804 24.2831 106.137 24.3395 106.509 24.3395C106.873 24.3395 107.19 24.2865 107.458 24.1804C107.73 24.0743 107.94 23.9268 108.089 23.7379C108.239 23.549 108.313 23.3319 108.313 23.0866C108.313 22.858 108.245 22.6657 108.109 22.5099C107.977 22.3542 107.781 22.2216 107.523 22.1122C107.268 22.0028 106.954 21.9034 106.583 21.8139L105.474 21.5355C104.616 21.3267 103.938 21.0002 103.441 20.5561C102.944 20.112 102.697 19.5137 102.7 18.7614C102.697 18.1449 102.861 17.6063 103.192 17.1456C103.527 16.6849 103.986 16.3253 104.57 16.0668C105.153 15.8082 105.816 15.679 106.558 15.679C107.314 15.679 107.973 15.8082 108.537 16.0668C109.104 16.3253 109.545 16.6849 109.859 17.1456C110.174 17.6063 110.337 18.1399 110.347 18.7464H108.283ZM111.934 26V15.8182H118.795V17.593H114.086V20.0192H118.442V21.794H114.086V24.2251H118.814V26H111.934Z" fill="white"/>
<rect x="1.2" y="1.2" width="155.6" height="38.6" rx="6.8" fill="url(#paint4_linear_0_1)"/>
<rect x="1.2" y="1.2" width="155.6" height="38.6" rx="6.8" stroke="#BFA7A7" stroke-width="1.6"/>
<rect x="1.2" y="1.2" width="155.6" height="38.6" rx="6.8" stroke="black" stroke-opacity="0.2" stroke-width="1.6"/>
<mask id="path-10-outside-1_0_1" maskUnits="userSpaceOnUse" x="20" y="14" width="114" height="16" fill="black">
<rect fill="white" x="20" y="14" width="114" height="16"/>
<path d="M24.6399 26H22.3331L25.848 15.8182H28.6222L32.1321 26H29.8253L27.2749 18.1449H27.1953L24.6399 26ZM24.4957 21.9979H29.9446V23.6783H24.4957V21.9979ZM33.3178 28.8636V18.3636H35.4059V19.6463H35.5004C35.5932 19.4408 35.7274 19.232 35.9031 19.0199C36.082 18.8045 36.314 18.6255 36.5991 18.483C36.8874 18.3371 37.2454 18.2642 37.6729 18.2642C38.2298 18.2642 38.7435 18.41 39.2141 18.7017C39.6848 18.9901 40.061 19.4259 40.3427 20.0092C40.6244 20.5893 40.7653 21.3168 40.7653 22.1918C40.7653 23.0436 40.6277 23.7628 40.3526 24.3494C40.0808 24.9328 39.7096 25.3752 39.239 25.6768C38.7717 25.9751 38.248 26.1243 37.668 26.1243C37.257 26.1243 36.9073 26.0563 36.619 25.9205C36.3339 25.7846 36.1003 25.6139 35.918 25.4084C35.7357 25.1996 35.5965 24.9891 35.5004 24.777H35.4357V28.8636H33.3178ZM35.391 22.1818C35.391 22.6359 35.454 23.032 35.5799 23.37C35.7058 23.7081 35.8881 23.9716 36.1268 24.1605C36.3654 24.3461 36.6554 24.4389 36.9968 24.4389C37.3415 24.4389 37.6332 24.3445 37.8718 24.1555C38.1104 23.9633 38.2911 23.6982 38.4137 23.3601C38.5397 23.0187 38.6026 22.6259 38.6026 22.1818C38.6026 21.741 38.5413 21.3532 38.4187 21.0185C38.296 20.6837 38.1154 20.4219 37.8768 20.233C37.6381 20.044 37.3448 19.9496 36.9968 19.9496C36.6521 19.9496 36.3604 20.0407 36.1218 20.223C35.8865 20.4053 35.7058 20.6638 35.5799 20.9986C35.454 21.3333 35.391 21.7277 35.391 22.1818ZM42.1772 28.8636V18.3636H44.2653V19.6463H44.3597C44.4525 19.4408 44.5868 19.232 44.7624 19.0199C44.9414 18.8045 45.1734 18.6255 45.4585 18.483C45.7468 18.3371 46.1048 18.2642 46.5323 18.2642C47.0891 18.2642 47.6029 18.41 48.0735 18.7017C48.5442 18.9901 48.9203 19.4259 49.2021 20.0092C49.4838 20.5893 49.6246 21.3168 49.6246 22.1918C49.6246 23.0436 49.4871 23.7628 49.212 24.3494C48.9402 24.9328 48.569 25.3752 48.0984 25.6768C47.631 25.9751 47.1074 26.1243 46.5273 26.1243C46.1164 26.1243 45.7667 26.0563 45.4783 25.9205C45.1933 25.7846 44.9596 25.6139 44.7773 25.4084C44.5951 25.1996 44.4558 24.9891 44.3597 24.777H44.2951V28.8636H42.1772ZM44.2504 22.1818C44.2504 22.6359 44.3133 23.032 44.4393 23.37C44.5652 23.7081 44.7475 23.9716 44.9862 24.1605C45.2248 24.3461 45.5148 24.4389 45.8562 24.4389C46.2009 24.4389 46.4925 24.3445 46.7312 24.1555C46.9698 23.9633 47.1504 23.6982 47.2731 23.3601C47.399 23.0187 47.462 22.6259 47.462 22.1818C47.462 21.741 47.4007 21.3532 47.2781 21.0185C47.1554 20.6837 46.9748 20.4219 46.7362 20.233C46.4975 20.044 46.2042 19.9496 45.8562 19.9496C45.5115 19.9496 45.2198 20.0407 44.9812 20.223C44.7459 20.4053 44.5652 20.6638 44.4393 20.9986C44.3133 21.3333 44.2504 21.7277 44.2504 22.1818ZM53.1545 15.8182V26H51.0366V15.8182H53.1545ZM56.1586 28.8636C55.8901 28.8636 55.6382 28.8421 55.4029 28.799C55.1709 28.7592 54.9786 28.7079 54.8262 28.6449L55.3034 27.0639C55.552 27.1402 55.7757 27.1816 55.9746 27.1882C56.1768 27.1948 56.3508 27.1484 56.4966 27.049C56.6458 26.9496 56.7667 26.7805 56.8596 26.5419L56.9838 26.2188L54.2445 18.3636H56.4718L58.0527 23.9716H58.1323L59.7282 18.3636H61.9703L59.0023 26.8253C58.8598 27.2363 58.6659 27.5942 58.4206 27.8991C58.1787 28.2074 57.8721 28.4444 57.5009 28.6101C57.1297 28.7791 56.6822 28.8636 56.1586 28.8636ZM70.4009 18.3636V19.9545H65.6879V18.3636H70.4009ZM66.7667 26V17.8118C66.7667 17.2583 66.8744 16.7992 67.0898 16.4347C67.3086 16.0701 67.6069 15.7966 67.9847 15.6143C68.3626 15.4321 68.7918 15.3409 69.2724 15.3409C69.5972 15.3409 69.8938 15.3658 70.1623 15.4155C70.4341 15.4652 70.6362 15.5099 70.7688 15.5497L70.391 17.1406C70.3081 17.1141 70.2054 17.0893 70.0827 17.0661C69.9634 17.0429 69.8408 17.0312 69.7148 17.0312C69.4033 17.0312 69.1862 17.1042 69.0636 17.25C68.9409 17.3925 68.8796 17.593 68.8796 17.8516V26H66.7667ZM74.8716 26.1491C74.0994 26.1491 73.4315 25.9851 72.8681 25.657C72.3079 25.3255 71.8754 24.8648 71.5705 24.2749C71.2656 23.6816 71.1131 22.9938 71.1131 22.2116C71.1131 21.4228 71.2656 20.7334 71.5705 20.1435C71.8754 19.5502 72.3079 19.0895 72.8681 18.7614C73.4315 18.4299 74.0994 18.2642 74.8716 18.2642C75.6439 18.2642 76.3101 18.4299 76.8702 18.7614C77.4337 19.0895 77.8678 19.5502 78.1728 20.1435C78.4777 20.7334 78.6301 21.4228 78.6301 22.2116C78.6301 22.9938 78.4777 23.6816 78.1728 24.2749C77.8678 24.8648 77.4337 25.3255 76.8702 25.657C76.3101 25.9851 75.6439 26.1491 74.8716 26.1491ZM74.8816 24.5085C75.2329 24.5085 75.5262 24.4091 75.7615 24.2102C75.9969 24.008 76.1742 23.733 76.2935 23.3849C76.4161 23.0369 76.4775 22.6409 76.4775 22.1967C76.4775 21.7526 76.4161 21.3565 76.2935 21.0085C76.1742 20.6605 75.9969 20.3854 75.7615 20.1832C75.5262 19.9811 75.2329 19.88 74.8816 19.88C74.5269 19.88 74.2286 19.9811 73.9867 20.1832C73.748 20.3854 73.5674 20.6605 73.4448 21.0085C73.3255 21.3565 73.2658 21.7526 73.2658 22.1967C73.2658 22.6409 73.3255 23.0369 73.4448 23.3849C73.5674 23.733 73.748 24.008 73.9867 24.2102C74.2286 24.4091 74.5269 24.5085 74.8816 24.5085ZM80.0073 26V18.3636H82.0605V19.696H82.1401C82.2793 19.2221 82.513 18.8641 82.8411 18.6222C83.1692 18.3769 83.5471 18.2543 83.9746 18.2543C84.0807 18.2543 84.195 18.2609 84.3176 18.2741C84.4403 18.2874 84.548 18.3056 84.6408 18.3288V20.2081C84.5414 20.1783 84.4038 20.1518 84.2282 20.1286C84.0525 20.1054 83.8917 20.0938 83.7459 20.0938C83.4344 20.0938 83.156 20.1617 82.9107 20.2976C82.6687 20.4302 82.4765 20.6158 82.334 20.8544C82.1948 21.093 82.1252 21.3681 82.1252 21.6797V26H80.0073ZM89.0158 26V15.8182H93.0328C93.8051 15.8182 94.463 15.9657 95.0066 16.2607C95.5501 16.5523 95.9644 16.9583 96.2495 17.4787C96.5378 17.9957 96.682 18.5923 96.682 19.2685C96.682 19.9446 96.5362 20.5412 96.2445 21.0582C95.9528 21.5753 95.5302 21.978 94.9767 22.2663C94.4266 22.5547 93.7604 22.6989 92.9782 22.6989H90.4178V20.9737H92.6301C93.0444 20.9737 93.3858 20.9025 93.6543 20.7599C93.9261 20.6141 94.1283 20.4136 94.2608 20.1584C94.3967 19.8999 94.4647 19.6032 94.4647 19.2685C94.4647 18.9304 94.3967 18.6354 94.2608 18.3835C94.1283 18.1283 93.9261 17.9311 93.6543 17.7919C93.3825 17.6494 93.0378 17.5781 92.6202 17.5781H91.1685V26H89.0158ZM101.398 26.1491C100.612 26.1491 99.9359 25.9901 99.3691 25.6719C98.8057 25.3504 98.3715 24.8963 98.0666 24.3097C97.7617 23.7197 97.6092 23.022 97.6092 22.2166C97.6092 21.4311 97.7617 20.7417 98.0666 20.1484C98.3715 19.5552 98.8007 19.0928 99.3542 18.7614C99.911 18.4299 100.564 18.2642 101.313 18.2642C101.817 18.2642 102.286 18.3454 102.72 18.5078C103.157 18.6669 103.539 18.9072 103.863 19.2287C104.192 19.5502 104.447 19.9545 104.629 20.4418C104.811 20.9257 104.903 21.4924 104.903 22.142V22.7237H98.4544V21.4112H102.909C102.909 21.1063 102.843 20.8362 102.71 20.6009C102.577 20.3655 102.394 20.1816 102.158 20.049C101.926 19.9131 101.656 19.8452 101.348 19.8452C101.026 19.8452 100.741 19.9197 100.493 20.0689C100.247 20.2147 100.055 20.4119 99.916 20.6605C99.7768 20.9058 99.7056 21.1792 99.7022 21.4808V22.7287C99.7022 23.1065 99.7718 23.433 99.911 23.7081C100.054 23.9832 100.254 24.1953 100.513 24.3445C100.771 24.4936 101.078 24.5682 101.432 24.5682C101.668 24.5682 101.883 24.535 102.079 24.4688C102.274 24.4025 102.442 24.303 102.581 24.1705C102.72 24.0379 102.826 23.8755 102.899 23.6832L104.858 23.8125C104.758 24.2831 104.555 24.6941 104.246 25.0455C103.941 25.3935 103.547 25.6652 103.063 25.8608C102.582 26.053 102.027 26.1491 101.398 26.1491ZM106.285 26V18.3636H108.338V19.696H108.417C108.557 19.2221 108.79 18.8641 109.118 18.6222C109.447 18.3769 109.824 18.2543 110.252 18.2543C110.358 18.2543 110.472 18.2609 110.595 18.2741C110.718 18.2874 110.825 18.3056 110.918 18.3288V20.2081C110.819 20.1783 110.681 20.1518 110.506 20.1286C110.33 20.1054 110.169 20.0938 110.023 20.0938C109.712 20.0938 109.433 20.1617 109.188 20.2976C108.946 20.4302 108.754 20.6158 108.611 20.8544C108.472 21.093 108.403 21.3681 108.403 21.6797V26H106.285ZM112.013 26V18.3636H114.032V19.7109H114.121C114.28 19.2635 114.545 18.9105 114.917 18.652C115.288 18.3935 115.732 18.2642 116.249 18.2642C116.773 18.2642 117.218 18.3951 117.586 18.657C117.954 18.9155 118.199 19.2668 118.322 19.7109H118.402C118.557 19.2734 118.839 18.9238 119.247 18.6619C119.658 18.3968 120.143 18.2642 120.703 18.2642C121.416 18.2642 121.994 18.4912 122.439 18.9453C122.886 19.3961 123.11 20.0357 123.11 20.8643V26H120.997V21.282C120.997 20.8577 120.884 20.5395 120.659 20.3274C120.433 20.1153 120.152 20.0092 119.814 20.0092C119.429 20.0092 119.129 20.1319 118.914 20.3771C118.698 20.6191 118.591 20.9389 118.591 21.3366V26H116.537V21.2372C116.537 20.8627 116.43 20.5644 116.214 20.3423C116.002 20.1203 115.722 20.0092 115.374 20.0092C115.139 20.0092 114.926 20.0689 114.738 20.1882C114.552 20.3042 114.404 20.4683 114.295 20.6804C114.186 20.8892 114.131 21.1345 114.131 21.4162V26H112.013ZM124.783 26V18.3636H126.901V26H124.783ZM125.847 17.3793C125.532 17.3793 125.262 17.2749 125.036 17.0661C124.814 16.8539 124.703 16.6004 124.703 16.3054C124.703 16.0137 124.814 15.7635 125.036 15.5547C125.262 15.3426 125.532 15.2365 125.847 15.2365C126.161 15.2365 126.43 15.3426 126.652 15.5547C126.877 15.7635 126.99 16.0137 126.99 16.3054C126.99 16.6004 126.877 16.8539 126.652 17.0661C126.43 17.2749 126.161 17.3793 125.847 17.3793ZM132.659 18.3636V19.9545H128.06V18.3636H132.659ZM129.104 16.5341H131.222V23.6534C131.222 23.849 131.252 24.0014 131.312 24.1108C131.371 24.2169 131.454 24.2914 131.56 24.3345C131.67 24.3776 131.796 24.3991 131.938 24.3991C132.037 24.3991 132.137 24.3909 132.236 24.3743C132.336 24.3544 132.412 24.3395 132.465 24.3295L132.798 25.9055C132.692 25.9387 132.543 25.9768 132.351 26.0199C132.158 26.0663 131.925 26.0945 131.65 26.1044C131.139 26.1243 130.692 26.0563 130.307 25.9006C129.926 25.7448 129.63 25.5028 129.417 25.1747C129.205 24.8466 129.101 24.4323 129.104 23.9318V16.5341Z"/>
</mask>
<path d="M24.6399 26H22.3331L25.848 15.8182H28.6222L32.1321 26H29.8253L27.2749 18.1449H27.1953L24.6399 26ZM24.4957 21.9979H29.9446V23.6783H24.4957V21.9979ZM33.3178 28.8636V18.3636H35.4059V19.6463H35.5004C35.5932 19.4408 35.7274 19.232 35.9031 19.0199C36.082 18.8045 36.314 18.6255 36.5991 18.483C36.8874 18.3371 37.2454 18.2642 37.6729 18.2642C38.2298 18.2642 38.7435 18.41 39.2141 18.7017C39.6848 18.9901 40.061 19.4259 40.3427 20.0092C40.6244 20.5893 40.7653 21.3168 40.7653 22.1918C40.7653 23.0436 40.6277 23.7628 40.3526 24.3494C40.0808 24.9328 39.7096 25.3752 39.239 25.6768C38.7717 25.9751 38.248 26.1243 37.668 26.1243C37.257 26.1243 36.9073 26.0563 36.619 25.9205C36.3339 25.7846 36.1003 25.6139 35.918 25.4084C35.7357 25.1996 35.5965 24.9891 35.5004 24.777H35.4357V28.8636H33.3178ZM35.391 22.1818C35.391 22.6359 35.454 23.032 35.5799 23.37C35.7058 23.7081 35.8881 23.9716 36.1268 24.1605C36.3654 24.3461 36.6554 24.4389 36.9968 24.4389C37.3415 24.4389 37.6332 24.3445 37.8718 24.1555C38.1104 23.9633 38.2911 23.6982 38.4137 23.3601C38.5397 23.0187 38.6026 22.6259 38.6026 22.1818C38.6026 21.741 38.5413 21.3532 38.4187 21.0185C38.296 20.6837 38.1154 20.4219 37.8768 20.233C37.6381 20.044 37.3448 19.9496 36.9968 19.9496C36.6521 19.9496 36.3604 20.0407 36.1218 20.223C35.8865 20.4053 35.7058 20.6638 35.5799 20.9986C35.454 21.3333 35.391 21.7277 35.391 22.1818ZM42.1772 28.8636V18.3636H44.2653V19.6463H44.3597C44.4525 19.4408 44.5868 19.232 44.7624 19.0199C44.9414 18.8045 45.1734 18.6255 45.4585 18.483C45.7468 18.3371 46.1048 18.2642 46.5323 18.2642C47.0891 18.2642 47.6029 18.41 48.0735 18.7017C48.5442 18.9901 48.9203 19.4259 49.2021 20.0092C49.4838 20.5893 49.6246 21.3168 49.6246 22.1918C49.6246 23.0436 49.4871 23.7628 49.212 24.3494C48.9402 24.9328 48.569 25.3752 48.0984 25.6768C47.631 25.9751 47.1074 26.1243 46.5273 26.1243C46.1164 26.1243 45.7667 26.0563 45.4783 25.9205C45.1933 25.7846 44.9596 25.6139 44.7773 25.4084C44.5951 25.1996 44.4558 24.9891 44.3597 24.777H44.2951V28.8636H42.1772ZM44.2504 22.1818C44.2504 22.6359 44.3133 23.032 44.4393 23.37C44.5652 23.7081 44.7475 23.9716 44.9862 24.1605C45.2248 24.3461 45.5148 24.4389 45.8562 24.4389C46.2009 24.4389 46.4925 24.3445 46.7312 24.1555C46.9698 23.9633 47.1504 23.6982 47.2731 23.3601C47.399 23.0187 47.462 22.6259 47.462 22.1818C47.462 21.741 47.4007 21.3532 47.2781 21.0185C47.1554 20.6837 46.9748 20.4219 46.7362 20.233C46.4975 20.044 46.2042 19.9496 45.8562 19.9496C45.5115 19.9496 45.2198 20.0407 44.9812 20.223C44.7459 20.4053 44.5652 20.6638 44.4393 20.9986C44.3133 21.3333 44.2504 21.7277 44.2504 22.1818ZM53.1545 15.8182V26H51.0366V15.8182H53.1545ZM56.1586 28.8636C55.8901 28.8636 55.6382 28.8421 55.4029 28.799C55.1709 28.7592 54.9786 28.7079 54.8262 28.6449L55.3034 27.0639C55.552 27.1402 55.7757 27.1816 55.9746 27.1882C56.1768 27.1948 56.3508 27.1484 56.4966 27.049C56.6458 26.9496 56.7667 26.7805 56.8596 26.5419L56.9838 26.2188L54.2445 18.3636H56.4718L58.0527 23.9716H58.1323L59.7282 18.3636H61.9703L59.0023 26.8253C58.8598 27.2363 58.6659 27.5942 58.4206 27.8991C58.1787 28.2074 57.8721 28.4444 57.5009 28.6101C57.1297 28.7791 56.6822 28.8636 56.1586 28.8636ZM70.4009 18.3636V19.9545H65.6879V18.3636H70.4009ZM66.7667 26V17.8118C66.7667 17.2583 66.8744 16.7992 67.0898 16.4347C67.3086 16.0701 67.6069 15.7966 67.9847 15.6143C68.3626 15.4321 68.7918 15.3409 69.2724 15.3409C69.5972 15.3409 69.8938 15.3658 70.1623 15.4155C70.4341 15.4652 70.6362 15.5099 70.7688 15.5497L70.391 17.1406C70.3081 17.1141 70.2054 17.0893 70.0827 17.0661C69.9634 17.0429 69.8408 17.0312 69.7148 17.0312C69.4033 17.0312 69.1862 17.1042 69.0636 17.25C68.9409 17.3925 68.8796 17.593 68.8796 17.8516V26H66.7667ZM74.8716 26.1491C74.0994 26.1491 73.4315 25.9851 72.8681 25.657C72.3079 25.3255 71.8754 24.8648 71.5705 24.2749C71.2656 23.6816 71.1131 22.9938 71.1131 22.2116C71.1131 21.4228 71.2656 20.7334 71.5705 20.1435C71.8754 19.5502 72.3079 19.0895 72.8681 18.7614C73.4315 18.4299 74.0994 18.2642 74.8716 18.2642C75.6439 18.2642 76.3101 18.4299 76.8702 18.7614C77.4337 19.0895 77.8678 19.5502 78.1728 20.1435C78.4777 20.7334 78.6301 21.4228 78.6301 22.2116C78.6301 22.9938 78.4777 23.6816 78.1728 24.2749C77.8678 24.8648 77.4337 25.3255 76.8702 25.657C76.3101 25.9851 75.6439 26.1491 74.8716 26.1491ZM74.8816 24.5085C75.2329 24.5085 75.5262 24.4091 75.7615 24.2102C75.9969 24.008 76.1742 23.733 76.2935 23.3849C76.4161 23.0369 76.4775 22.6409 76.4775 22.1967C76.4775 21.7526 76.4161 21.3565 76.2935 21.0085C76.1742 20.6605 75.9969 20.3854 75.7615 20.1832C75.5262 19.9811 75.2329 19.88 74.8816 19.88C74.5269 19.88 74.2286 19.9811 73.9867 20.1832C73.748 20.3854 73.5674 20.6605 73.4448 21.0085C73.3255 21.3565 73.2658 21.7526 73.2658 22.1967C73.2658 22.6409 73.3255 23.0369 73.4448 23.3849C73.5674 23.733 73.748 24.008 73.9867 24.2102C74.2286 24.4091 74.5269 24.5085 74.8816 24.5085ZM80.0073 26V18.3636H82.0605V19.696H82.1401C82.2793 19.2221 82.513 18.8641 82.8411 18.6222C83.1692 18.3769 83.5471 18.2543 83.9746 18.2543C84.0807 18.2543 84.195 18.2609 84.3176 18.2741C84.4403 18.2874 84.548 18.3056 84.6408 18.3288V20.2081C84.5414 20.1783 84.4038 20.1518 84.2282 20.1286C84.0525 20.1054 83.8917 20.0938 83.7459 20.0938C83.4344 20.0938 83.156 20.1617 82.9107 20.2976C82.6687 20.4302 82.4765 20.6158 82.334 20.8544C82.1948 21.093 82.1252 21.3681 82.1252 21.6797V26H80.0073ZM89.0158 26V15.8182H93.0328C93.8051 15.8182 94.463 15.9657 95.0066 16.2607C95.5501 16.5523 95.9644 16.9583 96.2495 17.4787C96.5378 17.9957 96.682 18.5923 96.682 19.2685C96.682 19.9446 96.5362 20.5412 96.2445 21.0582C95.9528 21.5753 95.5302 21.978 94.9767 22.2663C94.4266 22.5547 93.7604 22.6989 92.9782 22.6989H90.4178V20.9737H92.6301C93.0444 20.9737 93.3858 20.9025 93.6543 20.7599C93.9261 20.6141 94.1283 20.4136 94.2608 20.1584C94.3967 19.8999 94.4647 19.6032 94.4647 19.2685C94.4647 18.9304 94.3967 18.6354 94.2608 18.3835C94.1283 18.1283 93.9261 17.9311 93.6543 17.7919C93.3825 17.6494 93.0378 17.5781 92.6202 17.5781H91.1685V26H89.0158ZM101.398 26.1491C100.612 26.1491 99.9359 25.9901 99.3691 25.6719C98.8057 25.3504 98.3715 24.8963 98.0666 24.3097C97.7617 23.7197 97.6092 23.022 97.6092 22.2166C97.6092 21.4311 97.7617 20.7417 98.0666 20.1484C98.3715 19.5552 98.8007 19.0928 99.3542 18.7614C99.911 18.4299 100.564 18.2642 101.313 18.2642C101.817 18.2642 102.286 18.3454 102.72 18.5078C103.157 18.6669 103.539 18.9072 103.863 19.2287C104.192 19.5502 104.447 19.9545 104.629 20.4418C104.811 20.9257 104.903 21.4924 104.903 22.142V22.7237H98.4544V21.4112H102.909C102.909 21.1063 102.843 20.8362 102.71 20.6009C102.577 20.3655 102.394 20.1816 102.158 20.049C101.926 19.9131 101.656 19.8452 101.348 19.8452C101.026 19.8452 100.741 19.9197 100.493 20.0689C100.247 20.2147 100.055 20.4119 99.916 20.6605C99.7768 20.9058 99.7056 21.1792 99.7022 21.4808V22.7287C99.7022 23.1065 99.7718 23.433 99.911 23.7081C100.054 23.9832 100.254 24.1953 100.513 24.3445C100.771 24.4936 101.078 24.5682 101.432 24.5682C101.668 24.5682 101.883 24.535 102.079 24.4688C102.274 24.4025 102.442 24.303 102.581 24.1705C102.72 24.0379 102.826 23.8755 102.899 23.6832L104.858 23.8125C104.758 24.2831 104.555 24.6941 104.246 25.0455C103.941 25.3935 103.547 25.6652 103.063 25.8608C102.582 26.053 102.027 26.1491 101.398 26.1491ZM106.285 26V18.3636H108.338V19.696H108.417C108.557 19.2221 108.79 18.8641 109.118 18.6222C109.447 18.3769 109.824 18.2543 110.252 18.2543C110.358 18.2543 110.472 18.2609 110.595 18.2741C110.718 18.2874 110.825 18.3056 110.918 18.3288V20.2081C110.819 20.1783 110.681 20.1518 110.506 20.1286C110.33 20.1054 110.169 20.0938 110.023 20.0938C109.712 20.0938 109.433 20.1617 109.188 20.2976C108.946 20.4302 108.754 20.6158 108.611 20.8544C108.472 21.093 108.403 21.3681 108.403 21.6797V26H106.285ZM112.013 26V18.3636H114.032V19.7109H114.121C114.28 19.2635 114.545 18.9105 114.917 18.652C115.288 18.3935 115.732 18.2642 116.249 18.2642C116.773 18.2642 117.218 18.3951 117.586 18.657C117.954 18.9155 118.199 19.2668 118.322 19.7109H118.402C118.557 19.2734 118.839 18.9238 119.247 18.6619C119.658 18.3968 120.143 18.2642 120.703 18.2642C121.416 18.2642 121.994 18.4912 122.439 18.9453C122.886 19.3961 123.11 20.0357 123.11 20.8643V26H120.997V21.282C120.997 20.8577 120.884 20.5395 120.659 20.3274C120.433 20.1153 120.152 20.0092 119.814 20.0092C119.429 20.0092 119.129 20.1319 118.914 20.3771C118.698 20.6191 118.591 20.9389 118.591 21.3366V26H116.537V21.2372C116.537 20.8627 116.43 20.5644 116.214 20.3423C116.002 20.1203 115.722 20.0092 115.374 20.0092C115.139 20.0092 114.926 20.0689 114.738 20.1882C114.552 20.3042 114.404 20.4683 114.295 20.6804C114.186 20.8892 114.131 21.1345 114.131 21.4162V26H112.013ZM124.783 26V18.3636H126.901V26H124.783ZM125.847 17.3793C125.532 17.3793 125.262 17.2749 125.036 17.0661C124.814 16.8539 124.703 16.6004 124.703 16.3054C124.703 16.0137 124.814 15.7635 125.036 15.5547C125.262 15.3426 125.532 15.2365 125.847 15.2365C126.161 15.2365 126.43 15.3426 126.652 15.5547C126.877 15.7635 126.99 16.0137 126.99 16.3054C126.99 16.6004 126.877 16.8539 126.652 17.0661C126.43 17.2749 126.161 17.3793 125.847 17.3793ZM132.659 18.3636V19.9545H128.06V18.3636H132.659ZM129.104 16.5341H131.222V23.6534C131.222 23.849 131.252 24.0014 131.312 24.1108C131.371 24.2169 131.454 24.2914 131.56 24.3345C131.67 24.3776 131.796 24.3991 131.938 24.3991C132.037 24.3991 132.137 24.3909 132.236 24.3743C132.336 24.3544 132.412 24.3395 132.465 24.3295L132.798 25.9055C132.692 25.9387 132.543 25.9768 132.351 26.0199C132.158 26.0663 131.925 26.0945 131.65 26.1044C131.139 26.1243 130.692 26.0563 130.307 25.9006C129.926 25.7448 129.63 25.5028 129.417 25.1747C129.205 24.8466 129.101 24.4323 129.104 23.9318V16.5341Z" fill="white"/>
<path d="M24.6399 26V27H25.3662L25.5909 26.3094L24.6399 26ZM22.3331 26L21.3878 25.6737L20.93 27H22.3331V26ZM25.848 15.8182V14.8182H25.1353L24.9028 15.4919L25.848 15.8182ZM28.6222 15.8182L29.5676 15.4923L29.3352 14.8182H28.6222V15.8182ZM32.1321 26V27H33.5346L33.0775 25.6741L32.1321 26ZM29.8253 26L28.8742 26.3088L29.0986 27H29.8253V26ZM27.2749 18.1449L28.226 17.8361L28.0016 17.1449H27.2749V18.1449ZM27.1953 18.1449V17.1449H26.469L26.2444 17.8355L27.1953 18.1449ZM24.4957 21.9979V20.9979H23.4957V21.9979H24.4957ZM29.9446 21.9979H30.9446V20.9979H29.9446V21.9979ZM29.9446 23.6783V24.6783H30.9446V23.6783H29.9446ZM24.4957 23.6783H23.4957V24.6783H24.4957V23.6783ZM24.6399 25H22.3331V27H24.6399V25ZM23.2784 26.3263L26.7933 16.1445L24.9028 15.4919L21.3878 25.6737L23.2784 26.3263ZM25.848 16.8182H28.6222V14.8182H25.848V16.8182ZM27.6768 16.1441L31.1867 26.3259L33.0775 25.6741L29.5676 15.4923L27.6768 16.1441ZM32.1321 25H29.8253V27H32.1321V25ZM30.7764 25.6912L28.226 17.8361L26.3237 18.4537L28.8742 26.3088L30.7764 25.6912ZM27.2749 17.1449H27.1953V19.1449H27.2749V17.1449ZM26.2444 17.8355L23.689 25.6906L25.5909 26.3094L28.1463 18.4542L26.2444 17.8355ZM24.4957 22.9979H29.9446V20.9979H24.4957V22.9979ZM28.9446 21.9979V23.6783H30.9446V21.9979H28.9446ZM29.9446 22.6783H24.4957V24.6783H29.9446V22.6783ZM25.4957 23.6783V21.9979H23.4957V23.6783H25.4957ZM33.3178 28.8636H32.3178V29.8636H33.3178V28.8636ZM33.3178 18.3636V17.3636H32.3178V18.3636H33.3178ZM35.4059 18.3636H36.4059V17.3636H35.4059V18.3636ZM35.4059 19.6463H34.4059V20.6463H35.4059V19.6463ZM35.5004 19.6463V20.6463H36.146L36.4117 20.0579L35.5004 19.6463ZM35.9031 19.0199L35.1339 18.3809L35.1329 18.3821L35.9031 19.0199ZM36.5991 18.483L37.0463 19.3774L37.0504 19.3753L36.5991 18.483ZM39.2141 18.7017L38.6874 19.5517L38.6917 19.5544L39.2141 18.7017ZM40.3427 20.0092L39.4422 20.4441L39.4432 20.4461L40.3427 20.0092ZM40.3526 24.3494L39.4472 23.9249L39.4462 23.9271L40.3526 24.3494ZM39.239 25.6768L39.777 26.5198L39.7786 26.5188L39.239 25.6768ZM36.619 25.9205L36.1886 26.8231L36.1927 26.825L36.619 25.9205ZM35.918 25.4084L35.1646 26.0661L35.1699 26.072L35.918 25.4084ZM35.5004 24.777L36.4112 24.3643L36.1451 23.777H35.5004V24.777ZM35.4357 24.777V23.777H34.4357V24.777H35.4357ZM35.4357 28.8636V29.8636H36.4357V28.8636H35.4357ZM36.1268 24.1605L35.506 24.9446L35.5128 24.9499L36.1268 24.1605ZM37.8718 24.1555L38.4925 24.9396L38.4991 24.9343L37.8718 24.1555ZM38.4137 23.3601L37.4755 23.014L37.4736 23.0191L38.4137 23.3601ZM38.4187 21.0185L39.3577 20.6745L39.3577 20.6745L38.4187 21.0185ZM37.8768 20.233L38.4975 19.4489L38.4975 19.4489L37.8768 20.233ZM36.1218 20.223L35.5147 19.4283L35.5094 19.4325L36.1218 20.223ZM35.5799 20.9986L34.644 20.6464L34.644 20.6464L35.5799 20.9986ZM34.3178 28.8636V18.3636H32.3178V28.8636H34.3178ZM33.3178 19.3636H35.4059V17.3636H33.3178V19.3636ZM34.4059 18.3636V19.6463H36.4059V18.3636H34.4059ZM35.4059 20.6463H35.5004V18.6463H35.4059V20.6463ZM36.4117 20.0579C36.4607 19.9494 36.5424 19.8156 36.6732 19.6577L35.1329 18.3821C34.9123 18.6484 34.7256 18.9322 34.589 19.2347L36.4117 20.0579ZM36.6722 19.6589C36.7513 19.5637 36.8681 19.4665 37.0463 19.3774L36.1519 17.5885C35.76 17.7845 35.4127 18.0452 35.1339 18.3809L36.6722 19.6589ZM37.0504 19.3753C37.1611 19.3193 37.3536 19.2642 37.6729 19.2642V17.2642C37.1372 17.2642 36.6138 17.3549 36.1478 17.5906L37.0504 19.3753ZM37.6729 19.2642C38.0447 19.2642 38.3759 19.3587 38.6874 19.5517L39.7409 17.8517C39.1111 17.4614 38.4148 17.2642 37.6729 17.2642V19.2642ZM38.6917 19.5544C38.9722 19.7263 39.2291 20.0029 39.4422 20.4441L41.2432 19.5743C40.8928 18.8489 40.3973 18.2539 39.7366 17.849L38.6917 19.5544ZM39.4432 20.4461C39.6395 20.8504 39.7653 21.4169 39.7653 22.1918H41.7653C41.7653 21.2166 41.6093 20.3281 41.2422 19.5723L39.4432 20.4461ZM39.7653 22.1918C39.7653 22.941 39.6437 23.506 39.4472 23.9249L41.258 24.774C41.6118 24.0196 41.7653 23.1461 41.7653 22.1918H39.7653ZM39.4462 23.9271C39.2421 24.3652 38.9875 24.6503 38.6994 24.8349L39.7786 26.5188C40.4318 26.1002 40.9196 25.5003 41.2591 24.7718L39.4462 23.9271ZM38.701 24.8339C38.402 25.0248 38.0666 25.1243 37.668 25.1243V27.1243C38.4294 27.1243 39.1414 26.9255 39.777 26.5198L38.701 24.8339ZM37.668 25.1243C37.3633 25.1243 37.1675 25.0735 37.0453 25.0159L36.1927 26.825C36.6471 27.0392 37.1507 27.1243 37.668 27.1243V25.1243ZM37.0493 25.0178C36.8672 24.931 36.7472 24.8362 36.666 24.7448L35.1699 26.072C35.4533 26.3915 35.8007 26.6382 36.1886 26.8231L37.0493 25.0178ZM36.6713 24.7507C36.5414 24.6019 36.4602 24.4725 36.4112 24.3643L34.5895 25.1897C34.7327 25.5057 34.93 25.7973 35.1647 26.066L36.6713 24.7507ZM35.5004 23.777H35.4357V25.777H35.5004V23.777ZM34.4357 24.777V28.8636H36.4357V24.777H34.4357ZM35.4357 27.8636H33.3178V29.8636H35.4357V27.8636ZM34.391 22.1818C34.391 22.7255 34.4661 23.2447 34.6428 23.7191L36.517 23.0209C36.4418 22.8192 36.391 22.5463 36.391 22.1818H34.391ZM34.6428 23.7191C34.8206 24.1964 35.0996 24.6228 35.5061 24.9446L36.7475 23.3765C36.6766 23.3204 36.5911 23.2198 36.517 23.0209L34.6428 23.7191ZM35.5128 24.9499C35.9495 25.2895 36.4633 25.4389 36.9968 25.4389V23.4389C36.8476 23.4389 36.7814 23.4028 36.7407 23.3712L35.5128 24.9499ZM36.9968 25.4389C37.5354 25.4389 38.054 25.2867 38.4925 24.9396L37.2511 23.3715C37.2123 23.4022 37.1476 23.4389 36.9968 23.4389V25.4389ZM38.4991 24.9343C38.9031 24.6089 39.1798 24.1807 39.3538 23.7011L37.4736 23.0191C37.4024 23.2156 37.3178 23.3178 37.2445 23.3768L38.4991 24.9343ZM39.3519 23.7062C39.5266 23.2326 39.6026 22.7189 39.6026 22.1818H37.6026C37.6026 22.533 37.5527 22.8048 37.4755 23.014L39.3519 23.7062ZM39.6026 22.1818C39.6026 21.6504 39.5289 21.142 39.3577 20.6745L37.4797 21.3624C37.5537 21.5644 37.6026 21.8316 37.6026 22.1818H39.6026ZM39.3577 20.6745C39.1826 20.1966 38.904 19.7707 38.4975 19.4489L37.2561 21.017C37.3268 21.073 37.4095 21.1708 37.4797 21.3624L39.3577 20.6745ZM38.4975 19.4489C38.0573 19.1004 37.5362 18.9496 36.9968 18.9496V20.9496C37.1534 20.9496 37.219 20.9876 37.2561 21.017L38.4975 19.4489ZM36.9968 18.9496C36.4666 18.9496 35.9529 19.0937 35.5148 19.4283L36.7288 21.0177C36.768 20.9878 36.8376 20.9496 36.9968 20.9496V18.9496ZM35.5094 19.4325C35.1006 19.7491 34.8219 20.1736 34.644 20.6464L36.5158 21.3507C36.5898 21.1541 36.6723 21.0615 36.7342 21.0136L35.5094 19.4325ZM34.644 20.6464C34.466 21.1195 34.391 21.6385 34.391 22.1818H36.391C36.391 21.817 36.442 21.5471 36.5158 21.3507L34.644 20.6464ZM42.1772 28.8636H41.1772V29.8636H42.1772V28.8636ZM42.1772 18.3636V17.3636H41.1772V18.3636H42.1772ZM44.2653 18.3636H45.2653V17.3636H44.2653V18.3636ZM44.2653 19.6463H43.2653V20.6463H44.2653V19.6463ZM44.3597 19.6463V20.6463H45.0054L45.2711 20.0579L44.3597 19.6463ZM44.7624 19.0199L43.9932 18.3809L43.9922 18.3821L44.7624 19.0199ZM45.4585 18.483L45.9057 19.3774L45.9098 19.3753L45.4585 18.483ZM48.0735 18.7017L47.5467 19.5517L47.5511 19.5544L48.0735 18.7017ZM49.2021 20.0092L48.3016 20.4441L48.3026 20.4461L49.2021 20.0092ZM49.212 24.3494L48.3066 23.9249L48.3056 23.9271L49.212 24.3494ZM48.0984 25.6768L48.6364 26.5198L48.6379 26.5188L48.0984 25.6768ZM45.4783 25.9205L45.048 26.8231L45.052 26.825L45.4783 25.9205ZM44.7773 25.4084L44.024 26.0661L44.0293 26.072L44.7773 25.4084ZM44.3597 24.777L45.2706 24.3643L45.0045 23.777H44.3597V24.777ZM44.2951 24.777V23.777H43.2951V24.777H44.2951ZM44.2951 28.8636V29.8636H45.2951V28.8636H44.2951ZM44.9862 24.1605L44.3654 24.9446L44.3722 24.9499L44.9862 24.1605ZM46.7312 24.1555L47.3519 24.9396L47.3585 24.9343L46.7312 24.1555ZM47.2731 23.3601L46.3349 23.014L46.333 23.0191L47.2731 23.3601ZM47.2781 21.0185L48.217 20.6745L48.217 20.6745L47.2781 21.0185ZM46.7362 20.233L47.3569 19.4489L47.3569 19.4489L46.7362 20.233ZM44.9812 20.223L44.3741 19.4283L44.3688 19.4325L44.9812 20.223ZM44.4393 20.9986L43.5033 20.6464L43.5033 20.6464L44.4393 20.9986ZM43.1772 28.8636V18.3636H41.1772V28.8636H43.1772ZM42.1772 19.3636H44.2653V17.3636H42.1772V19.3636ZM43.2653 18.3636V19.6463H45.2653V18.3636H43.2653ZM44.2653 20.6463H44.3597V18.6463H44.2653V20.6463ZM45.2711 20.0579C45.3201 19.9494 45.4018 19.8156 45.5326 19.6577L43.9922 18.3821C43.7717 18.6484 43.585 18.9322 43.4484 19.2347L45.2711 20.0579ZM45.5316 19.6589C45.6107 19.5637 45.7275 19.4665 45.9057 19.3774L45.0112 17.5885C44.6194 17.7845 44.2721 18.0452 43.9932 18.3809L45.5316 19.6589ZM45.9098 19.3753C46.0205 19.3193 46.2129 19.2642 46.5323 19.2642V17.2642C45.9966 17.2642 45.4731 17.3549 45.0071 17.5906L45.9098 19.3753ZM46.5323 19.2642C46.9041 19.2642 47.2352 19.3587 47.5467 19.5517L48.6003 17.8517C47.9705 17.4614 47.2741 17.2642 46.5323 17.2642V19.2642ZM47.5511 19.5544C47.8316 19.7263 48.0885 20.0029 48.3016 20.4441L50.1025 19.5743C49.7522 18.8489 49.2567 18.2539 48.5959 17.849L47.5511 19.5544ZM48.3026 20.4461C48.4989 20.8504 48.6246 21.4169 48.6246 22.1918H50.6246C50.6246 21.2166 50.4687 20.3281 50.1016 19.5723L48.3026 20.4461ZM48.6246 22.1918C48.6246 22.941 48.503 23.506 48.3066 23.9249L50.1174 24.774C50.4712 24.0196 50.6246 23.1461 50.6246 22.1918H48.6246ZM48.3056 23.9271C48.1014 24.3652 47.8469 24.6503 47.5588 24.8349L48.6379 26.5188C49.2912 26.1002 49.779 25.5003 50.1184 24.7718L48.3056 23.9271ZM47.5603 24.8339C47.2613 25.0248 46.926 25.1243 46.5273 25.1243V27.1243C47.2888 27.1243 48.0007 26.9255 48.6364 26.5198L47.5603 24.8339ZM46.5273 25.1243C46.2227 25.1243 46.0269 25.0735 45.9046 25.0159L45.052 26.825C45.5065 27.0392 46.01 27.1243 46.5273 27.1243V25.1243ZM45.9087 25.0178C45.7266 24.931 45.6066 24.8362 45.5254 24.7448L44.0293 26.072C44.3127 26.3915 44.66 26.6382 45.048 26.8231L45.9087 25.0178ZM45.5307 24.7507C45.4007 24.6019 45.3196 24.4725 45.2706 24.3643L43.4489 25.1897C43.5921 25.5057 43.7894 25.7973 44.024 26.066L45.5307 24.7507ZM44.3597 23.777H44.2951V25.777H44.3597V23.777ZM43.2951 24.777V28.8636H45.2951V24.777H43.2951ZM44.2951 27.8636H42.1772V29.8636H44.2951V27.8636ZM43.2504 22.1818C43.2504 22.7255 43.3254 23.2447 43.5022 23.7191L45.3764 23.0209C45.3012 22.8192 45.2504 22.5463 45.2504 22.1818H43.2504ZM43.5022 23.7191C43.68 24.1964 43.959 24.6228 44.3654 24.9446L45.6069 23.3765C45.536 23.3204 45.4505 23.2198 45.3764 23.0209L43.5022 23.7191ZM44.3722 24.9499C44.8088 25.2895 45.3227 25.4389 45.8562 25.4389V23.4389C45.7069 23.4389 45.6407 23.4028 45.6001 23.3712L44.3722 24.9499ZM45.8562 25.4389C46.3947 25.4389 46.9134 25.2867 47.3519 24.9396L46.1105 23.3715C46.0717 23.4022 46.007 23.4389 45.8562 23.4389V25.4389ZM47.3585 24.9343C47.7625 24.6089 48.0392 24.1807 48.2131 23.7011L46.333 23.0191C46.2617 23.2156 46.1771 23.3178 46.1038 23.3768L47.3585 24.9343ZM48.2113 23.7062C48.386 23.2326 48.462 22.7189 48.462 22.1818H46.462C46.462 22.533 46.4121 22.8048 46.3349 23.014L48.2113 23.7062ZM48.462 22.1818C48.462 21.6504 48.3883 21.142 48.217 20.6745L46.3391 21.3624C46.4131 21.5644 46.462 21.8316 46.462 22.1818H48.462ZM48.217 20.6745C48.042 20.1966 47.7634 19.7707 47.3569 19.4489L46.1154 21.017C46.1862 21.073 46.2689 21.1708 46.3391 21.3624L48.217 20.6745ZM47.3569 19.4489C46.9167 19.1004 46.3956 18.9496 45.8562 18.9496V20.9496C46.0128 20.9496 46.0784 20.9876 46.1154 21.017L47.3569 19.4489ZM45.8562 18.9496C45.326 18.9496 44.8123 19.0937 44.3741 19.4283L45.5882 21.0177C45.6274 20.9878 45.697 20.9496 45.8562 20.9496V18.9496ZM44.3688 19.4325C43.96 19.7491 43.6812 20.1736 43.5033 20.6464L45.3752 21.3507C45.4492 21.1541 45.5317 21.0615 45.5936 21.0136L44.3688 19.4325ZM43.5033 20.6464C43.3253 21.1195 43.2504 21.6385 43.2504 22.1818H45.2504C45.2504 21.817 45.3013 21.5471 45.3752 21.3507L43.5033 20.6464ZM53.1545 15.8182H54.1545V14.8182H53.1545V15.8182ZM53.1545 26V27H54.1545V26H53.1545ZM51.0366 26H50.0366V27H51.0366V26ZM51.0366 15.8182V14.8182H50.0366V15.8182H51.0366ZM52.1545 15.8182V26H54.1545V15.8182H52.1545ZM53.1545 25H51.0366V27H53.1545V25ZM52.0366 26V15.8182H50.0366V26H52.0366ZM51.0366 16.8182H53.1545V14.8182H51.0366V16.8182ZM55.4029 28.799L55.583 27.8153L55.5718 27.8134L55.4029 28.799ZM54.8262 28.6449L53.8688 28.3559L53.607 29.2233L54.4444 29.5691L54.8262 28.6449ZM55.3034 27.0639L55.5966 26.1079L54.6364 25.8134L54.3461 26.7749L55.3034 27.0639ZM55.9746 27.1882L55.9413 28.1877L55.9418 28.1877L55.9746 27.1882ZM56.4966 27.049L55.9419 26.2169L55.9333 26.2228L56.4966 27.049ZM56.8596 26.5419L57.7916 26.9044L57.7929 26.9009L56.8596 26.5419ZM56.9838 26.2188L57.9172 26.5777L58.0488 26.2356L57.9281 25.8895L56.9838 26.2188ZM54.2445 18.3636V17.3636H52.8367L53.3003 18.6929L54.2445 18.3636ZM56.4718 18.3636L57.4343 18.0923L57.2288 17.3636H56.4718V18.3636ZM58.0527 23.9716L57.0903 24.2429L57.2957 24.9716H58.0527V23.9716ZM58.1323 23.9716V24.9716H58.8874L59.0941 24.2453L58.1323 23.9716ZM59.7282 18.3636V17.3636H58.973L58.7663 18.0899L59.7282 18.3636ZM61.9703 18.3636L62.914 18.6946L63.3808 17.3636H61.9703V18.3636ZM59.0023 26.8253L58.0587 26.4943L58.0575 26.4977L59.0023 26.8253ZM58.4206 27.8991L57.6414 27.2723L57.634 27.2817L58.4206 27.8991ZM57.5009 28.6101L57.0932 27.6969L57.0865 27.7L57.5009 28.6101ZM56.1586 27.8636C55.9433 27.8636 55.7522 27.8463 55.583 27.8154L55.2228 29.7827C55.5242 29.8378 55.8369 29.8636 56.1586 29.8636V27.8636ZM55.5718 27.8134C55.3846 27.7813 55.2698 27.7462 55.2079 27.7206L54.4444 29.5691C54.6875 29.6695 54.9571 29.7372 55.2339 29.7846L55.5718 27.8134ZM55.7835 28.9339L56.2608 27.3529L54.3461 26.7749L53.8688 28.3559L55.7835 28.9339ZM55.0103 28.02C55.3189 28.1146 55.6321 28.1773 55.9413 28.1877L56.0079 26.1888C55.9194 26.1858 55.7851 26.1657 55.5966 26.1079L55.0103 28.02ZM55.9418 28.1877C56.3239 28.2002 56.714 28.1111 57.06 27.8752L55.9333 26.2228C55.9555 26.2076 55.9793 26.1974 55.9991 26.1921C56.0176 26.1872 56.0224 26.1892 56.0074 26.1887L55.9418 28.1877ZM57.0513 27.8811C57.4305 27.6282 57.6549 27.2557 57.7916 26.9043L55.9275 26.1795C55.9164 26.2081 55.9066 26.229 55.899 26.2434C55.8915 26.2578 55.8868 26.2646 55.886 26.2657C55.8848 26.2673 55.9013 26.2441 55.9419 26.217L57.0513 27.8811ZM57.7929 26.9009L57.9172 26.5777L56.0505 25.8598L55.9262 26.1829L57.7929 26.9009ZM57.9281 25.8895L55.1887 18.0344L53.3003 18.6929L56.0396 26.548L57.9281 25.8895ZM54.2445 19.3636H56.4718V17.3636H54.2445V19.3636ZM55.5093 18.635L57.0903 24.2429L59.0152 23.7003L57.4343 18.0923L55.5093 18.635ZM58.0527 24.9716H58.1323V22.9716H58.0527V24.9716ZM59.0941 24.2453L60.69 18.6373L58.7663 18.0899L57.1705 23.6979L59.0941 24.2453ZM59.7282 19.3636H61.9703V17.3636H59.7282V19.3636ZM61.0267 18.0326L58.0587 26.4943L59.9459 27.1563L62.914 18.6946L61.0267 18.0326ZM58.0575 26.4977C57.9484 26.8122 57.8072 27.0663 57.6414 27.2724L59.1998 28.5259C59.5246 28.1221 59.7712 27.6603 59.9471 27.1529L58.0575 26.4977ZM57.634 27.2817C57.4963 27.4572 57.3217 27.5949 57.0932 27.6969L57.9085 29.5232C58.4225 29.2938 58.8611 28.9576 59.2072 28.5166L57.634 27.2817ZM57.0865 27.7C56.8768 27.7955 56.5783 27.8636 56.1586 27.8636V29.8636C56.7861 29.8636 57.3826 29.7628 57.9153 29.5202L57.0865 27.7ZM70.4009 18.3636H71.4009V17.3636H70.4009V18.3636ZM70.4009 19.9545V20.9545H71.4009V19.9545H70.4009ZM65.6879 19.9545H64.6879V20.9545H65.6879V19.9545ZM65.6879 18.3636V17.3636H64.6879V18.3636H65.6879ZM66.7667 26H65.7667V27H66.7667V26ZM67.0898 16.4347L66.2323 15.9202L66.2289 15.9259L67.0898 16.4347ZM67.9847 15.6143L67.5502 14.7137L67.5502 14.7137L67.9847 15.6143ZM70.1623 15.4155L69.9802 16.3988L69.9823 16.3992L70.1623 15.4155ZM70.7688 15.5497L71.7418 15.7808L71.9597 14.863L71.0562 14.5919L70.7688 15.5497ZM70.391 17.1406L70.0862 18.093L71.1144 18.4221L71.3639 17.3717L70.391 17.1406ZM70.0827 17.0661L69.8919 18.0477L69.8968 18.0486L70.0827 17.0661ZM69.0636 17.25L69.8216 17.9023L69.8289 17.8936L69.0636 17.25ZM68.8796 26V27H69.8796V26H68.8796ZM69.4009 18.3636V19.9545H71.4009V18.3636H69.4009ZM70.4009 18.9545H65.6879V20.9545H70.4009V18.9545ZM66.6879 19.9545V18.3636H64.6879V19.9545H66.6879ZM65.6879 19.3636H70.4009V17.3636H65.6879V19.3636ZM67.7667 26V17.8118H65.7667V26H67.7667ZM67.7667 17.8118C67.7667 17.3837 67.8502 17.1135 67.9508 16.9434L66.2289 15.9259C65.8986 16.485 65.7667 17.1329 65.7667 17.8118H67.7667ZM67.9473 16.9492C68.0672 16.7494 68.2195 16.6114 68.4193 16.515L67.5502 14.7137C66.9942 14.9819 66.55 15.3908 66.2324 15.9202L67.9473 16.9492ZM68.4193 16.515C68.6431 16.407 68.9203 16.3409 69.2724 16.3409V14.3409C68.6632 14.3409 68.082 14.4571 67.5502 14.7137L68.4193 16.515ZM69.2724 16.3409C69.5472 16.3409 69.7818 16.362 69.9802 16.3988L70.3444 14.4322C70.0058 14.3695 69.6472 14.3409 69.2724 14.3409V16.3409ZM69.9823 16.3992C70.246 16.4474 70.4038 16.4842 70.4815 16.5075L71.0562 14.5919C70.8687 14.5356 70.6221 14.483 70.3422 14.4318L69.9823 16.3992ZM69.7959 15.3186L69.418 16.9096L71.3639 17.3717L71.7418 15.7808L69.7959 15.3186ZM70.6958 16.1882C70.5612 16.1451 70.4158 16.1113 70.2686 16.0835L69.8968 18.0486C69.995 18.0672 70.055 18.0831 70.0862 18.093L70.6958 16.1882ZM70.2736 16.0844C70.0892 16.0486 69.9025 16.0312 69.7148 16.0312V18.0312C69.779 18.0312 69.8377 18.0371 69.8919 18.0477L70.2736 16.0844ZM69.7148 16.0312C69.2918 16.0312 68.7037 16.1241 68.2982 16.6064L69.8289 17.8936C69.7501 17.9873 69.667 18.0237 69.6368 18.0339C69.6132 18.0418 69.631 18.0312 69.7148 18.0312V16.0312ZM68.3056 16.5978C67.9768 16.9798 67.8796 17.4434 67.8796 17.8516H69.8796C69.8796 17.7993 69.886 17.7861 69.8819 17.7997C69.8796 17.8072 69.8745 17.8215 69.8644 17.8403C69.8542 17.8594 69.8401 17.8807 69.8216 17.9022L68.3056 16.5978ZM67.8796 17.8516V26H69.8796V17.8516H67.8796ZM68.8796 25H66.7667V27H68.8796V25ZM72.8681 25.657L72.3588 26.5176L72.3648 26.5211L72.8681 25.657ZM71.5705 24.2749L70.6811 24.732L70.6821 24.734L71.5705 24.2749ZM71.5705 20.1435L72.4589 20.6026L72.4599 20.6006L71.5705 20.1435ZM72.8681 18.7614L73.3735 19.6242L73.3751 19.6233L72.8681 18.7614ZM76.8702 18.7614L76.361 19.622L76.367 19.6255L76.8702 18.7614ZM78.1728 20.1435L77.2834 20.6006L77.2844 20.6026L78.1728 20.1435ZM78.1728 24.2749L79.0611 24.734L79.0622 24.732L78.1728 24.2749ZM76.8702 25.657L77.3757 26.5198L77.3772 26.5189L76.8702 25.657ZM75.7615 24.2102L76.407 24.974L76.4132 24.9687L75.7615 24.2102ZM76.2935 23.3849L75.3503 23.0526L75.3476 23.0606L76.2935 23.3849ZM76.2935 21.0085L75.3475 21.3329L75.3503 21.3409L76.2935 21.0085ZM73.9867 20.1832L73.3455 19.4159L73.3403 19.4203L73.9867 20.1832ZM73.4448 21.0085L72.5016 20.6762L72.4988 20.6842L73.4448 21.0085ZM73.4448 23.3849L72.4988 23.7093L72.5016 23.7173L73.4448 23.3849ZM73.9867 24.2102L73.3403 24.9732L73.346 24.978L73.3517 24.9828L73.9867 24.2102ZM74.8716 25.1491C74.2434 25.1491 73.7559 25.0168 73.3713 24.7928L72.3648 26.5211C73.1071 26.9534 73.9554 27.1491 74.8716 27.1491V25.1491ZM73.3773 24.7963C72.9822 24.5625 72.6794 24.2425 72.4588 23.8157L70.6821 24.734C71.0714 25.4871 71.6337 26.0885 72.3588 26.5176L73.3773 24.7963ZM72.4599 23.8177C72.2392 23.3884 72.1131 22.8623 72.1131 22.2116H70.1131C70.1131 23.1254 70.2919 23.9748 70.6811 24.732L72.4599 23.8177ZM72.1131 22.2116C72.1131 21.5527 72.2399 21.0263 72.4588 20.6026L70.6821 19.6843C70.2913 20.4406 70.1131 21.2929 70.1131 22.2116H72.1131ZM72.4599 20.6006C72.6805 20.1714 72.982 19.8536 73.3735 19.6242L72.3626 17.8985C71.6339 18.3254 71.0703 18.929 70.6811 19.6863L72.4599 20.6006ZM73.3751 19.6233C73.759 19.3975 74.2451 19.2642 74.8716 19.2642V17.2642C73.9537 17.2642 73.104 17.4624 72.3611 17.8994L73.3751 19.6233ZM74.8716 19.2642C75.4984 19.2642 75.9816 19.3975 76.361 19.622L77.3794 17.9007C76.6385 17.4623 75.7894 17.2642 74.8716 17.2642V19.2642ZM76.367 19.6255C76.7615 19.8553 77.0636 20.1729 77.2834 20.6006L79.0622 19.6863C78.6721 18.9275 78.1058 18.3237 77.3734 17.8972L76.367 19.6255ZM77.2844 20.6026C77.5034 21.0263 77.6301 21.5527 77.6301 22.2116H79.6301C79.6301 21.2929 79.452 20.4406 79.0611 19.6843L77.2844 20.6026ZM77.6301 22.2116C77.6301 22.8623 77.504 23.3884 77.2834 23.8177L79.0622 24.732C79.4513 23.9748 79.6301 23.1254 79.6301 22.2116H77.6301ZM77.2844 23.8157C77.0646 24.241 76.7614 24.5608 76.3632 24.795L77.3772 26.5189C78.1059 26.0902 78.6711 25.4887 79.0611 24.734L77.2844 23.8157ZM76.3647 24.7941C75.9847 25.0167 75.5001 25.1491 74.8716 25.1491V27.1491C75.7877 27.1491 76.6354 26.9534 77.3757 26.5198L76.3647 24.7941ZM74.8816 25.5085C75.434 25.5085 75.966 25.3467 76.407 24.974L75.1161 23.4464C75.0864 23.4715 75.0318 23.5085 74.8816 23.5085V25.5085ZM76.4132 24.9687C76.8067 24.6307 77.0732 24.1941 77.2394 23.7093L75.3476 23.0606C75.2752 23.2718 75.187 23.3854 75.1099 23.4517L76.4132 24.9687ZM77.2367 23.7173C77.4037 23.2433 77.4775 22.7317 77.4775 22.1967H75.4775C75.4775 22.55 75.4286 22.8306 75.3503 23.0526L77.2367 23.7173ZM77.4775 22.1967C77.4775 21.6618 77.4037 21.1502 77.2367 20.6762L75.3503 21.3409C75.4286 21.5629 75.4775 21.8434 75.4775 22.1967H77.4775ZM77.2394 20.6842C77.0732 20.1993 76.8067 19.7628 76.4132 19.4247L75.1099 20.9417C75.187 21.008 75.2752 21.1217 75.3476 21.3328L77.2394 20.6842ZM76.4132 19.4247C75.9725 19.0461 75.4383 18.88 74.8816 18.88V20.88C75.0275 20.88 75.08 20.916 75.1099 20.9417L76.4132 19.4247ZM74.8816 18.88C74.3236 18.88 73.7898 19.0446 73.3455 19.4159L74.6279 20.9506C74.6675 20.9175 74.7302 20.88 74.8816 20.88V18.88ZM73.3403 19.4203C72.9437 19.7562 72.6725 20.1911 72.5016 20.6762L74.3879 21.3409C74.4623 21.1299 74.5524 21.0146 74.6331 20.9462L73.3403 19.4203ZM72.4988 20.6842C72.3372 21.1557 72.2658 21.6644 72.2658 22.1967H74.2658C74.2658 21.8408 74.3137 21.5574 74.3907 21.3328L72.4988 20.6842ZM72.2658 22.1967C72.2658 22.7291 72.3372 23.2378 72.4988 23.7093L74.3907 23.0606C74.3137 22.8361 74.2658 22.5527 74.2658 22.1967H72.2658ZM72.5016 23.7173C72.6725 24.2023 72.9437 24.6372 73.3403 24.9732L74.6331 23.4472C74.5524 23.3789 74.4623 23.2636 74.3879 23.0526L72.5016 23.7173ZM73.3517 24.9828C73.7962 25.3481 74.3278 25.5085 74.8816 25.5085V23.5085C74.7261 23.5085 74.6611 23.4701 74.6216 23.4377L73.3517 24.9828ZM80.0073 26H79.0073V27H80.0073V26ZM80.0073 18.3636V17.3636H79.0073V18.3636H80.0073ZM82.0605 18.3636H83.0605V17.3636H82.0605V18.3636ZM82.0605 19.696H81.0605V20.696H82.0605V19.696ZM82.1401 19.696V20.696H82.8886L83.0996 19.9778L82.1401 19.696ZM82.8411 18.6222L83.4346 19.427L83.4398 19.4231L82.8411 18.6222ZM84.3176 18.2741L84.4251 17.2799L84.4251 17.2799L84.3176 18.2741ZM84.6408 18.3288H85.6408V17.5481L84.8833 17.3587L84.6408 18.3288ZM84.6408 20.2081L84.3535 21.1659L85.6408 21.5521V20.2081H84.6408ZM82.9107 20.2976L83.3912 21.1746L83.3953 21.1723L82.9107 20.2976ZM82.334 20.8544L81.4754 20.3416L81.4702 20.3505L82.334 20.8544ZM82.1252 26V27H83.1252V26H82.1252ZM81.0073 26V18.3636H79.0073V26H81.0073ZM80.0073 19.3636H82.0605V17.3636H80.0073V19.3636ZM81.0605 18.3636V19.696H83.0605V18.3636H81.0605ZM82.0605 20.696H82.1401V18.696H82.0605V20.696ZM83.0996 19.9778C83.1906 19.6679 83.317 19.5137 83.4346 19.427L82.2476 17.8173C81.7089 18.2146 81.368 18.7762 81.1806 19.4142L83.0996 19.9778ZM83.4398 19.4231C83.5871 19.313 83.7528 19.2543 83.9746 19.2543V17.2543C83.3413 17.2543 82.7513 17.4408 82.2424 17.8212L83.4398 19.4231ZM83.9746 19.2543C84.0395 19.2543 84.1176 19.2584 84.2102 19.2684L84.4251 17.2799C84.2724 17.2634 84.1218 17.2543 83.9746 17.2543V19.2543ZM84.2102 19.2684C84.2996 19.278 84.3604 19.2895 84.3983 19.299L84.8833 17.3587C84.7356 17.3217 84.581 17.2968 84.4251 17.2799L84.2102 19.2684ZM83.6408 18.3288V20.2081H85.6408V18.3288H83.6408ZM84.9282 19.2503C84.7542 19.1981 84.5563 19.1632 84.3591 19.1372L84.0972 21.1199C84.2513 21.1403 84.3285 21.1584 84.3535 21.1659L84.9282 19.2503ZM84.3591 19.1372C84.1489 19.1094 83.9437 19.0938 83.7459 19.0938V21.0938C83.8398 21.0938 83.9561 21.1013 84.0972 21.1199L84.3591 19.1372ZM83.7459 19.0938C83.284 19.0938 82.8356 19.196 82.4261 19.4229L83.3953 21.1723C83.4763 21.1274 83.5847 21.0938 83.7459 21.0938V19.0938ZM82.4302 19.4206C82.0308 19.6394 81.7086 19.9513 81.4754 20.3417L83.1925 21.3671C83.2444 21.2802 83.3067 21.2209 83.3912 21.1746L82.4302 19.4206ZM81.4702 20.3505C81.2308 20.7609 81.1252 21.2142 81.1252 21.6797H83.1252C83.1252 21.5221 83.1587 21.4252 83.1978 21.3583L81.4702 20.3505ZM81.1252 21.6797V26H83.1252V21.6797H81.1252ZM82.1252 25H80.0073V27H82.1252V25ZM89.0158 26H88.0158V27H89.0158V26ZM89.0158 15.8182V14.8182H88.0158V15.8182H89.0158ZM95.0066 16.2607L94.5296 17.1396L94.5338 17.1418L95.0066 16.2607ZM96.2495 17.4787L95.3724 17.9591L95.3761 17.9658L96.2495 17.4787ZM96.2445 21.0582L95.3735 20.5669L96.2445 21.0582ZM94.9767 22.2663L94.5147 21.3795L94.5125 21.3806L94.9767 22.2663ZM90.4178 22.6989H89.4178V23.6989H90.4178V22.6989ZM90.4178 20.9737V19.9737H89.4178V20.9737H90.4178ZM93.6543 20.7599L94.1232 21.6432L94.1271 21.6411L93.6543 20.7599ZM94.2608 20.1584L93.3757 19.6931L93.3734 19.6974L94.2608 20.1584ZM94.2608 18.3835L93.3734 18.8445L93.377 18.8514L93.3807 18.8583L94.2608 18.3835ZM93.6543 17.7919L93.1899 18.6776L93.1984 18.6819L93.6543 17.7919ZM91.1685 17.5781V16.5781H90.1685V17.5781H91.1685ZM91.1685 26V27H92.1685V26H91.1685ZM90.0158 26V15.8182H88.0158V26H90.0158ZM89.0158 16.8182H93.0328V14.8182H89.0158V16.8182ZM93.0328 16.8182C93.6792 16.8182 94.1645 16.9414 94.5296 17.1396L95.4835 15.3817C94.7615 14.9899 93.931 14.8182 93.0328 14.8182V16.8182ZM94.5338 17.1418C94.9137 17.3457 95.1843 17.6156 95.3724 17.9591L97.1265 16.9983C96.7446 16.301 96.1865 15.7589 95.4794 15.3795L94.5338 17.1418ZM95.3761 17.9658C95.5702 18.3138 95.682 18.7383 95.682 19.2685H97.682C97.682 18.4464 97.5054 17.6776 97.1228 16.9916L95.3761 17.9658ZM95.682 19.2685C95.682 19.7967 95.5694 20.2196 95.3735 20.5669L97.1155 21.5496C97.5029 20.8628 97.682 20.0925 97.682 19.2685H95.682ZM95.3735 20.5669C95.182 20.9064 94.9058 21.1758 94.5147 21.3795L95.4388 23.1532C96.1547 22.7802 96.7237 22.2442 97.1155 21.5496L95.3735 20.5669ZM94.5125 21.3806C94.1379 21.5769 93.6397 21.6989 92.9782 21.6989V23.6989C93.8811 23.6989 94.7152 23.5324 95.4409 23.1521L94.5125 21.3806ZM92.9782 21.6989H90.4178V23.6989H92.9782V21.6989ZM91.4178 22.6989V20.9737H89.4178V22.6989H91.4178ZM90.4178 21.9737H92.6301V19.9737H90.4178V21.9737ZM92.6301 21.9737C93.1514 21.9737 93.6675 21.8851 94.1232 21.6432L93.1854 19.8767C93.1042 19.9198 92.9375 19.9737 92.6301 19.9737V21.9737ZM94.1271 21.6411C94.5627 21.4074 94.9161 21.0663 95.1482 20.6194L93.3734 19.6974C93.3404 19.7609 93.2895 19.8208 93.1815 19.8788L94.1271 21.6411ZM95.146 20.6237C95.3677 20.2019 95.4647 19.7415 95.4647 19.2685H93.4647C93.4647 19.465 93.4258 19.5978 93.3757 19.6931L95.146 20.6237ZM95.4647 19.2685C95.4647 18.7947 95.3686 18.3308 95.1409 17.9087L93.3807 18.8583C93.4248 18.94 93.4647 19.0661 93.4647 19.2685H95.4647ZM95.1482 17.9225C94.9138 17.4712 94.5548 17.1296 94.1102 16.9019L93.1984 18.6819C93.2974 18.7326 93.3427 18.7854 93.3734 18.8445L95.1482 17.9225ZM94.1187 16.9063C93.6614 16.6665 93.144 16.5781 92.6202 16.5781V18.5781C92.9316 18.5781 93.1036 18.6323 93.1899 18.6775L94.1187 16.9063ZM92.6202 16.5781H91.1685V18.5781H92.6202V16.5781ZM90.1685 17.5781V26H92.1685V17.5781H90.1685ZM91.1685 25H89.0158V27H91.1685V25ZM99.3691 25.6719L98.8735 26.5405L98.8796 26.5439L99.3691 25.6719ZM98.0666 24.3097L97.1782 24.7688L97.1793 24.7709L98.0666 24.3097ZM98.0666 20.1484L97.1772 19.6913L97.1772 19.6913L98.0666 20.1484ZM99.3542 18.7614L98.8427 17.9021L98.8405 17.9034L99.3542 18.7614ZM102.72 18.5078L102.37 19.4445L102.378 19.4476L102.72 18.5078ZM103.863 19.2287L103.16 19.9394L103.164 19.943L103.863 19.2287ZM104.629 20.4418L103.692 20.7922L103.693 20.7943L104.629 20.4418ZM104.903 22.7237V23.7237H105.903V22.7237H104.903ZM98.4544 22.7237H97.4544V23.7237H98.4544V22.7237ZM98.4544 21.4112V20.4112H97.4544V21.4112H98.4544ZM102.909 21.4112V22.4112H103.909V21.4112H102.909ZM102.71 20.6009L101.839 21.0917L101.839 21.0917L102.71 20.6009ZM102.158 20.049L101.653 20.9119L101.66 20.9161L101.667 20.9203L102.158 20.049ZM100.493 20.0689L101.004 20.9284L101.007 20.9264L100.493 20.0689ZM99.916 20.6605L100.786 21.1541L100.789 21.1491L99.916 20.6605ZM99.7022 21.4808L98.7022 21.4698V21.4808H99.7022ZM99.911 23.7081L99.0187 24.1596L99.0231 24.1681L99.911 23.7081ZM102.079 24.4688L101.758 23.5217L101.758 23.5217L102.079 24.4688ZM102.581 24.1705L101.891 23.4463L101.891 23.4463L102.581 24.1705ZM102.899 23.6832L102.965 22.6854L102.226 22.6367L101.964 23.3286L102.899 23.6832ZM104.858 23.8125L105.836 24.0192L106.075 22.8906L104.924 22.8147L104.858 23.8125ZM104.246 25.0455L103.495 24.3859L103.494 24.3864L104.246 25.0455ZM103.063 25.8608L103.434 26.7893L103.438 26.788L103.063 25.8608ZM101.398 25.1491C100.748 25.1491 100.248 25.0183 99.8587 24.7999L98.8796 26.5439C99.6241 26.9618 100.476 27.1491 101.398 27.1491V25.1491ZM99.8647 24.8033C99.4717 24.579 99.1719 24.268 98.9539 23.8485L97.1793 24.7709C97.5711 25.5247 98.1397 26.1217 98.8736 26.5404L99.8647 24.8033ZM98.9549 23.8505C98.7374 23.4296 98.6092 22.8959 98.6092 22.2166H96.6092C96.6092 23.1482 96.7859 24.0098 97.1782 24.7688L98.9549 23.8505ZM98.6092 22.2166C98.6092 21.5619 98.7356 21.0343 98.956 20.6056L97.1772 19.6913C96.7877 20.4491 96.6092 21.3003 96.6092 22.2166H98.6092ZM98.956 20.6056C99.1786 20.1724 99.4803 19.8515 99.868 19.6193L98.8405 17.9034C98.1212 18.3341 97.5644 18.9379 97.1772 19.6913L98.956 20.6056ZM99.8657 19.6207C100.245 19.3949 100.716 19.2642 101.313 19.2642V17.2642C100.412 17.2642 99.5771 17.465 98.8427 17.9021L99.8657 19.6207ZM101.313 19.2642C101.708 19.2642 102.057 19.3274 102.37 19.4444L103.07 17.5712C102.515 17.3634 101.926 17.2642 101.313 17.2642V19.2642ZM102.378 19.4476C102.683 19.5583 102.94 19.7214 103.16 19.9394L104.567 18.518C104.138 18.093 103.632 17.7755 103.062 17.568L102.378 19.4476ZM103.164 19.943C103.374 20.1492 103.555 20.4239 103.692 20.7922L105.566 20.0913C105.339 19.4852 105.009 18.9512 104.563 18.5144L103.164 19.943ZM103.693 20.7943C103.824 21.1408 103.903 21.5832 103.903 22.142H105.903C105.903 21.4016 105.799 20.7106 105.565 20.0892L103.693 20.7943ZM103.903 22.142V22.7237H105.903V22.142H103.903ZM104.903 21.7237H98.4544V23.7237H104.903V21.7237ZM99.4544 22.7237V21.4112H97.4544V22.7237H99.4544ZM98.4544 22.4112H102.909V20.4112H98.4544V22.4112ZM103.909 21.4112C103.909 20.9569 103.809 20.5137 103.581 20.11L101.839 21.0917C101.877 21.1587 101.909 21.2557 101.909 21.4112H103.909ZM103.581 20.11C103.359 19.7155 103.044 19.4 102.649 19.1778L101.667 20.9203C101.744 20.9632 101.796 21.0155 101.839 21.0917L103.581 20.11ZM102.664 19.1861C102.257 18.948 101.807 18.8452 101.348 18.8452V20.8452C101.505 20.8452 101.595 20.8783 101.653 20.9119L102.664 19.1861ZM101.348 18.8452C100.865 18.8452 100.399 18.9591 99.9782 19.2114L101.007 20.9264C101.084 20.8804 101.187 20.8452 101.348 20.8452V18.8452ZM99.9816 19.2094C99.5857 19.4448 99.2687 19.7698 99.0435 20.1719L100.789 21.1491C100.842 21.054 100.909 20.9846 101.004 20.9284L99.9816 19.2094ZM99.0463 20.1669C98.8178 20.5696 98.7073 21.0111 98.7023 21.4698L100.702 21.4918C100.704 21.3474 100.736 21.2419 100.786 21.1541L99.0463 20.1669ZM98.7022 21.4808V22.7287H100.702V21.4808H98.7022ZM98.7022 22.7287C98.7022 23.2286 98.7945 23.7165 99.0188 24.1596L100.803 23.2566C100.749 23.1495 100.702 22.9845 100.702 22.7287H98.7022ZM99.0231 24.1681C99.25 24.6061 99.5823 24.9622 100.013 25.2106L101.012 23.4783C100.926 23.4284 100.857 23.3603 100.799 23.2481L99.0231 24.1681ZM100.013 25.2106C100.45 25.4627 100.935 25.5682 101.432 25.5682V23.5682C101.22 23.5682 101.093 23.5246 101.012 23.4783L100.013 25.2106ZM101.432 25.5682C101.762 25.5682 102.087 25.5217 102.4 25.4158L101.758 23.5217C101.679 23.5484 101.574 23.5682 101.432 23.5682V25.5682ZM102.4 25.4158C102.722 25.3064 103.018 25.1347 103.27 24.8946L101.891 23.4463C101.865 23.4714 101.826 23.4985 101.758 23.5217L102.4 25.4158ZM103.27 24.8946C103.525 24.6517 103.712 24.3602 103.834 24.0379L101.964 23.3286C101.94 23.3908 101.914 23.4241 101.891 23.4463L103.27 24.8946ZM102.833 24.6811L104.792 24.8103L104.924 22.8147L102.965 22.6854L102.833 24.6811ZM103.879 23.6058C103.814 23.9137 103.686 24.1675 103.495 24.3859L104.998 25.705C105.423 25.2208 105.702 24.6526 105.836 24.0192L103.879 23.6058ZM103.494 24.3864C103.305 24.6025 103.046 24.7891 102.688 24.9336L103.438 26.788C104.048 26.5414 104.578 26.1845 104.998 25.7045L103.494 24.3864ZM102.692 24.9323C102.352 25.0683 101.927 25.1491 101.398 25.1491V27.1491C102.128 27.1491 102.813 27.0378 103.434 26.7893L102.692 24.9323ZM106.285 26H105.285V27H106.285V26ZM106.285 18.3636V17.3636H105.285V18.3636H106.285ZM108.338 18.3636H109.338V17.3636H108.338V18.3636ZM108.338 19.696H107.338V20.696H108.338V19.696ZM108.417 19.696V20.696H109.166L109.377 19.9778L108.417 19.696ZM109.118 18.6222L109.712 19.427L109.717 19.4231L109.118 18.6222ZM110.595 18.2741L110.702 17.2799L110.702 17.2799L110.595 18.2741ZM110.918 18.3288H111.918V17.5481L111.161 17.3587L110.918 18.3288ZM110.918 20.2081L110.631 21.1659L111.918 21.5521V20.2081H110.918ZM109.188 20.2976L109.669 21.1746L109.673 21.1723L109.188 20.2976ZM108.611 20.8544L107.753 20.3416L107.748 20.3505L108.611 20.8544ZM108.403 26V27H109.403V26H108.403ZM107.285 26V18.3636H105.285V26H107.285ZM106.285 19.3636H108.338V17.3636H106.285V19.3636ZM107.338 18.3636V19.696H109.338V18.3636H107.338ZM108.338 20.696H108.417V18.696H108.338V20.696ZM109.377 19.9778C109.468 19.6679 109.594 19.5137 109.712 19.427L108.525 17.8173C107.986 18.2146 107.645 18.7762 107.458 19.4142L109.377 19.9778ZM109.717 19.4231C109.864 19.313 110.03 19.2543 110.252 19.2543V17.2543C109.619 17.2543 109.029 17.4408 108.52 17.8212L109.717 19.4231ZM110.252 19.2543C110.317 19.2543 110.395 19.2584 110.488 19.2684L110.702 17.2799C110.55 17.2634 110.399 17.2543 110.252 17.2543V19.2543ZM110.488 19.2684C110.577 19.278 110.638 19.2895 110.676 19.299L111.161 17.3587C111.013 17.3217 110.858 17.2968 110.702 17.2799L110.488 19.2684ZM109.918 18.3288V20.2081H111.918V18.3288H109.918ZM111.205 19.2503C111.032 19.1981 110.834 19.1632 110.636 19.1372L110.375 21.1199C110.529 21.1403 110.606 21.1584 110.631 21.1659L111.205 19.2503ZM110.636 19.1372C110.426 19.1094 110.221 19.0938 110.023 19.0938V21.0938C110.117 21.0938 110.233 21.1013 110.375 21.1199L110.636 19.1372ZM110.023 19.0938C109.561 19.0938 109.113 19.196 108.703 19.4229L109.673 21.1723C109.754 21.1274 109.862 21.0938 110.023 21.0938V19.0938ZM108.707 19.4206C108.308 19.6394 107.986 19.9513 107.753 20.3417L109.47 21.3671C109.522 21.2802 109.584 21.2209 109.669 21.1746L108.707 19.4206ZM107.748 20.3505C107.508 20.7609 107.403 21.2142 107.403 21.6797H109.403C109.403 21.5221 109.436 21.4252 109.475 21.3583L107.748 20.3505ZM107.403 21.6797V26H109.403V21.6797H107.403ZM108.403 25H106.285V27H108.403V25ZM112.013 26H111.013V27H112.013V26ZM112.013 18.3636V17.3636H111.013V18.3636H112.013ZM114.032 18.3636H115.032V17.3636H114.032V18.3636ZM114.032 19.7109H113.032V20.7109H114.032V19.7109ZM114.121 19.7109V20.7109H114.827L115.063 20.0459L114.121 19.7109ZM114.917 18.652L114.345 17.8314L114.345 17.8314L114.917 18.652ZM117.586 18.657L117.006 19.4717L117.011 19.4752L117.586 18.657ZM118.322 19.7109L117.358 19.9771L117.561 20.7109H118.322V19.7109ZM118.402 19.7109V20.7109H119.107L119.344 20.0464L118.402 19.7109ZM119.247 18.6619L119.787 19.5033L119.789 19.5022L119.247 18.6619ZM122.439 18.9453L121.724 19.6446L121.729 19.6498L122.439 18.9453ZM123.11 26V27H124.11V26H123.11ZM120.997 26H119.997V27H120.997V26ZM120.659 20.3274L119.973 21.0556L119.973 21.0556L120.659 20.3274ZM118.914 20.3771L119.661 21.0421L119.665 21.0371L118.914 20.3771ZM118.591 26V27H119.591V26H118.591ZM116.537 26H115.537V27H116.537V26ZM116.214 20.3423L115.491 21.0331L115.496 21.0386L116.214 20.3423ZM114.738 20.1882L115.268 21.0362L115.272 21.0337L114.738 20.1882ZM114.295 20.6804L115.181 21.1444L115.184 21.1387L114.295 20.6804ZM114.131 26V27H115.131V26H114.131ZM113.013 26V18.3636H111.013V26H113.013ZM112.013 19.3636H114.032V17.3636H112.013V19.3636ZM113.032 18.3636V19.7109H115.032V18.3636H113.032ZM114.032 20.7109H114.121V18.7109H114.032V20.7109ZM115.063 20.0459C115.156 19.7847 115.297 19.6057 115.488 19.4726L114.345 17.8314C113.794 18.2153 113.404 18.7423 113.179 19.3759L115.063 20.0459ZM115.488 19.4726C115.668 19.347 115.906 19.2642 116.249 19.2642V17.2642C115.558 17.2642 114.907 17.4399 114.345 17.8314L115.488 19.4726ZM116.249 19.2642C116.599 19.2642 116.834 19.3488 117.006 19.4717L118.166 17.8422C117.603 17.4414 116.946 17.2642 116.249 17.2642V19.2642ZM117.011 19.4752C117.184 19.5968 117.296 19.7505 117.358 19.9771L119.286 19.4448C119.103 18.7831 118.724 18.2342 118.161 17.8388L117.011 19.4752ZM118.322 20.7109H118.402V18.7109H118.322V20.7109ZM119.344 20.0464C119.422 19.8268 119.557 19.6512 119.787 19.5033L118.706 17.8205C118.121 18.1964 117.693 18.7201 117.46 19.3755L119.344 20.0464ZM119.789 19.5022C120.016 19.3558 120.307 19.2642 120.703 19.2642V17.2642C119.98 17.2642 119.3 17.4377 118.705 17.8216L119.789 19.5022ZM120.703 19.2642C121.183 19.2642 121.491 19.4071 121.724 19.6445L123.153 18.2461C122.497 17.5754 121.649 17.2642 120.703 17.2642V19.2642ZM121.729 19.6498C121.939 19.8613 122.11 20.2161 122.11 20.8643H124.11C124.11 19.8554 123.833 18.9309 123.148 18.2408L121.729 19.6498ZM122.11 20.8643V26H124.11V20.8643H122.11ZM123.11 25H120.997V27H123.11V25ZM121.997 26V21.282H119.997V26H121.997ZM121.997 21.282C121.997 20.6875 121.836 20.0622 121.344 19.5992L119.973 21.0556C119.96 21.0429 119.962 21.0361 119.97 21.059C119.98 21.0874 119.997 21.1556 119.997 21.282H121.997ZM121.344 19.5992C120.915 19.1957 120.381 19.0092 119.814 19.0092V21.0092C119.923 21.0092 119.951 21.0349 119.973 21.0556L121.344 19.5992ZM119.814 19.0092C119.198 19.0092 118.602 19.2168 118.162 19.7172L119.665 21.0371C119.67 21.0317 119.672 21.0301 119.672 21.0301C119.672 21.0299 119.673 21.0297 119.673 21.0292C119.674 21.0288 119.676 21.028 119.679 21.0268C119.688 21.0229 119.727 21.0092 119.814 21.0092V19.0092ZM118.167 19.7121C117.753 20.1765 117.591 20.752 117.591 21.3366H119.591C119.591 21.1258 119.643 21.0616 119.661 21.0421L118.167 19.7121ZM117.591 21.3366V26H119.591V21.3366H117.591ZM118.591 25H116.537V27H118.591V25ZM117.537 26V21.2372H115.537V26H117.537ZM117.537 21.2372C117.537 20.6609 117.365 20.0926 116.932 19.646L115.496 21.0386C115.503 21.0453 115.509 21.053 115.516 21.0722C115.524 21.0948 115.537 21.1453 115.537 21.2372H117.537ZM116.937 19.6516C116.511 19.2049 115.955 19.0092 115.374 19.0092V21.0092C115.441 21.0092 115.47 21.0197 115.476 21.0221C115.48 21.0235 115.481 21.0244 115.482 21.0248C115.482 21.0252 115.486 21.0273 115.491 21.0331L116.937 19.6516ZM115.374 19.0092C114.96 19.0092 114.561 19.117 114.204 19.3427L115.272 21.0337C115.292 21.0208 115.317 21.0092 115.374 21.0092V19.0092ZM114.208 19.3402C113.856 19.56 113.59 19.8651 113.406 20.2221L115.184 21.1387C115.219 21.0714 115.248 21.0484 115.268 21.0362L114.208 19.3402ZM113.409 20.2164C113.212 20.5938 113.131 21.0042 113.131 21.4162H115.131C115.131 21.2647 115.16 21.1846 115.181 21.1444L113.409 20.2164ZM113.131 21.4162V26H115.131V21.4162H113.131ZM114.131 25H112.013V27H114.131V25ZM124.783 26H123.783V27H124.783V26ZM124.783 18.3636V17.3636H123.783V18.3636H124.783ZM126.901 18.3636H127.901V17.3636H126.901V18.3636ZM126.901 26V27H127.901V26H126.901ZM125.036 17.0661L124.345 17.7892L124.351 17.7944L124.357 17.7996L125.036 17.0661ZM125.036 15.5547L125.721 16.2832L125.722 16.2829L125.036 15.5547ZM126.652 15.5547L125.961 16.2778L125.967 16.2831L125.972 16.2882L126.652 15.5547ZM126.652 17.0661L127.337 17.7946L127.337 17.7943L126.652 17.0661ZM125.783 26V18.3636H123.783V26H125.783ZM124.783 19.3636H126.901V17.3636H124.783V19.3636ZM125.901 18.3636V26H127.901V18.3636H125.901ZM126.901 25H124.783V27H126.901V25ZM125.847 16.3793C125.777 16.3793 125.751 16.3654 125.716 16.3325L124.357 17.7996C124.772 18.1843 125.287 18.3793 125.847 18.3793V16.3793ZM125.727 16.3429C125.713 16.33 125.707 16.3212 125.704 16.3174C125.701 16.3138 125.701 16.3133 125.702 16.3157C125.703 16.3167 125.703 16.3178 125.704 16.3189C125.704 16.3199 125.704 16.3205 125.704 16.3205C125.704 16.3204 125.704 16.3193 125.704 16.317C125.703 16.3147 125.703 16.3109 125.703 16.3054H123.703C123.703 16.8859 123.935 17.3971 124.345 17.7892L125.727 16.3429ZM125.703 16.3054C125.703 16.2962 125.704 16.2933 125.704 16.2951C125.703 16.2971 125.702 16.3007 125.7 16.3045C125.699 16.3083 125.698 16.309 125.7 16.3064C125.702 16.3035 125.708 16.2955 125.721 16.2832L124.351 14.8262C123.938 15.2144 123.703 15.7241 123.703 16.3054H125.703ZM125.722 16.2829C125.758 16.2487 125.782 16.2365 125.847 16.2365V14.2365C125.282 14.2365 124.765 14.4364 124.351 14.8265L125.722 16.2829ZM125.847 16.2365C125.89 16.2365 125.91 16.2433 125.917 16.2461C125.923 16.2487 125.938 16.2552 125.961 16.2778L127.343 14.8316C126.929 14.4368 126.412 14.2365 125.847 14.2365V16.2365ZM125.972 16.2882C125.986 16.3009 125.993 16.3091 125.995 16.3121C125.997 16.3148 125.996 16.3139 125.994 16.3096C125.992 16.3052 125.99 16.3009 125.99 16.298C125.989 16.2953 125.99 16.2972 125.99 16.3054H127.99C127.99 15.719 127.749 15.2078 127.332 14.8211L125.972 16.2882ZM125.99 16.3054C125.99 16.3151 125.989 16.3187 125.989 16.3176C125.99 16.3164 125.99 16.3136 125.992 16.3107C125.993 16.3078 125.993 16.308 125.991 16.3117C125.988 16.3156 125.981 16.3245 125.967 16.3379L127.337 17.7943C127.752 17.4036 127.99 16.891 127.99 16.3054H125.99ZM125.967 16.3375C125.937 16.3657 125.916 16.3793 125.847 16.3793V18.3793C126.407 18.3793 126.923 18.184 127.337 17.7946L125.967 16.3375ZM132.659 18.3636H133.659V17.3636H132.659V18.3636ZM132.659 19.9545V20.9545H133.659V19.9545H132.659ZM128.06 19.9545H127.06V20.9545H128.06V19.9545ZM128.06 18.3636V17.3636H127.06V18.3636H128.06ZM129.104 16.5341V15.5341H128.104V16.5341H129.104ZM131.222 16.5341H132.222V15.5341H131.222V16.5341ZM131.312 24.1108L130.434 24.5897L130.44 24.6011L131.312 24.1108ZM131.56 24.3345L131.184 25.261L131.194 25.2649L131.56 24.3345ZM132.236 24.3743L132.401 25.3607L132.417 25.358L132.432 25.3549L132.236 24.3743ZM132.465 24.3295L133.443 24.1228L133.241 23.1666L132.281 23.3467L132.465 24.3295ZM132.798 25.9055L133.096 26.86L133.965 26.5887L133.777 25.6988L132.798 25.9055ZM132.351 26.0199L132.132 25.0441L132.124 25.0459L132.116 25.0478L132.351 26.0199ZM131.65 26.1044L131.614 25.1051L131.611 25.1052L131.65 26.1044ZM130.307 25.9006L129.929 26.8262L129.932 26.8274L130.307 25.9006ZM129.417 25.1747L130.257 24.6318L130.257 24.6318L129.417 25.1747ZM129.104 23.9318L130.104 23.9384V23.9318H129.104ZM131.659 18.3636V19.9545H133.659V18.3636H131.659ZM132.659 18.9545H128.06V20.9545H132.659V18.9545ZM129.06 19.9545V18.3636H127.06V19.9545H129.06ZM128.06 19.3636H132.659V17.3636H128.06V19.3636ZM129.104 17.5341H131.222V15.5341H129.104V17.5341ZM130.222 16.5341V23.6534H132.222V16.5341H130.222ZM130.222 23.6534C130.222 23.93 130.261 24.2728 130.434 24.5896L132.19 23.6319C132.205 23.6595 132.214 23.6821 132.219 23.6973C132.224 23.7123 132.226 23.7213 132.226 23.7224C132.226 23.7235 132.225 23.7186 132.224 23.7066C132.223 23.6946 132.222 23.6771 132.222 23.6534H130.222ZM130.44 24.6011C130.603 24.891 130.854 25.1271 131.184 25.261L131.937 23.4081C131.988 23.4289 132.04 23.4606 132.087 23.503C132.134 23.5448 132.165 23.5874 132.183 23.6205L130.44 24.6011ZM131.194 25.2649C131.442 25.3626 131.696 25.3991 131.938 25.3991V23.3991C131.895 23.3991 131.897 23.3926 131.927 23.4041L131.194 25.2649ZM131.938 25.3991C132.093 25.3991 132.248 25.3862 132.401 25.3607L132.072 23.3879C132.026 23.3955 131.982 23.3991 131.938 23.3991V25.3991ZM132.432 25.3549C132.531 25.3352 132.602 25.3212 132.649 25.3124L132.281 23.3467C132.222 23.3577 132.141 23.3736 132.04 23.3937L132.432 25.3549ZM131.487 24.5363L131.82 26.1123L133.777 25.6988L133.443 24.1228L131.487 24.5363ZM132.5 24.9511C132.433 24.9721 132.314 25.0032 132.132 25.0441L132.569 26.9957C132.771 26.9504 132.952 26.9053 133.096 26.86L132.5 24.9511ZM132.116 25.0478C132.009 25.0737 131.846 25.0967 131.614 25.1051L131.686 27.1038C132.004 27.0923 132.308 27.0588 132.585 26.992L132.116 25.0478ZM131.611 25.1052C131.21 25.1208 130.909 25.0654 130.683 24.9738L129.932 26.8274C130.474 27.0473 131.068 27.1278 131.689 27.1036L131.611 25.1052ZM130.686 24.9749C130.483 24.8921 130.352 24.7786 130.257 24.6318L128.578 25.7176C128.907 26.2271 129.369 26.5975 129.929 26.8262L130.686 24.9749ZM130.257 24.6318C130.177 24.5077 130.102 24.2984 130.104 23.9384L128.104 23.9252C128.1 24.5662 128.234 25.1855 128.578 25.7176L130.257 24.6318ZM130.104 23.9318V16.5341H128.104V23.9318H130.104Z" fill="black" mask="url(#path-10-outside-1_0_1)"/>
<defs>
<linearGradient id="paint0_linear_0_1" x1="79" y1="2" x2="79" y2="39" gradientUnits="userSpaceOnUse">
<stop stop-color="#9EFFCA" stop-opacity="0.78"/>
<stop offset="0.5" stop-color="#889B91" stop-opacity="0.88"/>
<stop offset="1" stop-color="#728A6F"/>
</linearGradient>
<linearGradient id="paint1_linear_0_1" x1="80" y1="2" x2="80" y2="39" gradientUnits="userSpaceOnUse">
<stop stop-color="#9EFFCA" stop-opacity="0.78"/>
<stop offset="0.5" stop-color="#889B91" stop-opacity="0.88"/>
<stop offset="1" stop-color="#728A6F"/>
</linearGradient>
<linearGradient id="paint2_linear_0_1" x1="81.5" y1="2" x2="81.5" y2="39" gradientUnits="userSpaceOnUse">
<stop stop-color="#9EFFCA" stop-opacity="0.78"/>
<stop offset="0.5" stop-color="#889B91" stop-opacity="0.88"/>
<stop offset="1" stop-color="#728A6F"/>
</linearGradient>
<linearGradient id="paint3_linear_0_1" x1="81" y1="2" x2="81" y2="39" gradientUnits="userSpaceOnUse">
<stop stop-color="#9EFFCA" stop-opacity="0.78"/>
<stop offset="0.5" stop-color="#889B91" stop-opacity="0.88"/>
<stop offset="1" stop-color="#728A6F"/>
</linearGradient>
<linearGradient id="paint4_linear_0_1" x1="79" y1="2" x2="79" y2="39" gradientUnits="userSpaceOnUse">
<stop stop-color="#9EFFCA" stop-opacity="0.78"/>
<stop offset="0.5" stop-color="#889B91" stop-opacity="0.88"/>
<stop offset="1" stop-color="#728A6F"/>
</linearGradient>
</defs>
</svg>
