<svg width="162" height="42" viewBox="0 0 162 42" fill="none" xmlns="http://www.w3.org/2000/svg">
<rect x="0.801562" y="1.67461" width="155.6" height="38.6" rx="6.8" fill="url(#paint0_linear_0_3010)"/>
<rect x="0.801562" y="1.67461" width="155.6" height="38.6" rx="6.8" stroke="#BFA7A7" stroke-width="1.6"/>
<rect x="0.801562" y="1.67461" width="155.6" height="38.6" rx="6.8" stroke="black" stroke-opacity="0.2" stroke-width="1.6"/>
<path d="M31.0028 16.2928V26.4746H29.1435L24.7138 20.0662H24.6392V26.4746H22.4865V16.2928H24.3757L28.7706 22.6962H28.8601V16.2928H31.0028ZM32.7814 26.4746V16.2928H39.6422V18.0676H34.9341V20.4938H39.2892V22.2686H34.9341V24.6998H39.6621V26.4746H32.7814ZM43.6456 26.4746L40.7322 16.2928H43.0838L44.7692 23.3674H44.8537L46.7131 16.2928H48.7266L50.581 23.3823H50.6705L52.3558 16.2928H54.7074L51.794 26.4746H49.696L47.7571 19.8176H47.6776L45.7436 26.4746H43.6456ZM59.0998 26.4746V16.2928H61.2525V24.6998H65.6175V26.4746H59.0998ZM69.1958 16.2928V26.4746H67.0431V16.2928H69.1958ZM79.9506 19.8574H77.7731C77.7333 19.5757 77.6521 19.3255 77.5295 19.1067C77.4068 18.8846 77.2494 18.6957 77.0572 18.54C76.8649 18.3842 76.6429 18.2649 76.391 18.182C76.1424 18.0991 75.8723 18.0577 75.5806 18.0577C75.0536 18.0577 74.5946 18.1886 74.2035 18.4505C73.8124 18.709 73.5091 19.0868 73.2937 19.584C73.0782 20.0778 72.9705 20.6777 72.9705 21.3837C72.9705 22.1096 73.0782 22.7194 73.2937 23.2132C73.5124 23.7071 73.8174 24.08 74.2085 24.3319C74.5996 24.5837 75.052 24.7097 75.5657 24.7097C75.854 24.7097 76.1209 24.6716 76.3661 24.5953C76.6147 24.5191 76.8351 24.4081 77.0273 24.2623C77.2196 24.1131 77.3787 23.9325 77.5046 23.7203C77.6339 23.5082 77.7234 23.2663 77.7731 22.9945L79.9506 23.0044C79.8943 23.4718 79.7534 23.9225 79.5281 24.3567C79.306 24.7876 79.006 25.1737 78.6282 25.5151C78.2537 25.8532 77.8062 26.1216 77.2859 26.3205C76.7688 26.516 76.1838 26.6138 75.5309 26.6138C74.6228 26.6138 73.8107 26.4083 73.0948 25.9973C72.3822 25.5864 71.8188 24.9914 71.4045 24.2125C70.9935 23.4337 70.788 22.4907 70.788 21.3837C70.788 20.2734 70.9968 19.3288 71.4144 18.5499C71.832 17.771 72.3988 17.1777 73.1147 16.7701C73.8306 16.3591 74.636 16.1536 75.5309 16.1536C76.1209 16.1536 76.6677 16.2364 77.1715 16.4022C77.6786 16.5679 78.1277 16.8098 78.5188 17.128C78.9099 17.4429 79.2281 17.829 79.4734 18.2864C79.7219 18.7438 79.881 19.2675 79.9506 19.8574ZM81.4943 26.4746V16.2928H88.3551V18.0676H83.647V20.4938H88.0021V22.2686H83.647V24.6998H88.375V26.4746H81.4943ZM98.5829 16.2928V26.4746H96.7235L92.2939 20.0662H92.2193V26.4746H90.0666V16.2928H91.9558L96.3507 22.6962H96.4402V16.2928H98.5829ZM105.885 19.2211C105.845 18.82 105.674 18.5085 105.373 18.2864C105.071 18.0643 104.662 17.9533 104.145 17.9533C103.794 17.9533 103.497 18.003 103.255 18.1025C103.013 18.1986 102.827 18.3328 102.698 18.5051C102.572 18.6775 102.509 18.873 102.509 19.0918C102.503 19.2741 102.541 19.4332 102.624 19.5691C102.71 19.705 102.827 19.8226 102.977 19.9221C103.126 20.0182 103.298 20.1027 103.494 20.1756C103.689 20.2452 103.898 20.3049 104.12 20.3546L105.035 20.5733C105.479 20.6728 105.887 20.8053 106.258 20.9711C106.629 21.1368 106.951 21.3406 107.222 21.5826C107.494 21.8245 107.705 22.1096 107.854 22.4377C108.006 22.7658 108.084 23.142 108.087 23.5662C108.084 24.1893 107.925 24.7296 107.61 25.187C107.299 25.641 106.848 25.994 106.258 26.2459C105.671 26.4945 104.964 26.6188 104.135 26.6188C103.313 26.6188 102.597 26.4928 101.987 26.2409C101.381 25.9891 100.907 25.6162 100.565 25.1223C100.227 24.6252 100.05 24.0104 100.033 23.2779H102.116C102.14 23.6193 102.237 23.9043 102.41 24.133C102.585 24.3584 102.819 24.5291 103.111 24.6451C103.406 24.7578 103.739 24.8141 104.11 24.8141C104.475 24.8141 104.791 24.7611 105.06 24.655C105.331 24.5489 105.542 24.4015 105.691 24.2125C105.84 24.0236 105.915 23.8065 105.915 23.5613C105.915 23.3326 105.847 23.1403 105.711 22.9846C105.578 22.8288 105.383 22.6962 105.124 22.5868C104.869 22.4775 104.556 22.378 104.185 22.2885L103.076 22.0101C102.218 21.8013 101.54 21.4748 101.043 21.0307C100.545 20.5866 100.299 19.9883 100.302 19.236C100.299 18.6195 100.463 18.0809 100.794 17.6202C101.129 17.1595 101.588 16.7999 102.171 16.5414C102.754 16.2828 103.417 16.1536 104.16 16.1536C104.915 16.1536 105.575 16.2828 106.138 16.5414C106.705 16.7999 107.146 17.1595 107.461 17.6202C107.776 18.0809 107.938 18.6145 107.948 19.2211H105.885ZM109.535 26.4746V16.2928H116.396V18.0676H111.688V20.4938H116.043V22.2686H111.688V24.6998H116.416V26.4746H109.535Z" fill="white"/>
<rect x="1.80156" y="1.67461" width="155.6" height="38.6" rx="6.8" fill="url(#paint1_linear_0_3010)"/>
<rect x="1.80156" y="1.67461" width="155.6" height="38.6" rx="6.8" stroke="#BFA7A7" stroke-width="1.6"/>
<rect x="1.80156" y="1.67461" width="155.6" height="38.6" rx="6.8" stroke="black" stroke-opacity="0.2" stroke-width="1.6"/>
<path d="M32.0028 16.2928V26.4746H30.1435L25.7138 20.0662H25.6392V26.4746H23.4865V16.2928H25.3757L29.7706 22.6962H29.8601V16.2928H32.0028ZM33.7814 26.4746V16.2928H40.6422V18.0676H35.9341V20.4938H40.2892V22.2686H35.9341V24.6998H40.6621V26.4746H33.7814ZM44.6456 26.4746L41.7322 16.2928H44.0838L45.7692 23.3674H45.8537L47.7131 16.2928H49.7266L51.581 23.3823H51.6705L53.3558 16.2928H55.7074L52.794 26.4746H50.696L48.7571 19.8176H48.6776L46.7436 26.4746H44.6456ZM60.0998 26.4746V16.2928H62.2525V24.6998H66.6175V26.4746H60.0998ZM70.1958 16.2928V26.4746H68.0431V16.2928H70.1958ZM80.9506 19.8574H78.7731C78.7333 19.5757 78.6521 19.3255 78.5295 19.1067C78.4068 18.8846 78.2494 18.6957 78.0572 18.54C77.8649 18.3842 77.6429 18.2649 77.391 18.182C77.1424 18.0991 76.8723 18.0577 76.5806 18.0577C76.0536 18.0577 75.5946 18.1886 75.2035 18.4505C74.8124 18.709 74.5091 19.0868 74.2937 19.584C74.0782 20.0778 73.9705 20.6777 73.9705 21.3837C73.9705 22.1096 74.0782 22.7194 74.2937 23.2132C74.5124 23.7071 74.8174 24.08 75.2085 24.3319C75.5996 24.5837 76.052 24.7097 76.5657 24.7097C76.854 24.7097 77.1209 24.6716 77.3661 24.5953C77.6147 24.5191 77.8351 24.4081 78.0273 24.2623C78.2196 24.1131 78.3787 23.9325 78.5046 23.7203C78.6339 23.5082 78.7234 23.2663 78.7731 22.9945L80.9506 23.0044C80.8943 23.4718 80.7534 23.9225 80.5281 24.3567C80.306 24.7876 80.006 25.1737 79.6282 25.5151C79.2537 25.8532 78.8062 26.1216 78.2859 26.3205C77.7688 26.516 77.1838 26.6138 76.5309 26.6138C75.6228 26.6138 74.8107 26.4083 74.0948 25.9973C73.3822 25.5864 72.8188 24.9914 72.4045 24.2125C71.9935 23.4337 71.788 22.4907 71.788 21.3837C71.788 20.2734 71.9968 19.3288 72.4144 18.5499C72.832 17.771 73.3988 17.1777 74.1147 16.7701C74.8306 16.3591 75.636 16.1536 76.5309 16.1536C77.1209 16.1536 77.6677 16.2364 78.1715 16.4022C78.6786 16.5679 79.1277 16.8098 79.5188 17.128C79.9099 17.4429 80.2281 17.829 80.4734 18.2864C80.7219 18.7438 80.881 19.2675 80.9506 19.8574ZM82.4943 26.4746V16.2928H89.3551V18.0676H84.647V20.4938H89.0021V22.2686H84.647V24.6998H89.375V26.4746H82.4943ZM99.5829 16.2928V26.4746H97.7235L93.2939 20.0662H93.2193V26.4746H91.0666V16.2928H92.9558L97.3507 22.6962H97.4402V16.2928H99.5829ZM106.885 19.2211C106.845 18.82 106.674 18.5085 106.373 18.2864C106.071 18.0643 105.662 17.9533 105.145 17.9533C104.794 17.9533 104.497 18.003 104.255 18.1025C104.013 18.1986 103.827 18.3328 103.698 18.5051C103.572 18.6775 103.509 18.873 103.509 19.0918C103.503 19.2741 103.541 19.4332 103.624 19.5691C103.71 19.705 103.827 19.8226 103.977 19.9221C104.126 20.0182 104.298 20.1027 104.494 20.1756C104.689 20.2452 104.898 20.3049 105.12 20.3546L106.035 20.5733C106.479 20.6728 106.887 20.8053 107.258 20.9711C107.629 21.1368 107.951 21.3406 108.222 21.5826C108.494 21.8245 108.705 22.1096 108.854 22.4377C109.006 22.7658 109.084 23.142 109.087 23.5662C109.084 24.1893 108.925 24.7296 108.61 25.187C108.299 25.641 107.848 25.994 107.258 26.2459C106.671 26.4945 105.964 26.6188 105.135 26.6188C104.313 26.6188 103.597 26.4928 102.987 26.2409C102.381 25.9891 101.907 25.6162 101.565 25.1223C101.227 24.6252 101.05 24.0104 101.033 23.2779H103.116C103.14 23.6193 103.237 23.9043 103.41 24.133C103.585 24.3584 103.819 24.5291 104.111 24.6451C104.406 24.7578 104.739 24.8141 105.11 24.8141C105.475 24.8141 105.791 24.7611 106.06 24.655C106.331 24.5489 106.542 24.4015 106.691 24.2125C106.84 24.0236 106.915 23.8065 106.915 23.5613C106.915 23.3326 106.847 23.1403 106.711 22.9846C106.578 22.8288 106.383 22.6962 106.124 22.5868C105.869 22.4775 105.556 22.378 105.185 22.2885L104.076 22.0101C103.218 21.8013 102.54 21.4748 102.043 21.0307C101.545 20.5866 101.299 19.9883 101.302 19.236C101.299 18.6195 101.463 18.0809 101.794 17.6202C102.129 17.1595 102.588 16.7999 103.171 16.5414C103.754 16.2828 104.417 16.1536 105.16 16.1536C105.915 16.1536 106.575 16.2828 107.138 16.5414C107.705 16.7999 108.146 17.1595 108.461 17.6202C108.776 18.0809 108.938 18.6145 108.948 19.2211H106.885ZM110.535 26.4746V16.2928H117.396V18.0676H112.688V20.4938H117.043V22.2686H112.688V24.6998H117.416V26.4746H110.535Z" fill="white"/>
<rect x="1.80156" y="1.67461" width="158.6" height="38.6" rx="6.8" fill="url(#paint2_linear_0_3010)"/>
<rect x="1.80156" y="1.67461" width="158.6" height="38.6" rx="6.8" stroke="#BFA7A7" stroke-width="1.6"/>
<rect x="1.80156" y="1.67461" width="158.6" height="38.6" rx="6.8" stroke="black" stroke-opacity="0.2" stroke-width="1.6"/>
<path d="M32.0028 16.2928V26.4746H30.1435L25.7138 20.0662H25.6392V26.4746H23.4865V16.2928H25.3757L29.7706 22.6962H29.8601V16.2928H32.0028ZM33.7814 26.4746V16.2928H40.6422V18.0676H35.9341V20.4938H40.2892V22.2686H35.9341V24.6998H40.6621V26.4746H33.7814ZM44.6456 26.4746L41.7322 16.2928H44.0838L45.7692 23.3674H45.8537L47.7131 16.2928H49.7266L51.581 23.3823H51.6705L53.3558 16.2928H55.7074L52.794 26.4746H50.696L48.7571 19.8176H48.6776L46.7436 26.4746H44.6456ZM60.0998 26.4746V16.2928H62.2525V24.6998H66.6175V26.4746H60.0998ZM70.1958 16.2928V26.4746H68.0431V16.2928H70.1958ZM80.9506 19.8574H78.7731C78.7333 19.5757 78.6521 19.3255 78.5295 19.1067C78.4068 18.8846 78.2494 18.6957 78.0572 18.54C77.8649 18.3842 77.6429 18.2649 77.391 18.182C77.1424 18.0991 76.8723 18.0577 76.5806 18.0577C76.0536 18.0577 75.5946 18.1886 75.2035 18.4505C74.8124 18.709 74.5091 19.0868 74.2937 19.584C74.0782 20.0778 73.9705 20.6777 73.9705 21.3837C73.9705 22.1096 74.0782 22.7194 74.2937 23.2132C74.5124 23.7071 74.8174 24.08 75.2085 24.3319C75.5996 24.5837 76.052 24.7097 76.5657 24.7097C76.854 24.7097 77.1209 24.6716 77.3661 24.5953C77.6147 24.5191 77.8351 24.4081 78.0273 24.2623C78.2196 24.1131 78.3787 23.9325 78.5046 23.7203C78.6339 23.5082 78.7234 23.2663 78.7731 22.9945L80.9506 23.0044C80.8943 23.4718 80.7534 23.9225 80.5281 24.3567C80.306 24.7876 80.006 25.1737 79.6282 25.5151C79.2537 25.8532 78.8062 26.1216 78.2859 26.3205C77.7688 26.516 77.1838 26.6138 76.5309 26.6138C75.6228 26.6138 74.8107 26.4083 74.0948 25.9973C73.3822 25.5864 72.8188 24.9914 72.4045 24.2125C71.9935 23.4337 71.788 22.4907 71.788 21.3837C71.788 20.2734 71.9968 19.3288 72.4144 18.5499C72.832 17.771 73.3988 17.1777 74.1147 16.7701C74.8306 16.3591 75.636 16.1536 76.5309 16.1536C77.1209 16.1536 77.6677 16.2364 78.1715 16.4022C78.6786 16.5679 79.1277 16.8098 79.5188 17.128C79.9099 17.4429 80.2281 17.829 80.4734 18.2864C80.7219 18.7438 80.881 19.2675 80.9506 19.8574ZM82.4943 26.4746V16.2928H89.3551V18.0676H84.647V20.4938H89.0021V22.2686H84.647V24.6998H89.375V26.4746H82.4943ZM99.5829 16.2928V26.4746H97.7235L93.2939 20.0662H93.2193V26.4746H91.0666V16.2928H92.9558L97.3507 22.6962H97.4402V16.2928H99.5829ZM106.885 19.2211C106.845 18.82 106.674 18.5085 106.373 18.2864C106.071 18.0643 105.662 17.9533 105.145 17.9533C104.794 17.9533 104.497 18.003 104.255 18.1025C104.013 18.1986 103.827 18.3328 103.698 18.5051C103.572 18.6775 103.509 18.873 103.509 19.0918C103.503 19.2741 103.541 19.4332 103.624 19.5691C103.71 19.705 103.827 19.8226 103.977 19.9221C104.126 20.0182 104.298 20.1027 104.494 20.1756C104.689 20.2452 104.898 20.3049 105.12 20.3546L106.035 20.5733C106.479 20.6728 106.887 20.8053 107.258 20.9711C107.629 21.1368 107.951 21.3406 108.222 21.5826C108.494 21.8245 108.705 22.1096 108.854 22.4377C109.006 22.7658 109.084 23.142 109.087 23.5662C109.084 24.1893 108.925 24.7296 108.61 25.187C108.299 25.641 107.848 25.994 107.258 26.2459C106.671 26.4945 105.964 26.6188 105.135 26.6188C104.313 26.6188 103.597 26.4928 102.987 26.2409C102.381 25.9891 101.907 25.6162 101.565 25.1223C101.227 24.6252 101.05 24.0104 101.033 23.2779H103.116C103.14 23.6193 103.237 23.9043 103.41 24.133C103.585 24.3584 103.819 24.5291 104.111 24.6451C104.406 24.7578 104.739 24.8141 105.11 24.8141C105.475 24.8141 105.791 24.7611 106.06 24.655C106.331 24.5489 106.542 24.4015 106.691 24.2125C106.84 24.0236 106.915 23.8065 106.915 23.5613C106.915 23.3326 106.847 23.1403 106.711 22.9846C106.578 22.8288 106.383 22.6962 106.124 22.5868C105.869 22.4775 105.556 22.378 105.185 22.2885L104.076 22.0101C103.218 21.8013 102.54 21.4748 102.043 21.0307C101.545 20.5866 101.299 19.9883 101.302 19.236C101.299 18.6195 101.463 18.0809 101.794 17.6202C102.129 17.1595 102.588 16.7999 103.171 16.5414C103.754 16.2828 104.417 16.1536 105.16 16.1536C105.915 16.1536 106.575 16.2828 107.138 16.5414C107.705 16.7999 108.146 17.1595 108.461 17.6202C108.776 18.0809 108.938 18.6145 108.948 19.2211H106.885ZM110.535 26.4746V16.2928H117.396V18.0676H112.688V20.4938H117.043V22.2686H112.688V24.6998H117.416V26.4746H110.535Z" fill="white"/>
<rect x="2.80156" y="1.67461" width="155.6" height="38.6" rx="6.8" fill="url(#paint3_linear_0_3010)"/>
<rect x="2.80156" y="1.67461" width="155.6" height="38.6" rx="6.8" stroke="#BFA7A7" stroke-width="1.6"/>
<rect x="2.80156" y="1.67461" width="155.6" height="38.6" rx="6.8" stroke="black" stroke-opacity="0.2" stroke-width="1.6"/>
<path d="M33.0028 16.2928V26.4746H31.1435L26.7138 20.0662H26.6392V26.4746H24.4865V16.2928H26.3757L30.7706 22.6962H30.8601V16.2928H33.0028ZM34.7814 26.4746V16.2928H41.6422V18.0676H36.9341V20.4938H41.2892V22.2686H36.9341V24.6998H41.6621V26.4746H34.7814ZM45.6456 26.4746L42.7322 16.2928H45.0838L46.7692 23.3674H46.8537L48.7131 16.2928H50.7266L52.581 23.3823H52.6705L54.3558 16.2928H56.7074L53.794 26.4746H51.696L49.7571 19.8176H49.6776L47.7436 26.4746H45.6456ZM61.0998 26.4746V16.2928H63.2525V24.6998H67.6175V26.4746H61.0998ZM71.1958 16.2928V26.4746H69.0431V16.2928H71.1958ZM81.9506 19.8574H79.7731C79.7333 19.5757 79.6521 19.3255 79.5295 19.1067C79.4068 18.8846 79.2494 18.6957 79.0572 18.54C78.8649 18.3842 78.6429 18.2649 78.391 18.182C78.1424 18.0991 77.8723 18.0577 77.5806 18.0577C77.0536 18.0577 76.5946 18.1886 76.2035 18.4505C75.8124 18.709 75.5091 19.0868 75.2937 19.584C75.0782 20.0778 74.9705 20.6777 74.9705 21.3837C74.9705 22.1096 75.0782 22.7194 75.2937 23.2132C75.5124 23.7071 75.8174 24.08 76.2085 24.3319C76.5996 24.5837 77.052 24.7097 77.5657 24.7097C77.854 24.7097 78.1209 24.6716 78.3661 24.5953C78.6147 24.5191 78.8351 24.4081 79.0273 24.2623C79.2196 24.1131 79.3787 23.9325 79.5046 23.7203C79.6339 23.5082 79.7234 23.2663 79.7731 22.9945L81.9506 23.0044C81.8943 23.4718 81.7534 23.9225 81.5281 24.3567C81.306 24.7876 81.006 25.1737 80.6282 25.5151C80.2537 25.8532 79.8062 26.1216 79.2859 26.3205C78.7688 26.516 78.1838 26.6138 77.5309 26.6138C76.6228 26.6138 75.8107 26.4083 75.0948 25.9973C74.3822 25.5864 73.8188 24.9914 73.4045 24.2125C72.9935 23.4337 72.788 22.4907 72.788 21.3837C72.788 20.2734 72.9968 19.3288 73.4144 18.5499C73.832 17.771 74.3988 17.1777 75.1147 16.7701C75.8306 16.3591 76.636 16.1536 77.5309 16.1536C78.1209 16.1536 78.6677 16.2364 79.1715 16.4022C79.6786 16.5679 80.1277 16.8098 80.5188 17.128C80.9099 17.4429 81.2281 17.829 81.4734 18.2864C81.7219 18.7438 81.881 19.2675 81.9506 19.8574ZM83.4943 26.4746V16.2928H90.3551V18.0676H85.647V20.4938H90.0021V22.2686H85.647V24.6998H90.375V26.4746H83.4943ZM100.583 16.2928V26.4746H98.7235L94.2939 20.0662H94.2193V26.4746H92.0666V16.2928H93.9558L98.3507 22.6962H98.4402V16.2928H100.583ZM107.885 19.2211C107.845 18.82 107.674 18.5085 107.373 18.2864C107.071 18.0643 106.662 17.9533 106.145 17.9533C105.794 17.9533 105.497 18.003 105.255 18.1025C105.013 18.1986 104.827 18.3328 104.698 18.5051C104.572 18.6775 104.509 18.873 104.509 19.0918C104.503 19.2741 104.541 19.4332 104.624 19.5691C104.71 19.705 104.827 19.8226 104.977 19.9221C105.126 20.0182 105.298 20.1027 105.494 20.1756C105.689 20.2452 105.898 20.3049 106.12 20.3546L107.035 20.5733C107.479 20.6728 107.887 20.8053 108.258 20.9711C108.629 21.1368 108.951 21.3406 109.222 21.5826C109.494 21.8245 109.705 22.1096 109.854 22.4377C110.006 22.7658 110.084 23.142 110.087 23.5662C110.084 24.1893 109.925 24.7296 109.61 25.187C109.299 25.641 108.848 25.994 108.258 26.2459C107.671 26.4945 106.964 26.6188 106.135 26.6188C105.313 26.6188 104.597 26.4928 103.987 26.2409C103.381 25.9891 102.907 25.6162 102.565 25.1223C102.227 24.6252 102.05 24.0104 102.033 23.2779H104.116C104.14 23.6193 104.237 23.9043 104.41 24.133C104.585 24.3584 104.819 24.5291 105.111 24.6451C105.406 24.7578 105.739 24.8141 106.11 24.8141C106.475 24.8141 106.791 24.7611 107.06 24.655C107.331 24.5489 107.542 24.4015 107.691 24.2125C107.84 24.0236 107.915 23.8065 107.915 23.5613C107.915 23.3326 107.847 23.1403 107.711 22.9846C107.578 22.8288 107.383 22.6962 107.124 22.5868C106.869 22.4775 106.556 22.378 106.185 22.2885L105.076 22.0101C104.218 21.8013 103.54 21.4748 103.043 21.0307C102.545 20.5866 102.299 19.9883 102.302 19.236C102.299 18.6195 102.463 18.0809 102.794 17.6202C103.129 17.1595 103.588 16.7999 104.171 16.5414C104.754 16.2828 105.417 16.1536 106.16 16.1536C106.915 16.1536 107.575 16.2828 108.138 16.5414C108.705 16.7999 109.146 17.1595 109.461 17.6202C109.776 18.0809 109.938 18.6145 109.948 19.2211H107.885ZM111.535 26.4746V16.2928H118.396V18.0676H113.688V20.4938H118.043V22.2686H113.688V24.6998H118.416V26.4746H111.535Z" fill="white"/>
<rect x="0.801562" y="1.67461" width="155.6" height="38.6" rx="6.8" fill="url(#paint4_linear_0_3010)"/>
<rect x="0.801562" y="1.67461" width="155.6" height="38.6" rx="6.8" stroke="#BFA7A7" stroke-width="1.6"/>
<rect x="0.801562" y="1.67461" width="155.6" height="38.6" rx="6.8" stroke="black" stroke-opacity="0.2" stroke-width="1.6"/>
<path d="M31.0028 16.2928V26.4746H29.1435L24.7138 20.0662H24.6392V26.4746H22.4865V16.2928H24.3757L28.7706 22.6962H28.8601V16.2928H31.0028ZM32.7814 26.4746V16.2928H39.6422V18.0676H34.9341V20.4938H39.2892V22.2686H34.9341V24.6998H39.6621V26.4746H32.7814ZM43.6456 26.4746L40.7322 16.2928H43.0838L44.7692 23.3674H44.8537L46.7131 16.2928H48.7266L50.581 23.3823H50.6705L52.3558 16.2928H54.7074L51.794 26.4746H49.696L47.7571 19.8176H47.6776L45.7436 26.4746H43.6456ZM59.0998 26.4746V16.2928H61.2525V24.6998H65.6175V26.4746H59.0998ZM69.1958 16.2928V26.4746H67.0431V16.2928H69.1958ZM79.9506 19.8574H77.7731C77.7333 19.5757 77.6521 19.3255 77.5295 19.1067C77.4068 18.8846 77.2494 18.6957 77.0572 18.54C76.8649 18.3842 76.6429 18.2649 76.391 18.182C76.1424 18.0991 75.8723 18.0577 75.5806 18.0577C75.0536 18.0577 74.5946 18.1886 74.2035 18.4505C73.8124 18.709 73.5091 19.0868 73.2937 19.584C73.0782 20.0778 72.9705 20.6777 72.9705 21.3837C72.9705 22.1096 73.0782 22.7194 73.2937 23.2132C73.5124 23.7071 73.8174 24.08 74.2085 24.3319C74.5996 24.5837 75.052 24.7097 75.5657 24.7097C75.854 24.7097 76.1209 24.6716 76.3661 24.5953C76.6147 24.5191 76.8351 24.4081 77.0273 24.2623C77.2196 24.1131 77.3787 23.9325 77.5046 23.7203C77.6339 23.5082 77.7234 23.2663 77.7731 22.9945L79.9506 23.0044C79.8943 23.4718 79.7534 23.9225 79.5281 24.3567C79.306 24.7876 79.006 25.1737 78.6282 25.5151C78.2537 25.8532 77.8062 26.1216 77.2859 26.3205C76.7688 26.516 76.1838 26.6138 75.5309 26.6138C74.6228 26.6138 73.8107 26.4083 73.0948 25.9973C72.3822 25.5864 71.8188 24.9914 71.4045 24.2125C70.9935 23.4337 70.788 22.4907 70.788 21.3837C70.788 20.2734 70.9968 19.3288 71.4144 18.5499C71.832 17.771 72.3988 17.1777 73.1147 16.7701C73.8306 16.3591 74.636 16.1536 75.5309 16.1536C76.1209 16.1536 76.6677 16.2364 77.1715 16.4022C77.6786 16.5679 78.1277 16.8098 78.5188 17.128C78.9099 17.4429 79.2281 17.829 79.4734 18.2864C79.7219 18.7438 79.881 19.2675 79.9506 19.8574ZM81.4943 26.4746V16.2928H88.3551V18.0676H83.647V20.4938H88.0021V22.2686H83.647V24.6998H88.375V26.4746H81.4943ZM98.5829 16.2928V26.4746H96.7235L92.2939 20.0662H92.2193V26.4746H90.0666V16.2928H91.9558L96.3507 22.6962H96.4402V16.2928H98.5829ZM105.885 19.2211C105.845 18.82 105.674 18.5085 105.373 18.2864C105.071 18.0643 104.662 17.9533 104.145 17.9533C103.794 17.9533 103.497 18.003 103.255 18.1025C103.013 18.1986 102.827 18.3328 102.698 18.5051C102.572 18.6775 102.509 18.873 102.509 19.0918C102.503 19.2741 102.541 19.4332 102.624 19.5691C102.71 19.705 102.827 19.8226 102.977 19.9221C103.126 20.0182 103.298 20.1027 103.494 20.1756C103.689 20.2452 103.898 20.3049 104.12 20.3546L105.035 20.5733C105.479 20.6728 105.887 20.8053 106.258 20.9711C106.629 21.1368 106.951 21.3406 107.222 21.5826C107.494 21.8245 107.705 22.1096 107.854 22.4377C108.006 22.7658 108.084 23.142 108.087 23.5662C108.084 24.1893 107.925 24.7296 107.61 25.187C107.299 25.641 106.848 25.994 106.258 26.2459C105.671 26.4945 104.964 26.6188 104.135 26.6188C103.313 26.6188 102.597 26.4928 101.987 26.2409C101.381 25.9891 100.907 25.6162 100.565 25.1223C100.227 24.6252 100.05 24.0104 100.033 23.2779H102.116C102.14 23.6193 102.237 23.9043 102.41 24.133C102.585 24.3584 102.819 24.5291 103.111 24.6451C103.406 24.7578 103.739 24.8141 104.11 24.8141C104.475 24.8141 104.791 24.7611 105.06 24.655C105.331 24.5489 105.542 24.4015 105.691 24.2125C105.84 24.0236 105.915 23.8065 105.915 23.5613C105.915 23.3326 105.847 23.1403 105.711 22.9846C105.578 22.8288 105.383 22.6962 105.124 22.5868C104.869 22.4775 104.556 22.378 104.185 22.2885L103.076 22.0101C102.218 21.8013 101.54 21.4748 101.043 21.0307C100.545 20.5866 100.299 19.9883 100.302 19.236C100.299 18.6195 100.463 18.0809 100.794 17.6202C101.129 17.1595 101.588 16.7999 102.171 16.5414C102.754 16.2828 103.417 16.1536 104.16 16.1536C104.915 16.1536 105.575 16.2828 106.138 16.5414C106.705 16.7999 107.146 17.1595 107.461 17.6202C107.776 18.0809 107.938 18.6145 107.948 19.2211H105.885ZM109.535 26.4746V16.2928H116.396V18.0676H111.688V20.4938H116.043V22.2686H111.688V24.6998H116.416V26.4746H109.535Z" fill="white"/>
<defs>
<linearGradient id="paint0_linear_0_3010" x1="78.6016" y1="2.47461" x2="78.6016" y2="39.4746" gradientUnits="userSpaceOnUse">
<stop offset="0.170009" stop-color="#9EFFCA" stop-opacity="0.78"/>
<stop offset="0.60503" stop-color="#889B91" stop-opacity="0.88"/>
<stop offset="0.893188" stop-color="#728A6F"/>
</linearGradient>
<linearGradient id="paint1_linear_0_3010" x1="79.6016" y1="2.47461" x2="79.6016" y2="39.4746" gradientUnits="userSpaceOnUse">
<stop offset="0.170009" stop-color="#9EFFCA" stop-opacity="0.78"/>
<stop offset="0.60503" stop-color="#889B91" stop-opacity="0.88"/>
<stop offset="0.893188" stop-color="#728A6F"/>
</linearGradient>
<linearGradient id="paint2_linear_0_3010" x1="81.1016" y1="2.47461" x2="81.1016" y2="39.4746" gradientUnits="userSpaceOnUse">
<stop offset="0.170009" stop-color="#9EFFCA" stop-opacity="0.78"/>
<stop offset="0.60503" stop-color="#889B91" stop-opacity="0.88"/>
<stop offset="0.893188" stop-color="#728A6F"/>
</linearGradient>
<linearGradient id="paint3_linear_0_3010" x1="80.6016" y1="2.47461" x2="80.6016" y2="39.4746" gradientUnits="userSpaceOnUse">
<stop offset="0.170009" stop-color="#9EFFCA" stop-opacity="0.78"/>
<stop offset="0.60503" stop-color="#889B91" stop-opacity="0.88"/>
<stop offset="0.893188" stop-color="#728A6F"/>
</linearGradient>
<linearGradient id="paint4_linear_0_3010" x1="78.6016" y1="2.47461" x2="78.6016" y2="39.4746" gradientUnits="userSpaceOnUse">
<stop offset="0.170009" stop-color="#9EFFCA" stop-opacity="0.78"/>
<stop offset="0.60503" stop-color="#889B91" stop-opacity="0.88"/>
<stop offset="0.893188" stop-color="#728A6F"/>
</linearGradient>
</defs>
</svg>
