<svg width="161" height="42" viewBox="0 0 161 42" fill="none" xmlns="http://www.w3.org/2000/svg">
<rect x="3.80156" y="1.67461" width="155.6" height="38.6" rx="6.8" fill="url(#paint0_linear_0_3004)"/>
<rect x="3.80156" y="1.67461" width="155.6" height="38.6" rx="6.8" stroke="#BFA7A7" stroke-width="1.6"/>
<rect x="3.80156" y="1.67461" width="155.6" height="38.6" rx="6.8" stroke="black" stroke-opacity="0.2" stroke-width="1.6"/>
<path d="M25.4865 26.4746V16.2928H29.5036C30.2725 16.2928 30.9287 16.4303 31.4723 16.7054C32.0192 16.9772 32.4351 17.3633 32.7202 17.8638C33.0085 18.361 33.1527 18.946 33.1527 19.6188C33.1527 20.2949 33.0069 20.8766 32.7152 21.3638C32.4235 21.8477 32.0009 22.2189 31.4474 22.4775C30.8973 22.736 30.2311 22.8652 29.4489 22.8652H26.7592V21.1351H29.1009C29.5118 21.1351 29.8532 21.0788 30.125 20.9661C30.3968 20.8534 30.599 20.6844 30.7315 20.459C30.8674 20.2336 30.9354 19.9535 30.9354 19.6188C30.9354 19.2807 30.8674 18.9957 30.7315 18.7637C30.599 18.5317 30.3951 18.356 30.12 18.2367C29.8482 18.1141 29.5052 18.0527 29.0909 18.0527H27.6392V26.4746H25.4865ZM30.9851 21.8411L33.5156 26.4746H31.1392L28.6634 21.8411H30.9851ZM34.674 26.4746V16.2928H41.5348V18.0676H36.8267V20.4938H41.1818V22.2686H36.8267V24.6998H41.5547V26.4746H34.674ZM51.7626 16.2928V26.4746H49.9032L45.4735 20.0662H45.399V26.4746H43.2463V16.2928H45.1355L49.5304 22.6962H49.6199V16.2928H51.7626ZM53.5412 26.4746V16.2928H60.402V18.0676H55.6939V20.4938H60.049V22.2686H55.6939V24.6998H60.4219V26.4746H53.5412ZM64.4054 26.4746L61.492 16.2928H63.8436L65.5289 23.3674H65.6135L67.4728 16.2928H69.4863L71.3407 23.3823H71.4302L73.1156 16.2928H75.4672L72.5538 26.4746H70.4558L68.5169 19.8176H68.4373L66.5034 26.4746H64.4054ZM79.8596 26.4746V16.2928H82.0123V24.6998H86.3773V26.4746H79.8596ZM89.9556 16.2928V26.4746H87.8029V16.2928H89.9556ZM100.71 19.8574H98.5328C98.4931 19.5757 98.4119 19.3255 98.2892 19.1067C98.1666 18.8846 98.0092 18.6957 97.8169 18.54C97.6247 18.3842 97.4026 18.2649 97.1507 18.182C96.9022 18.0991 96.632 18.0577 96.3404 18.0577C95.8134 18.0577 95.3543 18.1886 94.9632 18.4505C94.5721 18.709 94.2689 19.0868 94.0534 19.584C93.838 20.0778 93.7303 20.6777 93.7303 21.3837C93.7303 22.1096 93.838 22.7194 94.0534 23.2132C94.2722 23.7071 94.5771 24.08 94.9682 24.3319C95.3593 24.5837 95.8117 24.7097 96.3255 24.7097C96.6138 24.7097 96.8806 24.6716 97.1259 24.5953C97.3745 24.5191 97.5949 24.4081 97.7871 24.2623C97.9793 24.1131 98.1384 23.9325 98.2644 23.7203C98.3936 23.5082 98.4831 23.2663 98.5328 22.9945L100.71 23.0044C100.654 23.4718 100.513 23.9225 100.288 24.3567C100.066 24.7876 99.7658 25.1737 99.388 25.5151C99.0134 25.8532 98.566 26.1216 98.0456 26.3205C97.5286 26.516 96.9436 26.6138 96.2907 26.6138C95.3825 26.6138 94.5705 26.4083 93.8546 25.9973C93.142 25.5864 92.5785 24.9914 92.1642 24.2125C91.7533 23.4337 91.5478 22.4907 91.5478 21.3837C91.5478 20.2734 91.7566 19.3288 92.1742 18.5499C92.5918 17.771 93.1586 17.1777 93.8745 16.7701C94.5904 16.3591 95.3958 16.1536 96.2907 16.1536C96.8806 16.1536 97.4275 16.2364 97.9313 16.4022C98.4384 16.5679 98.8875 16.8098 99.2786 17.128C99.6697 17.4429 99.9879 17.829 100.233 18.2864C100.482 18.7438 100.641 19.2675 100.71 19.8574ZM102.254 26.4746V16.2928H109.115V18.0676H104.407V20.4938H108.762V22.2686H104.407V24.6998H109.135V26.4746H102.254ZM119.343 16.2928V26.4746H117.483L113.054 20.0662H112.979V26.4746H110.826V16.2928H112.716L117.11 22.6962H117.2V16.2928H119.343ZM126.645 19.2211C126.605 18.82 126.434 18.5085 126.133 18.2864C125.831 18.0643 125.422 17.9533 124.905 17.9533C124.553 17.9533 124.257 18.003 124.015 18.1025C123.773 18.1986 123.587 18.3328 123.458 18.5051C123.332 18.6775 123.269 18.873 123.269 19.0918C123.262 19.2741 123.3 19.4332 123.383 19.5691C123.47 19.705 123.587 19.8226 123.736 19.9221C123.885 20.0182 124.058 20.1027 124.253 20.1756C124.449 20.2452 124.658 20.3049 124.88 20.3546L125.795 20.5733C126.239 20.6728 126.646 20.8053 127.018 20.9711C127.389 21.1368 127.71 21.3406 127.982 21.5826C128.254 21.8245 128.464 22.1096 128.613 22.4377C128.766 22.7658 128.844 23.142 128.847 23.5662C128.844 24.1893 128.685 24.7296 128.37 25.187C128.058 25.641 127.608 25.994 127.018 26.2459C126.431 26.4945 125.723 26.6188 124.895 26.6188C124.073 26.6188 123.357 26.4928 122.747 26.2409C122.14 25.9891 121.666 25.6162 121.325 25.1223C120.987 24.6252 120.81 24.0104 120.793 23.2779H122.876C122.899 23.6193 122.997 23.9043 123.17 24.133C123.345 24.3584 123.579 24.5291 123.871 24.6451C124.166 24.7578 124.499 24.8141 124.87 24.8141C125.234 24.8141 125.551 24.7611 125.819 24.655C126.091 24.5489 126.302 24.4015 126.451 24.2125C126.6 24.0236 126.675 23.8065 126.675 23.5613C126.675 23.3326 126.607 23.1403 126.471 22.9846C126.338 22.8288 126.143 22.6962 125.884 22.5868C125.629 22.4775 125.316 22.378 124.944 22.2885L123.836 22.0101C122.977 21.8013 122.3 21.4748 121.802 21.0307C121.305 20.5866 121.058 19.9883 121.062 19.236C121.058 18.6195 121.222 18.0809 121.554 17.6202C121.889 17.1595 122.348 16.7999 122.931 16.5414C123.514 16.2828 124.177 16.1536 124.92 16.1536C125.675 16.1536 126.335 16.2828 126.898 16.5414C127.465 16.7999 127.906 17.1595 128.221 17.6202C128.536 18.0809 128.698 18.6145 128.708 19.2211H126.645ZM130.295 26.4746V16.2928H137.156V18.0676H132.448V20.4938H136.803V22.2686H132.448V24.6998H137.176V26.4746H130.295Z" fill="white"/>
<rect x="1.80156" y="1.67461" width="155.6" height="38.6" rx="6.8" fill="url(#paint1_linear_0_3004)"/>
<rect x="1.80156" y="1.67461" width="155.6" height="38.6" rx="6.8" stroke="#BFA7A7" stroke-width="1.6"/>
<rect x="1.80156" y="1.67461" width="155.6" height="38.6" rx="6.8" stroke="black" stroke-opacity="0.2" stroke-width="1.6"/>
<path d="M23.4865 26.4746V16.2928H27.5036C28.2725 16.2928 28.9287 16.4303 29.4723 16.7054C30.0192 16.9772 30.4351 17.3633 30.7202 17.8638C31.0085 18.361 31.1527 18.946 31.1527 19.6188C31.1527 20.2949 31.0069 20.8766 30.7152 21.3638C30.4235 21.8477 30.0009 22.2189 29.4474 22.4775C28.8973 22.736 28.2311 22.8652 27.4489 22.8652H24.7592V21.1351H27.1009C27.5118 21.1351 27.8532 21.0788 28.125 20.9661C28.3968 20.8534 28.599 20.6844 28.7315 20.459C28.8674 20.2336 28.9354 19.9535 28.9354 19.6188C28.9354 19.2807 28.8674 18.9957 28.7315 18.7637C28.599 18.5317 28.3951 18.356 28.12 18.2367C27.8482 18.1141 27.5052 18.0527 27.0909 18.0527H25.6392V26.4746H23.4865ZM28.9851 21.8411L31.5156 26.4746H29.1392L26.6634 21.8411H28.9851ZM32.674 26.4746V16.2928H39.5348V18.0676H34.8267V20.4938H39.1818V22.2686H34.8267V24.6998H39.5547V26.4746H32.674ZM49.7626 16.2928V26.4746H47.9032L43.4735 20.0662H43.399V26.4746H41.2463V16.2928H43.1355L47.5304 22.6962H47.6199V16.2928H49.7626ZM51.5412 26.4746V16.2928H58.402V18.0676H53.6939V20.4938H58.049V22.2686H53.6939V24.6998H58.4219V26.4746H51.5412ZM62.4054 26.4746L59.492 16.2928H61.8436L63.5289 23.3674H63.6135L65.4728 16.2928H67.4863L69.3407 23.3823H69.4302L71.1156 16.2928H73.4672L70.5538 26.4746H68.4558L66.5169 19.8176H66.4373L64.5034 26.4746H62.4054ZM77.8596 26.4746V16.2928H80.0123V24.6998H84.3773V26.4746H77.8596ZM87.9556 16.2928V26.4746H85.8029V16.2928H87.9556ZM98.7104 19.8574H96.5328C96.4931 19.5757 96.4119 19.3255 96.2892 19.1067C96.1666 18.8846 96.0092 18.6957 95.8169 18.54C95.6247 18.3842 95.4026 18.2649 95.1507 18.182C94.9022 18.0991 94.632 18.0577 94.3404 18.0577C93.8134 18.0577 93.3543 18.1886 92.9632 18.4505C92.5721 18.709 92.2689 19.0868 92.0534 19.584C91.838 20.0778 91.7303 20.6777 91.7303 21.3837C91.7303 22.1096 91.838 22.7194 92.0534 23.2132C92.2722 23.7071 92.5771 24.08 92.9682 24.3319C93.3593 24.5837 93.8117 24.7097 94.3255 24.7097C94.6138 24.7097 94.8806 24.6716 95.1259 24.5953C95.3745 24.5191 95.5949 24.4081 95.7871 24.2623C95.9793 24.1131 96.1384 23.9325 96.2644 23.7203C96.3936 23.5082 96.4831 23.2663 96.5328 22.9945L98.7104 23.0044C98.6541 23.4718 98.5132 23.9225 98.2878 24.3567C98.0658 24.7876 97.7658 25.1737 97.388 25.5151C97.0134 25.8532 96.566 26.1216 96.0456 26.3205C95.5286 26.516 94.9436 26.6138 94.2907 26.6138C93.3825 26.6138 92.5705 26.4083 91.8546 25.9973C91.142 25.5864 90.5785 24.9914 90.1642 24.2125C89.7533 23.4337 89.5478 22.4907 89.5478 21.3837C89.5478 20.2734 89.7566 19.3288 90.1742 18.5499C90.5918 17.771 91.1586 17.1777 91.8745 16.7701C92.5904 16.3591 93.3958 16.1536 94.2907 16.1536C94.8806 16.1536 95.4275 16.2364 95.9313 16.4022C96.4384 16.5679 96.8875 16.8098 97.2786 17.128C97.6697 17.4429 97.9879 17.829 98.2331 18.2864C98.4817 18.7438 98.6408 19.2675 98.7104 19.8574ZM100.254 26.4746V16.2928H107.115V18.0676H102.407V20.4938H106.762V22.2686H102.407V24.6998H107.135V26.4746H100.254ZM117.343 16.2928V26.4746H115.483L111.054 20.0662H110.979V26.4746H108.826V16.2928H110.716L115.11 22.6962H115.2V16.2928H117.343ZM124.645 19.2211C124.605 18.82 124.434 18.5085 124.133 18.2864C123.831 18.0643 123.422 17.9533 122.905 17.9533C122.553 17.9533 122.257 18.003 122.015 18.1025C121.773 18.1986 121.587 18.3328 121.458 18.5051C121.332 18.6775 121.269 18.873 121.269 19.0918C121.262 19.2741 121.3 19.4332 121.383 19.5691C121.47 19.705 121.587 19.8226 121.736 19.9221C121.885 20.0182 122.058 20.1027 122.253 20.1756C122.449 20.2452 122.658 20.3049 122.88 20.3546L123.795 20.5733C124.239 20.6728 124.646 20.8053 125.018 20.9711C125.389 21.1368 125.71 21.3406 125.982 21.5826C126.254 21.8245 126.464 22.1096 126.613 22.4377C126.766 22.7658 126.844 23.142 126.847 23.5662C126.844 24.1893 126.685 24.7296 126.37 25.187C126.058 25.641 125.608 25.994 125.018 26.2459C124.431 26.4945 123.723 26.6188 122.895 26.6188C122.073 26.6188 121.357 26.4928 120.747 26.2409C120.14 25.9891 119.666 25.6162 119.325 25.1223C118.987 24.6252 118.81 24.0104 118.793 23.2779H120.876C120.899 23.6193 120.997 23.9043 121.17 24.133C121.345 24.3584 121.579 24.5291 121.871 24.6451C122.166 24.7578 122.499 24.8141 122.87 24.8141C123.234 24.8141 123.551 24.7611 123.819 24.655C124.091 24.5489 124.302 24.4015 124.451 24.2125C124.6 24.0236 124.675 23.8065 124.675 23.5613C124.675 23.3326 124.607 23.1403 124.471 22.9846C124.338 22.8288 124.143 22.6962 123.884 22.5868C123.629 22.4775 123.316 22.378 122.944 22.2885L121.836 22.0101C120.977 21.8013 120.3 21.4748 119.802 21.0307C119.305 20.5866 119.058 19.9883 119.062 19.236C119.058 18.6195 119.222 18.0809 119.554 17.6202C119.889 17.1595 120.348 16.7999 120.931 16.5414C121.514 16.2828 122.177 16.1536 122.92 16.1536C123.675 16.1536 124.335 16.2828 124.898 16.5414C125.465 16.7999 125.906 17.1595 126.221 17.6202C126.536 18.0809 126.698 18.6145 126.708 19.2211H124.645ZM128.295 26.4746V16.2928H135.156V18.0676H130.448V20.4938H134.803V22.2686H130.448V24.6998H135.176V26.4746H128.295Z" fill="white"/>
<rect x="1.80156" y="1.67461" width="155.6" height="38.6" rx="6.8" fill="url(#paint2_linear_0_3004)"/>
<rect x="1.80156" y="1.67461" width="155.6" height="38.6" rx="6.8" stroke="#BFA7A7" stroke-width="1.6"/>
<rect x="1.80156" y="1.67461" width="155.6" height="38.6" rx="6.8" stroke="black" stroke-opacity="0.2" stroke-width="1.6"/>
<path d="M23.4865 26.4746V16.2928H27.5036C28.2725 16.2928 28.9287 16.4303 29.4723 16.7054C30.0192 16.9772 30.4351 17.3633 30.7202 17.8638C31.0085 18.361 31.1527 18.946 31.1527 19.6188C31.1527 20.2949 31.0069 20.8766 30.7152 21.3638C30.4235 21.8477 30.0009 22.2189 29.4474 22.4775C28.8973 22.736 28.2311 22.8652 27.4489 22.8652H24.7592V21.1351H27.1009C27.5118 21.1351 27.8532 21.0788 28.125 20.9661C28.3968 20.8534 28.599 20.6844 28.7315 20.459C28.8674 20.2336 28.9354 19.9535 28.9354 19.6188C28.9354 19.2807 28.8674 18.9957 28.7315 18.7637C28.599 18.5317 28.3951 18.356 28.12 18.2367C27.8482 18.1141 27.5052 18.0527 27.0909 18.0527H25.6392V26.4746H23.4865ZM28.9851 21.8411L31.5156 26.4746H29.1392L26.6634 21.8411H28.9851ZM32.674 26.4746V16.2928H39.5348V18.0676H34.8267V20.4938H39.1818V22.2686H34.8267V24.6998H39.5547V26.4746H32.674ZM49.7626 16.2928V26.4746H47.9032L43.4735 20.0662H43.399V26.4746H41.2463V16.2928H43.1355L47.5304 22.6962H47.6199V16.2928H49.7626ZM51.5412 26.4746V16.2928H58.402V18.0676H53.6939V20.4938H58.049V22.2686H53.6939V24.6998H58.4219V26.4746H51.5412ZM62.4054 26.4746L59.492 16.2928H61.8436L63.5289 23.3674H63.6135L65.4728 16.2928H67.4863L69.3407 23.3823H69.4302L71.1156 16.2928H73.4672L70.5538 26.4746H68.4558L66.5169 19.8176H66.4373L64.5034 26.4746H62.4054ZM77.8596 26.4746V16.2928H80.0123V24.6998H84.3773V26.4746H77.8596ZM87.9556 16.2928V26.4746H85.8029V16.2928H87.9556ZM98.7104 19.8574H96.5328C96.4931 19.5757 96.4119 19.3255 96.2892 19.1067C96.1666 18.8846 96.0092 18.6957 95.8169 18.54C95.6247 18.3842 95.4026 18.2649 95.1507 18.182C94.9022 18.0991 94.632 18.0577 94.3404 18.0577C93.8134 18.0577 93.3543 18.1886 92.9632 18.4505C92.5721 18.709 92.2689 19.0868 92.0534 19.584C91.838 20.0778 91.7303 20.6777 91.7303 21.3837C91.7303 22.1096 91.838 22.7194 92.0534 23.2132C92.2722 23.7071 92.5771 24.08 92.9682 24.3319C93.3593 24.5837 93.8117 24.7097 94.3255 24.7097C94.6138 24.7097 94.8806 24.6716 95.1259 24.5953C95.3745 24.5191 95.5949 24.4081 95.7871 24.2623C95.9793 24.1131 96.1384 23.9325 96.2644 23.7203C96.3936 23.5082 96.4831 23.2663 96.5328 22.9945L98.7104 23.0044C98.6541 23.4718 98.5132 23.9225 98.2878 24.3567C98.0658 24.7876 97.7658 25.1737 97.388 25.5151C97.0134 25.8532 96.566 26.1216 96.0456 26.3205C95.5286 26.516 94.9436 26.6138 94.2907 26.6138C93.3825 26.6138 92.5705 26.4083 91.8546 25.9973C91.142 25.5864 90.5785 24.9914 90.1642 24.2125C89.7533 23.4337 89.5478 22.4907 89.5478 21.3837C89.5478 20.2734 89.7566 19.3288 90.1742 18.5499C90.5918 17.771 91.1586 17.1777 91.8745 16.7701C92.5904 16.3591 93.3958 16.1536 94.2907 16.1536C94.8806 16.1536 95.4275 16.2364 95.9313 16.4022C96.4384 16.5679 96.8875 16.8098 97.2786 17.128C97.6697 17.4429 97.9879 17.829 98.2331 18.2864C98.4817 18.7438 98.6408 19.2675 98.7104 19.8574ZM100.254 26.4746V16.2928H107.115V18.0676H102.407V20.4938H106.762V22.2686H102.407V24.6998H107.135V26.4746H100.254ZM117.343 16.2928V26.4746H115.483L111.054 20.0662H110.979V26.4746H108.826V16.2928H110.716L115.11 22.6962H115.2V16.2928H117.343ZM124.645 19.2211C124.605 18.82 124.434 18.5085 124.133 18.2864C123.831 18.0643 123.422 17.9533 122.905 17.9533C122.553 17.9533 122.257 18.003 122.015 18.1025C121.773 18.1986 121.587 18.3328 121.458 18.5051C121.332 18.6775 121.269 18.873 121.269 19.0918C121.262 19.2741 121.3 19.4332 121.383 19.5691C121.47 19.705 121.587 19.8226 121.736 19.9221C121.885 20.0182 122.058 20.1027 122.253 20.1756C122.449 20.2452 122.658 20.3049 122.88 20.3546L123.795 20.5733C124.239 20.6728 124.646 20.8053 125.018 20.9711C125.389 21.1368 125.71 21.3406 125.982 21.5826C126.254 21.8245 126.464 22.1096 126.613 22.4377C126.766 22.7658 126.844 23.142 126.847 23.5662C126.844 24.1893 126.685 24.7296 126.37 25.187C126.058 25.641 125.608 25.994 125.018 26.2459C124.431 26.4945 123.723 26.6188 122.895 26.6188C122.073 26.6188 121.357 26.4928 120.747 26.2409C120.14 25.9891 119.666 25.6162 119.325 25.1223C118.987 24.6252 118.81 24.0104 118.793 23.2779H120.876C120.899 23.6193 120.997 23.9043 121.17 24.133C121.345 24.3584 121.579 24.5291 121.871 24.6451C122.166 24.7578 122.499 24.8141 122.87 24.8141C123.234 24.8141 123.551 24.7611 123.819 24.655C124.091 24.5489 124.302 24.4015 124.451 24.2125C124.6 24.0236 124.675 23.8065 124.675 23.5613C124.675 23.3326 124.607 23.1403 124.471 22.9846C124.338 22.8288 124.143 22.6962 123.884 22.5868C123.629 22.4775 123.316 22.378 122.944 22.2885L121.836 22.0101C120.977 21.8013 120.3 21.4748 119.802 21.0307C119.305 20.5866 119.058 19.9883 119.062 19.236C119.058 18.6195 119.222 18.0809 119.554 17.6202C119.889 17.1595 120.348 16.7999 120.931 16.5414C121.514 16.2828 122.177 16.1536 122.92 16.1536C123.675 16.1536 124.335 16.2828 124.898 16.5414C125.465 16.7999 125.906 17.1595 126.221 17.6202C126.536 18.0809 126.698 18.6145 126.708 19.2211H124.645ZM128.295 26.4746V16.2928H135.156V18.0676H130.448V20.4938H134.803V22.2686H130.448V24.6998H135.176V26.4746H128.295Z" fill="white"/>
<rect x="0.801562" y="1.67461" width="155.6" height="38.6" rx="6.8" fill="url(#paint3_linear_0_3004)"/>
<rect x="0.801562" y="1.67461" width="155.6" height="38.6" rx="6.8" stroke="#BFA7A7" stroke-width="1.6"/>
<rect x="0.801562" y="1.67461" width="155.6" height="38.6" rx="6.8" stroke="black" stroke-opacity="0.2" stroke-width="1.6"/>
<path d="M22.4865 26.4746V16.2928H26.5036C27.2725 16.2928 27.9287 16.4303 28.4723 16.7054C29.0192 16.9772 29.4351 17.3633 29.7202 17.8638C30.0085 18.361 30.1527 18.946 30.1527 19.6188C30.1527 20.2949 30.0069 20.8766 29.7152 21.3638C29.4235 21.8477 29.0009 22.2189 28.4474 22.4775C27.8973 22.736 27.2311 22.8652 26.4489 22.8652H23.7592V21.1351H26.1009C26.5118 21.1351 26.8532 21.0788 27.125 20.9661C27.3968 20.8534 27.599 20.6844 27.7315 20.459C27.8674 20.2336 27.9354 19.9535 27.9354 19.6188C27.9354 19.2807 27.8674 18.9957 27.7315 18.7637C27.599 18.5317 27.3951 18.356 27.12 18.2367C26.8482 18.1141 26.5052 18.0527 26.0909 18.0527H24.6392V26.4746H22.4865ZM27.9851 21.8411L30.5156 26.4746H28.1392L25.6634 21.8411H27.9851ZM31.674 26.4746V16.2928H38.5348V18.0676H33.8267V20.4938H38.1818V22.2686H33.8267V24.6998H38.5547V26.4746H31.674ZM48.7626 16.2928V26.4746H46.9032L42.4735 20.0662H42.399V26.4746H40.2463V16.2928H42.1355L46.5304 22.6962H46.6199V16.2928H48.7626ZM50.5412 26.4746V16.2928H57.402V18.0676H52.6939V20.4938H57.049V22.2686H52.6939V24.6998H57.4219V26.4746H50.5412ZM61.4054 26.4746L58.492 16.2928H60.8436L62.5289 23.3674H62.6135L64.4728 16.2928H66.4863L68.3407 23.3823H68.4302L70.1156 16.2928H72.4672L69.5538 26.4746H67.4558L65.5169 19.8176H65.4373L63.5034 26.4746H61.4054ZM76.8596 26.4746V16.2928H79.0123V24.6998H83.3773V26.4746H76.8596ZM86.9556 16.2928V26.4746H84.8029V16.2928H86.9556ZM97.7104 19.8574H95.5328C95.4931 19.5757 95.4119 19.3255 95.2892 19.1067C95.1666 18.8846 95.0092 18.6957 94.8169 18.54C94.6247 18.3842 94.4026 18.2649 94.1507 18.182C93.9022 18.0991 93.632 18.0577 93.3404 18.0577C92.8134 18.0577 92.3543 18.1886 91.9632 18.4505C91.5721 18.709 91.2689 19.0868 91.0534 19.584C90.838 20.0778 90.7303 20.6777 90.7303 21.3837C90.7303 22.1096 90.838 22.7194 91.0534 23.2132C91.2722 23.7071 91.5771 24.08 91.9682 24.3319C92.3593 24.5837 92.8117 24.7097 93.3255 24.7097C93.6138 24.7097 93.8806 24.6716 94.1259 24.5953C94.3745 24.5191 94.5949 24.4081 94.7871 24.2623C94.9793 24.1131 95.1384 23.9325 95.2644 23.7203C95.3936 23.5082 95.4831 23.2663 95.5328 22.9945L97.7104 23.0044C97.6541 23.4718 97.5132 23.9225 97.2878 24.3567C97.0658 24.7876 96.7658 25.1737 96.388 25.5151C96.0134 25.8532 95.566 26.1216 95.0456 26.3205C94.5286 26.516 93.9436 26.6138 93.2907 26.6138C92.3825 26.6138 91.5705 26.4083 90.8546 25.9973C90.142 25.5864 89.5785 24.9914 89.1642 24.2125C88.7533 23.4337 88.5478 22.4907 88.5478 21.3837C88.5478 20.2734 88.7566 19.3288 89.1742 18.5499C89.5918 17.771 90.1586 17.1777 90.8745 16.7701C91.5904 16.3591 92.3958 16.1536 93.2907 16.1536C93.8806 16.1536 94.4275 16.2364 94.9313 16.4022C95.4384 16.5679 95.8875 16.8098 96.2786 17.128C96.6697 17.4429 96.9879 17.829 97.2331 18.2864C97.4817 18.7438 97.6408 19.2675 97.7104 19.8574ZM99.2541 26.4746V16.2928H106.115V18.0676H101.407V20.4938H105.762V22.2686H101.407V24.6998H106.135V26.4746H99.2541ZM116.343 16.2928V26.4746H114.483L110.054 20.0662H109.979V26.4746H107.826V16.2928H109.716L114.11 22.6962H114.2V16.2928H116.343ZM123.645 19.2211C123.605 18.82 123.434 18.5085 123.133 18.2864C122.831 18.0643 122.422 17.9533 121.905 17.9533C121.553 17.9533 121.257 18.003 121.015 18.1025C120.773 18.1986 120.587 18.3328 120.458 18.5051C120.332 18.6775 120.269 18.873 120.269 19.0918C120.262 19.2741 120.3 19.4332 120.383 19.5691C120.47 19.705 120.587 19.8226 120.736 19.9221C120.885 20.0182 121.058 20.1027 121.253 20.1756C121.449 20.2452 121.658 20.3049 121.88 20.3546L122.795 20.5733C123.239 20.6728 123.646 20.8053 124.018 20.9711C124.389 21.1368 124.71 21.3406 124.982 21.5826C125.254 21.8245 125.464 22.1096 125.613 22.4377C125.766 22.7658 125.844 23.142 125.847 23.5662C125.844 24.1893 125.685 24.7296 125.37 25.187C125.058 25.641 124.608 25.994 124.018 26.2459C123.431 26.4945 122.723 26.6188 121.895 26.6188C121.073 26.6188 120.357 26.4928 119.747 26.2409C119.14 25.9891 118.666 25.6162 118.325 25.1223C117.987 24.6252 117.81 24.0104 117.793 23.2779H119.876C119.899 23.6193 119.997 23.9043 120.17 24.133C120.345 24.3584 120.579 24.5291 120.871 24.6451C121.166 24.7578 121.499 24.8141 121.87 24.8141C122.234 24.8141 122.551 24.7611 122.819 24.655C123.091 24.5489 123.302 24.4015 123.451 24.2125C123.6 24.0236 123.675 23.8065 123.675 23.5613C123.675 23.3326 123.607 23.1403 123.471 22.9846C123.338 22.8288 123.143 22.6962 122.884 22.5868C122.629 22.4775 122.316 22.378 121.944 22.2885L120.836 22.0101C119.977 21.8013 119.3 21.4748 118.802 21.0307C118.305 20.5866 118.058 19.9883 118.062 19.236C118.058 18.6195 118.222 18.0809 118.554 17.6202C118.889 17.1595 119.348 16.7999 119.931 16.5414C120.514 16.2828 121.177 16.1536 121.92 16.1536C122.675 16.1536 123.335 16.2828 123.898 16.5414C124.465 16.7999 124.906 17.1595 125.221 17.6202C125.536 18.0809 125.698 18.6145 125.708 19.2211H123.645ZM127.295 26.4746V16.2928H134.156V18.0676H129.448V20.4938H133.803V22.2686H129.448V24.6998H134.176V26.4746H127.295Z" fill="white"/>
<defs>
<linearGradient id="paint0_linear_0_3004" x1="81.6016" y1="2.47461" x2="81.6016" y2="39.4746" gradientUnits="userSpaceOnUse">
<stop offset="0.127053" stop-color="#FFF861"/>
<stop offset="0.532092" stop-color="#D5B431"/>
<stop offset="0.917533" stop-color="#E7D799"/>
</linearGradient>
<linearGradient id="paint1_linear_0_3004" x1="79.6016" y1="2.47461" x2="79.6016" y2="39.4746" gradientUnits="userSpaceOnUse">
<stop offset="0.127053" stop-color="#FFF861"/>
<stop offset="0.532092" stop-color="#D5B431"/>
<stop offset="0.917533" stop-color="#E7D799"/>
</linearGradient>
<linearGradient id="paint2_linear_0_3004" x1="79.6016" y1="2.47461" x2="79.6016" y2="39.4746" gradientUnits="userSpaceOnUse">
<stop offset="0.127053" stop-color="#FFF861"/>
<stop offset="0.532092" stop-color="#D5B431"/>
<stop offset="0.917533" stop-color="#E7D799"/>
</linearGradient>
<linearGradient id="paint3_linear_0_3004" x1="78.6016" y1="2.47461" x2="78.6016" y2="39.4746" gradientUnits="userSpaceOnUse">
<stop offset="0.127053" stop-color="#FFF861"/>
<stop offset="0.532092" stop-color="#D5B431"/>
<stop offset="0.917533" stop-color="#E7D799"/>
</linearGradient>
</defs>
</svg>
