<svg width="38" height="38" viewBox="0 0 38 38" fill="none" xmlns="http://www.w3.org/2000/svg">
<path d="M30.0882 7.91311L22.1139 0.89231C21.945 0.75262 21.723 0.673492 21.4914 0.670406C21.3761 0.667829 21.2614 0.686044 21.1544 0.723934C21.0474 0.761823 20.9503 0.818587 20.869 0.890741C20.7878 0.962894 20.7242 1.04892 20.682 1.14352C20.6399 1.23813 20.6202 1.33933 20.624 1.44091V7.03782C20.624 7.59038 20.8731 8.12031 21.3165 8.51103C21.7599 8.90175 22.3613 9.12125 22.9883 9.12125H29.3398C29.4554 9.12379 29.5703 9.1056 29.6777 9.06778C29.7851 9.02995 29.8827 8.97329 29.9644 8.90123C30.0462 8.82917 30.1105 8.74322 30.1534 8.64859C30.1964 8.55396 30.217 8.45263 30.2141 8.35075C30.333 8.2398 30.333 8.13502 30.0882 7.91311ZM30.333 13.51C30.3331 13.3638 30.3 13.2191 30.2357 13.0844C30.1713 12.9496 30.0771 12.8276 29.9585 12.7253C29.8399 12.6231 29.6993 12.5428 29.545 12.4892C29.3907 12.4355 29.2258 12.4095 29.0599 12.4128H20.624C19.6661 12.4128 18.7473 12.0779 18.0693 11.4816C17.3913 10.8853 17.0095 10.0763 17.0076 9.23221V1.7676C17.0076 1.47767 16.8774 1.19952 16.6454 0.993937C16.4134 0.78835 16.0985 0.672035 15.7695 0.670406H3.68216C2.72546 0.672035 1.80846 1.00766 1.13197 1.60379C0.455472 2.19992 0.0746026 3.00798 0.0727539 3.85103V29.4255C0.0746026 30.2685 0.455472 31.0766 1.13197 31.6727C1.80846 32.2689 2.72546 32.6045 3.68216 32.6061H16.0143C17.0076 32.6061 17.2594 32.0575 17.1335 31.0713C17.0076 30.085 16.7628 26.2387 19.7496 23.169C22.7365 20.0993 27.7239 19.8774 28.4654 19.8774C29.2068 19.8774 30.4589 19.8774 30.333 18.885V13.51ZM4.30472 7.34602L7.29857 7.01933C7.33196 7.01933 7.36399 7.00764 7.3876 6.98683C7.41121 6.96603 7.42448 6.93781 7.42448 6.90838L8.82347 4.49209C8.8934 4.43874 8.9828 4.40938 9.07529 4.40938C9.16779 4.40938 9.25718 4.43874 9.32711 4.49209L10.6911 6.90838L10.817 7.01933L13.8109 7.34602C13.8474 7.35602 13.8806 7.37361 13.9077 7.3973C13.9348 7.42099 13.9551 7.45009 13.9667 7.48213C13.9784 7.51418 13.9811 7.54822 13.9747 7.5814C13.9683 7.61457 13.9529 7.64589 13.9298 7.67272L11.6914 9.65136V9.91641L12.1881 12.5484C12.1881 12.6594 12.0621 12.8751 11.8173 12.7642L9.2012 11.5622H8.91441L6.29829 12.7642C6.17238 12.8751 5.92755 12.7642 5.92755 12.5484L6.29829 9.91641V9.66985L4.05989 7.82065C4.08769 7.6504 4.173 7.49146 4.30472 7.36451V7.34602ZM15.2658 25.2216C15.2658 25.5126 15.1347 25.7917 14.9012 25.9975C14.6677 26.2032 14.351 26.3188 14.0207 26.3188H6.17238C6.00887 26.3188 5.84696 26.2904 5.69589 26.2353C5.54483 26.1802 5.40757 26.0993 5.29195 25.9975C5.17633 25.8956 5.08462 25.7746 5.02205 25.6415C4.95948 25.5084 4.92727 25.3657 4.92727 25.2216V24.1553C4.92911 23.8648 5.06088 23.5866 5.29398 23.3812C5.52709 23.1758 5.84272 23.0597 6.17238 23.0581H14.0207C14.351 23.0581 14.6677 23.1737 14.9012 23.3794C15.1347 23.5852 15.2658 23.8643 15.2658 24.1553V25.2216ZM21.8691 18.7494C21.8691 19.0404 21.7379 19.3195 21.5044 19.5253C21.2709 19.731 20.9542 19.8466 20.624 19.8466H6.17238C6.00887 19.8466 5.84696 19.8182 5.69589 19.7631C5.54483 19.708 5.40757 19.6271 5.29195 19.5253C5.17633 19.4234 5.08462 19.3024 5.02205 19.1693C4.95948 19.0362 4.92727 18.8935 4.92727 18.7494V17.6831C4.92911 17.3926 5.06088 17.1144 5.29398 16.909C5.52709 16.7036 5.84272 16.5875 6.17238 16.5859H20.7499C20.9134 16.5859 21.0753 16.6142 21.2264 16.6694C21.3775 16.7245 21.5147 16.8053 21.6303 16.9072C21.746 17.0091 21.8377 17.1301 21.9002 17.2632C21.9628 17.3963 21.995 17.539 21.995 17.6831V18.7803L21.8691 18.7494Z" fill="#0CB9DE"/>
<path d="M28.4677 27.6689C28.1235 27.6702 27.7874 27.7612 27.5019 27.9306C27.2164 28.1 26.9943 28.3401 26.8635 28.6207C26.7327 28.9012 26.6992 29.2097 26.7672 29.507C26.8352 29.8043 27.0017 30.0772 27.2455 30.2912C27.4894 30.5053 27.7998 30.6508 28.1374 30.7096C28.4751 30.7683 28.8249 30.7375 29.1428 30.6212C29.4607 30.5048 29.7323 30.3081 29.9233 30.0558C30.1144 29.8036 30.2164 29.5071 30.2164 29.2038C30.1852 28.8047 29.9907 28.4292 29.6691 28.147C29.3475 27.8647 28.9206 27.6949 28.4677 27.6689Z" fill="#0CB9DE"/>
<path d="M28.4665 22.509C26.7662 22.509 25.1041 22.9533 23.6903 23.7857C22.2766 24.6182 21.1747 25.8013 20.524 27.1856C19.8734 28.5698 19.7031 30.093 20.0348 31.5625C20.3665 33.032 21.1853 34.3819 22.3876 35.4413C23.5899 36.5008 25.1217 37.2223 26.7893 37.5146C28.4569 37.8069 30.1855 37.6569 31.7563 37.0835C33.3272 36.5101 34.6698 35.5391 35.6145 34.2934C36.5591 33.0476 37.0633 31.5829 37.0633 30.0846C37.0596 28.0764 36.1527 26.1515 34.5413 24.7315C32.9298 23.3115 30.7453 22.5123 28.4665 22.509ZM28.7183 34.572C28.6502 34.6261 28.5617 34.6561 28.47 34.6561C28.3782 34.6561 28.2898 34.6261 28.2216 34.572C27.3473 33.9186 24.3604 31.7242 24.3604 29.197C24.4042 28.2624 24.8563 27.3789 25.6222 26.7313C26.3881 26.0836 27.4085 25.722 28.47 25.722C29.5314 25.722 30.5518 26.0836 31.3177 26.7313C32.0836 27.3789 32.5357 28.2624 32.5795 29.197C32.4536 31.7304 29.5927 33.9556 28.7183 34.572Z" fill="#0CB9DE"/>
</svg>
