<svg width="41" height="40" viewBox="0 0 41 40" fill="none" xmlns="http://www.w3.org/2000/svg">
<path d="M16.2186 31.4416C16.1877 31.4416 15.8779 33.9201 15.8469 33.982C15.7849 34.5087 15.692 34.8185 15.4131 35.0664C15.3202 35.1593 15.2273 35.1903 15.1343 35.2523C14.9175 35.4072 14.7316 35.5001 14.4837 35.655C14.2978 35.7479 14.081 36.1197 14.2978 36.2127H26.5662C26.7831 36.1197 26.5662 35.7789 26.3804 35.686C26.1325 35.5311 25.9466 35.4072 25.7298 35.2213C25.6368 35.1593 25.5439 35.0664 25.4509 34.9734C25.2031 34.7256 25.0792 34.5087 25.0172 33.982C25.0172 33.9201 24.6454 31.2247 24.6454 31.4416" fill="#D2D5D6"/>
<path d="M39.0205 27.6306V5.13858C39.0205 4.58092 38.5867 4.11621 38.0291 4.11621H2.83489C2.27724 4.11621 1.84351 4.58092 1.84351 5.13858V27.6616" fill="#158BA0"/>
<path d="M3.85736 6.12964H37.0068V25.6166H3.85736V6.12964Z" fill="#0CB9DE"/>
<path d="M15.1652 5.66553L37.4714 26.1129V5.66553H15.1652Z" fill="#FAFBFA"/>
<path d="M1.84351 27.6001V30.4194C1.84351 30.977 2.27724 31.4417 2.83489 31.4417H37.9981C38.5558 31.4417 38.9895 30.977 38.9895 30.4194V27.6001" fill="#0CB9DE"/>
<path d="M19.4718 29.5527C19.4718 29.7992 19.5697 30.0356 19.744 30.2099C19.9183 30.3842 20.1547 30.4821 20.4012 30.4821C20.6477 30.4821 20.8841 30.3842 21.0584 30.2099C21.2327 30.0356 21.3307 29.7992 21.3307 29.5527C21.3307 29.3062 21.2327 29.0698 21.0584 28.8955C20.8841 28.7212 20.6477 28.6233 20.4012 28.6233C20.1547 28.6233 19.9183 28.7212 19.744 28.8955C19.5697 29.0698 19.4718 29.3062 19.4718 29.5527Z" fill="#B4E8EC"/>
<path d="M24.7385 32.3713C24.7075 31.4419 24.6765 31.4419 24.6765 31.4419H16.2498C16.2498 31.4419 16.2188 31.4419 16.1878 32.3713H24.7385Z" fill="#63CCD3"/>
<path d="M14.2979 36.5224C14.2669 36.5224 14.205 36.5224 14.174 36.4914C14.0191 36.4294 13.8952 36.2745 13.8952 36.0886C13.8952 35.7788 14.143 35.469 14.3289 35.3761L14.4528 35.3141C14.6387 35.2212 14.7936 35.1282 14.9175 35.0043C14.9795 34.9733 15.0105 34.9424 15.0724 34.9114C15.1034 34.8804 15.1344 34.8804 15.1654 34.8494C15.3513 34.6945 15.4132 34.4467 15.4752 33.982C15.785 31.3796 15.785 31.3796 16.0948 31.3796C16.2807 31.3796 16.4046 31.5035 16.4046 31.6894V31.7823C16.3736 31.9992 16.1258 33.889 16.0948 34.0439C16.0328 34.6016 15.9089 35.0043 15.5681 35.3141C15.5062 35.3761 15.4132 35.438 15.3513 35.469C15.3203 35.5 15.2893 35.5 15.2583 35.531C15.0724 35.6859 14.8865 35.7788 14.7007 35.8718L14.5767 35.9337H26.0087C25.7918 35.8098 25.6059 35.6549 25.42 35.531C25.3581 35.469 25.2961 35.4071 25.2032 35.3451L25.1102 35.2831C24.7694 34.9733 24.6455 34.6325 24.5835 34.1059C24.5526 33.951 24.3357 32.216 24.2737 31.8443C24.2737 31.8133 24.2427 31.7823 24.2427 31.7204C24.2427 31.5654 24.3667 31.4105 24.5216 31.3796C24.8624 31.3486 24.8624 31.3486 25.1722 33.982C25.2341 34.4776 25.3271 34.6325 25.482 34.7875L25.5749 34.8804C25.6369 34.9424 25.6988 34.9733 25.7298 35.0353C25.9467 35.1902 26.1016 35.3141 26.3494 35.469C26.5353 35.562 26.8142 35.8718 26.7832 36.1506C26.7832 36.3365 26.6593 36.4604 26.5043 36.5534C26.4734 36.5843 26.4114 36.5843 26.3804 36.5843L14.2979 36.5224ZM39.0206 27.9407C38.8347 27.9407 38.7108 27.8168 38.7108 27.6309V5.13882C38.7108 4.73607 38.401 4.42626 38.0292 4.42626H2.83501C2.46324 4.42626 2.15343 4.73607 2.15343 5.13882V27.6619C2.15343 27.8477 2.02951 27.9717 1.84362 27.9717C1.65774 27.9717 1.53381 27.8477 1.53381 27.6619V5.13882C1.53381 4.39528 2.12245 3.80664 2.83501 3.80664H37.9982C38.7108 3.80664 39.2994 4.39528 39.2994 5.13882V27.6619C39.3304 27.8168 39.2065 27.9407 39.0206 27.9407Z" fill="#0CB9DE"/>
<path d="M37.0068 25.9269H3.85737C3.67149 25.9269 3.54757 25.8029 3.54757 25.617V6.13012C3.54757 5.94424 3.67149 5.82031 3.85737 5.82031H37.0068C37.1927 5.82031 37.3166 5.94424 37.3166 6.13012V25.617C37.3166 25.8029 37.1617 25.9269 37.0068 25.9269ZM4.16718 25.3072H36.697V6.43993H4.16718V25.3072ZM38.0292 31.7512H2.83501C2.12245 31.7512 1.53381 31.1626 1.53381 30.4191V27.5998C1.53381 27.4139 1.65774 27.29 1.84362 27.29H39.0206C39.2065 27.29 39.3304 27.4139 39.3304 27.5998V30.4191C39.3304 31.1626 38.7418 31.7512 38.0292 31.7512ZM2.15343 27.9096V30.4191C2.15343 30.8218 2.46324 31.1316 2.83501 31.1316H37.9982C38.37 31.1316 38.6798 30.8218 38.6798 30.4191V27.9096H2.15343Z" fill="#62CCD3"/>
</svg>
