<svg width="38" height="38" viewBox="0 0 38 38" fill="none" xmlns="http://www.w3.org/2000/svg">
<path d="M17.6341 10.8087C22.1779 9.62106 25.2889 8.3431 26.967 6.97478C28.6452 5.60646 29.6649 4.50923 30.0264 3.68307C28.529 2.65038 26.8767 1.81131 25.0695 1.16588C23.2622 0.520447 21.3776 0.197731 19.4155 0.197731C16.8854 0.197731 14.4973 0.701168 12.2511 1.70805C10.005 2.71492 8.04292 4.07033 6.36479 5.77428C4.68666 7.47822 3.36998 9.46616 2.41474 11.7381C1.45949 14.01 0.981873 16.4368 0.981873 19.0186C0.981873 22.1167 1.66603 24.9695 3.03435 27.577C4.40267 30.1846 6.22279 32.3661 8.49472 34.1217C7.66856 32.3661 7.03604 30.3524 6.59714 28.0805C6.15825 25.8085 6.18407 23.5624 6.6746 21.3421C7.16513 19.1218 8.26236 17.0565 9.96631 15.146C11.6703 13.2355 14.2262 11.7897 17.6341 10.8087ZM30.646 4.14779C31.7303 10.3956 31.4205 15.1589 29.7166 18.4377C28.0126 21.7165 25.9343 24.0659 23.4817 25.4858C21.029 26.9058 18.6797 27.6932 16.4336 27.8481C14.1874 28.003 13.0644 28.0805 13.0644 28.0805C12.2382 26.8412 12.277 25.4342 13.1806 23.8593C14.0842 22.2845 15.2589 20.7871 16.7046 19.3671C18.1504 17.9472 19.5445 16.7466 20.887 15.7656C22.2295 14.7845 22.9008 14.294 22.9008 14.294C17.9439 16.3078 14.4843 18.4377 12.5222 20.6838C10.5601 22.9299 9.44996 25.0856 9.19179 27.151C8.93361 29.2164 9.2047 31.0624 10.005 32.6889C10.8054 34.3153 11.5153 35.5159 12.135 36.2904C13.2709 36.7035 14.4456 37.052 15.659 37.336C16.8724 37.62 18.1246 37.762 19.4155 37.762C21.9456 37.762 24.3337 37.2714 26.5798 36.2904C28.8259 35.3093 30.788 33.9668 32.4661 32.2629C34.1442 30.5589 35.4609 28.571 36.4162 26.2991C37.3714 24.0271 37.849 21.6003 37.849 19.0186C37.849 15.9721 37.1907 13.1709 35.874 10.615C34.5573 8.05911 32.8147 5.90336 30.646 4.14779Z" fill="#0CB9DE"/>
</svg>
