<svg width="41" height="40" viewBox="0 0 41 40" fill="none" xmlns="http://www.w3.org/2000/svg">
<path d="M12.7733 32.4222L13.5059 32.8125C14.3402 33.2509 15.2708 33.6465 16.2495 33.9406L17.0356 34.1866V37.8596C17.0356 38.7418 17.6239 38.9396 18.1159 38.9396H22.5227C23.0147 38.9396 23.603 38.7418 23.603 37.8596V34.1866L24.3891 33.9406C25.3678 33.6465 26.2984 33.2562 27.1327 32.8125L27.8653 32.4222L28.4536 33.0103C29.4804 34.0368 30.1703 34.7747 30.4645 34.9671C30.7105 35.2131 30.9565 35.3574 31.1971 35.3574C31.6357 35.3574 32.0314 35.0153 32.0314 34.9671L35.1654 31.8341C35.5076 31.4919 35.8018 30.9038 35.1654 30.2675L32.5716 27.6744L32.962 26.942C33.4005 26.1079 33.7963 25.1776 34.0904 24.1992L34.3364 23.4132H38.0105C38.8929 23.4132 39.0908 22.8251 39.0908 22.3332V17.9277C39.0908 17.4358 38.8929 16.8477 38.0105 16.8477H34.3364L34.0904 16.0617C33.7481 15.1314 33.4059 14.2011 32.9138 13.367L32.5234 12.6346L33.1117 12.0464L35.1226 10.0361C35.3686 9.79019 35.513 9.54425 35.513 9.30366C35.513 8.96148 35.267 8.6193 35.1226 8.46959L31.9779 5.34186C31.8817 5.24562 31.5394 4.95156 31.1437 4.95156C30.8976 4.95156 30.6516 5.04779 30.411 5.34186L27.8172 7.93494L27.0845 7.54464C26.2502 7.10622 25.3197 6.71058 24.3891 6.41651L23.603 6.21869V2.49749C23.603 1.56718 22.8168 1.41748 22.4745 1.41748H18.1159C17.7737 1.41748 17.0356 1.56184 17.0356 2.49749V6.21869L16.2495 6.46463C15.3189 6.75869 14.3884 7.10087 13.5541 7.59276L12.8214 7.98306L10.1795 5.34186C9.93348 5.09591 9.68747 4.99968 9.49494 4.99968C9.10454 4.99968 8.70879 5.29374 8.61252 5.38997L5.47859 8.47494C5.28072 8.72088 4.79405 9.35712 5.47859 10.0415L8.07238 12.6399L7.68197 13.3724C7.24344 14.2065 6.84768 15.1368 6.55354 16.0671L6.30754 16.853H2.63346C1.75104 16.9011 1.55316 17.5855 1.55316 18.0292V22.3867C1.55316 22.7289 1.69756 23.4667 2.63346 23.4667H6.30754L6.55354 24.2526C6.84768 25.2311 7.23809 26.1132 7.68197 26.9954L8.07238 27.7279L5.47859 30.321C4.84218 30.9572 5.23259 31.5935 5.47859 31.8875L8.56439 34.9725C8.66066 35.0206 9.05641 35.3147 9.39868 35.3147C9.64469 35.3147 9.83722 35.2184 10.0832 34.9725L12.7733 32.4222Z" fill="#39B6CC"/>
<path d="M19.528 30.3687H19.4852C19.298 30.3527 19.1108 30.3313 18.9236 30.3099C18.6295 30.2725 18.4263 29.9998 18.4637 29.7058C18.5012 29.4117 18.7739 29.2085 19.068 29.246C19.2338 29.2674 19.405 29.2887 19.5708 29.2994C19.8649 29.3208 20.0842 29.5828 20.0628 29.8769C20.036 30.1602 19.8007 30.3687 19.528 30.3687ZM21.6565 30.3099C21.3944 30.3099 21.1645 30.1175 21.127 29.8501C21.0842 29.5561 21.2928 29.2887 21.5816 29.246C21.7474 29.2246 21.9132 29.1978 22.079 29.1658C22.3678 29.107 22.6512 29.2994 22.7047 29.5881C22.7582 29.8769 22.571 30.1602 22.2822 30.2137C22.1004 30.2511 21.9132 30.2832 21.726 30.3046C21.71 30.3099 21.6832 30.3099 21.6565 30.3099ZM16.9235 29.7913C16.8593 29.7913 16.8005 29.7806 16.7363 29.7592C16.5598 29.6951 16.3833 29.6202 16.2122 29.5454C15.9395 29.4277 15.8165 29.1123 15.9395 28.8396C16.0571 28.567 16.3726 28.444 16.6454 28.567C16.8005 28.6365 16.9556 28.7006 17.116 28.7594C17.3941 28.861 17.5332 29.1711 17.4316 29.4491C17.346 29.6577 17.1428 29.7913 16.9235 29.7913ZM24.2235 29.5881C24.0203 29.5881 23.8224 29.4705 23.7315 29.2674C23.6138 28.9947 23.7368 28.6792 24.0042 28.5616C24.1593 28.4921 24.3091 28.4226 24.4588 28.3477C24.7209 28.2141 25.0418 28.321 25.1755 28.583C25.3092 28.845 25.2022 29.1658 24.9401 29.2994C24.7744 29.385 24.6032 29.4652 24.4321 29.54C24.3679 29.5721 24.2984 29.5881 24.2235 29.5881ZM14.5811 28.5242C14.4688 28.5242 14.3618 28.4921 14.2655 28.4226C14.1158 28.3103 13.966 28.1927 13.8217 28.0751C13.5917 27.8879 13.5596 27.5511 13.7468 27.3212C13.934 27.0913 14.2709 27.0592 14.5008 27.2464C14.6292 27.3533 14.7629 27.4602 14.9019 27.5565C15.1426 27.7329 15.1907 28.0644 15.0143 28.305C14.9073 28.4493 14.7415 28.5242 14.5811 28.5242ZM26.4911 28.1873C26.336 28.1873 26.1862 28.1232 26.0793 27.9949C25.8921 27.765 25.9242 27.4281 26.1488 27.241C26.2771 27.1341 26.4055 27.0218 26.5285 26.9095C26.7478 26.7117 27.0847 26.7224 27.2826 26.9416C27.4804 27.1608 27.4697 27.4976 27.2505 27.6955C27.1114 27.8238 26.9724 27.9468 26.828 28.0644C26.7317 28.1499 26.6087 28.1873 26.4911 28.1873ZM12.6665 26.6689C12.506 26.6689 12.351 26.5994 12.244 26.4658C12.1263 26.316 12.014 26.1663 11.9071 26.0113C11.7359 25.7707 11.8001 25.4339 12.0408 25.2681C12.2814 25.097 12.6183 25.1612 12.7841 25.4018C12.8804 25.5408 12.982 25.6745 13.0836 25.8081C13.2655 26.0434 13.2227 26.3749 12.9927 26.5566C12.8964 26.6315 12.7841 26.6689 12.6665 26.6689ZM28.2933 26.2305C28.1864 26.2305 28.0794 26.1984 27.9885 26.1343C27.7478 25.9685 27.6837 25.6317 27.8548 25.3911C27.9511 25.2521 28.042 25.1131 28.1329 24.9687C28.288 24.7174 28.6196 24.6372 28.8709 24.7923C29.1223 24.9473 29.2025 25.2788 29.0474 25.5301C28.9511 25.6905 28.8442 25.8456 28.7372 26.0006C28.6303 26.1503 28.4645 26.2305 28.2933 26.2305ZM11.3295 24.3646C11.1209 24.3646 10.9177 24.2416 10.8321 24.0331C10.7626 23.862 10.6931 23.6802 10.6342 23.5038C10.538 23.2257 10.6877 22.921 10.9658 22.8247C11.2439 22.7285 11.5487 22.8782 11.645 23.1562C11.6985 23.3166 11.7573 23.4717 11.8215 23.6267C11.9338 23.8994 11.8001 24.2149 11.5274 24.3218C11.4685 24.3485 11.399 24.3646 11.3295 24.3646ZM29.502 23.8513C29.4432 23.8513 29.3843 23.8406 29.3309 23.8246C29.0528 23.7283 28.903 23.4236 28.9993 23.1455C29.0528 22.9851 29.1062 22.8247 29.149 22.6643C29.2292 22.381 29.5234 22.2152 29.8068 22.2954C30.0903 22.3756 30.2561 22.6697 30.1758 22.9531C30.1224 23.1348 30.0689 23.3166 30.0101 23.4931C29.9298 23.7123 29.7213 23.8513 29.502 23.8513ZM10.677 21.7822C10.4096 21.7822 10.1743 21.579 10.1476 21.3063C10.1262 21.1192 10.1101 20.9321 10.0994 20.7449C10.0834 20.4509 10.308 20.1996 10.6022 20.1835C10.8963 20.1675 11.1476 20.3921 11.1637 20.6861C11.1744 20.8519 11.1851 21.023 11.2065 21.1887C11.2386 21.4828 11.03 21.7447 10.7359 21.7768C10.7145 21.7822 10.6931 21.7822 10.677 21.7822ZM30.0101 21.2368H29.978C29.6838 21.2208 29.4592 20.9695 29.4753 20.6754C29.4859 20.5097 29.4913 20.3386 29.4913 20.1729C29.4913 19.8788 29.732 19.6382 30.0261 19.6382C30.3202 19.6382 30.5609 19.8788 30.5609 20.1729C30.5609 20.36 30.5555 20.5471 30.5449 20.7342C30.5288 21.0176 30.2935 21.2368 30.0101 21.2368ZM10.7466 19.1196C10.7198 19.1196 10.6877 19.1196 10.661 19.1142C10.3668 19.0661 10.1743 18.7934 10.2224 18.4994C10.2545 18.3122 10.2866 18.1305 10.3294 17.9433C10.3936 17.6546 10.677 17.4728 10.9658 17.537C11.2546 17.6012 11.4364 17.8845 11.3723 18.1732C11.3348 18.339 11.3027 18.5047 11.276 18.6705C11.2279 18.9324 11.0033 19.1196 10.7466 19.1196ZM29.887 19.0768C29.6303 19.0768 29.4057 18.8897 29.3629 18.633C29.3362 18.4673 29.3041 18.3016 29.2667 18.1358C29.2025 17.8471 29.3843 17.5637 29.6678 17.4942C29.9566 17.4301 30.24 17.6118 30.3095 17.8952C30.3523 18.077 30.3898 18.2641 30.4165 18.4513C30.4646 18.74 30.2668 19.018 29.978 19.0661C29.9459 19.0768 29.9191 19.0768 29.887 19.0768ZM11.5327 16.5746C11.4578 16.5746 11.3776 16.5586 11.3027 16.5211C11.0353 16.3928 10.923 16.0774 11.046 15.8101C11.1263 15.639 11.2118 15.4732 11.3027 15.3075C11.4418 15.0455 11.768 14.9493 12.0301 15.0936C12.2921 15.2326 12.3884 15.5588 12.244 15.8207C12.1638 15.9705 12.0889 16.1202 12.014 16.2699C11.9285 16.4623 11.7359 16.5746 11.5327 16.5746ZM29.0848 16.5372C28.887 16.5372 28.6944 16.4249 28.6035 16.2324C28.534 16.0827 28.4538 15.9277 28.3736 15.7833C28.2345 15.5267 28.3254 15.2005 28.5875 15.0562C28.8442 14.9172 29.1704 15.0081 29.3148 15.2701C29.4057 15.4358 29.4913 15.6015 29.5715 15.7726C29.6999 16.04 29.5876 16.3608 29.3202 16.4837C29.2399 16.5211 29.1651 16.5372 29.0848 16.5372ZM12.9927 14.3398C12.8697 14.3398 12.7414 14.297 12.6397 14.2061C12.4151 14.0136 12.3937 13.6768 12.5863 13.4522C12.7093 13.3132 12.8376 13.1689 12.966 13.0352C13.1692 12.8213 13.5115 12.816 13.72 13.0245C13.934 13.2277 13.9393 13.5698 13.7307 13.7784C13.6131 13.896 13.5008 14.0243 13.3885 14.1526C13.2922 14.2809 13.1425 14.3398 12.9927 14.3398ZM27.6248 14.313C27.4751 14.313 27.3307 14.2489 27.2237 14.1312C27.1114 14.0029 26.9991 13.8799 26.8815 13.7623C26.6729 13.5485 26.6782 13.2116 26.8922 13.0085C27.1007 12.7999 27.443 12.8053 27.6462 13.0192C27.7746 13.1528 27.9083 13.2918 28.0313 13.4308C28.2238 13.6554 28.2024 13.9922 27.9832 14.1847C27.8708 14.2702 27.7478 14.313 27.6248 14.313ZM14.9982 12.5861C14.8217 12.5861 14.6559 12.5005 14.549 12.3455C14.3885 12.0995 14.4581 11.7681 14.7041 11.6077C14.8592 11.5061 15.0196 11.4045 15.1854 11.3136C15.4421 11.1639 15.7683 11.2548 15.9181 11.5061C16.0678 11.7627 15.9822 12.0889 15.7255 12.2386C15.5811 12.3241 15.4367 12.4096 15.2977 12.5059C15.2014 12.5593 15.0998 12.5861 14.9982 12.5861ZM25.6086 12.57C25.507 12.57 25.4054 12.5433 25.3199 12.4845C25.1808 12.3936 25.0364 12.3027 24.8867 12.2225C24.63 12.0728 24.5444 11.7467 24.6888 11.49C24.8332 11.2334 25.1648 11.1479 25.4215 11.2922C25.5819 11.3831 25.7477 11.4847 25.9028 11.5863C26.1488 11.7467 26.2183 12.0782 26.0579 12.3241C25.9563 12.4845 25.7851 12.57 25.6086 12.57ZM17.4048 11.4473C17.1748 11.4473 16.9663 11.3029 16.8968 11.073C16.8058 10.7896 16.9663 10.4902 17.2444 10.4047C17.4209 10.3459 17.608 10.2978 17.7845 10.2496C18.0733 10.1748 18.3621 10.3512 18.437 10.6346C18.5118 10.9233 18.3354 11.212 18.0519 11.2869C17.8915 11.3296 17.7257 11.3724 17.5653 11.4259C17.5118 11.4366 17.4583 11.4473 17.4048 11.4473ZM23.1967 11.4366C23.1432 11.4366 23.0897 11.4312 23.0363 11.4098C22.8758 11.3617 22.7154 11.3136 22.5496 11.2762C22.2608 11.2067 22.0897 10.9126 22.1592 10.6292C22.2287 10.3405 22.5229 10.1694 22.8063 10.2389C22.9881 10.2871 23.17 10.3352 23.3518 10.3886C23.6352 10.4742 23.7903 10.7736 23.7048 11.057C23.6352 11.2869 23.4267 11.4366 23.1967 11.4366ZM20.0307 11.0035C19.7419 11.0035 19.5066 10.7736 19.4959 10.4849C19.4852 10.1908 19.7205 9.94488 20.0146 9.93419C20.2018 9.92884 20.3943 9.92884 20.5762 9.93419C20.8703 9.93953 21.1056 10.1855 21.0949 10.4849C21.0896 10.7736 20.8489 11.0035 20.5601 11.0035H20.5441C20.3783 10.9982 20.2072 10.9982 20.036 11.0035H20.0307Z" fill="#005BFF"/>
<path d="M22.5226 39.9928H18.1159C16.8324 39.9928 15.966 39.132 15.966 37.8435V34.9564L15.9392 34.9457C14.9338 34.6409 13.9498 34.2399 13.0085 33.7427L12.9497 33.7106L10.8266 35.7209C10.5431 35.999 10.0885 36.3679 9.39329 36.3679C8.81036 36.3679 8.31834 36.0631 8.08303 35.9134C8.07234 35.9081 8.06699 35.9027 8.05629 35.8974L7.92794 35.8332L4.68705 32.5932L4.65496 32.5558C3.84207 31.5827 3.86881 30.4011 4.71914 29.5457L6.75673 27.5086L6.72464 27.4498C6.35028 26.7066 5.87965 25.7068 5.53203 24.5413L5.52134 24.5145H2.63342C1.15737 24.5145 0.483521 23.4025 0.483521 22.3652V18.0131C0.483521 16.9545 1.13063 15.8478 2.56924 15.7676H5.51599L5.52669 15.7355C5.83687 14.7517 6.25402 13.7626 6.72999 12.859L6.75138 12.8216L4.71379 10.7846C4.39291 10.4638 3.43562 9.29289 4.63357 7.79051L4.67101 7.74239L7.85307 4.61465C7.92794 4.5398 8.59644 3.91425 9.48421 3.91425C9.99227 3.91425 10.5057 4.1495 10.9282 4.57188L13.0139 6.65704L13.0299 6.64634C14.014 6.06892 15.0943 5.69466 15.9232 5.43267L15.9606 5.42198V2.48672C15.9606 1.01107 17.073 0.337402 18.1105 0.337402H22.4692C22.7366 0.337402 23.25 0.385522 23.7366 0.695623C24.3356 1.08057 24.6618 1.71147 24.6618 2.48137V5.36852L24.6993 5.37921C25.678 5.68931 26.6727 6.10099 27.5712 6.58219L27.6086 6.60357L29.6141 4.59861C30.1382 3.99445 30.7318 3.86079 31.1329 3.86079C31.9512 3.86079 32.5555 4.40079 32.7213 4.56653L35.8552 7.69962C36.1975 8.0418 36.5611 8.63526 36.5611 9.28754C36.5611 9.81151 36.3258 10.3087 35.8552 10.7792L33.8176 12.8163L33.8283 12.8323C34.3631 13.7412 34.7214 14.725 35.0744 15.6767L35.1011 15.7622H37.9891C39.2726 15.7622 40.139 16.623 40.139 17.9115V22.3171C40.139 23.6003 39.2779 24.4664 37.9891 24.4664H35.1011L35.0904 24.4932C34.7856 25.4983 34.3845 26.4874 33.8871 27.4231L33.8658 27.4605L35.9033 29.4975C36.4221 30.0162 36.6628 30.6524 36.5718 31.294C36.5077 31.7591 36.2777 32.2029 35.9033 32.5772L32.8389 35.6568C32.4592 36.138 31.7426 36.416 31.1918 36.416C30.6944 36.416 30.2184 36.2021 29.7692 35.7798C29.4911 35.5712 29.1435 35.2184 28.4589 34.5287C28.229 34.2988 27.9723 34.0368 27.6942 33.7534L27.6674 33.7267L27.63 33.7481C26.6887 34.2453 25.7047 34.6516 24.6993 34.951L24.6725 34.9617V37.8489C24.6725 39.132 23.8062 39.9928 22.5226 39.9928ZM18.1052 37.8542H22.5226V33.3845L24.0682 32.9033C24.9453 32.6413 25.801 32.2884 26.6192 31.8554L28.0525 31.0908L29.2023 32.2403C29.4911 32.529 29.7478 32.791 29.9778 33.0263C30.4323 33.4914 30.9083 33.9673 31.0474 34.0689L31.1383 34.1277L31.2078 34.2025L31.2345 34.2293L34.3952 31.0694C34.4059 31.0587 34.4113 31.048 34.4219 31.0427C34.4166 31.032 34.4059 31.0267 34.3952 31.016L31.2399 27.8615L32.0046 26.4286C32.4378 25.6159 32.7855 24.7551 33.0529 23.8837L33.0582 23.873L33.5395 22.3385H38.0105V17.9276V17.9222H33.5395L33.0689 16.4145C32.7373 15.5109 32.4218 14.6608 31.9833 13.9177L31.9619 13.8802L31.1971 12.4474L34.3524 9.29289L34.3792 9.26616C34.3685 9.25547 34.3631 9.24477 34.3524 9.23408L31.2185 6.10099C31.2078 6.09565 31.2024 6.08496 31.1864 6.07426L28.0097 9.23943L26.5764 8.47487C25.801 8.06318 24.9399 7.70496 24.095 7.43229L22.5333 7.04199V2.48672V2.48137C22.5119 2.47603 22.4959 2.47603 22.4745 2.47603H18.1159H18.1105V6.98852L16.5757 7.46971C15.8483 7.69962 14.9071 8.02576 14.1049 8.49625L14.0674 8.51764L12.6342 9.2822L9.44142 6.0903C9.40934 6.10634 9.3826 6.12773 9.3612 6.14377L6.2861 9.16992C6.25936 9.202 6.24332 9.22873 6.22727 9.25012L6.24332 9.26616L9.39864 12.4206L8.63388 13.8535C8.21673 14.6395 7.85307 15.5056 7.58567 16.3664L7.1097 17.8955H2.6869C2.6762 17.8955 2.66551 17.9009 2.65481 17.9009C2.64946 17.9276 2.64411 17.9597 2.64411 18.0024V22.3652H7.1097L7.59102 23.9104C7.82633 24.691 8.15256 25.4823 8.64457 26.4714L9.40399 27.8936L6.24867 31.048L6.23262 31.0641C6.24332 31.0855 6.25936 31.1122 6.2861 31.1443L9.2382 34.0956C9.27029 34.1116 9.31307 34.1437 9.3612 34.1651L12.6128 31.0908L14.0247 31.8447C14.8376 32.2778 15.6986 32.6253 16.5703 32.8926L16.581 32.898L18.1159 33.3791V37.8489C18.1052 37.8489 18.1052 37.8542 18.1052 37.8542ZM9.36655 6.13307L9.35586 6.14377C9.36121 6.13842 9.36655 6.13842 9.36655 6.13307Z" fill="#0CB9DE"/>
<path d="M28.0364 25.4499L27.4481 24.9046L27.6407 24.541C29.0793 21.8249 28.5552 18.4138 26.3679 16.2485C24.5709 14.4681 21.9771 13.8051 19.5759 14.4574L23.7901 18.6277C24.7581 19.5847 24.7635 21.1513 23.8062 22.119L22.3087 23.6321C21.8434 24.1026 21.2284 24.3592 20.5653 24.3646H20.5546C19.9021 24.3646 19.2817 24.1133 18.8165 23.6481L14.6022 19.4778C13.9765 21.8838 14.6664 24.4715 16.4634 26.2519C18.6507 28.4173 22.0681 28.9038 24.7688 27.4388L25.1325 27.241L34.8712 37.5492C35.1707 37.87 35.5771 38.0464 36.0156 38.0518C36.4542 38.0571 36.866 37.886 37.1708 37.5759L37.9088 36.8327C38.219 36.5226 38.3795 36.111 38.3741 35.6725C38.3634 35.2341 38.1816 34.8278 37.8607 34.5337L28.2343 25.6264L28.0364 25.4499Z" fill="#E6E6E6"/>
<path d="M28.769 24.6696C29.4268 23.2474 29.6674 21.6328 29.4375 20.0769C29.6674 21.6381 29.4268 23.2528 28.769 24.6696ZM39.342 34.9885C39.3633 35.074 39.3847 35.1596 39.4008 35.2504C39.3847 35.1596 39.3687 35.074 39.342 34.9885Z" fill="#005BFF"/>
<path d="M37.8231 34.31C37.6948 34.31 37.5611 34.2619 37.4595 34.1656L28.7101 26.071C28.4909 25.8678 28.4802 25.531 28.6834 25.3171C28.8866 25.0979 29.2236 25.0872 29.4375 25.2904L38.1868 33.385C38.4061 33.5882 38.4168 33.9251 38.2135 34.1389C38.1066 34.2512 37.9622 34.31 37.8231 34.31Z" fill="#06F3FF"/>
<path d="M39.3571 35.2174C39.3411 35.1319 39.3197 35.041 39.2983 34.9555C39.2822 34.8966 39.2662 34.8378 39.2448 34.779C39.1004 34.378 38.8651 34.0145 38.5442 33.7151L28.9178 24.8077L28.7306 24.6366C29.3884 23.2144 29.6291 21.5998 29.3991 20.0439C29.1424 18.2902 28.3402 16.7076 27.0781 15.4566C24.7731 13.1789 21.345 12.4892 18.3395 13.7029L17.5854 14.0076L22.9922 19.3542C23.2596 19.6162 23.404 19.9691 23.4094 20.3433C23.4094 20.7176 23.265 21.0704 23.0029 21.3324L21.5055 22.8455C21.2434 23.1128 20.8905 23.2572 20.5161 23.2625H20.5108C20.1417 23.2625 19.7888 23.1182 19.5267 22.8562L14.1145 17.5096L13.8204 18.2688C12.6385 21.2843 13.3658 24.7061 15.6708 26.9837C16.9329 28.2348 18.5266 29.0154 20.2808 29.256C21.8424 29.4645 23.4522 29.2133 24.8694 28.5396L34.0519 38.2596C34.5546 38.7889 35.2338 39.0884 35.9611 39.0937H35.9932C36.7099 39.0937 37.3837 38.8157 37.8918 38.3024L38.6298 37.5592C39.1432 37.0406 39.4159 36.3509 39.3999 35.6238C39.3946 35.4848 39.3839 35.3458 39.3571 35.2174ZM35.9718 38.0244C35.5333 38.019 35.1268 37.8426 34.8274 37.5218L25.0886 27.2136L24.725 27.4115C22.0242 28.8764 18.6069 28.3899 16.4195 26.2245C14.6226 24.4441 13.9327 21.8617 14.5584 19.4504L18.7727 23.6208C19.2379 24.0806 19.853 24.3372 20.5108 24.3372H20.5215C21.1793 24.3318 21.7996 24.0752 22.2649 23.6047L23.7623 22.0916C24.7196 21.1239 24.7143 19.5574 23.7463 18.6003L19.5321 14.43C21.9333 13.7777 24.5271 14.4407 26.324 16.2211C28.5114 18.3865 29.0355 21.7922 27.5969 24.5136L27.4043 24.8772L27.9926 25.4225L28.1851 25.6043L37.8115 34.5117C38.1324 34.8111 38.3143 35.2121 38.325 35.6505C38.3356 36.0889 38.1699 36.5006 37.8597 36.8107L37.127 37.5485C36.8222 37.8586 36.4104 38.0244 35.9718 38.0244Z" fill="#E6F8FC"/>
</svg>
