<svg width="45" height="45" viewBox="0 0 45 45" fill="none" xmlns="http://www.w3.org/2000/svg">
<g clip-path="url(#clip0_0_2492)" filter="url(#filter0_d_0_2492)">
<path d="M38.4593 31.4738L37.22 30.4669H37.2975L33.5798 27.4463L28.3131 23.1089C28.8294 22.1795 29.2296 21.1855 29.5136 20.127C29.7976 19.0685 29.9396 17.9971 29.9396 16.9128C29.9396 15.3121 29.6298 13.7372 29.0101 12.1882C28.3905 10.6392 27.4611 9.24503 26.2219 8.0058C24.9826 6.76656 23.5885 5.85005 22.0395 5.25625C20.4904 4.66245 18.8897 4.36555 17.2374 4.36555C13.8812 4.36555 10.9509 5.61769 8.44662 8.12197C5.94234 10.6263 4.6902 13.5565 4.6902 16.9128C4.6902 20.3723 5.91652 23.3413 8.36917 25.8198C10.8218 28.2982 13.7779 29.5375 17.2374 29.5375C18.4767 29.5375 19.7159 29.3567 20.9551 28.9953C22.1944 28.6339 23.3561 28.0659 24.4405 27.2913L29.8621 31.7836L33.5798 34.7267L34.819 35.8111C35.1288 36.0692 35.4903 36.1725 35.9034 36.1209C36.3164 36.0692 36.6262 35.8885 36.8328 35.5787L38.6142 33.4875C38.8724 33.1777 38.9885 32.8292 38.9627 32.4419C38.9369 32.0546 38.7691 31.7319 38.4593 31.4738ZM22.814 22.4119C22.0395 23.1864 21.1746 23.7544 20.2193 24.1158C19.2641 24.4773 18.2701 24.658 17.2374 24.658C15.172 24.658 13.3777 23.8964 11.8545 22.3731C10.3313 20.8499 9.56968 19.0298 9.56968 16.9128C9.56968 14.8474 10.3313 13.0531 11.8545 11.5299C13.3777 10.0066 15.172 9.24503 17.2374 9.24503C19.4061 9.24503 21.252 10.0066 22.7752 11.5299C24.2985 13.0531 25.0601 14.8474 25.0601 16.9128C25.0601 17.8938 24.8665 18.862 24.4792 19.8172C24.0919 20.7725 23.5369 21.6374 22.814 22.4119Z" fill="#0CB9DE"/>
</g>
<defs>
<filter id="filter0_d_0_2492" x="0.690048" y="0.337402" width="47.6554" height="47.6555" filterUnits="userSpaceOnUse" color-interpolation-filters="sRGB">
<feFlood flood-opacity="0" result="BackgroundImageFix"/>
<feColorMatrix in="SourceAlpha" type="matrix" values="0 0 0 0 0 0 0 0 0 0 0 0 0 0 0 0 0 0 127 0" result="hardAlpha"/>
<feOffset dy="4"/>
<feGaussianBlur stdDeviation="2"/>
<feComposite in2="hardAlpha" operator="out"/>
<feColorMatrix type="matrix" values="0 0 0 0 0 0 0 0 0 0 0 0 0 0 0 0 0 0 0.25 0"/>
<feBlend mode="normal" in2="BackgroundImageFix" result="effect1_dropShadow_0_2492"/>
<feBlend mode="normal" in="SourceGraphic" in2="effect1_dropShadow_0_2492" result="shape"/>
</filter>
<clipPath id="clip0_0_2492">
<rect width="39.6554" height="39.6554" fill="white" transform="matrix(1 0 0 -1 4.69005 39.9929)"/>
</clipPath>
</defs>
</svg>
