<svg width="41" height="40" viewBox="0 0 41 40" fill="none" xmlns="http://www.w3.org/2000/svg">
<g clip-path="url(#clip0_0_2500)">
<path d="M9.28457 27.136C10.3689 27.2393 11.4145 27.3038 12.4214 27.3296C13.4283 27.3554 14.319 27.3942 15.0935 27.4458C13.751 26.0517 12.4343 23.883 11.1434 20.9398C9.85255 17.9967 10.1107 14.4339 11.9179 10.2515C10.7303 11.4391 9.63311 12.5492 8.62623 13.5819C7.61935 14.6146 6.98683 15.2342 6.72865 15.4407C5.38615 17.9708 5.29579 20.4235 6.45757 22.7987C7.61935 25.1739 8.56169 26.6197 9.28457 27.136ZM4.56 17.2221L0.919751 20.8624C0.2485 22.4114 0.261409 23.7927 0.958477 25.0061C1.65555 26.2195 2.00408 26.8262 2.00408 26.8262L6.72865 27.136C4.76654 24.5543 3.91456 22.2565 4.17274 20.2428C4.43091 18.229 4.56 17.2221 4.56 17.2221ZM15.2484 30.3115C15.2484 30.2083 15.2613 30.0921 15.2871 29.963C15.3129 29.8339 15.1967 29.7436 14.9386 29.6919C14.9386 29.6919 14.6675 29.679 14.1253 29.6532C13.5832 29.6274 12.7957 29.5886 11.763 29.537C10.7303 29.537 9.86546 29.5112 9.16839 29.4596C8.47132 29.4079 8.07116 29.4337 7.96789 29.537C7.96789 29.5886 8.00661 29.679 8.08406 29.8081C8.16152 29.9372 8.25188 30.0534 8.35515 30.1566C8.66495 30.6213 9.09094 31.3313 9.63311 32.2866C10.1753 33.2418 10.782 34.5972 11.4532 36.3528C12.4859 39.0378 13.041 40.8192 13.1184 41.697C13.1959 42.5748 14.0091 42.9362 15.5582 42.7813C17.1589 42.5748 17.4558 41.271 16.4489 38.87C15.442 36.469 15.0418 33.6162 15.2484 30.3115ZM28.4152 3.59058C26.4015 1.78337 24.6459 1.21539 23.1485 1.88664C21.6511 2.55789 20.6442 3.07423 20.1279 3.43568C19.1468 4.26183 18.3852 4.88145 17.843 5.29453C17.3009 5.7076 16.5909 6.35304 15.7131 7.23083C14.4739 8.8315 13.467 11.4391 12.6925 15.0535C11.9179 18.6679 13.5186 22.7987 17.4945 27.4458C19.7664 27.704 21.9738 27.9363 24.1166 28.1429C26.2595 28.3494 28.157 28.4527 29.8094 28.4527C30.429 28.4527 31.2939 28.1429 32.404 27.5233C33.5141 26.9036 34.2241 25.5611 34.5339 23.4958C35.1019 20.1911 34.8437 16.6412 33.7594 12.8461C32.6751 9.05095 30.8937 5.96578 28.4152 3.59058ZM30.2741 26.3615C28.8283 26.7746 27.2793 26.0388 25.6269 24.1541C23.9746 22.2694 22.6838 19.7522 21.7543 16.6025C20.8249 13.4012 20.528 10.5484 20.8636 8.04408C21.1993 5.53979 22.0642 4.05529 23.4583 3.59058C24.9041 3.22914 26.4531 3.99075 28.1054 5.87542C29.7577 7.76008 31.0486 10.2773 31.978 13.427C32.8558 16.5767 33.1527 19.4037 32.8687 21.908C32.5847 24.4123 31.7198 25.8968 30.2741 26.3615ZM27.6407 14.8211C28.0538 16.112 28.1829 17.2867 28.028 18.3452C27.8731 19.4037 27.5116 20.0104 26.9436 20.1653C26.3757 20.3202 25.7431 20.0104 25.0461 19.2359C24.349 18.4614 23.7939 17.4287 23.3808 16.1378C23.0194 14.8469 22.9032 13.6723 23.0323 12.6137C23.1614 11.5552 23.5099 10.9485 24.0779 10.7936C24.6975 10.6387 25.343 10.9485 26.0142 11.723C26.6855 12.4976 27.2276 13.5303 27.6407 14.8211Z" fill="#0CB9DE"/>
</g>
<defs>
<clipPath id="clip0_0_2500">
<rect width="39.6554" height="39.6554" fill="white" transform="matrix(1 0 0 -1 0.426056 39.9929)"/>
</clipPath>
</defs>
</svg>
