<svg width="41" height="40" viewBox="0 0 41 40" fill="none" xmlns="http://www.w3.org/2000/svg">
<g clip-path="url(#clip0_0_2484)">
<path d="M0.444016 0.0591965H36.2656C36.1881 0.67881 36.1236 1.28552 36.0719 1.87932C36.0203 2.47312 35.9558 3.06691 35.8783 3.66071C35.6718 5.46793 35.4781 7.28805 35.2974 9.12108C35.1167 10.9541 34.9231 12.7613 34.7165 14.5427C34.4325 16.5565 34.1808 18.5573 33.9614 20.5453C33.7419 22.5332 33.516 24.5211 33.2837 26.5091C33.103 28.0581 32.9287 29.5878 32.7609 31.0981C32.5931 32.6084 32.4317 34.1381 32.2768 35.6871C32.1735 37.0038 31.7411 38.0236 30.9795 38.7465C30.2179 39.4694 29.1916 39.8308 27.9008 39.8308H8.73138C7.4147 39.8308 6.382 39.4694 5.6333 38.7465C4.8846 38.0236 4.45861 37.0296 4.35534 35.7646C4.22626 34.6028 4.09717 33.4475 3.96808 32.2986C3.839 31.1497 3.70991 30.0009 3.58082 28.852C3.45174 27.7031 3.32265 26.5607 3.19356 25.4247C3.06448 24.2888 2.93539 23.1528 2.8063 22.0168C2.59976 20.0289 2.38032 18.0345 2.14796 16.0337C1.9156 14.0328 1.69616 12.0384 1.48962 10.0505C1.36053 8.52728 1.20563 6.99115 1.02491 5.44211C0.844184 3.89307 0.663463 2.35694 0.482742 0.833714C0.482742 0.730446 0.476287 0.627178 0.463379 0.523907C0.45047 0.420639 0.444016 0.317368 0.444016 0.2141C0.444016 0.188282 0.444016 0.162464 0.444016 0.136646C0.444016 0.110828 0.444016 0.0850105 0.444016 0.0591965ZM5.74948 11.9481H30.9214C31.0763 10.6314 31.2183 9.31471 31.3474 7.99803C31.4765 6.68134 31.6055 5.37757 31.7346 4.0867H4.85878C4.98787 5.24848 5.1105 6.3909 5.22668 7.51395C5.34286 8.63701 5.46549 9.76652 5.59458 10.9025C5.62039 11.0832 5.64621 11.251 5.67203 11.4059C5.69784 11.5608 5.72366 11.7415 5.74948 11.9481ZM18.3742 17.0986C18.1676 17.3568 17.974 17.5956 17.7933 17.8151C17.6125 18.0345 17.4318 18.2475 17.2511 18.4541C16.3991 19.59 15.5794 20.7389 14.792 21.9007C14.0046 23.0624 13.3656 24.3017 12.8751 25.6184C12.7202 25.954 12.604 26.3154 12.5265 26.7027C12.4491 27.09 12.4104 27.4901 12.4104 27.9032C12.4104 29.4781 12.9525 30.8399 14.0368 31.9888C15.1212 33.1377 16.4379 33.7637 17.9869 33.867H18.0256C19.9361 33.9703 21.5561 33.2861 22.8857 31.8145C24.2153 30.3429 24.6478 28.6777 24.1831 26.8189C23.6925 24.96 22.8986 23.2625 21.8014 21.7264C20.7042 20.1903 19.5618 18.6477 18.3742 17.0986Z" fill="#0CB9DE"/>
</g>
<defs>
<clipPath id="clip0_0_2484">
<rect width="39.6554" height="39.6554" fill="white" transform="matrix(1 0 0 -1 0.444221 39.7141)"/>
</clipPath>
</defs>
</svg>
