<svg width="15" height="15" viewBox="0 0 15 15" fill="none" xmlns="http://www.w3.org/2000/svg">
<path d="M14.0314 1.24067C14.0625 1.16315 14.0701 1.07824 14.0533 0.996455C14.0365 0.914667 13.9961 0.839602 13.9371 0.780566C13.878 0.721529 13.803 0.681118 13.7212 0.66434C13.6394 0.647563 13.5545 0.655158 13.477 0.686184L1.06765 5.65008H1.06679L0.681217 5.80363C0.608187 5.83276 0.544631 5.88151 0.497569 5.94449C0.450506 6.00747 0.421769 6.08224 0.414531 6.16053C0.407293 6.23882 0.421837 6.31759 0.456555 6.38814C0.491274 6.45868 0.544815 6.51825 0.611267 6.56028L0.961017 6.78207L0.96187 6.78378L5.22285 9.49477L7.93384 13.7557L7.93555 13.7575L8.15734 14.1072C8.1995 14.1734 8.25911 14.2267 8.3296 14.2612C8.40009 14.2957 8.47873 14.3101 8.55687 14.3027C8.63501 14.2954 8.70962 14.2667 8.77248 14.2197C8.83533 14.1727 8.88401 14.1093 8.91314 14.0364L14.0314 1.24067ZM12.4678 2.85293L6.07505 9.24568L5.89164 8.95735C5.85804 8.90444 5.81318 8.85958 5.76027 8.82598L5.47194 8.64257L11.8647 2.24982L12.8696 1.84804L12.4686 2.85293H12.4678Z" fill="#EEEEEE"/>
</svg>
