<svg width="19" height="18" viewBox="0 0 19 18" fill="none" xmlns="http://www.w3.org/2000/svg">
<path d="M0.724117 9C0.724117 10.092 1.06612 11.046 1.75012 11.862C2.43412 12.678 3.29212 13.194 4.32412 13.41C4.33612 13.41 4.34212 13.404 4.34212 13.392V13.356C4.34212 13.356 4.34812 13.35 4.36012 13.338C4.56412 12.834 4.81612 12.426 5.11612 12.114C5.41612 11.802 5.83012 11.58 6.35812 11.448V10.134C6.35812 9.198 6.68212 8.4 7.33012 7.74C7.97812 7.08 8.77612 6.75 9.72412 6.75C10.6721 6.75 11.4701 7.08 12.1181 7.74C12.7661 8.4 13.0961 9.198 13.1081 10.134V11.448C13.6241 11.592 14.0321 11.82 14.3321 12.132C14.6321 12.444 14.8841 12.846 15.0881 13.338L15.1421 13.5H15.3581C16.2821 13.5 17.0741 13.17 17.7341 12.51C18.3941 11.85 18.7241 11.058 18.7241 10.134V9C18.7241 8.076 18.3941 7.284 17.7341 6.624C17.0741 5.964 16.2821 5.634 15.3581 5.634C15.3221 5.634 15.2621 5.64 15.1781 5.652C15.2981 5.22 15.3581 4.836 15.3581 4.5C15.3581 3.264 14.9141 2.208 14.0261 1.332C13.1381 0.456 12.0821 0.012 10.8581 0C9.77812 0 8.83012 0.342 8.01412 1.026C7.19812 1.71 6.67612 2.562 6.44812 3.582C6.01612 3.45 5.60812 3.384 5.22412 3.384C3.98812 3.384 2.92612 3.822 2.03812 4.698C1.15012 5.574 0.712117 6.636 0.724117 7.884V9ZM6.35812 14.526C6.32212 14.874 6.43012 15.174 6.68212 15.426L8.93212 17.676C9.14812 17.892 9.41212 18 9.72412 18C10.0361 18 10.3001 17.892 10.5161 17.676L12.7661 15.426C13.0181 15.174 13.1321 14.874 13.1081 14.526C13.0841 14.406 13.0541 14.298 13.0181 14.202C12.9341 13.986 12.7961 13.818 12.6041 13.698C12.4121 13.578 12.2021 13.512 11.9741 13.5H10.8581V10.134C10.8581 9.822 10.7441 9.558 10.5161 9.342C10.2881 9.126 10.0241 9.012 9.72412 9C9.42412 8.988 9.16012 9.102 8.93212 9.342C8.70412 9.582 8.59612 9.846 8.60812 10.134V13.5H7.47412C7.24612 13.5 7.03612 13.566 6.84412 13.698C6.65212 13.83 6.51412 13.998 6.43012 14.202C6.39412 14.31 6.37012 14.418 6.35812 14.526Z" fill="#C0EEF1"/>
</svg>
