<svg width="20" height="19" viewBox="0 0 20 19" fill="none" xmlns="http://www.w3.org/2000/svg">
<path d="M15.9339 5.16738L12.1511 1.17441C12.0456 1.06309 11.9032 1 11.7538 1H4.28662C3.97549 1 3.72412 1.26533 3.72412 1.59375V17.0312C3.72412 17.3597 3.97549 17.625 4.28662 17.625H15.5366C15.8478 17.625 16.0991 17.3597 16.0991 17.0312V5.58857C16.0991 5.43086 16.0394 5.27871 15.9339 5.16738ZM11.4937 2.36934L14.8019 5.86133H11.4937V2.36934ZM14.8335 16.2891H4.98975V2.33594H10.2983V6.34375C10.2983 6.55043 10.3761 6.74865 10.5146 6.8948C10.653 7.04094 10.8408 7.12305 11.0366 7.12305H14.8335V16.2891Z" fill="#BAD6DD"/>
<path d="M9.86205 8.927C9.84949 8.90336 9.83693 8.89244 9.82257 8.89062C9.77053 8.95065 9.78309 9.46356 9.87102 9.82551C9.9428 9.57815 9.95536 9.08888 9.86205 8.927ZM9.83334 11.1187C9.69517 11.4825 9.49598 11.979 9.25732 12.4174C9.3291 12.3883 9.40267 12.3573 9.47804 12.3264C9.79386 12.1955 10.1474 12.0481 10.535 11.959C10.2676 11.7444 10.0253 11.4552 9.83334 11.1187Z" fill="#D6F9FF"/>
<path d="M10.3074 6.40137V2.47266H4.88818V16.1504H14.937V7.16528H11.061C10.8612 7.16528 10.6695 7.0848 10.5281 6.94154C10.3868 6.79828 10.3074 6.60397 10.3074 6.40137ZM11.2943 11.6324C11.5832 11.5978 11.8434 11.5814 12.0892 11.5905C12.3189 11.5978 12.5127 11.6269 12.6635 11.6833C12.6671 11.6851 12.6688 11.6851 12.6724 11.6869C12.6796 11.6906 12.6868 11.6924 12.694 11.696C12.7029 11.6997 12.7137 11.7033 12.7227 11.7088C12.7245 11.7106 12.7281 11.7106 12.7299 11.7124C12.8034 11.7451 12.8644 11.7852 12.9111 11.8324C13.0744 11.998 13.1228 12.3072 13.0224 12.5527C12.9649 12.6928 12.8124 12.9256 12.4248 12.9256C12.0336 12.9256 11.4576 12.7491 10.9516 12.4745C10.494 12.5527 9.98796 12.7273 9.49988 12.8947C9.3958 12.931 9.28813 12.9674 9.18406 13.002C8.50217 14.1879 7.99076 14.4461 7.67494 14.4461C7.59957 14.4461 7.53497 14.4298 7.48114 14.4098C7.35732 14.3625 7.25145 14.2642 7.18506 14.1369C7.16891 14.106 7.15635 14.0751 7.14558 14.0423C7.11687 13.955 7.1079 13.8677 7.12225 13.795L7.13302 13.7459C7.13481 13.7422 7.13481 13.7386 7.13661 13.735C7.1402 13.7222 7.14379 13.7095 7.14917 13.6968C7.14917 13.6949 7.15096 13.6931 7.15096 13.6913C7.22454 13.4749 7.39501 13.2657 7.64802 13.062C7.86874 12.8837 8.13431 12.7219 8.47167 12.5454C8.75698 12.0362 9.14637 11.1795 9.39042 10.592C9.19662 9.83171 9.09075 9.23513 9.20918 8.79861C9.22533 8.73859 9.25404 8.6822 9.29172 8.63309C9.29531 8.62946 9.29711 8.62582 9.3007 8.62218C9.30249 8.62036 9.30249 8.61854 9.30428 8.61854C9.41733 8.48213 9.60754 8.4021 9.80852 8.40937C10.1064 8.42211 10.3415 8.61854 10.4007 8.95685C10.4312 9.10236 10.4402 9.25696 10.4348 9.42429V9.43702C10.4348 9.44612 10.4348 9.45521 10.433 9.46431C10.4204 9.70621 10.3792 9.94812 10.302 10.2773C10.2948 10.3064 10.2876 10.3355 10.2805 10.3719L10.2625 10.4465L10.2607 10.4519C10.2625 10.4556 10.2625 10.4574 10.2643 10.461L10.2966 10.5429C10.2984 10.5483 10.302 10.5556 10.3038 10.5611C10.3163 10.5902 10.3289 10.6211 10.3415 10.6484V10.6502C10.4976 10.9921 10.695 11.2577 10.9498 11.4705C11.0269 11.5342 11.1095 11.5924 11.1992 11.6487C11.2315 11.6396 11.262 11.636 11.2943 11.6324Z" fill="#D6F9FF"/>
<path d="M7.74951 13.8407C7.85179 13.7607 8.04021 13.577 8.28964 13.2095C8.10481 13.3805 7.86974 13.617 7.74951 13.8407ZM12.6106 12.331L12.6142 12.3256H12.6178C12.6286 12.3183 12.6268 12.3129 12.625 12.3092C12.6232 12.3074 12.5442 12.1401 11.8157 12.1746C12.4491 12.4274 12.5963 12.3401 12.6106 12.331Z" fill="#D6F9FF"/>
<path d="M10.3398 10.6458C10.3254 10.6149 10.3128 10.5858 10.3003 10.5567C10.2985 10.5512 10.2949 10.5439 10.2931 10.5385L10.2608 10.4566C10.259 10.453 10.259 10.4512 10.2572 10.4476L10.259 10.4421L10.2626 10.4221C10.3344 10.1256 10.4169 9.78003 10.4313 9.43263V9.4199C10.4367 9.26348 10.4277 9.10706 10.3954 8.95428C10.3272 8.56686 10.0455 8.4159 9.80502 8.40498C9.60225 8.39589 9.41383 8.47774 9.30078 8.61233C9.29899 8.61415 9.29899 8.61597 9.29719 8.61597C9.2936 8.61961 9.29001 8.62325 9.28822 8.62688C9.25054 8.67599 9.22183 8.73238 9.20568 8.7924C9.08724 9.22892 9.19311 9.8255 9.38691 10.5858C9.14287 11.1751 8.75348 12.0299 8.46816 12.5392V12.541C7.97111 12.8011 7.31793 13.1922 7.14746 13.6851C7.14746 13.6869 7.14567 13.6887 7.14567 13.6906C7.14208 13.7033 7.13669 13.716 7.13311 13.7288C7.13131 13.7324 7.13131 13.736 7.12952 13.7397C7.12593 13.756 7.12054 13.7724 7.11875 13.7888C7.1026 13.8615 7.11157 13.9488 7.14208 14.0361C7.15284 14.0689 7.16541 14.0998 7.18155 14.1307C7.24795 14.258 7.35382 14.3563 7.47764 14.4035C7.53147 14.4236 7.59607 14.4399 7.67144 14.4399C7.98726 14.4399 8.49867 14.1816 9.18055 12.9958C9.28463 12.9612 9.3923 12.9248 9.49637 12.8884C9.98446 12.7211 10.4905 12.5465 10.9481 12.4683C11.4541 12.7429 12.0301 12.9194 12.4213 12.9194C12.8089 12.9194 12.9614 12.6866 13.0188 12.5465C13.1193 12.301 13.0709 11.9918 12.9076 11.8262C12.8609 11.7789 12.7999 11.7389 12.7264 11.7062C12.7246 11.7044 12.721 11.7044 12.7192 11.7026C12.7102 11.6989 12.6994 11.6953 12.6905 11.6898C12.6833 11.6862 12.6761 11.6844 12.6689 11.6807C12.6653 11.6789 12.6636 11.6789 12.66 11.6771C12.3693 11.5716 11.9117 11.5552 11.2908 11.6262L11.1957 11.6371C11.106 11.5825 11.0234 11.5225 10.9463 11.4588C10.6915 11.2533 10.4959 10.9896 10.3398 10.6458ZM7.7486 13.8415C7.86882 13.6178 8.10389 13.3814 8.28872 13.2104C8.03929 13.5778 7.85088 13.7615 7.7486 13.8415ZM9.82117 8.89062C9.83552 8.89243 9.84808 8.90335 9.86065 8.92699C9.95396 9.08887 9.94139 9.57814 9.86962 9.8255C9.78169 9.46355 9.76913 8.95064 9.82117 8.89062ZM9.47664 12.3264C9.40127 12.3573 9.3277 12.3883 9.25592 12.4174C9.49458 11.979 9.69376 11.4825 9.83193 11.1187C10.0239 11.4552 10.2662 11.7444 10.5336 11.959C10.146 12.0481 9.79246 12.1955 9.47664 12.3264ZM12.6241 12.31C12.6259 12.3137 12.6277 12.3191 12.6169 12.3264H12.6133L12.6097 12.3319C12.5954 12.341 12.4482 12.4283 11.8148 12.1755C12.5433 12.1409 12.6223 12.3082 12.6241 12.31Z" fill="#BAD6DD"/>
</svg>
