<svg width="10" height="11" viewBox="0 0 10 11" fill="none" xmlns="http://www.w3.org/2000/svg">
<g clip-path="url(#clip0_0_2330)">
<path d="M6.57684 1.5427C6.52596 1.49182 6.46555 1.45366 6.39559 1.42822C6.32564 1.40279 6.25887 1.39007 6.19527 1.39007H2.91381C2.85021 1.39007 2.78344 1.40279 2.71348 1.42822C2.64353 1.45366 2.58312 1.49182 2.53224 1.5427L0.223768 3.85117C0.160173 3.90204 0.115657 3.96246 0.0902196 4.03241C0.0647818 4.10236 0.052063 4.1755 0.052063 4.25181V7.5142C0.052063 7.59051 0.0647818 7.66364 0.0902196 7.7336C0.115657 7.80355 0.160173 7.86397 0.223768 7.91484L2.53224 10.2233C2.58312 10.2742 2.64353 10.3155 2.71348 10.3473C2.78344 10.3791 2.85021 10.395 2.91381 10.395H6.19527C6.25887 10.395 6.32564 10.3791 6.39559 10.3473C6.46555 10.3155 6.52596 10.2742 6.57684 10.2233L8.88531 7.91484C8.93618 7.86397 8.97752 7.80355 9.00932 7.7336C9.04112 7.66364 9.05701 7.59051 9.05701 7.5142V4.25181C9.05701 4.1755 9.0443 4.10236 9.01886 4.03241C8.99342 3.96246 8.9489 3.90204 8.88531 3.85117L6.57684 1.5427ZM4.55454 7.01816C4.40191 7.01816 4.27154 6.96093 4.16343 6.84646C4.05532 6.73199 4.00127 6.59844 4.00127 6.44581V3.06896C4.00127 2.91633 4.05532 2.78596 4.16343 2.67785C4.27154 2.56974 4.40191 2.51569 4.55454 2.51569C4.70716 2.51569 4.83753 2.56974 4.94564 2.67785C5.05375 2.78596 5.10781 2.91633 5.10781 3.06896V6.44581C5.10781 6.59844 5.05375 6.73199 4.94564 6.84646C4.83753 6.96093 4.70716 7.01816 4.55454 7.01816ZM5.10781 8.69705C5.10781 8.84968 5.05375 8.98323 4.94564 9.0977C4.83753 9.21217 4.70716 9.2694 4.55454 9.2694C4.40191 9.2694 4.27154 9.21217 4.16343 9.0977C4.05532 8.98323 4.00127 8.84968 4.00127 8.69705C4.00127 8.54443 4.05532 8.41406 4.16343 8.30595C4.27154 8.19784 4.40191 8.14378 4.55454 8.14378C4.70716 8.14378 4.83753 8.19784 4.94564 8.30595C5.05375 8.41406 5.10781 8.54443 5.10781 8.69705Z" fill="#333333"/>
</g>
<defs>
<clipPath id="clip0_0_2330">
<rect width="9.76808" height="9.76808" fill="white" transform="matrix(1 0 0 -1 0.052124 10.5668)"/>
</clipPath>
</defs>
</svg>
