<svg width="36" height="40" viewBox="0 0 36 40" fill="none" xmlns="http://www.w3.org/2000/svg">
<path d="M29.7791 39.8003H5.42043C3.92302 39.8003 2.64506 39.271 1.58655 38.2125C0.528042 37.154 -0.00121307 35.8631 -0.00121307 34.3399C-0.00121307 33.8494 0.0633303 33.3718 0.192417 32.9071C0.321504 32.4424 0.502225 32.0035 0.734581 31.5904L0.695855 31.6291L11.3068 13.273V0.33849H23.2344V12.1112L34.5037 31.6291C34.736 32.0164 34.9167 32.4424 35.0458 32.9071C35.1749 33.3718 35.2395 33.8494 35.2395 34.3399C35.2395 35.8631 34.7037 37.154 33.6323 38.2125C32.5609 39.271 31.2765 39.8003 29.7791 39.8003ZM12.3524 1.42282V13.5828L1.62528 32.1713C1.44456 32.4811 1.30256 32.8232 1.19929 33.1975C1.09602 33.5719 1.04439 33.9527 1.04439 34.3399C1.04439 35.5533 1.47038 36.5925 2.32235 37.4574C3.17432 38.3223 4.20701 38.7547 5.42043 38.7547H29.7791C30.9925 38.7547 32.0317 38.3223 32.8965 37.4574C33.7614 36.5925 34.1939 35.5533 34.1939 34.3399C34.1939 33.9527 34.1422 33.5719 34.0389 33.1975C33.9357 32.8232 33.7808 32.4682 33.5742 32.1325V32.1713L22.1888 12.3823V1.38409L12.3524 1.42282ZM25.7903 22.9932L23.7378 19.4304H10.8421L8.78959 23.0319L3.09687 32.8683C2.96778 33.1007 2.86451 33.3524 2.78706 33.6235C2.70961 33.8946 2.67088 34.185 2.67088 34.4948C2.67088 35.3726 2.98714 36.1278 3.61967 36.7603C4.25219 37.3928 5.00735 37.7091 5.88514 37.7091H28.6948C29.5984 37.7091 30.3664 37.3928 30.999 36.7603C31.6315 36.1278 31.9477 35.3726 31.9477 34.4948C31.9477 34.185 31.909 33.8946 31.8316 33.6235C31.7541 33.3524 31.6508 33.1007 31.5218 32.8683L25.7903 22.9932Z" fill="#0CB9DE"/>
</svg>
