<svg width="38" height="38" viewBox="0 0 38 38" fill="none" xmlns="http://www.w3.org/2000/svg">
<path fill-rule="evenodd" clip-rule="evenodd" d="M19.8522 30.4729L19.89 30.5005C19.8937 30.5031 19.8974 30.5058 19.9011 30.5085L19.8522 30.4729C19.8986 30.5069 19.9454 30.5405 19.9925 30.5736C19.9979 30.5774 20.0033 30.5812 20.0088 30.585C20.0387 30.6058 20.0687 30.6265 20.0989 30.647C20.1027 30.6496 20.1067 30.6523 20.1106 30.655C20.1373 30.673 20.164 30.6909 20.1909 30.7086C20.1978 30.7132 20.2048 30.7177 20.2118 30.7223C20.2412 30.7416 20.2706 30.7606 20.3002 30.7794C20.3074 30.784 20.3147 30.7887 20.322 30.7933C20.3497 30.8108 20.3774 30.8281 20.4052 30.8452C20.4157 30.8517 20.4263 30.8582 20.4368 30.8646C20.4616 30.8797 20.4864 30.8947 20.5113 30.9095C20.5168 30.9128 20.5224 30.9161 20.528 30.9195C20.5586 30.9376 20.5893 30.9555 20.6201 30.9732C20.6277 30.9776 20.6355 30.982 20.6432 30.9864C20.6749 31.0045 20.7067 31.0224 20.7387 31.0401C20.7419 31.0419 20.7451 31.0437 20.7484 31.0455C20.7788 31.0623 20.8093 31.0789 20.84 31.0953C20.8458 31.0984 20.8517 31.1016 20.8575 31.1047C20.8893 31.1216 20.9212 31.1383 20.9532 31.1549C20.9602 31.1584 20.9671 31.162 20.974 31.1656C21.0046 31.1812 21.0352 31.1967 21.0659 31.212C21.0759 31.2169 21.0859 31.2219 21.096 31.2268C21.1226 31.2399 21.1493 31.2529 21.1761 31.2657C21.1826 31.2688 21.189 31.2719 21.1954 31.2749C21.2274 31.2901 21.2596 31.3052 21.2919 31.3201C21.2998 31.3237 21.3077 31.3273 21.3156 31.3309C21.3469 31.3452 21.3784 31.3593 21.4099 31.3733C21.4195 31.3775 21.429 31.3817 21.4385 31.3858C21.4691 31.3992 21.4998 31.4124 21.5306 31.4254L21.5362 31.4278L21.5501 31.4337C21.5817 31.4469 21.6133 31.46 21.6451 31.4728C21.6512 31.4753 21.6574 31.4778 21.6635 31.4803C21.7336 31.5085 21.8042 31.5358 21.8752 31.5622C21.8833 31.5652 21.8913 31.5682 21.8994 31.5712C21.933 31.5836 21.9668 31.5958 22.0007 31.6077C22.0086 31.6106 22.0166 31.6134 22.0246 31.6161C22.0578 31.6278 22.0911 31.6392 22.1245 31.6505C22.1341 31.6537 22.1437 31.6569 22.1534 31.6601C22.1819 31.6696 22.2105 31.6789 22.2392 31.6881C22.2465 31.6904 22.2538 31.6928 22.2611 31.6951C22.2974 31.7066 22.3339 31.7179 22.3705 31.729C22.3759 31.7306 22.3812 31.7322 22.3865 31.7338C22.4604 31.756 22.5347 31.7772 22.6095 31.7974C22.6182 31.7998 22.627 31.8022 22.6358 31.8045C22.6692 31.8134 22.7027 31.8221 22.7362 31.8307C22.7449 31.8329 22.7537 31.8351 22.7624 31.8373C22.7978 31.8461 22.8332 31.8548 22.8686 31.8632C22.8783 31.8654 22.8879 31.8677 22.8975 31.87C22.9265 31.8767 22.9556 31.8833 22.9847 31.8898C22.9944 31.892 23.0041 31.8941 23.0138 31.8962C23.0519 31.9045 23.0901 31.9126 23.1283 31.9204C23.1313 31.921 23.1343 31.9216 23.1373 31.9223C23.1764 31.9302 23.2154 31.9378 23.2546 31.9452C23.2611 31.9464 23.2676 31.9476 23.2741 31.9488C23.3081 31.9552 23.3421 31.9613 23.3761 31.9672C23.3829 31.9683 23.3897 31.9695 23.3964 31.9707C23.433 31.9769 23.4697 31.9829 23.5064 31.9887C23.5154 31.9901 23.5244 31.9915 23.5334 31.9929C23.5673 31.9982 23.6013 32.0032 23.6354 32.008L21.1249 37.6602L17.3416 36.1254L19.8522 30.4729ZM29.8555 30.4725L32.366 36.1253L28.5828 37.6601L26.0724 32.0079C26.108 32.0028 26.1436 31.9975 26.1791 31.992C26.1851 31.9911 26.191 31.9902 26.1969 31.9893C26.2344 31.9834 26.2717 31.9773 26.309 31.9709C26.3173 31.9695 26.3256 31.9681 26.3339 31.9666C26.3672 31.9608 26.4005 31.9548 26.4337 31.9487C26.4396 31.9475 26.4455 31.9464 26.4514 31.9453C26.489 31.9383 26.5266 31.9309 26.5641 31.9233C26.5715 31.9218 26.5789 31.9203 26.5863 31.9188C26.6229 31.9113 26.6594 31.9036 26.6957 31.8956C26.7021 31.8942 26.7085 31.8928 26.7149 31.8914C26.7495 31.8838 26.784 31.8759 26.8184 31.8678C26.8238 31.8666 26.8291 31.8653 26.8344 31.8641C26.8706 31.8555 26.9066 31.8467 26.9426 31.8377C26.951 31.8356 26.9593 31.8335 26.9677 31.8314C27.0017 31.8228 27.0358 31.8139 27.0697 31.8049C27.0798 31.8022 27.0898 31.7995 27.0998 31.7968C27.1324 31.788 27.1649 31.7789 27.1974 31.7697C27.2012 31.7686 27.205 31.7676 27.2088 31.7665C27.2459 31.7559 27.2829 31.7451 27.3198 31.734C27.3253 31.7323 27.3307 31.7307 27.3362 31.729C27.373 31.7179 27.4097 31.7065 27.4463 31.6949C27.4527 31.6929 27.4591 31.6909 27.4655 31.6888C27.4949 31.6794 27.5242 31.6699 27.5534 31.6602C27.5639 31.6567 27.5744 31.6532 27.5849 31.6496C27.6172 31.6387 27.6495 31.6277 27.6817 31.6164C27.6901 31.6134 27.6985 31.6105 27.7069 31.6075C27.7419 31.5951 27.7769 31.5825 27.8117 31.5697C27.8157 31.5682 27.8196 31.5668 27.8235 31.5653C27.8972 31.538 27.9704 31.5097 28.0431 31.4805C28.0495 31.4779 28.056 31.4753 28.0625 31.4726C28.0964 31.4589 28.1301 31.4449 28.1637 31.4308C28.1709 31.4277 28.1781 31.4247 28.1853 31.4217C28.2167 31.4083 28.248 31.3948 28.2792 31.3812C28.283 31.3795 28.2869 31.3778 28.2907 31.3761C28.3257 31.3607 28.3606 31.345 28.3953 31.3292C28.4007 31.3267 28.4061 31.3242 28.4115 31.3218C28.4463 31.3057 28.481 31.2895 28.5155 31.2731C28.5178 31.272 28.5202 31.2708 28.5226 31.2697C28.5554 31.2541 28.588 31.2382 28.6204 31.2222C28.6256 31.2197 28.6308 31.2171 28.6359 31.2145C28.6702 31.1975 28.7043 31.1803 28.7383 31.1629C28.7422 31.1609 28.746 31.1589 28.7498 31.157C28.7841 31.1393 28.8183 31.1214 28.8523 31.1032C28.8555 31.1015 28.8587 31.0998 28.8618 31.0981C28.9297 31.0618 28.997 31.0247 29.0637 30.9866C29.0708 30.9825 29.0779 30.9785 29.085 30.9744C29.115 30.9571 29.145 30.9396 29.1749 30.922C29.1827 30.9173 29.1905 30.9127 29.1983 30.908C29.2246 30.8924 29.2507 30.8766 29.2767 30.8607L29.2909 30.852L29.2979 30.8477C29.3275 30.8295 29.3569 30.8111 29.3862 30.7926C29.3926 30.7886 29.3989 30.7845 29.4053 30.7805C29.4363 30.7607 29.4673 30.7407 29.4982 30.7205C29.5025 30.7177 29.5068 30.7148 29.5111 30.712C29.5391 30.6936 29.5669 30.675 29.5946 30.6563C29.5995 30.653 29.6044 30.6496 29.6094 30.6463C29.6404 30.6252 29.6712 30.604 29.7019 30.5826C29.7058 30.5798 29.7097 30.5771 29.7135 30.5744C29.7428 30.5539 29.7719 30.5332 29.8008 30.5123C29.808 30.5071 29.8151 30.502 29.8222 30.4968L29.8555 30.4725ZM24.8534 18.3459C28.2589 18.3459 31.0187 20.9837 31.0187 24.2377C31.0187 27.492 28.2588 30.1297 24.8534 30.1297C21.4485 30.1297 18.6887 27.492 18.6887 24.2377C18.6887 20.9837 21.4484 18.3459 24.8534 18.3459ZM37.1837 0.670166V28.1657L31.9742 28.1657C31.9934 28.1339 32.0124 28.102 32.0312 28.0699C32.0338 28.0654 32.0365 28.0609 32.0391 28.0564C32.0572 28.0254 32.0751 27.9941 32.0928 27.9628C32.0959 27.9574 32.0989 27.952 32.1019 27.9467C32.1199 27.9146 32.1376 27.8824 32.1552 27.8501C32.1574 27.846 32.1596 27.842 32.1617 27.838C32.1976 27.7716 32.2325 27.7047 32.2665 27.6372C32.2691 27.6319 32.2718 27.6266 32.2744 27.6213C32.308 27.5542 32.3406 27.4866 32.3722 27.4184C32.3745 27.4134 32.3768 27.4085 32.3791 27.4035C32.3942 27.3708 32.409 27.338 32.4236 27.3051C32.4264 27.2989 32.4291 27.2928 32.4318 27.2867C32.4459 27.2547 32.4598 27.2225 32.4735 27.1903C32.4763 27.1836 32.4791 27.177 32.4819 27.1704C32.5095 27.1049 32.5362 27.039 32.562 26.9726C32.5663 26.9614 32.5706 26.9502 32.5749 26.939C32.5869 26.9079 32.5986 26.8766 32.6102 26.8452C32.6127 26.8382 32.6153 26.8312 32.6179 26.8242C32.6577 26.7148 32.6952 26.6043 32.7301 26.4928C32.7318 26.4874 32.7335 26.482 32.7351 26.4766C32.746 26.4416 32.7566 26.4065 32.767 26.3714C32.7688 26.3652 32.7706 26.3589 32.7725 26.3526C32.7816 26.3214 32.7905 26.2901 32.7992 26.2587C32.8009 26.2527 32.8025 26.2468 32.8042 26.2408C32.8137 26.2062 32.823 26.1714 32.832 26.1366C32.8338 26.1297 32.8356 26.1228 32.8374 26.1159C32.8466 26.08 32.8555 26.0439 32.8642 26.0078C32.8655 26.0027 32.8667 25.9976 32.8679 25.9925C32.8856 25.9184 32.9022 25.844 32.9176 25.7692C32.9187 25.764 32.9198 25.7587 32.9209 25.7535C32.9284 25.7168 32.9356 25.6801 32.9425 25.6433C32.9437 25.6373 32.9448 25.6313 32.9459 25.6254C32.9601 25.5495 32.9731 25.4732 32.9849 25.3966C32.9857 25.3917 32.9864 25.3868 32.9872 25.3819C32.9928 25.3448 32.9982 25.3076 33.0034 25.2703C33.0042 25.2642 33.005 25.2581 33.0059 25.2519C33.0159 25.1776 33.0248 25.1029 33.0327 25.0279L33.0346 25.0092L33.036 24.9951C33.0394 24.9612 33.0426 24.9273 33.0455 24.8932C33.0461 24.8867 33.0466 24.8802 33.0472 24.8737C33.0574 24.7517 33.0647 24.6289 33.069 24.5053C33.0692 24.4999 33.0694 24.4945 33.0696 24.4892C33.0723 24.4057 33.0737 24.3218 33.0737 24.2376V4.5981H4.30373V24.2378H16.6337L16.6348 24.3676C16.6355 24.4069 16.6365 24.4461 16.6377 24.4852C16.638 24.4921 16.6382 24.499 16.6384 24.5058C16.6427 24.6271 16.6498 24.7477 16.6598 24.8675C16.6604 24.8755 16.6611 24.8835 16.6618 24.8914C16.6647 24.9256 16.6679 24.9599 16.6713 24.9941C16.6724 25.0047 16.6735 25.0154 16.6746 25.0261C16.6783 25.0613 16.6822 25.0964 16.6863 25.1314C16.6868 25.1357 16.6874 25.14 16.6879 25.1443C16.6972 25.222 16.7077 25.2994 16.7194 25.3764C16.7206 25.3839 16.7217 25.3914 16.7229 25.399C16.741 25.5158 16.7618 25.6318 16.7852 25.7469C16.7868 25.7547 16.7884 25.7625 16.79 25.7703C16.7974 25.8057 16.8049 25.841 16.8128 25.8763C16.8139 25.8814 16.8151 25.8867 16.8162 25.8919C16.8425 26.0092 16.8716 26.1254 16.9032 26.2407C16.9045 26.2453 16.9058 26.25 16.9071 26.2546C16.9263 26.324 16.9465 26.393 16.9677 26.4616C16.9716 26.4744 16.9756 26.4872 16.9796 26.5C16.9885 26.5284 16.9976 26.5568 17.0069 26.5851C17.0106 26.5966 17.0144 26.608 17.0182 26.6195C17.0409 26.6878 17.0646 26.7557 17.0892 26.8232C17.0918 26.8304 17.0944 26.8376 17.0971 26.8447C17.109 26.8771 17.1211 26.9093 17.1334 26.9415C17.1369 26.9506 17.1404 26.9596 17.1439 26.9686C17.156 26.9998 17.1683 27.0309 17.1808 27.0619C17.1838 27.0693 17.1868 27.0767 17.1898 27.0841C17.2001 27.1094 17.2105 27.1346 17.221 27.1597L17.2306 27.1825L17.2352 27.1934C17.2474 27.2219 17.2596 27.2503 17.2721 27.2786C17.2763 27.2882 17.2806 27.2978 17.2848 27.3074C17.3151 27.3756 17.3464 27.4433 17.3786 27.5104C17.3807 27.5146 17.3827 27.5188 17.3847 27.523C17.4009 27.5565 17.4173 27.59 17.434 27.6234C17.4361 27.6275 17.4381 27.6315 17.4401 27.6356C17.4567 27.6686 17.4736 27.7016 17.4907 27.7344C17.4929 27.7387 17.4951 27.7429 17.4974 27.7472C17.5321 27.8136 17.5679 27.8796 17.6046 27.945C17.608 27.951 17.6114 27.9571 17.6148 27.9632C17.6325 27.9944 17.6503 28.0255 17.6683 28.0564C17.6711 28.0612 17.6738 28.0659 17.6766 28.0706C17.6953 28.1025 17.7141 28.1341 17.7332 28.1657L0.193726 28.1657V0.670166H37.1837ZM24.8536 22.2738C23.7186 22.2738 22.7987 23.1531 22.7987 24.2378C22.7987 25.3225 23.7187 26.2018 24.8536 26.2018C25.9888 26.2018 26.9087 25.3225 26.9087 24.2378C26.9087 23.1531 25.9888 22.2738 24.8536 22.2738ZM8.41373 8.52604H28.9637V12.454H8.41373V8.52604ZM8.41373 16.3819H16.6337V20.3099H8.41373V16.3819Z" fill="#0CB9DE"/>
</svg>
