<svg width="40" height="40" viewBox="0 0 40 40" fill="none" xmlns="http://www.w3.org/2000/svg">
<g clip-path="url(#clip0_0_2496)">
<path d="M26.5077 27.1365C28.3666 27.1365 29.9673 26.4653 31.3098 25.1228C32.6523 23.7803 33.2977 22.128 33.2461 20.1658L26.895 7.54117L26.5077 6.8441C26.4045 6.74083 26.2883 6.6892 26.1592 6.6892C26.0301 6.6892 25.9139 6.6892 25.8107 6.6892L17.7557 7.54117V6.22448C18.1171 6.01794 18.4269 5.72105 18.6851 5.33379C18.9433 4.94653 19.0723 4.54636 19.0723 4.13328C19.0723 3.46203 18.8142 2.86823 18.2978 2.35188C17.7815 1.83554 17.1877 1.57736 16.5164 1.57736C15.7935 1.57736 15.1868 1.83554 14.6963 2.35188C14.2058 2.86823 13.9605 3.46203 13.9605 4.13328C13.9605 4.54636 14.0896 4.97234 14.3478 5.41124C14.6059 5.85013 14.9157 6.12122 15.2772 6.22448V8.08333L7.53199 8.9353C7.42872 8.9353 7.32545 8.96112 7.22218 9.01276C7.11891 9.06439 7.04146 9.16766 6.98982 9.32257L6.68002 10.0196L0.328949 22.6443C0.432218 24.5032 1.1551 26.0909 2.49761 27.4076C3.84011 28.7243 5.4666 29.3826 7.37708 29.3826C9.28757 29.3826 10.9141 28.7372 12.2566 27.4463C13.5991 26.1555 14.3219 24.5548 14.4252 22.6443L8.07415 10.0196V9.78728L15.6645 8.9353V34.0298H9.62319C9.36502 34.0298 9.15848 34.1201 9.00358 34.3008C8.84867 34.4816 8.77122 34.6752 8.77122 34.8817C8.77122 34.985 8.77122 35.0495 8.77122 35.0754C8.77122 35.1012 8.77122 35.1915 8.77122 35.3464H6.68002C6.42184 35.3464 6.16367 35.4626 5.90549 35.695C5.64732 35.9273 5.51823 36.2242 5.51823 36.5857V37.2827C5.51823 37.6442 5.64732 37.9411 5.90549 38.1734C6.16367 38.4058 6.42184 38.522 6.68002 38.522H27.2048C27.463 38.522 27.7082 38.4058 27.9406 38.1734C28.173 37.9411 28.2891 37.6442 28.2891 37.2827V36.5857C28.2891 36.2242 28.173 35.9273 27.9406 35.695C27.7082 35.4626 27.463 35.3464 27.2048 35.3464H25.0361C25.0361 35.2432 25.0361 35.1786 25.0361 35.1528C25.0361 35.127 25.0361 35.0366 25.0361 34.8817C25.0361 34.6236 24.9587 34.417 24.8038 34.2621C24.6489 34.1072 24.4682 34.0298 24.2616 34.0298H18.2204V8.47059L25.8107 7.61862L19.6145 20.3207C19.6145 22.1796 20.2858 23.7803 21.6283 25.1228C22.9708 26.4653 24.5972 27.1365 26.5077 27.1365ZM12.8762 22.412H1.87799L7.22218 10.0196L12.8762 22.412ZM26.1979 7.77352L31.7745 20.3982H20.8537L26.1979 7.77352Z" fill="#0CB9DE"/>
</g>
<defs>
<clipPath id="clip0_0_2496">
<rect width="39.6554" height="39.6554" fill="white" transform="matrix(1 0 0 -1 0.329071 39.9929)"/>
</clipPath>
</defs>
</svg>
