<svg width="22" height="23" viewBox="0 0 22 23" fill="none" xmlns="http://www.w3.org/2000/svg">
<path d="M18.1758 8.39856C18.1758 8.51314 18.1758 8.6134 18.1758 8.69934C18.1758 8.78528 18.1758 8.88554 18.1758 9.00012C18.1758 10.3751 17.918 11.7644 17.4023 13.1681C16.8867 14.5717 16.1348 15.8393 15.1465 16.9708C14.1582 18.1023 12.9264 19.0262 11.4512 19.7423C9.97591 20.4585 8.27865 20.8165 6.35938 20.8165C5.1849 20.8165 4.06771 20.659 3.00781 20.3439C1.94792 20.0288 0.945312 19.5704 0 18.9689C0.143229 18.9689 0.300781 18.9832 0.472656 19.0118C0.644531 19.0405 0.802083 19.0548 0.945312 19.0548C1.94792 19.0548 2.88607 18.8973 3.75977 18.5822C4.63346 18.267 5.42839 17.8374 6.14453 17.2931C5.22786 17.2931 4.42578 17.0138 3.73828 16.4552C3.05078 15.8966 2.5638 15.2163 2.27734 14.4142C2.42057 14.4715 2.54948 14.5001 2.66406 14.5001C2.77865 14.5001 2.92188 14.5001 3.09375 14.5001C3.26562 14.5001 3.45182 14.4858 3.65234 14.4572C3.85286 14.4285 4.02474 14.4142 4.16797 14.4142C3.2513 14.2423 2.4707 13.7768 1.82617 13.0177C1.18164 12.2586 0.859375 11.3634 0.859375 10.3322C0.859375 10.3322 0.859375 10.325 0.859375 10.3107C0.859375 10.2963 0.859375 10.2749 0.859375 10.2462C1.17448 10.3894 1.48242 10.5112 1.7832 10.6115C2.08398 10.7117 2.39193 10.7618 2.70703 10.7618C2.16276 10.3608 1.71875 9.8595 1.375 9.25793C1.03125 8.65637 0.859375 8.01184 0.859375 7.32434C0.859375 6.9233 0.916667 6.5509 1.03125 6.20715C1.14583 5.8634 1.28906 5.5483 1.46094 5.26184C2.49219 6.5509 3.73828 7.57499 5.19922 8.33411C6.66016 9.09322 8.25 9.51575 9.96875 9.60168C9.85417 9.42981 9.78971 9.2651 9.77539 9.10754C9.76107 8.94999 9.75391 8.77096 9.75391 8.57043C9.75391 7.4246 10.1549 6.45064 10.957 5.64856C11.7591 4.84648 12.7331 4.44543 13.8789 4.44543C14.4518 4.44543 15.0033 4.56002 15.5332 4.78918C16.0632 5.01835 16.5143 5.31913 16.8867 5.69153C17.3451 5.57695 17.7962 5.44804 18.2402 5.30481C18.6842 5.16158 19.1068 4.97538 19.5078 4.74622C19.3932 5.26184 19.1712 5.70585 18.8418 6.07825C18.5124 6.45064 18.1185 6.76575 17.6602 7.02356C18.1185 6.99491 18.5482 6.9233 18.9492 6.80872C19.3503 6.69413 19.7083 6.53658 20.0234 6.33606C19.8802 6.67981 19.651 7.03788 19.3359 7.41028C19.0208 7.78267 18.6341 8.1121 18.1758 8.39856Z" fill="#F5F5F5"/>
</svg>
