<svg width="41" height="41" viewBox="0 0 41 41" fill="none" xmlns="http://www.w3.org/2000/svg">
<g clip-path="url(#clip0_0_2399)">
<path d="M33.641 14.5144C33.641 14.7251 33.641 14.9094 33.641 15.0674C33.641 15.2254 33.641 15.4097 33.641 15.6204C33.641 18.1485 33.167 20.7029 32.219 23.2837C31.2709 25.8644 29.8884 28.195 28.0713 30.2754C26.2543 32.3558 23.9895 34.0544 21.2771 35.3711C18.5647 36.6878 15.444 37.3462 11.9153 37.3462C9.75584 37.3462 7.70177 37.0565 5.75304 36.4772C3.8043 35.8978 1.9609 35.0551 0.222839 33.9491C0.486182 33.9491 0.775859 33.9754 1.09187 34.0281C1.40788 34.0807 1.69756 34.1071 1.9609 34.1071C3.8043 34.1071 5.52919 33.8174 7.13558 33.238C8.74197 32.6587 10.2035 31.8687 11.5202 30.868C9.83485 30.868 8.36013 30.3544 7.09608 29.3274C5.83204 28.3004 4.93667 27.0495 4.40999 25.5748C4.67333 25.6801 4.91034 25.7328 5.12101 25.7328C5.33169 25.7328 5.59503 25.7328 5.91104 25.7328C6.22705 25.7328 6.5694 25.7064 6.93808 25.6538C7.30676 25.6011 7.62277 25.5748 7.88611 25.5748C6.20072 25.2588 4.7655 24.4029 3.58046 23.0072C2.39542 21.6115 1.8029 19.9656 1.8029 18.0695C1.8029 18.0695 1.8029 18.0563 1.8029 18.03C1.8029 18.0037 1.8029 17.9642 1.8029 17.9115C2.38225 18.1748 2.94844 18.3987 3.50146 18.583C4.05448 18.7674 4.62066 18.8595 5.20002 18.8595C4.19931 18.1222 3.38295 17.2005 2.75093 16.0944C2.11891 14.9884 1.8029 13.8034 1.8029 12.5393C1.8029 11.8019 1.90823 11.1173 2.11891 10.4852C2.32958 9.85321 2.59292 9.27386 2.90893 8.74717C4.805 11.1173 7.09608 13.0002 9.78218 14.3959C12.4683 15.7916 15.3914 16.5685 18.5515 16.7265C18.3408 16.4104 18.2223 16.1076 18.196 15.8179C18.1696 15.5282 18.1565 15.1991 18.1565 14.8304C18.1565 12.7236 18.8938 10.9329 20.3686 9.4582C21.8433 7.98348 23.634 7.24612 25.7407 7.24612C26.7941 7.24612 27.808 7.45679 28.7824 7.87814C29.7567 8.29949 30.5863 8.85251 31.2709 9.5372C32.1136 9.32653 32.9432 9.08952 33.7595 8.82618C34.5759 8.56283 35.3528 8.22049 36.0901 7.79914C35.8794 8.74717 35.4713 9.56354 34.8656 10.2482C34.2599 10.9329 33.5357 11.5123 32.693 11.9863C33.5357 11.9336 34.3257 11.8019 35.0631 11.5913C35.8004 11.3806 36.4588 11.0909 37.0381 10.7222C36.7748 11.3543 36.3535 12.0126 35.7741 12.6973C35.1947 13.382 34.4837 13.9877 33.641 14.5144Z" fill="#0CB9DE"/>
</g>
<defs>
<clipPath id="clip0_0_2399">
<rect width="40.4494" height="40.4494" fill="white" transform="matrix(1 0 0 -1 0.22345 40.6638)"/>
</clipPath>
</defs>
</svg>
