<svg width="22" height="23" viewBox="0 0 22 23" fill="none" xmlns="http://www.w3.org/2000/svg">
<path d="M20.3242 7.01245C20.3242 7.01245 20.2598 6.74748 20.1309 6.21753C20.002 5.68758 19.8086 5.27938 19.5508 4.99292C19.1497 4.62052 18.7559 4.39852 18.3691 4.3269C17.9824 4.25529 17.7031 4.19084 17.5312 4.13354C16.0417 4.01896 14.459 3.95451 12.7832 3.94019C11.1074 3.92586 10.2695 3.9187 10.2695 3.9187C10.2695 3.9187 9.43164 3.92586 7.75586 3.94019C6.08008 3.95451 4.4974 4.01896 3.00781 4.13354C2.83594 4.13354 2.55664 4.16935 2.16992 4.24097C1.7832 4.31258 1.38932 4.56323 0.988281 4.99292C0.673177 5.30802 0.465495 5.72339 0.365234 6.23901C0.264974 6.75464 0.214844 7.01245 0.214844 7.01245C0.214844 7.01245 0.179036 7.38485 0.107422 8.12964C0.0358073 8.87443 0 9.64787 0 10.45V11.9968C0 12.9135 0.0358073 13.7156 0.107422 14.4031C0.179036 15.0906 0.214844 15.4343 0.214844 15.4343C0.214844 15.4343 0.279297 15.7065 0.408203 16.2507C0.537109 16.795 0.730469 17.196 0.988281 17.4539C1.38932 17.8549 1.81185 18.0912 2.25586 18.1628C2.69987 18.2345 3.03646 18.2846 3.26562 18.3132C4.06771 18.3705 5.43555 18.4278 7.36914 18.4851C9.30273 18.5424 10.2695 18.571 10.2695 18.571C10.2695 18.571 11.1074 18.5567 12.7832 18.5281C14.459 18.4994 16.0417 18.4278 17.5312 18.3132C17.7031 18.3132 17.9824 18.2774 18.3691 18.2058C18.7559 18.1342 19.1497 17.8835 19.5508 17.4539C19.8659 17.1388 20.0736 16.7234 20.1738 16.2078C20.2741 15.6921 20.3242 15.4343 20.3242 15.4343C20.3242 15.4343 20.36 15.0906 20.4316 14.4031C20.5033 13.7156 20.5391 12.9135 20.5391 11.9968V10.45C20.5391 9.56193 20.5033 8.76701 20.4316 8.06519C20.36 7.36336 20.3242 7.01245 20.3242 7.01245ZM7.21875 15.5203V7.01245L15.2539 11.2234L7.21875 15.5203Z" fill="#F5F5F5"/>
</svg>
