<svg width="22" height="23" viewBox="0 0 22 23" fill="none" xmlns="http://www.w3.org/2000/svg">
<path d="M16.0703 3.08154H2.10547C1.53255 3.08154 1.03841 3.28206 0.623047 3.68311C0.207682 4.08415 0 4.57113 0 5.14404V19.1948C0 19.7677 0.207682 20.2619 0.623047 20.6772C1.03841 21.0926 1.53255 21.3003 2.10547 21.3003H16.1133C16.7148 21.3003 17.2161 21.0926 17.6172 20.6772C18.0182 20.2619 18.2188 19.7677 18.2188 19.1948V5.14404C18.2188 4.57113 18.0039 4.08415 17.5742 3.68311C17.1445 3.28206 16.6432 3.08154 16.0703 3.08154ZM9.15234 8.71045C10.1263 8.71045 10.9499 9.0542 11.623 9.7417C12.2962 10.4292 12.6328 11.2599 12.6328 12.2339C12.6328 13.1792 12.2962 13.9956 11.623 14.6831C10.9499 15.3706 10.1263 15.7144 9.15234 15.7144C8.17839 15.7144 7.35482 15.3706 6.68164 14.6831C6.00846 13.9956 5.67188 13.1792 5.67188 12.2339C5.67188 11.2599 6.00846 10.4292 6.68164 9.7417C7.35482 9.0542 8.17839 8.71045 9.15234 8.71045ZM16.0703 18.5073C16.0703 18.7078 15.9987 18.8726 15.8555 19.0015C15.7122 19.1304 15.5404 19.1948 15.3398 19.1948H2.70703C2.50651 19.1948 2.3418 19.1304 2.21289 19.0015C2.08398 18.8726 2.01953 18.7078 2.01953 18.5073V10.73H3.65234C3.6237 10.9878 3.58789 11.2313 3.54492 11.4604C3.50195 11.6896 3.48047 11.9474 3.48047 12.2339C3.48047 13.7808 4.02474 15.0985 5.11328 16.187C6.20182 17.2756 7.51953 17.8198 9.06641 17.8198C10.6133 17.8198 11.931 17.2756 13.0195 16.187C14.1081 15.0985 14.6523 13.7808 14.6523 12.2339C14.6523 12.0047 14.638 11.7684 14.6094 11.5249C14.5807 11.2814 14.5521 11.0164 14.5234 10.73H16.0703V18.5073ZM16.0703 7.93701C16.0703 8.13753 15.9987 8.30941 15.8555 8.45264C15.7122 8.59587 15.5404 8.66748 15.3398 8.66748H13.2773C13.0768 8.66748 12.9049 8.59587 12.7617 8.45264C12.6185 8.30941 12.5469 8.13753 12.5469 7.93701V5.87451C12.5469 5.67399 12.6185 5.50212 12.7617 5.35889C12.9049 5.21566 13.0768 5.14404 13.2773 5.14404H15.3398C15.5404 5.14404 15.7122 5.21566 15.8555 5.35889C15.9987 5.50212 16.0703 5.67399 16.0703 5.87451V7.93701Z" fill="#F5F5F5"/>
</svg>
