<svg width="41" height="41" viewBox="0 0 41 41" fill="none" xmlns="http://www.w3.org/2000/svg">
<g clip-path="url(#clip0_0_2393)">
<path d="M12.2441 22.4937H17.6953L18.4853 16.2524H12.2441V12.3023C12.2441 11.4596 12.4416 10.7091 12.8366 10.0507C13.2317 9.39236 14.0875 9.06318 15.4042 9.06318H18.8804V3.53299C18.617 3.53299 18.0245 3.49348 17.1028 3.41448C16.1811 3.33548 15.1672 3.29598 14.0612 3.29598C11.6384 3.29598 9.6502 4.007 8.09647 5.42905C6.54275 6.8511 5.76589 8.98418 5.76589 11.8283V16.7265H0.314697V22.9677H5.76589V39.0052H12.2441V22.4937Z" fill="#0CB9DE"/>
</g>
<defs>
<clipPath id="clip0_0_2393">
<rect width="40.4494" height="40.4494" fill="white" transform="matrix(1 0 0 -1 0.315277 40.6638)"/>
</clipPath>
</defs>
</svg>
