<svg width="42" height="41" viewBox="0 0 42 41" fill="none" xmlns="http://www.w3.org/2000/svg">
<g clip-path="url(#clip0_0_2395)">
<path d="M30.5015 4.48096H4.82561C3.77223 4.48096 2.8637 4.84964 2.10001 5.587C1.33631 6.32436 0.954468 7.21972 0.954468 8.27309V34.107C0.954468 35.1604 1.33631 36.0689 2.10001 36.8326C2.8637 37.5963 3.77223 37.9781 4.82561 37.9781H30.5805C31.6866 37.9781 32.6083 37.5963 33.3456 36.8326C34.083 36.0689 34.4517 35.1604 34.4517 34.107V8.27309C34.4517 7.21972 34.0566 6.32436 33.2666 5.587C32.4766 4.84964 31.5549 4.48096 30.5015 4.48096ZM17.7821 14.8303C19.5728 14.8303 21.087 15.4623 22.3247 16.7264C23.5624 17.9904 24.1813 19.5178 24.1813 21.3086C24.1813 23.0466 23.5624 24.5477 22.3247 25.8117C21.087 27.0758 19.5728 27.7078 17.7821 27.7078C15.9913 27.7078 14.4771 27.0758 13.2394 25.8117C12.0017 24.5477 11.3828 23.0466 11.3828 21.3086C11.3828 19.5178 12.0017 17.9904 13.2394 16.7264C14.4771 15.4623 15.9913 14.8303 17.7821 14.8303ZM30.5015 32.843C30.5015 33.2116 30.3698 33.5145 30.1065 33.7515C29.8432 33.9885 29.5272 34.107 29.1585 34.107H5.93164C5.56297 34.107 5.26012 33.9885 5.02311 33.7515C4.7861 33.5145 4.6676 33.2116 4.6676 32.843V18.5435H7.66971C7.61704 19.0175 7.5512 19.4652 7.4722 19.8865C7.3932 20.3079 7.3537 20.7819 7.3537 21.3086C7.3537 24.1527 8.3544 26.5754 10.3558 28.5768C12.3572 30.5782 14.78 31.5789 17.6241 31.5789C20.4682 31.5789 22.8909 30.5782 24.8923 28.5768C26.8937 26.5754 27.8944 24.1527 27.8944 21.3086C27.8944 20.8872 27.8681 20.4527 27.8154 20.005C27.7628 19.5573 27.7101 19.0701 27.6574 18.5435H30.5015V32.843ZM30.5015 13.4083C30.5015 13.777 30.3698 14.093 30.1065 14.3563C29.8432 14.6197 29.5272 14.7513 29.1585 14.7513H25.3663C24.9977 14.7513 24.6816 14.6197 24.4183 14.3563C24.155 14.093 24.0233 13.777 24.0233 13.4083V9.61614C24.0233 9.24746 24.155 8.93145 24.4183 8.66811C24.6816 8.40476 24.9977 8.27309 25.3663 8.27309H29.1585C29.5272 8.27309 29.8432 8.40476 30.1065 8.66811C30.3698 8.93145 30.5015 9.24746 30.5015 9.61614V13.4083Z" fill="#0CB9DE"/>
</g>
<defs>
<clipPath id="clip0_0_2395">
<rect width="40.4494" height="40.4494" fill="white" transform="matrix(1 0 0 -1 0.954498 40.6638)"/>
</clipPath>
</defs>
</svg>
