<svg width="42" height="41" viewBox="0 0 42 41" fill="none" xmlns="http://www.w3.org/2000/svg">
<g clip-path="url(#clip0_0_2401)">
<path d="M38.2309 12.2233C38.2309 12.2233 38.1124 11.7362 37.8754 10.7618C37.6384 9.78742 37.2829 9.03689 36.8089 8.51021C36.0715 7.82552 35.3473 7.41734 34.6363 7.28567C33.9253 7.15399 33.4118 7.03549 33.0958 6.93015C30.357 6.71948 27.4471 6.60098 24.3659 6.57464C21.2848 6.54831 19.7443 6.53514 19.7443 6.53514C19.7443 6.53514 18.2037 6.54831 15.1226 6.57464C12.0415 6.60098 9.13157 6.71948 6.39281 6.93015C6.0768 6.93015 5.56328 6.99599 4.85225 7.12766C4.14123 7.25933 3.41703 7.72018 2.67967 8.51021C2.10032 9.08956 1.71847 9.85326 1.53413 10.8013C1.34979 11.7493 1.25762 12.2233 1.25762 12.2233C1.25762 12.2233 1.19179 12.908 1.06012 14.2774C0.928446 15.6468 0.86261 17.0688 0.86261 18.5436V21.3877C0.86261 23.0731 0.928446 24.5478 1.06012 25.8118C1.19179 27.0759 1.25762 27.7079 1.25762 27.7079C1.25762 27.7079 1.37613 28.2082 1.61314 29.2089C1.85015 30.2096 2.20566 30.947 2.67967 31.421C3.41703 32.1584 4.1939 32.5929 5.01026 32.7246C5.82662 32.8562 6.44548 32.9484 6.86682 33.0011C8.34154 33.1064 10.8565 33.2118 14.4116 33.3171C17.9667 33.4224 19.7443 33.4751 19.7443 33.4751C19.7443 33.4751 21.2848 33.4488 24.3659 33.3961C27.4471 33.3434 30.357 33.2118 33.0958 33.0011C33.4118 33.0011 33.9253 32.9352 34.6363 32.8036C35.3473 32.6719 36.0715 32.2111 36.8089 31.421C37.3882 30.8417 37.7701 30.078 37.9544 29.1299C38.1388 28.1819 38.2309 27.7079 38.2309 27.7079C38.2309 27.7079 38.2968 27.0759 38.4284 25.8118C38.5601 24.5478 38.626 23.0731 38.626 21.3877V18.5436C38.626 16.9108 38.5601 15.4493 38.4284 14.1589C38.2968 12.8685 38.2309 12.2233 38.2309 12.2233ZM14.1351 27.8659V12.2233L28.9086 19.9656L14.1351 27.8659Z" fill="#0CB9DE"/>
</g>
<defs>
<clipPath id="clip0_0_2401">
<rect width="40.4494" height="40.4494" fill="white" transform="matrix(1 0 0 -1 0.862671 40.6638)"/>
</clipPath>
</defs>
</svg>
