<svg width="42" height="41" viewBox="0 0 42 41" fill="none" xmlns="http://www.w3.org/2000/svg">
<g clip-path="url(#clip0_0_2397)">
<path d="M8.41555 8.03616C8.41555 9.14219 8.0337 10.0771 7.27001 10.8408C6.50631 11.6044 5.57145 11.9863 4.46541 11.9863C3.41204 11.9863 2.5035 11.6044 1.73981 10.8408C0.976116 10.0771 0.594269 9.14219 0.594269 8.03616C0.594269 6.98278 0.976116 6.06108 1.73981 5.27106C2.5035 4.48103 3.41204 4.08601 4.46541 4.08601C5.57145 4.08601 6.50631 4.48103 7.27001 5.27106C8.0337 6.06108 8.41555 6.98278 8.41555 8.03616ZM1.22629 14.8304H7.78352V36.0822H1.22629V14.8304ZM24.6901 14.1984C23.1101 14.1984 21.7802 14.5539 20.7005 15.2649C19.6208 15.9759 18.8966 16.7791 18.5279 17.6745V14.6724H11.8917V35.9241H18.5279V25.4168C18.5279 24.0474 18.7517 22.8097 19.1994 21.7036C19.6471 20.5976 20.74 20.0446 22.478 20.0446C24.2161 20.0446 25.23 20.6766 25.5197 21.9406C25.8093 23.2047 25.9542 24.4687 25.9542 25.7328V36.0822H32.5114V24.4687C32.5114 21.6246 32.0242 19.2019 31.0499 17.2005C30.0755 15.1991 27.9556 14.1984 24.6901 14.1984Z" fill="#0CB9DE"/>
</g>
<defs>
<clipPath id="clip0_0_2397">
<rect width="40.4494" height="40.4494" fill="white" transform="matrix(1 0 0 -1 0.59375 40.6638)"/>
</clipPath>
</defs>
</svg>
