<svg width="22" height="23" viewBox="0 0 22 23" fill="none" xmlns="http://www.w3.org/2000/svg">
<path d="M4.25391 4.87512C4.25391 5.47668 4.04622 5.98515 3.63086 6.40051C3.21549 6.81588 2.70703 7.02356 2.10547 7.02356C1.53255 7.02356 1.03841 6.81588 0.623047 6.40051C0.207682 5.98515 0 5.47668 0 4.87512C0 4.30221 0.207682 3.8009 0.623047 3.37122C1.03841 2.94153 1.53255 2.72668 2.10547 2.72668C2.70703 2.72668 3.21549 2.94153 3.63086 3.37122C4.04622 3.8009 4.25391 4.30221 4.25391 4.87512ZM0.34375 8.57043H3.91016V20.129H0.34375V8.57043ZM13.1055 8.22668C12.2461 8.22668 11.5228 8.42004 10.9355 8.80676C10.3483 9.19348 9.95443 9.63033 9.75391 10.1173V8.4845H6.14453V20.0431H9.75391V14.3282C9.75391 13.5835 9.87565 12.9103 10.1191 12.3087C10.3626 11.7072 10.957 11.4064 11.9023 11.4064C12.8477 11.4064 13.3991 11.7501 13.5566 12.4376C13.7142 13.1251 13.793 13.8126 13.793 14.5001V20.129H17.3594V13.8126C17.3594 12.2657 17.0944 10.948 16.5645 9.8595C16.0345 8.77096 14.8815 8.22668 13.1055 8.22668Z" fill="#F5F5F5"/>
</svg>
