<svg width="37" height="15" viewBox="0 0 37 15" fill="none" xmlns="http://www.w3.org/2000/svg">
<path d="M27.093 0.966043C27.093 1.08074 27.1398 1.17085 27.1867 1.17085C27.2429 1.17085 27.2804 1.30193 27.2804 1.45758V1.74432H22.6401C18.5998 1.74432 17.9904 1.72793 17.9435 1.62143C17.8686 1.46578 17.6529 1.46578 17.5592 1.62143C17.503 1.70335 17.3061 1.74432 16.9686 1.75251C16.3405 1.76889 15.9843 1.91635 15.7968 2.23586C15.6093 2.54716 15.2718 3.71048 15.2812 4.01359C15.2906 4.13648 15.2437 4.61164 15.1875 5.06221C15.0094 6.3648 15.3093 8.72419 15.7406 9.44512C15.8343 9.60077 16.0687 9.81377 16.2749 9.91208L16.6405 10.1005H15.2625H13.8751V6.45491V2.80113L13.6407 2.60451L13.4157 2.3997H10.8284H8.24105L8.01607 2.59632C7.75359 2.8257 6.54429 4.89837 6.62866 4.9721C6.66616 4.99668 6.64741 5.02125 6.59116 5.02125C6.53492 5.02125 6.29118 5.36533 6.04745 5.79133L5.59748 6.56141L4.83815 6.73345C2.48518 7.28234 0.319694 7.93773 0.141581 8.16711C-0.0177838 8.35554 -0.0552813 9.11742 0.0947089 9.11742C0.141581 9.11742 0.22595 9.19116 0.282197 9.28127C0.357192 9.40416 0.338443 9.47789 0.188453 9.60896C0.0384626 9.74004 0.000965016 9.87931 0.000965016 10.2644V10.7559H0.797788H1.59461L1.30401 11.1409C1.03215 11.526 0.750916 12.1977 0.750916 12.4927C0.750916 12.6156 0.825911 12.6401 1.16339 12.6401H1.56649L1.63211 13.0334C1.69773 13.4839 2.10083 14.0902 2.49455 14.3359C2.83203 14.5489 3.57261 14.7701 3.92883 14.7701C4.36943 14.7701 5.03501 14.5571 5.42874 14.2868C5.85996 13.9919 6.28181 13.3037 6.28181 12.9105V12.6401H10.1066H13.9313L14.3438 12.2715C14.6906 11.9684 14.8125 11.9028 15.1125 11.9028H15.4593L15.4875 11.4359L15.5156 10.9607H15.9843H16.453L16.4811 11.9274C16.4999 12.6483 16.5374 12.8859 16.6218 12.8613C16.6968 12.8367 16.7343 12.5582 16.7343 11.8946V10.9607H17.9529H19.1716V11.8946C19.1716 12.5582 19.2091 12.8367 19.2841 12.8613C19.3685 12.8859 19.406 12.6483 19.4247 11.9274L19.4528 10.9607H19.9215H20.3903L20.4184 11.4277L20.4465 11.9028H21.0371H21.6277L21.5808 12.5336C21.5433 13.1153 21.5714 13.2136 21.8152 13.6232C22.2839 14.4097 23.2682 14.8603 24.2244 14.7374C24.8431 14.6554 25.5837 14.2213 25.9212 13.7543C26.1743 13.3856 26.2024 13.2873 26.2024 12.6237V11.9028H26.6242H27.0555L27.018 12.4845C26.9711 13.2136 27.1679 13.6888 27.7117 14.1639C28.9397 15.2453 31.0302 14.7538 31.5927 13.2628C31.6677 13.0579 31.6864 12.7548 31.6583 12.4189L31.602 11.9028H32.6707C33.6832 11.9028 33.7488 11.911 33.7488 12.0667C33.7488 12.1732 33.8144 12.2305 33.9363 12.2305C34.0581 12.2305 34.1237 12.1732 34.1237 12.0749C34.1237 11.9929 34.2081 11.9028 34.3112 11.8782C34.4612 11.8455 34.4987 11.7636 34.4987 11.4686C34.4987 11.1737 34.4612 11.0918 34.3112 11.059C34.2081 11.0344 34.1237 10.9607 34.1237 10.887C34.1237 10.8132 34.0488 10.7559 33.9363 10.7559C33.8331 10.7559 33.7488 10.8132 33.7488 10.8788C33.7488 10.9689 33.6363 11.0017 33.2801 11.0017H32.8113V10.5593V10.1251L33.2332 9.98581C33.6738 9.83835 33.9738 9.55162 34.0769 9.17477C34.1425 8.96996 34.1612 8.98635 34.4144 9.43693C34.6675 9.87112 35.1924 10.3463 35.4174 10.3463C35.4737 10.3463 35.558 10.2398 35.6049 10.1087C35.6893 9.8957 35.6705 9.85474 35.4174 9.69089C34.9862 9.41235 34.7518 8.87165 34.7987 8.25723C34.8268 7.82303 34.9018 7.65099 35.2768 7.10211C35.9611 6.10264 36.3923 5.2916 36.4392 4.91475C36.4861 4.48056 36.2611 4.07094 35.8111 3.80879C35.483 3.61217 35.4362 3.61217 34.5456 3.72686C34.3956 3.75144 34.3487 3.67771 34.2644 3.31725C34.2175 3.07148 34.1331 2.90763 34.0956 2.9404C34.0581 2.98136 34.0488 2.94859 34.0769 2.86667C34.1706 2.66186 33.7675 2.00647 33.4582 1.8672C33.3176 1.80166 32.9707 1.74432 32.6895 1.74432C32.3145 1.74432 32.1645 1.71155 32.1176 1.62143C32.052 1.45758 31.8176 1.46578 31.7427 1.62143C31.6958 1.72793 31.5552 1.74432 31.0208 1.72793L30.3459 1.70335L30.3177 1.43301C30.2896 1.24458 30.3177 1.17085 30.4209 1.17085C30.5052 1.17085 30.5615 1.08893 30.5615 0.966043V0.761234H28.8272H27.093V0.966043ZM30.7958 2.64547V2.85028L24.8525 2.87486C18.6185 2.89124 18.6373 2.89124 18.8529 2.54716C18.9372 2.4079 19.2278 2.3997 24.8712 2.41609L30.7958 2.44066V2.64547ZM12.6751 3.35821C12.8251 3.4729 12.8439 3.63675 12.8439 4.90656C12.8439 6.27468 12.8345 6.32384 12.6376 6.44672C12.4595 6.56141 12.0471 6.5778 10.0597 6.5778H7.68797V5.81591C7.68797 5.08679 7.70671 5.03764 8.11919 4.28394C8.35355 3.85794 8.61603 3.44013 8.69102 3.35821C8.82227 3.23532 9.04725 3.21894 10.669 3.21894C12.2439 3.21894 12.5252 3.23532 12.6751 3.35821ZM35.5955 4.38225C35.7361 4.49694 35.8111 4.6526 35.8111 4.82464C35.8111 5.08679 35.3705 5.90603 34.8175 6.67611L34.5456 7.06115L34.5268 5.77495C34.5081 4.5461 34.5175 4.48056 34.7143 4.34948C34.9956 4.15286 35.333 4.16925 35.5955 4.38225ZM22.2745 4.61983C23.1651 5.15233 23.2776 6.18457 22.537 6.8973C22.1152 7.31511 21.7777 7.42161 21.1027 7.38065C20.0903 7.31511 19.4341 6.62695 19.5184 5.70941C19.6309 4.52971 21.1402 3.93167 22.2745 4.61983ZM24.4213 5.40629C24.4681 5.48822 24.4962 5.64387 24.4869 5.75856C24.4869 5.87326 24.5244 5.80772 24.5806 5.6111C24.665 5.33256 24.7212 5.26702 24.89 5.26702C25.0587 5.26702 25.115 5.33256 25.1712 5.57014L25.2462 5.88145L25.3306 5.59472C25.4431 5.24245 25.4431 5.24245 25.6868 5.30798C25.8274 5.34895 25.8555 5.38991 25.7899 5.45545C25.743 5.51279 25.6399 5.75856 25.5743 6.00433C25.3962 6.60238 25.1806 6.65153 25.0118 6.12722L24.8806 5.75856L24.7681 6.12722C24.6087 6.64334 24.4119 6.61057 24.2338 6.02072C24.1494 5.76676 24.065 5.51279 24.0463 5.45545C23.9619 5.23425 24.3181 5.19329 24.4213 5.40629ZM26.643 5.81591C26.8023 6.18457 26.8586 6.39757 26.793 6.45491C26.7274 6.51226 26.6524 6.4713 26.5586 6.34841C26.3805 6.11903 26.0055 6.11083 25.9399 6.33203C25.9118 6.42214 25.818 6.49587 25.7337 6.49587C25.5556 6.49587 25.5743 6.39757 25.893 5.69302C26.1555 5.10318 26.3336 5.12775 26.643 5.81591ZM28.8741 5.43087C28.8741 5.54556 28.8178 5.57014 28.6679 5.54556L28.4522 5.5046L28.6679 5.64387C28.9772 5.84868 28.9303 6.00433 28.546 6.00433C28.321 6.00433 28.2179 6.0453 28.2179 6.12722C28.2179 6.21733 28.321 6.2501 28.6022 6.2501C29.1741 6.2501 29.0241 6.44672 28.4241 6.47949L27.9554 6.50407L27.8898 6.05349C27.8429 5.7176 27.7867 5.61929 27.6929 5.65206C27.6179 5.67664 27.5523 5.64387 27.5429 5.58652C27.5336 5.52099 27.5054 5.69302 27.4773 5.96337C27.4398 6.32384 27.3836 6.45491 27.2804 6.45491C27.1773 6.45491 27.1305 6.33203 27.093 6.00433C27.0555 5.67664 27.0086 5.55375 26.9055 5.55375C26.8305 5.55375 26.7555 5.48822 26.7367 5.41448C26.7086 5.28341 26.8117 5.27522 27.7867 5.27522C28.7803 5.27522 28.8741 5.2916 28.8741 5.43087ZM29.999 5.33256C30.1678 5.3981 30.2146 5.56195 30.1396 5.81591C30.1115 5.9388 30.0459 5.98795 29.9803 5.95518C29.924 5.92241 29.9428 5.97976 30.0271 6.09445C30.374 6.52045 30.0834 6.66791 29.7272 6.24191C29.4928 5.97156 29.4178 5.97976 29.3991 6.26649C29.3897 6.37299 29.3334 6.45491 29.2491 6.45491C29.1366 6.45491 29.0991 6.32384 29.0803 5.85687L29.0522 5.26702L29.4553 5.27522C29.6803 5.27522 29.924 5.29979 29.999 5.33256ZM12.3752 11.5342C12.3752 11.6407 12.1221 11.6571 10.6878 11.6571C9.25349 11.6571 9.00038 11.6407 9.00038 11.5342C9.00038 11.4277 9.25349 11.4113 10.6878 11.4113C12.1221 11.4113 12.3752 11.4277 12.3752 11.5342ZM4.4913 11.8619C4.75378 11.9766 5.06314 12.4189 5.06314 12.6811C5.06314 12.9351 4.7819 13.3447 4.51005 13.4839C4.07882 13.7051 3.61948 13.6642 3.2445 13.3774C2.86015 13.0825 2.75704 12.7548 2.90703 12.3452C3.10389 11.8209 3.88196 11.5833 4.4913 11.8619ZM24.4587 11.8619C24.6087 11.9274 24.7962 12.1158 24.89 12.2797C25.3399 13.1153 24.2525 13.9591 23.3338 13.4839C23.0713 13.3447 22.7807 12.9351 22.7807 12.6975C22.7807 11.9847 23.7088 11.5178 24.4587 11.8619ZM29.9521 11.9192C30.5521 12.3288 30.5615 12.9924 29.9896 13.4184C29.4272 13.828 28.5179 13.5904 28.3022 12.976C28.1616 12.5664 28.246 12.2715 28.5929 11.9766C28.9397 11.6734 29.5584 11.6489 29.9521 11.9192ZM12.3752 12.1076C12.3752 12.2141 12.1221 12.2305 10.6878 12.2305C9.25349 12.2305 9.00038 12.2141 9.00038 12.1076C9.00038 12.0011 9.25349 11.9847 10.6878 11.9847C12.1221 11.9847 12.3752 12.0011 12.3752 12.1076Z" fill="#D8F0F5"/>
<path d="M20.5406 4.66926C19.8188 4.98057 19.5095 5.84896 19.8938 6.49616C20.4657 7.46285 21.8531 7.50381 22.5655 6.58627C22.828 6.24219 22.8655 5.52127 22.6311 5.31646C22.5561 5.24273 22.5186 5.18538 22.5561 5.18538C22.5936 5.18538 22.528 5.08707 22.3968 4.97238C21.9374 4.53819 21.15 4.40711 20.5406 4.66926ZM21.4125 4.82492C21.4406 4.89046 21.5062 4.92323 21.5625 4.89865C21.6093 4.87407 21.6281 4.89865 21.6 4.96419C21.5718 5.02973 21.5906 5.11165 21.6468 5.14442C21.8249 5.23453 22.1249 5.90631 22.1249 6.20942C22.1249 6.873 21.2344 7.22527 20.6531 6.79108C20.4282 6.61904 20.3907 6.53712 20.4 6.18485C20.4 5.95546 20.4563 5.70969 20.5219 5.64415C20.5875 5.57861 20.6156 5.4803 20.5781 5.43115C20.55 5.39019 20.5594 5.34923 20.6063 5.34923C20.6531 5.34923 20.8125 5.20176 20.9531 5.02153C21.2344 4.66107 21.3281 4.6283 21.4125 4.82492Z" fill="#D8F0F5"/>
<path d="M29.4371 5.63596C29.4371 5.7015 29.5214 5.75885 29.6245 5.75885C29.7277 5.75885 29.812 5.72608 29.812 5.67693C29.812 5.63596 29.7464 5.62777 29.6527 5.65235C29.5496 5.68512 29.5214 5.67693 29.5683 5.61139C29.6058 5.55404 29.587 5.51308 29.5402 5.51308C29.4839 5.51308 29.4371 5.57043 29.4371 5.63596Z" fill="#D8F0F5"/>
<path d="M3.65657 12.4271C3.39409 12.7139 3.75969 13.189 4.10654 13.0006C4.43464 12.8204 4.31278 12.3124 3.9378 12.3124C3.84406 12.3124 3.72219 12.3698 3.65657 12.4271ZM4.12529 12.5173C4.28465 12.6811 4.17216 12.8859 3.9378 12.8859C3.83468 12.8859 3.72219 12.8286 3.69407 12.763C3.63782 12.6401 3.79719 12.3944 3.9378 12.3944C3.9753 12.3944 4.05967 12.4517 4.12529 12.5173Z" fill="#D8F0F5"/>
<path d="M23.6249 12.4271C23.3624 12.7139 23.728 13.189 24.0749 13.0006C24.403 12.8204 24.2811 12.3124 23.9061 12.3124C23.8124 12.3124 23.6905 12.3698 23.6249 12.4271ZM24.0936 12.5173C24.253 12.6811 24.1405 12.8859 23.9061 12.8859C23.803 12.8859 23.6905 12.8286 23.6624 12.763C23.6062 12.6401 23.7655 12.3944 23.9061 12.3944C23.9436 12.3944 24.028 12.4517 24.0936 12.5173Z" fill="#D8F0F5"/>
<path d="M29.0984 12.3779C28.9015 12.4926 28.8828 12.7138 29.0515 12.9022C29.2015 13.0661 29.2577 13.0742 29.4733 12.9841C29.6327 12.9186 29.7171 12.8285 29.7171 12.6974C29.7171 12.3861 29.3796 12.2059 29.0984 12.3779ZM29.6046 12.7056C29.5671 12.8858 29.1734 12.935 29.0984 12.7711C29.0609 12.6974 29.089 12.5827 29.1546 12.5172C29.3046 12.3615 29.6515 12.509 29.6046 12.7056Z" fill="#D8F0F5"/>
</svg>
