<svg width="20" height="21" viewBox="0 0 20 21" fill="none" xmlns="http://www.w3.org/2000/svg">
<path d="M8.51026 5.89199L5.99271 3.74189C5.86635 3.63397 5.79661 3.49465 5.79661 3.35027V2.69019H3.46717V3.35027C3.46717 3.49462 3.39738 3.634 3.27108 3.74189L0.753481 5.89203C0.500818 6.10783 0.361252 6.38653 0.361252 6.67526H8.90253C8.90253 6.38649 8.76292 6.10779 8.51026 5.89199Z" fill="#E4EAF8"/>
<path d="M6.14167 3.86836L5.99271 3.7411C5.93436 3.69126 5.8896 3.63422 5.85668 3.57363C5.83779 3.53895 5.82331 3.503 5.8131 3.46622C5.81291 3.4654 5.81241 3.46467 5.81223 3.46388C5.80206 3.42648 5.79661 3.38826 5.79661 3.34948V2.98413H3.46717V3.34952C3.46717 3.49387 3.39738 3.63318 3.27107 3.7411L0.753481 5.89124C0.500818 6.10704 0.361252 6.38574 0.361252 6.67448H3.46717C3.46717 6.38574 3.51793 6.10704 3.60978 5.89124L4.32241 4.27114C4.42819 4.03059 4.72481 3.86839 5.05892 3.86839H6.14172L6.14167 3.86836Z" fill="#D5DCED"/>
<path d="M5.79895 2.98532H3.4695C3.25511 2.98532 3.08127 2.85334 3.08127 2.69059V2.10113C3.08127 1.93837 3.25511 1.8064 3.4695 1.8064H5.79895C6.01334 1.8064 6.18718 1.93837 6.18718 2.10113V2.69059C6.18723 2.85338 6.01338 2.98532 5.79895 2.98532Z" fill="#39B6CC"/>
<path d="M4.24597 2.69059V2.10113C4.24597 1.93837 4.41981 1.8064 4.6342 1.8064H3.4695C3.25511 1.8064 3.08127 1.93837 3.08127 2.10113V2.69059C3.08127 2.85334 3.25511 2.98532 3.4695 2.98532H4.6342C4.41981 2.98532 4.24597 2.85338 4.24597 2.69059Z" fill="#0CB9DE"/>
<path d="M8.90258 8.28965V6.52124H0.361252V8.28965C0.361252 8.6152 0.708942 8.87911 1.13772 8.87911C0.708896 8.87911 0.361252 9.14299 0.361252 9.46857V9.7633C0.361252 10.0888 0.708942 10.3528 1.13772 10.3528C0.708896 10.3528 0.361252 10.6166 0.361252 10.9422V11.237C0.361252 11.5625 0.708942 11.8264 1.13772 11.8264C0.708896 11.8264 0.361252 12.0903 0.361252 12.4159V12.7106C0.361252 13.0361 0.708942 13.3001 1.13772 13.3001C0.708896 13.3001 0.361252 13.5639 0.361252 13.8895V14.1843C0.361252 14.5098 0.708942 14.7737 1.13772 14.7737C0.708896 14.7737 0.361252 15.0376 0.361252 15.3632V15.6579C0.361252 15.9834 0.708942 16.2474 1.13772 16.2474C0.708896 16.2474 0.361252 16.5112 0.361252 16.8368V17.721C0.361252 18.3721 1.05649 18.9 1.91423 18.9H7.3496C8.20733 18.9 8.90258 18.3721 8.90258 17.721V16.8368C8.90258 16.5112 8.55489 16.2474 8.12611 16.2474C8.55493 16.2474 8.90258 15.9834 8.90258 15.6579V15.3632C8.90258 15.0376 8.55489 14.7737 8.12611 14.7737C8.55493 14.7737 8.90258 14.5098 8.90258 14.1843V13.8895C8.90258 13.5639 8.55489 13.3001 8.12611 13.3001C8.55493 13.3001 8.90258 13.0361 8.90258 12.7106V12.4159C8.90258 12.0903 8.55489 11.8264 8.12611 11.8264C8.55493 11.8264 8.90258 11.5625 8.90258 11.237V10.9422C8.90258 10.6166 8.55489 10.3528 8.12611 10.3528C8.55493 10.3528 8.90258 10.0888 8.90258 9.7633V9.46857C8.90258 9.14299 8.55489 8.87911 8.12611 8.87911C8.55489 8.87911 8.90258 8.6152 8.90258 8.28965Z" fill="#BBE8FC"/>
<path d="M3.46717 17.721V16.8368C3.46717 16.5112 3.81486 16.2474 4.24363 16.2474C3.81481 16.2474 3.46717 15.9834 3.46717 15.6579V15.3632C3.46717 15.0376 3.81486 14.7737 4.24363 14.7737C3.81481 14.7737 3.46717 14.5098 3.46717 14.1843V13.8895C3.46717 13.5639 3.81486 13.3001 4.24363 13.3001C3.81481 13.3001 3.46717 13.0361 3.46717 12.7106V12.4159C3.46717 12.0903 3.81486 11.8264 4.24363 11.8264C3.81481 11.8264 3.46717 11.5625 3.46717 11.237V10.9422C3.46717 10.6166 3.81486 10.3528 4.24363 10.3528C3.81481 10.3528 3.46717 10.0888 3.46717 9.7633V9.46857C3.46717 9.143 3.81486 8.87911 4.24363 8.87911C3.81481 8.87911 3.46717 8.61516 3.46717 8.28965V6.52124H0.361252V8.28965C0.361252 8.6152 0.708941 8.87911 1.13772 8.87911C0.708896 8.87911 0.361252 9.143 0.361252 9.46857V9.7633C0.361252 10.0888 0.708941 10.3528 1.13772 10.3528C0.708896 10.3528 0.361252 10.6166 0.361252 10.9422V11.237C0.361252 11.5625 0.708941 11.8264 1.13772 11.8264C0.708896 11.8264 0.361252 12.0903 0.361252 12.4159V12.7106C0.361252 13.0361 0.708941 13.3001 1.13772 13.3001C0.708896 13.3001 0.361252 13.5639 0.361252 13.8895V14.1843C0.361252 14.5098 0.708941 14.7737 1.13772 14.7737C0.708896 14.7737 0.361252 15.0376 0.361252 15.3632V15.6579C0.361252 15.9834 0.708941 16.2474 1.13772 16.2474C0.708896 16.2474 0.361252 16.5112 0.361252 16.8368V17.721C0.361252 18.3721 1.05649 18.9 1.91423 18.9H5.02015C4.16241 18.8999 3.46717 18.3721 3.46717 17.721Z" fill="#90DDFA"/>
<path d="M9.26926 6.67562C9.26926 6.31881 9.09732 5.97545 8.78504 5.70878L6.26754 3.55871C6.20034 3.50132 6.16334 3.42745 6.16334 3.35066V3.18997C6.39458 3.09247 6.55158 2.90527 6.55158 2.69058V2.10112C6.55158 1.78619 6.21415 1.53003 5.79935 1.53003H3.4699C3.05511 1.53003 2.71768 1.78619 2.71768 2.10108V2.69054C2.71768 2.90521 2.87468 3.0924 3.10592 3.18994V3.35066C3.10592 3.42745 3.06887 3.50132 3.00172 3.55871L0.484214 5.70881C0.171984 5.97548 0 6.31885 0 6.67565V8.29055C0 8.51814 0.116411 8.72532 0.306237 8.88001C0.116456 9.0347 0 9.24192 0 9.46947V9.7642C0 9.99179 0.116411 10.199 0.306237 10.3537C0.116456 10.5083 0 10.7156 0 10.9431V11.2379C0 11.4654 0.116411 11.6726 0.306237 11.8273C0.116456 11.982 0 12.1892 0 12.4168V12.7115C0 12.9391 0.116411 13.1463 0.306237 13.301C0.116456 13.4556 0 13.6629 0 13.8904V14.1851C0 14.4127 0.116411 14.6199 0.306237 14.7746C0.116456 14.9293 0 15.1365 0 15.3641V15.6588C0 15.8864 0.116411 16.0936 0.306237 16.2483C0.116456 16.4029 0 16.6102 0 16.8377V17.7219C0 18.5243 0.859962 19.1772 1.91692 19.1772H7.35229C8.40929 19.1772 9.26921 18.5243 9.26921 17.7219V16.8377C9.26921 16.6101 9.1528 16.4029 8.96297 16.2483C9.15275 16.0936 9.26921 15.8864 9.26921 15.6588V15.3641C9.26921 15.1365 9.1528 14.9293 8.96297 14.7746C9.15275 14.6199 9.26921 14.4127 9.26921 14.1851V13.8904C9.26921 13.6628 9.1528 13.4556 8.96297 13.301C9.15275 13.1463 9.26921 12.9391 9.26921 12.7115V12.4168C9.26921 12.1892 9.1528 11.982 8.96297 11.8273C9.15275 11.6726 9.26921 11.4654 9.26921 11.2379V10.9431C9.26921 10.7155 9.1528 10.5083 8.96297 10.3537C9.15275 10.199 9.26921 9.99175 9.26921 9.7642V9.46947C9.26921 9.24188 9.1528 9.0347 8.96297 8.88001C9.15275 8.72532 9.26921 8.5181 9.26921 8.29055L9.26926 6.67562ZM3.44566 2.10108C3.44566 2.09092 3.45651 2.08268 3.4699 2.08268H5.79935C5.81275 2.08268 5.8236 2.09092 5.8236 2.10108V2.69054C5.8236 2.70071 5.81275 2.70895 5.79935 2.70895H3.4699C3.45651 2.70895 3.44566 2.70071 3.44566 2.69054V2.10108ZM1.02827 6.07596L3.54582 3.92585C3.7316 3.76716 3.83389 3.56291 3.83389 3.35066V3.26156H5.43536V3.35063C5.43536 3.56288 5.53765 3.76716 5.72344 3.92585L8.24094 6.07596C8.30205 6.12814 8.35336 6.18542 8.39654 6.24581H0.872766C0.915898 6.18539 0.967247 6.12807 1.02827 6.07596ZM8.54132 17.722C8.54132 18.2198 8.00794 18.6247 7.35233 18.6247H1.91697C1.26136 18.6247 0.727978 18.2198 0.727978 17.722V16.8379C0.727978 16.6652 0.913037 16.5247 1.1405 16.5247H8.1288C8.35627 16.5247 8.54132 16.6652 8.54132 16.8379V17.722ZM8.54132 15.6589C8.54132 15.8316 8.35627 15.9721 8.1288 15.9721H1.1405C0.913037 15.9721 0.727978 15.8316 0.727978 15.6589V15.3642C0.727978 15.1915 0.913037 15.051 1.1405 15.051H8.1288C8.35627 15.051 8.54132 15.1915 8.54132 15.3642V15.6589ZM8.54132 14.1852C8.54132 14.3579 8.35627 14.4984 8.1288 14.4984H1.1405C0.913037 14.4984 0.727978 14.3579 0.727978 14.1852V13.8905C0.727978 13.7178 0.913037 13.5773 1.1405 13.5773H8.1288C8.35627 13.5773 8.54132 13.7178 8.54132 13.8905V14.1852ZM8.54132 12.7115C8.54132 12.8842 8.35627 13.0247 8.1288 13.0247H1.1405C0.913037 13.0247 0.727978 12.8842 0.727978 12.7115V12.4168C0.727978 12.2441 0.913037 12.1036 1.1405 12.1036H8.1288C8.35627 12.1036 8.54132 12.2441 8.54132 12.4168V12.7115ZM8.54132 11.2379C8.54132 11.4105 8.35627 11.551 8.1288 11.551H1.1405C0.913037 11.551 0.727978 11.4105 0.727978 11.2379V10.9431C0.727978 10.7704 0.913037 10.6299 1.1405 10.6299H8.1288C8.35627 10.6299 8.54132 10.7704 8.54132 10.9431V11.2379ZM8.54132 9.7642C8.54132 9.93688 8.35627 10.0774 8.1288 10.0774H1.1405C0.913037 10.0774 0.727978 9.93688 0.727978 9.7642V9.46947C0.727978 9.29679 0.913037 9.1563 1.1405 9.1563H8.1288C8.35627 9.1563 8.54132 9.29679 8.54132 9.46947V9.7642ZM8.1288 8.60368H1.1405C0.913037 8.60368 0.727978 8.4632 0.727978 8.29051V6.79843H8.54132V8.29051C8.54132 8.4632 8.35627 8.60368 8.1288 8.60368Z" fill="#D8F0F5" fill-opacity="0.3"/>
<path d="M14.7097 4.42226L12.1921 2.27216C12.0658 2.16424 11.996 2.02493 11.996 1.88054V1.22046H9.6666V1.88054C9.6666 2.02489 9.59682 2.16428 9.47051 2.27216L6.95291 4.4223C6.70025 4.6381 6.56068 4.9168 6.56068 5.20553H15.102C15.102 4.91677 14.9624 4.63806 14.7097 4.42226Z" fill="#E4EAF8"/>
<path d="M12.3411 2.39863L12.1921 2.27138C12.1338 2.22154 12.089 2.16449 12.0561 2.1039C12.0372 2.06922 12.0227 2.03328 12.0125 1.9965C12.0123 1.99567 12.0118 1.99495 12.0117 1.99415C12.0015 1.95676 11.996 1.91853 11.996 1.87976V1.5144H9.6666V1.87979C9.6666 2.02414 9.59682 2.16346 9.47051 2.27138L6.95291 4.42151C6.70025 4.63731 6.56068 4.91602 6.56068 5.20475H9.6666C9.6666 4.91602 9.71736 4.63731 9.80921 4.42151L10.5218 2.80141C10.6276 2.56087 10.9242 2.39866 11.2584 2.39866H12.3411L12.3411 2.39863Z" fill="#D5DCED"/>
<path d="M11.9984 1.51559H9.66893C9.45455 1.51559 9.2807 1.38361 9.2807 1.22086V0.6314C9.2807 0.468645 9.45455 0.33667 9.66893 0.33667H11.9984C12.2128 0.33667 12.3866 0.468645 12.3866 0.6314V1.22086C12.3867 1.38365 12.2128 1.51559 11.9984 1.51559Z" fill="#39B6CC"/>
<path d="M10.4454 1.22086V0.6314C10.4454 0.468645 10.6192 0.33667 10.8336 0.33667H9.66893C9.45455 0.33667 9.2807 0.468645 9.2807 0.6314V1.22086C9.2807 1.38361 9.45455 1.51559 9.66893 1.51559H10.8336C10.6192 1.51559 10.4454 1.38365 10.4454 1.22086Z" fill="#0CB9DE"/>
<path d="M15.102 6.81993V5.05151H6.56068V6.81993C6.56068 7.14547 6.90837 7.40939 7.33715 7.40939C6.90833 7.40939 6.56068 7.67327 6.56068 7.99885V8.29358C6.56068 8.61912 6.90837 8.88304 7.33715 8.88304C6.90833 8.88304 6.56068 9.14692 6.56068 9.4725V9.76723C6.56068 10.0928 6.90837 10.3567 7.33715 10.3567C6.90833 10.3567 6.56068 10.6206 6.56068 10.9461V11.2409C6.56068 11.5664 6.90837 11.8303 7.33715 11.8303C6.90833 11.8303 6.56068 12.0942 6.56068 12.4198V12.7145C6.56068 13.0401 6.90837 13.304 7.33715 13.304C6.90833 13.304 6.56068 13.5679 6.56068 13.8934V14.1882C6.56068 14.5137 6.90837 14.7776 7.33715 14.7776C6.90833 14.7776 6.56068 15.0415 6.56068 15.3671V16.2513C6.56068 16.9024 7.25593 17.4302 8.11366 17.4302H13.549C14.4068 17.4302 15.102 16.9024 15.102 16.2513V15.3671C15.102 15.0415 14.7543 14.7776 14.3255 14.7776C14.7544 14.7776 15.102 14.5137 15.102 14.1882V13.8934C15.102 13.5679 14.7543 13.304 14.3255 13.304C14.7544 13.304 15.102 13.04 15.102 12.7145V12.4198C15.102 12.0942 14.7543 11.8303 14.3255 11.8303C14.7544 11.8303 15.102 11.5664 15.102 11.2409V10.9461C15.102 10.6206 14.7543 10.3567 14.3255 10.3567C14.7544 10.3567 15.102 10.0927 15.102 9.76723V9.4725C15.102 9.14692 14.7543 8.88304 14.3255 8.88304C14.7544 8.88304 15.102 8.61909 15.102 8.29358V7.99885C15.102 7.67327 14.7543 7.40939 14.3255 7.40939C14.7543 7.40939 15.102 7.14547 15.102 6.81993Z" fill="#BBE8FC"/>
<path d="M9.6666 16.2513V15.3671C9.6666 15.0415 10.0143 14.7776 10.4431 14.7776C10.0142 14.7776 9.6666 14.5137 9.6666 14.1882V13.8934C9.6666 13.5679 10.0143 13.304 10.4431 13.304C10.0142 13.304 9.6666 13.04 9.6666 12.7145V12.4198C9.6666 12.0942 10.0143 11.8303 10.4431 11.8303C10.0142 11.8303 9.6666 11.5664 9.6666 11.2409V10.9461C9.6666 10.6206 10.0143 10.3567 10.4431 10.3567C10.0142 10.3567 9.6666 10.0927 9.6666 9.76723V9.4725C9.6666 9.14692 10.0143 8.88304 10.4431 8.88304C10.0142 8.88304 9.6666 8.61909 9.6666 8.29358V7.99885C9.6666 7.67327 10.0143 7.40939 10.4431 7.40939C10.0142 7.40939 9.6666 7.14544 9.6666 6.81993V5.05151H6.56068V6.81993C6.56068 7.14547 6.90837 7.40939 7.33715 7.40939C6.90833 7.40939 6.56068 7.67327 6.56068 7.99885V8.29358C6.56068 8.61912 6.90837 8.88304 7.33715 8.88304C6.90833 8.88304 6.56068 9.14692 6.56068 9.4725V9.76723C6.56068 10.0928 6.90837 10.3567 7.33715 10.3567C6.90833 10.3567 6.56068 10.6206 6.56068 10.9461V11.2409C6.56068 11.5664 6.90837 11.8303 7.33715 11.8303C6.90833 11.8303 6.56068 12.0942 6.56068 12.4198V12.7145C6.56068 13.0401 6.90837 13.304 7.33715 13.304C6.90833 13.304 6.56068 13.5679 6.56068 13.8934V14.1882C6.56068 14.5137 6.90837 14.7776 7.33715 14.7776C6.90833 14.7776 6.56068 15.0415 6.56068 15.3671V16.2513C6.56068 16.9024 7.25593 17.4302 8.11366 17.4302H11.2196C10.3618 17.4302 9.6666 16.9024 9.6666 16.2513Z" fill="#90DDFA"/>
<path d="M15.4687 5.20589C15.4687 4.84909 15.2968 4.50572 14.9845 4.23905L12.467 2.08898C12.3998 2.03159 12.3628 1.95773 12.3628 1.88093V1.72025C12.594 1.62274 12.751 1.43555 12.751 1.22085V0.631392C12.751 0.316464 12.4136 0.0603027 11.9988 0.0603027H9.66934C9.25454 0.0603027 8.91711 0.316464 8.91711 0.631357V1.22082C8.91711 1.43548 9.07411 1.62267 9.30535 1.72021V1.88093C9.30535 1.95773 9.2683 2.03159 9.20115 2.08898L6.68365 4.23908C6.37142 4.50576 6.19943 4.84912 6.19943 5.20593V6.82082C6.19943 7.04841 6.31584 7.25559 6.50567 7.41028C6.31589 7.56497 6.19943 7.77219 6.19943 7.99974V8.29447C6.19943 8.52206 6.31584 8.72924 6.50567 8.88393C6.31589 9.03862 6.19943 9.24584 6.19943 9.47339V9.76812C6.19943 9.99571 6.31584 10.2029 6.50567 10.3576C6.31589 10.5123 6.19943 10.7195 6.19943 10.947V11.2418C6.19943 11.4694 6.31584 11.6765 6.50567 11.8312C6.31589 11.9859 6.19943 12.1931 6.19943 12.4207V12.7154C6.19943 12.943 6.31584 13.1502 6.50567 13.3049C6.31589 13.4596 6.19943 13.6668 6.19943 13.8943V14.1891C6.19943 14.4167 6.31584 14.6238 6.50567 14.7785C6.31589 14.9332 6.19943 15.1404 6.19943 15.368V16.2522C6.19943 17.0546 7.05939 17.7074 8.11636 17.7074H13.5517C14.6087 17.7074 15.4686 17.0546 15.4686 16.2522V15.368C15.4686 15.1404 15.3522 14.9332 15.1624 14.7785C15.3522 14.6238 15.4686 14.4166 15.4686 14.1891V13.8943C15.4686 13.6668 15.3522 13.4596 15.1624 13.3049C15.3522 13.1502 15.4686 12.943 15.4686 12.7154V12.4207C15.4686 12.1931 15.3522 11.9859 15.1624 11.8312C15.3522 11.6765 15.4686 11.4693 15.4686 11.2418V10.947C15.4686 10.7195 15.3522 10.5123 15.1624 10.3576C15.3522 10.2029 15.4686 9.99568 15.4686 9.76812V9.47339C15.4686 9.2458 15.3522 9.03862 15.1624 8.88393C15.3522 8.72924 15.4686 8.52203 15.4686 8.29447V7.99974C15.4686 7.77216 15.3522 7.56497 15.1624 7.41028C15.3522 7.25559 15.4686 7.04838 15.4686 6.82082L15.4687 5.20589ZM9.64509 0.631357C9.64509 0.621189 9.65594 0.612952 9.66934 0.612952H11.9988C12.0122 0.612952 12.023 0.621189 12.023 0.631357V1.22082C12.023 1.23098 12.0122 1.23922 11.9988 1.23922H9.66934C9.65594 1.23922 9.64509 1.23098 9.64509 1.22082V0.631357ZM7.2277 4.60623L9.74525 2.45613C9.93104 2.29744 10.0333 2.09318 10.0333 1.88093V1.79184H11.6348V1.8809C11.6348 2.09315 11.7371 2.29744 11.9229 2.45613L14.4404 4.60623C14.5015 4.65841 14.5528 4.7157 14.596 4.77608H7.0722C7.11533 4.71566 7.16668 4.65834 7.2277 4.60623ZM14.7408 16.2523C14.7408 16.75 14.2074 17.1549 13.5518 17.1549H8.1164C7.46079 17.1549 6.92741 16.75 6.92741 16.2523V15.3681C6.92741 15.1954 7.11247 15.055 7.33993 15.055H14.3282C14.5557 15.055 14.7408 15.1954 14.7408 15.3681V16.2523ZM14.7408 14.1892C14.7408 14.3619 14.5557 14.5023 14.3282 14.5023H7.33993C7.11247 14.5023 6.92741 14.3619 6.92741 14.1892V13.8944C6.92741 13.7218 7.11247 13.5813 7.33993 13.5813H14.3282C14.5557 13.5813 14.7408 13.7218 14.7408 13.8944V14.1892ZM14.7408 12.7155C14.7408 12.8882 14.5557 13.0287 14.3282 13.0287H7.33993C7.11247 13.0287 6.92741 12.8882 6.92741 12.7155V12.4208C6.92741 12.2481 7.11247 12.1076 7.33993 12.1076H14.3282C14.5557 12.1076 14.7408 12.2481 14.7408 12.4208V12.7155ZM14.7408 11.2418C14.7408 11.4145 14.5557 11.555 14.3282 11.555H7.33993C7.11247 11.555 6.92741 11.4145 6.92741 11.2418V10.9471C6.92741 10.7744 7.11247 10.6339 7.33993 10.6339H14.3282C14.5557 10.6339 14.7408 10.7744 14.7408 10.9471V11.2418ZM14.7408 9.76812C14.7408 9.9408 14.5557 10.0813 14.3282 10.0813H7.33993C7.11247 10.0813 6.92741 9.9408 6.92741 9.76812V9.47339C6.92741 9.30071 7.11247 9.16022 7.33993 9.16022H14.3282C14.5557 9.16022 14.7408 9.30071 14.7408 9.47339V9.76812ZM14.7408 8.29447C14.7408 8.46715 14.5557 8.60764 14.3282 8.60764H7.33993C7.11247 8.60764 6.92741 8.46715 6.92741 8.29447V7.99974C6.92741 7.82706 7.11247 7.68657 7.33993 7.68657H14.3282C14.5557 7.68657 14.7408 7.82706 14.7408 7.99974V8.29447ZM14.3282 7.13396H7.33993C7.11247 7.13396 6.92741 6.99347 6.92741 6.82079V5.3287H14.7408V6.82079C14.7408 6.99347 14.5557 7.13396 14.3282 7.13396Z" fill="#D8F0F5" fill-opacity="0.3"/>
<path d="M18.5831 6.7748L16.0655 4.6247C15.9392 4.51678 15.8694 4.37746 15.8694 4.23308V3.573H13.54V4.23308C13.54 4.37743 13.4702 4.51682 13.3439 4.6247L10.8263 6.77484C10.5736 6.99064 10.4341 7.26934 10.4341 7.55807H18.9753C18.9753 7.26931 18.8357 6.9906 18.5831 6.7748Z" fill="#E4EAF8"/>
<path d="M16.2145 4.75214L16.0655 4.62489C16.0072 4.57505 15.9624 4.51801 15.9295 4.45741C15.9106 4.42274 15.8961 4.38679 15.8859 4.35001C15.8857 4.34919 15.8852 4.34846 15.885 4.34767C15.8749 4.31027 15.8694 4.27205 15.8694 4.23327V3.86792H13.54V4.23331C13.54 4.37766 13.4702 4.51697 13.3439 4.62489L10.8263 6.77503C10.5736 6.99083 10.4341 7.26953 10.4341 7.55826H13.54C13.54 7.26953 13.5907 6.99083 13.6826 6.77503L14.3952 5.15493C14.501 4.91438 14.7976 4.75218 15.1317 4.75218H16.2145L16.2145 4.75214Z" fill="#D5DCED"/>
<path d="M15.8718 3.86813H13.5423C13.3279 3.86813 13.1541 3.73615 13.1541 3.5734V2.98394C13.1541 2.82118 13.3279 2.68921 13.5423 2.68921H15.8718C16.0862 2.68921 16.26 2.82118 16.26 2.98394V3.5734C16.26 3.73619 16.0862 3.86813 15.8718 3.86813Z" fill="#39B6CC"/>
<path d="M14.3188 3.5734V2.98394C14.3188 2.82118 14.4926 2.68921 14.707 2.68921H13.5423C13.3279 2.68921 13.1541 2.82118 13.1541 2.98394V3.5734C13.1541 3.73615 13.3279 3.86813 13.5423 3.86813H14.707C14.4926 3.86813 14.3188 3.73619 14.3188 3.5734Z" fill="#0CB9DE"/>
<path d="M18.9754 9.17247V7.40405H10.4341V9.17247C10.4341 9.49801 10.7818 9.76193 11.2105 9.76193C10.7817 9.76193 10.4341 10.0258 10.4341 10.3514V10.6461C10.4341 10.9717 10.7818 11.2356 11.2105 11.2356C10.7817 11.2356 10.4341 11.4995 10.4341 11.825V12.1198C10.4341 12.4453 10.7818 12.7092 11.2105 12.7092C10.7817 12.7092 10.4341 12.9731 10.4341 13.2987V13.5934C10.4341 13.919 10.7818 14.1829 11.2105 14.1829C10.7817 14.1829 10.4341 14.4468 10.4341 14.7723V15.0671C10.4341 15.3926 10.7818 15.6565 11.2105 15.6565C10.7817 15.6565 10.4341 15.9204 10.4341 16.246V16.5407C10.4341 16.8663 10.7818 17.1302 11.2105 17.1302C10.7817 17.1302 10.4341 17.3941 10.4341 17.7196V18.6038C10.4341 19.2549 11.1293 19.7828 11.987 19.7828H17.4224C18.2801 19.7828 18.9754 19.2549 18.9754 18.6038V17.7196C18.9754 17.3941 18.6277 17.1302 18.1989 17.1302C18.6277 17.1302 18.9754 16.8662 18.9754 16.5407V16.246C18.9754 15.9204 18.6277 15.6565 18.1989 15.6565C18.6277 15.6565 18.9754 15.3926 18.9754 15.0671V14.7723C18.9754 14.4468 18.6277 14.1829 18.1989 14.1829C18.6277 14.1829 18.9754 13.9189 18.9754 13.5934V13.2987C18.9754 12.9731 18.6277 12.7092 18.1989 12.7092C18.6277 12.7092 18.9754 12.4453 18.9754 12.1198V11.825C18.9754 11.4995 18.6277 11.2356 18.1989 11.2356C18.6277 11.2356 18.9754 10.9716 18.9754 10.6461V10.3514C18.9754 10.0258 18.6277 9.76193 18.1989 9.76193C18.6277 9.76193 18.9754 9.49801 18.9754 9.17247Z" fill="#BBE8FC"/>
<path d="M13.54 18.6038V17.7196C13.54 17.3941 13.8877 17.1302 14.3164 17.1302C13.8876 17.1302 13.54 16.8662 13.54 16.5407V16.246C13.54 15.9204 13.8877 15.6565 14.3164 15.6565C13.8876 15.6565 13.54 15.3926 13.54 15.0671V14.7723C13.54 14.4468 13.8877 14.1829 14.3164 14.1829C13.8876 14.1829 13.54 13.9189 13.54 13.5934V13.2987C13.54 12.9731 13.8877 12.7092 14.3164 12.7092C13.8876 12.7092 13.54 12.4453 13.54 12.1198V11.825C13.54 11.4995 13.8877 11.2356 14.3164 11.2356C13.8876 11.2356 13.54 10.9716 13.54 10.6461V10.3514C13.54 10.0258 13.8877 9.76193 14.3164 9.76193C13.8876 9.76193 13.54 9.49798 13.54 9.17247V7.40405H10.4341V9.17247C10.4341 9.49801 10.7818 9.76193 11.2105 9.76193C10.7817 9.76193 10.4341 10.0258 10.4341 10.3514V10.6461C10.4341 10.9717 10.7818 11.2356 11.2105 11.2356C10.7817 11.2356 10.4341 11.4995 10.4341 11.825V12.1198C10.4341 12.4453 10.7818 12.7092 11.2105 12.7092C10.7817 12.7092 10.4341 12.9731 10.4341 13.2987V13.5934C10.4341 13.919 10.7818 14.1829 11.2105 14.1829C10.7817 14.1829 10.4341 14.4468 10.4341 14.7723V15.0671C10.4341 15.3926 10.7818 15.6565 11.2105 15.6565C10.7817 15.6565 10.4341 15.9204 10.4341 16.246V16.5407C10.4341 16.8663 10.7818 17.1302 11.2105 17.1302C10.7817 17.1302 10.4341 17.3941 10.4341 17.7196V18.6038C10.4341 19.2549 11.1293 19.7828 11.987 19.7828H15.093C14.2352 19.7827 13.54 19.2549 13.54 18.6038Z" fill="#90DDFA"/>
<path d="M19.3421 7.55843C19.3421 7.20163 19.1701 6.85826 18.8579 6.59159L16.3404 4.44152C16.2732 4.38413 16.2362 4.31027 16.2362 4.23347V4.07279C16.4674 3.97528 16.6244 3.78809 16.6244 3.57339V2.98393C16.6244 2.669 16.287 2.41284 15.8722 2.41284H13.5427C13.1279 2.41284 12.7905 2.669 12.7905 2.9839V3.57336C12.7905 3.78802 12.9475 3.97521 13.1787 4.07275V4.23347C13.1787 4.31027 13.1417 4.38413 13.0745 4.44152L10.557 6.59162C10.2448 6.8583 10.0728 7.20166 10.0728 7.55847V9.17336C10.0728 9.40095 10.1892 9.60813 10.3791 9.76282C10.1893 9.91751 10.0728 10.1247 10.0728 10.3523V10.647C10.0728 10.8746 10.1892 11.0818 10.3791 11.2365C10.1893 11.3912 10.0728 11.5984 10.0728 11.8259V12.1207C10.0728 12.3483 10.1892 12.5554 10.3791 12.7101C10.1893 12.8648 10.0728 13.072 10.0728 13.2996V13.5943C10.0728 13.8219 10.1892 14.0291 10.3791 14.1838C10.1893 14.3385 10.0728 14.5457 10.0728 14.7732V15.068C10.0728 15.2955 10.1892 15.5027 10.3791 15.6574C10.1893 15.8121 10.0728 16.0193 10.0728 16.2469V16.5416C10.0728 16.7692 10.1892 16.9764 10.3791 17.1311C10.1893 17.2858 10.0728 17.493 10.0728 17.7205V18.6047C10.0728 19.4071 10.9328 20.06 11.9897 20.06H17.4251C18.4821 20.06 19.342 19.4071 19.342 18.6047V17.7205C19.342 17.4929 19.2256 17.2858 19.0358 17.1311C19.2256 16.9764 19.342 16.7692 19.342 16.5416V16.2469C19.342 16.0193 19.2256 15.8121 19.0358 15.6574C19.2256 15.5027 19.342 15.2955 19.342 15.068V14.7732C19.342 14.5456 19.2256 14.3385 19.0358 14.1838C19.2256 14.0291 19.342 13.8219 19.342 13.5943V13.2996C19.342 13.072 19.2256 12.8648 19.0358 12.7101C19.2256 12.5554 19.342 12.3482 19.342 12.1207V11.8259C19.342 11.5983 19.2256 11.3912 19.0358 11.2365C19.2256 11.0818 19.342 10.8746 19.342 10.647V10.3523C19.342 10.1247 19.2256 9.91751 19.0358 9.76282C19.2256 9.60813 19.342 9.40092 19.342 9.17336L19.3421 7.55843ZM13.5185 2.9839C13.5185 2.97373 13.5293 2.96549 13.5427 2.96549H15.8722C15.8856 2.96549 15.8964 2.97373 15.8964 2.9839V3.57336C15.8964 3.58352 15.8856 3.59176 15.8722 3.59176H13.5427C13.5293 3.59176 13.5185 3.58352 13.5185 3.57336V2.9839ZM11.1011 6.95877L13.6186 4.80866C13.8044 4.64998 13.9067 4.44572 13.9067 4.23347V4.14438H15.5082V4.23344C15.5082 4.44569 15.6105 4.64998 15.7963 4.80866L18.3138 6.95877C18.3749 7.01095 18.4262 7.06824 18.4694 7.12862H10.9456C10.9887 7.0682 11.0401 7.01088 11.1011 6.95877ZM18.6141 18.6049C18.6141 19.1026 18.0808 19.5075 17.4251 19.5075H11.9898C11.3342 19.5075 10.8008 19.1026 10.8008 18.6049V17.7207C10.8008 17.548 10.9859 17.4075 11.2133 17.4075H18.2016C18.4291 17.4075 18.6141 17.548 18.6141 17.7207V18.6049ZM18.6141 16.5417C18.6141 16.7144 18.4291 16.8549 18.2016 16.8549H11.2133C10.9859 16.8549 10.8008 16.7144 10.8008 16.5417V16.247C10.8008 16.0743 10.9859 15.9338 11.2133 15.9338H18.2016C18.4291 15.9338 18.6141 16.0743 18.6141 16.247V16.5417ZM18.6141 15.068C18.6141 15.2407 18.4291 15.3812 18.2016 15.3812H11.2133C10.9859 15.3812 10.8008 15.2407 10.8008 15.068V14.7733C10.8008 14.6006 10.9859 14.4601 11.2133 14.4601H18.2016C18.4291 14.4601 18.6141 14.6006 18.6141 14.7733V15.068ZM18.6141 13.5943C18.6141 13.767 18.4291 13.9075 18.2016 13.9075H11.2133C10.9859 13.9075 10.8008 13.767 10.8008 13.5943V13.2996C10.8008 13.1269 10.9859 12.9864 11.2133 12.9864H18.2016C18.4291 12.9864 18.6141 13.1269 18.6141 13.2996V13.5943ZM18.6141 12.1207C18.6141 12.2933 18.4291 12.4338 18.2016 12.4338H11.2133C10.9859 12.4338 10.8008 12.2933 10.8008 12.1207V11.8259C10.8008 11.6532 10.9859 11.5128 11.2133 11.5128H18.2016C18.4291 11.5128 18.6141 11.6532 18.6141 11.8259V12.1207ZM18.6141 10.647C18.6141 10.8197 18.4291 10.9602 18.2016 10.9602H11.2133C10.9859 10.9602 10.8008 10.8197 10.8008 10.647V10.3523C10.8008 10.1796 10.9859 10.0391 11.2133 10.0391H18.2016C18.4291 10.0391 18.6141 10.1796 18.6141 10.3523V10.647ZM18.2016 9.4865H11.2133C10.9859 9.4865 10.8008 9.34601 10.8008 9.17333V7.68124H18.6141V9.17333C18.6141 9.34601 18.4291 9.4865 18.2016 9.4865Z" fill="#D8F0F5" fill-opacity="0.3"/>
<path d="M13.1571 6.48184L10.6396 4.33173C10.5132 4.22381 10.4435 4.0845 10.4435 3.94011V3.28003H8.11405V3.94011C8.11405 4.08446 8.04427 4.22385 7.91796 4.33173L5.40036 6.48187C5.1477 6.69767 5.00813 6.97637 5.00813 7.2651H13.5494C13.5494 6.97634 13.4098 6.69763 13.1571 6.48184Z" fill="#E4EAF8"/>
<path d="M10.7886 4.4582L10.6396 4.33095C10.5812 4.28111 10.5365 4.22406 10.5036 4.16347C10.4847 4.12879 10.4702 4.09285 10.46 4.05607C10.4598 4.05524 10.4593 4.05452 10.4591 4.05372C10.4489 4.01633 10.4435 3.9781 10.4435 3.93933V3.57397H8.11405V3.93936C8.11405 4.08371 8.04426 4.22303 7.91796 4.33095L5.40036 6.48108C5.1477 6.69688 5.00813 6.97559 5.00813 7.26432H8.11405C8.11405 6.97559 8.16481 6.69688 8.25666 6.48108L8.96929 4.86098C9.07508 4.62044 9.37169 4.45823 9.7058 4.45823H10.7886L10.7886 4.4582Z" fill="#D5DCED"/>
<path d="M10.4458 3.57516H8.11638C7.90199 3.57516 7.72815 3.44318 7.72815 3.28043V2.69097C7.72815 2.52822 7.90199 2.39624 8.11638 2.39624H10.4458C10.6602 2.39624 10.8341 2.52822 10.8341 2.69097V3.28043C10.8341 3.44322 10.6603 3.57516 10.4458 3.57516Z" fill="#39B6CC"/>
<path d="M8.89285 3.28043V2.69097C8.89285 2.52822 9.0667 2.39624 9.28108 2.39624H8.11638C7.90199 2.39624 7.72815 2.52822 7.72815 2.69097V3.28043C7.72815 3.44318 7.90199 3.57516 8.11638 3.57516H9.28108C9.0667 3.57516 8.89285 3.44322 8.89285 3.28043Z" fill="#0CB9DE"/>
<path d="M13.5495 8.8795V7.11108H5.00813V8.8795C5.00813 9.20504 5.35582 9.46896 5.7846 9.46896C5.35578 9.46896 5.00813 9.73284 5.00813 10.0584V10.3531C5.00813 10.6787 5.35582 10.9426 5.7846 10.9426C5.35578 10.9426 5.00813 11.2065 5.00813 11.5321V11.8268C5.00813 12.1523 5.35582 12.4163 5.7846 12.4163C5.35578 12.4163 5.00813 12.6801 5.00813 13.0057V13.3004C5.00813 13.626 5.35582 13.8899 5.7846 13.8899C5.35578 13.8899 5.00813 14.1538 5.00813 14.4794V14.7741C5.00813 15.0996 5.35582 15.3636 5.7846 15.3636C5.35578 15.3636 5.00813 15.6274 5.00813 15.953V16.2477C5.00813 16.5733 5.35582 16.8372 5.7846 16.8372C5.35578 16.8372 5.00813 17.1011 5.00813 17.4267V18.3109C5.00813 18.962 5.70338 19.4898 6.56111 19.4898H11.9965C12.8542 19.4898 13.5495 18.962 13.5495 18.3109V17.4267C13.5495 17.1011 13.2018 16.8372 12.773 16.8372C13.2018 16.8372 13.5495 16.5733 13.5495 16.2477V15.953C13.5495 15.6274 13.2018 15.3636 12.773 15.3636C13.2018 15.3636 13.5495 15.0996 13.5495 14.7741V14.4794C13.5495 14.1538 13.2018 13.8899 12.773 13.8899C13.2018 13.8899 13.5495 13.626 13.5495 13.3004V13.0057C13.5495 12.6801 13.2018 12.4163 12.773 12.4163C13.2018 12.4163 13.5495 12.1523 13.5495 11.8268V11.5321C13.5495 11.2065 13.2018 10.9426 12.773 10.9426C13.2018 10.9426 13.5495 10.6787 13.5495 10.3531V10.0584C13.5495 9.73284 13.2018 9.46896 12.773 9.46896C13.2018 9.46896 13.5495 9.20504 13.5495 8.8795Z" fill="#BBE8FC"/>
<path d="M8.11405 18.3109V17.4267C8.11405 17.1011 8.46174 16.8372 8.89052 16.8372C8.46169 16.8372 8.11405 16.5733 8.11405 16.2477V15.953C8.11405 15.6274 8.46174 15.3636 8.89052 15.3636C8.46169 15.3636 8.11405 15.0996 8.11405 14.7741V14.4794C8.11405 14.1538 8.46174 13.8899 8.89052 13.8899C8.46169 13.8899 8.11405 13.626 8.11405 13.3004V13.0057C8.11405 12.6801 8.46174 12.4163 8.89052 12.4163C8.46169 12.4163 8.11405 12.1523 8.11405 11.8268V11.5321C8.11405 11.2065 8.46174 10.9426 8.89052 10.9426C8.46169 10.9426 8.11405 10.6787 8.11405 10.3531V10.0584C8.11405 9.73284 8.46174 9.46896 8.89052 9.46896C8.46169 9.46896 8.11405 9.20501 8.11405 8.8795V7.11108H5.00813V8.8795C5.00813 9.20504 5.35582 9.46896 5.7846 9.46896C5.35578 9.46896 5.00813 9.73284 5.00813 10.0584V10.3531C5.00813 10.6787 5.35582 10.9426 5.7846 10.9426C5.35578 10.9426 5.00813 11.2065 5.00813 11.5321V11.8268C5.00813 12.1523 5.35582 12.4163 5.7846 12.4163C5.35578 12.4163 5.00813 12.6801 5.00813 13.0057V13.3004C5.00813 13.626 5.35582 13.8899 5.7846 13.8899C5.35578 13.8899 5.00813 14.1538 5.00813 14.4794V14.7741C5.00813 15.0996 5.35582 15.3636 5.7846 15.3636C5.35578 15.3636 5.00813 15.6274 5.00813 15.953V16.2477C5.00813 16.5733 5.35582 16.8372 5.7846 16.8372C5.35578 16.8372 5.00813 17.1011 5.00813 17.4267V18.3109C5.00813 18.962 5.70338 19.4898 6.56111 19.4898H9.66703C8.80929 19.4898 8.11405 18.9619 8.11405 18.3109Z" fill="#90DDFA"/>
<path d="M13.9159 7.26546C13.9159 6.90866 13.744 6.56529 13.4317 6.29862L10.9142 4.14855C10.847 4.09116 10.81 4.0173 10.81 3.9405V3.77982C11.0413 3.68231 11.1983 3.49512 11.1983 3.28042V2.69096C11.1983 2.37603 10.8608 2.11987 10.446 2.11987H8.11659C7.70179 2.11987 7.36436 2.37603 7.36436 2.69093V3.28039C7.36436 3.49505 7.52137 3.68224 7.7526 3.77978V3.9405C7.7526 4.0173 7.71555 4.09116 7.6484 4.14855L5.1309 6.29865C4.81867 6.56533 4.64668 6.90869 4.64668 7.2655V8.88039C4.64668 9.10798 4.76309 9.31516 4.95292 9.46985C4.76314 9.62454 4.64668 9.83176 4.64668 10.0593V10.354C4.64668 10.5816 4.76309 10.7888 4.95292 10.9435C4.76314 11.0982 4.64668 11.3054 4.64668 11.533V11.8277C4.64668 12.0553 4.76309 12.2625 4.95292 12.4172C4.76314 12.5718 4.64668 12.7791 4.64668 13.0066V13.3013C4.64668 13.5289 4.76309 13.7361 4.95292 13.8908C4.76314 14.0455 4.64668 14.2527 4.64668 14.4803V14.775C4.64668 15.0026 4.76309 15.2098 4.95292 15.3645C4.76314 15.5191 4.64668 15.7264 4.64668 15.9539V16.2486C4.64668 16.4762 4.76309 16.6834 4.95292 16.8381C4.76314 16.9928 4.64668 17.2 4.64668 17.4276V18.3118C4.64668 19.1141 5.50665 19.767 6.56361 19.767H11.999C13.056 19.767 13.9159 19.1141 13.9159 18.3118V17.4276C13.9159 17.2 13.7995 16.9928 13.6097 16.8381C13.7994 16.6834 13.9159 16.4762 13.9159 16.2486V15.9539C13.9159 15.7263 13.7995 15.5191 13.6097 15.3645C13.7994 15.2098 13.9159 15.0025 13.9159 14.775V14.4803C13.9159 14.2527 13.7995 14.0455 13.6097 13.8908C13.7994 13.7361 13.9159 13.5289 13.9159 13.3013V13.0066C13.9159 12.779 13.7995 12.5718 13.6097 12.4172C13.7994 12.2625 13.9159 12.0552 13.9159 11.8277V11.533C13.9159 11.3054 13.7995 11.0982 13.6097 10.9435C13.7994 10.7888 13.9159 10.5816 13.9159 10.354V10.0593C13.9159 9.83173 13.7995 9.62454 13.6097 9.46985C13.7994 9.31516 13.9159 9.10795 13.9159 8.88039L13.9159 7.26546ZM8.09234 2.69093C8.09234 2.68076 8.10319 2.67252 8.11659 2.67252H10.446C10.4594 2.67252 10.4703 2.68076 10.4703 2.69093V3.28039C10.4703 3.29056 10.4594 3.29879 10.446 3.29879H8.11659C8.10319 3.29879 8.09234 3.29056 8.09234 3.28039V2.69093ZM5.67495 6.6658L8.1925 4.5157C8.37829 4.35701 8.48058 4.15275 8.48058 3.9405V3.85141H10.082V3.94047C10.082 4.15272 10.1843 4.35701 10.3701 4.5157L12.8876 6.6658C12.9487 6.71798 13 6.77527 13.0432 6.83565H5.51945C5.56258 6.77523 5.61393 6.71792 5.67495 6.6658ZM13.188 18.3119C13.188 18.8096 12.6546 19.2145 11.999 19.2145H6.56365C5.90805 19.2145 5.37466 18.8096 5.37466 18.3119V17.4277C5.37466 17.255 5.55972 17.1145 5.78718 17.1145H12.7755C13.0029 17.1145 13.188 17.255 13.188 17.4277V18.3119ZM13.188 16.2487C13.188 16.4214 13.0029 16.5619 12.7755 16.5619H5.78718C5.55972 16.5619 5.37466 16.4214 5.37466 16.2487V15.954C5.37466 15.7813 5.55972 15.6408 5.78718 15.6408H12.7755C13.0029 15.6408 13.188 15.7813 13.188 15.954V16.2487ZM13.188 14.7751C13.188 14.9477 13.0029 15.0882 12.7755 15.0882H5.78718C5.55972 15.0882 5.37466 14.9477 5.37466 14.7751V14.4803C5.37466 14.3076 5.55972 14.1672 5.78718 14.1672H12.7755C13.0029 14.1672 13.188 14.3076 13.188 14.4803V14.7751ZM13.188 13.3014C13.188 13.4741 13.0029 13.6145 12.7755 13.6145H5.78718C5.55972 13.6145 5.37466 13.4741 5.37466 13.3014V13.0066C5.37466 12.834 5.55972 12.6935 5.78718 12.6935H12.7755C13.0029 12.6935 13.188 12.834 13.188 13.0066V13.3014ZM13.188 11.8277C13.188 12.0004 13.0029 12.1409 12.7755 12.1409H5.78718C5.55972 12.1409 5.37466 12.0004 5.37466 11.8277V11.533C5.37466 11.3603 5.55972 11.2198 5.78718 11.2198H12.7755C13.0029 11.2198 13.188 11.3603 13.188 11.533V11.8277ZM13.188 10.354C13.188 10.5267 13.0029 10.6672 12.7755 10.6672H5.78718C5.55972 10.6672 5.37466 10.5267 5.37466 10.354V10.0593C5.37466 9.88663 5.55972 9.74614 5.78718 9.74614H12.7755C13.0029 9.74614 13.188 9.88663 13.188 10.0593V10.354ZM12.7755 9.19353H5.78718C5.55972 9.19353 5.37466 9.05304 5.37466 8.88036V7.38827H13.188V8.88036C13.188 9.05304 13.0029 9.19353 12.7755 9.19353Z" fill="#D8F0F5" fill-opacity="0.3"/>
</svg>
