<svg width="16" height="21" viewBox="0 0 16 21" fill="none" xmlns="http://www.w3.org/2000/svg">
<path d="M15.3517 12.6457C15.3517 17.2113 11.9167 20.92 7.67908 20.92C3.43504 20.92 0 17.2113 0 12.6457C0 8.08016 3.43504 4.38312 7.67908 4.38312C11.9167 4.38312 15.3517 8.08016 15.3517 12.6457Z" fill="#D1C5BA"/>
<path d="M15.3517 9.89911H0V12.7628H15.3517V9.89911Z" fill="#D1C5BA"/>
<path d="M15.3517 9.89888C15.3517 14.4644 11.9167 18.1615 7.67908 18.1615C3.43504 18.1615 0 14.4644 0 9.89888C0 5.33333 3.43504 1.63629 7.67908 1.63629C11.9167 1.63629 15.3517 5.33333 15.3517 9.89888Z" fill="#EFE8E1"/>
<path d="M15.0118 9.72335C15.0118 13.9016 11.7309 17.2817 7.67946 17.2817C3.63446 17.2817 0.353516 13.9016 0.353516 9.72335C0.353516 5.55685 3.63446 2.1767 7.67946 2.1767C11.7309 2.1767 15.0118 5.55685 15.0118 9.72335Z" fill="#D1C5BA"/>
<path d="M7.68035 3.30355C11.6098 3.30355 14.8265 6.43724 15.109 10.4042C15.1219 10.2164 15.1283 10.0286 15.1283 9.84086C15.1283 5.5922 11.796 2.1651 7.68035 2.1651C3.57115 2.1651 0.232422 5.5922 0.232422 9.84086C0.232422 10.0286 0.245263 10.2164 0.258104 10.4042C0.540612 6.43724 3.75735 3.30355 7.68035 3.30355Z" fill="#D1C5BA"/>
<path d="M7.67811 17.5171C11.6075 17.5171 14.8243 14.3834 15.1068 10.4047C14.8243 6.4377 11.6075 3.30402 7.67811 3.30402C3.7551 3.30402 0.538367 6.4377 0.255859 10.4047C0.538367 14.3834 3.7551 17.5171 7.67811 17.5171Z" fill="#2BBCE7"/>
<path d="M14.4144 10.2399C14.4144 13.8665 11.3967 16.8007 7.67916 16.8007C3.9552 16.8007 0.9375 13.8665 0.9375 10.2399C0.9375 6.6133 3.9552 3.67914 7.67916 3.67914C11.3967 3.67914 14.4144 6.6133 14.4144 10.2399Z" fill="#D1C5BA"/>
<path d="M14.4144 9.5592H0.9375V10.5451H14.4144V9.5592Z" fill="#D1C5BA"/>
<path d="M14.4144 9.55925C14.4144 13.1859 11.3967 16.12 7.67916 16.12C3.9552 16.12 0.9375 13.1859 0.9375 9.55925C0.9375 5.93263 3.9552 2.99847 7.67916 2.99847C11.3967 2.99847 14.4144 5.93263 14.4144 9.55925Z" fill="#EFE8E1"/>
<path d="M14.2086 9.55896C14.2086 12.9274 11.2808 15.6503 7.67878 15.6503C4.07038 15.6503 1.14258 12.9274 1.14258 9.55896C1.14258 6.20229 4.07038 3.46765 7.67878 3.46765C11.2808 3.46765 14.2086 6.20229 14.2086 9.55896Z" fill="#D1C5BA"/>
<path d="M7.67878 4.23029C11.1459 4.23029 13.9838 6.75366 14.1957 9.94603C14.2043 9.82084 14.2086 9.69173 14.2086 9.55872C14.2086 6.20204 11.2872 3.46741 7.67878 3.46741C4.07038 3.46741 1.14258 6.20204 1.14258 9.55872C1.14258 9.69173 1.14686 9.82084 1.15542 9.94603C1.3673 6.75366 4.20522 4.23029 7.67878 4.23029Z" fill="#D1C5BA"/>
<path d="M7.67961 15.6503C11.1468 15.6503 13.9847 13.127 14.1966 9.94633C13.9847 6.75397 11.1468 4.23059 7.67961 4.23059C4.20605 4.23059 1.36813 6.75397 1.15625 9.94633C1.36813 13.127 4.20605 15.6503 7.67961 15.6503Z" fill="#2BBCE7"/>
<g opacity="0.5">
<path d="M4.80963 13.8075C4.74543 13.5845 4.60417 13.4437 4.46934 13.4085C4.32166 13.3615 4.18683 13.4789 4.052 13.5728C3.91716 13.6784 3.78875 13.7606 3.6475 13.7488C3.51267 13.7371 3.37783 13.6784 3.25584 13.5845C3.00544 13.4202 2.78071 13.1503 2.53031 12.9742C2.41474 12.9038 2.29917 12.8451 2.18359 12.8568C2.81924 13.7723 3.71812 14.5235 4.78395 15.0164C4.861 14.6291 4.9252 14.1714 4.80963 13.8075Z" fill="#40D3F4"/>
<path d="M9.40676 14.2298C9.00868 13.8895 8.59134 13.6313 8.2061 13.2674C8.03275 13.1031 7.87223 12.9036 7.70529 12.7275C7.53194 12.5397 7.365 12.3989 7.16596 12.3285C6.97976 12.2698 6.79357 12.2346 6.60737 12.1407C6.43401 12.0468 6.28633 11.8942 6.14508 11.6947C5.83047 11.2487 5.56722 10.6502 5.20767 10.345C4.85453 10.0398 4.43719 9.91074 4.13542 9.4178C3.6603 8.65492 3.60251 7.35216 3.12738 6.58927C3.04178 6.45626 2.95403 6.32716 2.86414 6.20197C2.71004 6.36628 2.56237 6.5345 2.42112 6.70664C2.54953 6.89443 2.67152 7.11742 2.76783 7.32868C2.90908 7.61036 3.03535 7.9116 3.14665 8.2324C3.24938 8.52582 3.32 8.85444 3.41631 9.14786C3.45484 9.27696 3.48694 9.40607 3.46768 9.55864C3.44842 9.72295 3.37779 9.88727 3.30716 9.98116C3.15307 10.1807 2.95403 10.1455 2.78709 10.0868C2.60089 10.0164 2.42754 9.88727 2.24134 9.80511C1.97809 9.67601 1.70843 9.59385 1.43876 9.58212C1.35743 9.57429 1.2761 9.57429 1.19477 9.58212C1.17765 9.69948 1.16481 9.82076 1.15625 9.94595C1.17765 10.2433 1.22046 10.5328 1.28466 10.8145C1.38097 10.8379 1.4837 10.8849 1.56717 10.9084C1.67632 10.9553 1.77905 10.9905 1.8882 11.014C2.0102 11.0492 2.13861 11.0257 2.2606 11.014C2.72931 10.9553 3.19801 10.7558 3.66672 10.9084C3.89786 10.9788 4.10332 11.1666 4.30878 11.3661C4.51424 11.5656 4.71328 11.7886 4.91874 11.9999C5.13704 12.2111 5.36176 12.4224 5.59933 12.5515C5.84331 12.6806 6.0873 12.7627 6.3377 12.8449C6.82567 13.0092 7.31364 13.1735 7.76308 13.5726C7.8016 13.6078 7.80802 13.7017 7.78876 13.7604C7.68603 14.089 7.53194 14.3002 7.34574 14.4411C7.00545 14.6876 6.62021 14.6523 6.29275 14.9458C6.16434 15.0514 6.08088 15.2509 5.99741 15.4504C6.16434 15.4896 6.33556 15.5248 6.51106 15.5561C6.65873 15.2509 6.90271 15.2392 7.12744 15.2157C7.28153 15.204 7.42279 15.157 7.56404 15.0514C7.71172 14.9575 7.84655 14.8284 7.99422 14.7228C8.25105 14.5467 8.51429 14.4411 8.79038 14.4646C9.04721 14.488 9.30403 14.5937 9.52875 14.8167C9.65075 14.934 9.78558 15.0983 9.88831 15.2979C10.0124 15.2509 10.1344 15.204 10.2543 15.157C9.99104 14.7932 9.70211 14.488 9.40676 14.2298Z" fill="#40D3F4"/>
<path d="M7.92987 5.12257C8.13533 5.36904 8.36005 5.46294 8.60403 5.46294C8.88012 5.4512 9.14337 5.42773 9.40661 5.62725C9.6506 5.8033 9.8689 6.09672 10.1129 6.29624C10.5752 6.70702 11.076 6.8596 11.5896 6.82439C11.9813 6.80091 12.3601 6.57792 12.7453 6.48402C11.5447 5.11084 9.72122 4.23059 7.67946 4.23059C7.64094 4.23059 7.60456 4.23059 7.57031 4.23059C7.57673 4.28927 7.58957 4.33622 7.59599 4.38317C7.66662 4.68832 7.78219 4.94653 7.92987 5.12257Z" fill="#40D3F4"/>
<path d="M13.7866 8.17439C13.5297 8.15092 13.2729 8.15092 13.0097 8.17439C12.5217 8.23308 12.0337 8.38565 11.5522 8.5617C11.3168 8.63994 11.0813 8.7221 10.8459 8.80817C10.6276 8.87859 10.4157 8.96075 10.191 8.92554C9.76725 8.86685 9.36917 8.57344 8.98394 8.24481C8.61154 7.91619 8.23272 7.49367 7.82822 7.28241C7.43014 7.08289 7.0128 7.08288 6.6083 6.8951C6.37716 6.80121 6.03687 6.62516 5.95982 6.14395C5.90845 5.78012 6.0176 5.40455 6.10749 5.09939C6.17812 4.85292 6.26159 4.61819 6.32579 4.35999C6.10107 4.40693 5.88277 4.46562 5.66447 4.5243C5.59384 4.82945 5.52964 5.1346 5.50395 5.43976C5.47185 5.94443 5.47185 6.84815 5.13156 7.0242C4.91968 7.12983 4.84905 6.64863 4.82979 6.36695C4.78484 5.86227 4.79768 5.3576 4.81694 4.84119C4.63717 4.92726 4.46381 5.01724 4.29688 5.11113C4.29688 5.12678 4.29688 5.14243 4.29688 5.15808C4.32898 5.49844 4.34182 5.8388 4.36108 6.16743C4.38034 6.48432 4.3996 6.80121 4.45097 7.09462C4.49591 7.35283 4.57296 7.65798 4.68853 7.83403C4.8041 8.03355 4.97104 8.03355 5.11871 8.03355C5.38838 8.02182 5.65805 7.97487 5.92771 7.93966C6.19738 7.89271 6.46705 7.88098 6.73029 7.9514C6.99354 8.03355 7.25036 8.18613 7.50077 8.35044C7.98874 8.67907 8.45744 9.11332 8.95825 9.40674C9.20224 9.54758 9.45906 9.66495 9.71589 9.70016C9.98555 9.7471 10.2552 9.70015 10.5249 9.62973C11.0899 9.47716 11.6357 9.19548 12.2007 9.00769C12.4768 8.90206 12.7657 8.83164 13.0482 8.79643C13.2858 8.77296 13.5233 8.77296 13.7673 8.76122C13.8401 8.7534 13.915 8.74949 13.992 8.74949C13.9321 8.55388 13.8636 8.36218 13.7866 8.17439Z" fill="#40D3F4"/>
<path d="M11.4106 13.7958C11.2373 13.5845 11.0639 13.3733 10.897 13.1385C10.775 12.9742 10.6402 12.7982 10.5439 12.5752C10.4732 12.4109 10.4347 12.2348 10.5246 12.0588C10.6723 11.7771 10.9548 11.7888 11.1538 11.8006C11.4363 11.8123 11.7124 11.8358 11.9949 11.7419C12.1747 11.6832 12.348 11.5893 12.5278 11.5189C12.6862 11.4641 12.8467 11.4328 13.0094 11.425C13.2919 11.4015 13.568 11.4602 13.8441 11.5658C13.9553 11.2763 14.041 10.979 14.1009 10.6738C14.0324 10.6269 13.9639 10.5839 13.8954 10.5447C13.7092 10.4508 13.523 10.3804 13.3304 10.4039C13.0928 10.4156 12.8617 10.533 12.637 10.6504C12.2261 10.8734 11.8151 11.0846 11.3914 11.1668C10.9933 11.2607 10.5952 11.2607 10.1971 11.2724C9.98526 11.2724 9.76696 11.2724 9.55507 11.3076C9.45234 11.3311 9.31109 11.3546 9.22762 11.4719C9.10563 11.6597 9.34319 12.0001 9.41382 12.094C9.8761 12.7864 10.4475 13.1737 10.9548 13.7254C11.1089 13.9014 11.2565 14.1009 11.3914 14.3357C11.4256 14.3904 11.4577 14.4491 11.4877 14.5117C11.5904 14.4413 11.6931 14.367 11.7959 14.2887C11.6717 14.1244 11.5433 13.9601 11.4106 13.7958Z" fill="#40D3F4"/>
</g>
<path d="M5.07891 12.1178C4.56526 11.578 4.62946 10.6156 5.22658 9.98178L12.5333 2.27081L15.1593 3.46795L7.10783 11.9653C6.51071 12.5991 5.59898 12.6695 5.07891 12.1178Z" fill="#183344"/>
<path d="M5.18829 10.474L4.73242 10.7557V11.2721L5.25249 11.4247L5.18829 10.474Z" fill="#183344"/>
<path d="M15.1574 3.05707V3.46785L14.0852 4.38331L13.9824 3.94905L15.1574 3.05707Z" fill="#183344"/>
<path d="M5.07891 11.7068C4.56526 11.1552 4.62946 10.2045 5.22658 9.57075L13.278 1.07343L15.1593 3.05692L7.10783 11.5542C6.51071 12.188 5.59898 12.2584 5.07891 11.7068Z" fill="#234156"/>
<path d="M5.98216 10.8382C5.68039 10.8382 5.39146 10.7325 5.17958 10.5095C4.9677 10.2748 4.8457 9.96965 4.8457 9.61755C4.8457 9.20677 5.01906 8.79599 5.30799 8.49083L12.4477 0.932439C12.4606 0.908966 12.4863 0.920702 12.4927 0.955912C12.4991 0.979386 12.4991 1.0146 12.4798 1.02633L5.34009 8.58473C5.07043 8.87814 4.90991 9.25371 4.90991 9.61755C4.90991 9.9227 5.01906 10.2044 5.21168 10.4039C5.66754 10.8851 6.4637 10.8264 6.9902 10.2631L14.0721 2.72814C14.0914 2.71641 14.1107 2.71641 14.1171 2.75162C14.1299 2.77509 14.1235 2.8103 14.1107 2.83377L7.0223 10.3687C6.72695 10.6856 6.34813 10.8382 5.98216 10.8382Z" fill="#EFE8E1"/>
<path d="M6.70203 11.6131C6.68276 11.6131 6.66992 11.5896 6.66992 11.5544V10.5685C6.66992 10.5333 6.68276 10.5098 6.70203 10.5098C6.72129 10.5098 6.73413 10.5333 6.73413 10.5685V11.5544C6.73413 11.5896 6.72129 11.6131 6.70203 11.6131Z" fill="#EFE8E1"/>
<path d="M7.22156 11.1789C7.20229 11.1789 7.18945 11.1437 7.18945 11.1203V10.1226C7.18945 10.0874 7.20229 10.064 7.22156 10.064C7.24082 10.064 7.25366 10.0874 7.25366 10.1226V11.1203C7.25366 11.1437 7.24082 11.1789 7.22156 11.1789Z" fill="#EFE8E1"/>
<path d="M7.66492 10.6743C7.64565 10.6743 7.63281 10.6509 7.63281 10.6157V9.62979C7.63281 9.59458 7.64565 9.57111 7.66492 9.57111C7.67776 9.57111 7.69702 9.59458 7.69702 9.62979V10.6157C7.69702 10.6509 7.67776 10.6743 7.66492 10.6743Z" fill="#EFE8E1"/>
<path d="M8.12585 10.1941C8.10659 10.1941 8.09375 10.1706 8.09375 10.1354V9.1495C8.09375 9.11429 8.10659 9.09082 8.12585 9.09082C8.13869 9.09082 8.15796 9.11429 8.15796 9.1495V10.1354C8.15796 10.1706 8.13869 10.1941 8.12585 10.1941Z" fill="#EFE8E1"/>
<path d="M8.63562 9.6903C8.61636 9.6903 8.60352 9.65509 8.60352 9.63161V8.634C8.60352 8.61053 8.61636 8.57532 8.63562 8.57532C8.64846 8.57532 8.66772 8.61053 8.66772 8.634V9.63161C8.66772 9.65509 8.64846 9.6903 8.63562 9.6903Z" fill="#EFE8E1"/>
<path d="M9.12781 9.11388C9.10854 9.11388 9.0957 9.09041 9.0957 9.0552V8.05758C9.0957 8.03411 9.10854 7.9989 9.12781 7.9989C9.14707 7.9989 9.15991 8.03411 9.15991 8.05758V9.0552C9.15991 9.09041 9.14707 9.11388 9.12781 9.11388Z" fill="#EFE8E1"/>
<path d="M9.63562 8.59799C9.61636 8.59799 9.60352 8.57452 9.60352 8.53931V7.55343C9.60352 7.51822 9.61636 7.49475 9.63562 7.49475C9.65488 7.49475 9.66772 7.51822 9.66772 7.55343V8.53931C9.66772 8.57452 9.65488 8.59799 9.63562 8.59799Z" fill="#EFE8E1"/>
<path d="M10.1044 8.04624C10.0851 8.04624 10.0723 8.02276 10.0723 7.98755V7.00168C10.0723 6.96647 10.0851 6.94299 10.1044 6.94299C10.1236 6.94299 10.1365 6.96647 10.1365 7.00168V7.98755C10.1365 8.02276 10.1236 8.04624 10.1044 8.04624Z" fill="#EFE8E1"/>
<path d="M10.6102 7.54162C10.591 7.54162 10.5781 7.51814 10.5781 7.48293V6.48532C10.5781 6.46185 10.591 6.42664 10.6102 6.42664C10.6295 6.42664 10.6423 6.46185 10.6423 6.48532V7.48293C10.6423 7.51814 10.6295 7.54162 10.6102 7.54162Z" fill="#EFE8E1"/>
<path d="M11.1063 6.97812C11.0871 6.97812 11.0742 6.95465 11.0742 6.91944V5.93356C11.0742 5.89835 11.0871 5.87488 11.1063 5.87488C11.1256 5.87488 11.1384 5.89835 11.1384 5.93356V6.91944C11.1384 6.95465 11.1256 6.97812 11.1063 6.97812Z" fill="#EFE8E1"/>
<path d="M11.6141 6.47228C11.5949 6.47228 11.582 6.44881 11.582 6.4136V5.41598C11.582 5.39251 11.5949 5.3573 11.6141 5.3573C11.6334 5.3573 11.6462 5.39251 11.6462 5.41598V6.4136C11.6462 6.44881 11.6334 6.47228 11.6141 6.47228Z" fill="#EFE8E1"/>
<path d="M12.1141 5.95639C12.0949 5.95639 12.082 5.93292 12.082 5.89771V4.91183C12.082 4.87662 12.0949 4.85315 12.1141 4.85315C12.1334 4.85315 12.1462 4.87662 12.1462 4.91183V5.89771C12.1462 5.93292 12.1334 5.95639 12.1141 5.95639Z" fill="#EFE8E1"/>
<path d="M12.6063 5.42742C12.5871 5.42742 12.5742 5.40395 12.5742 5.36874V4.37112C12.5742 4.34765 12.5871 4.31244 12.6063 4.31244C12.6192 4.31244 12.6384 4.34765 12.6384 4.37112V5.36874C12.6384 5.40395 12.6192 5.42742 12.6063 5.42742Z" fill="#EFE8E1"/>
<path d="M13.118 4.88828C13.0988 4.88828 13.0859 4.8648 13.0859 4.82959V3.84372C13.0859 3.80851 13.0988 3.78503 13.118 3.78503C13.1309 3.78503 13.1501 3.80851 13.1501 3.84372V4.82959C13.1501 4.8648 13.1309 4.88828 13.118 4.88828Z" fill="#EFE8E1"/>
<path d="M13.6102 4.34838C13.591 4.34838 13.5781 4.31317 13.5781 4.2897V3.29208C13.5781 3.25687 13.591 3.2334 13.6102 3.2334C13.6295 3.2334 13.6423 3.25687 13.6423 3.29208V4.2897C13.6423 4.31317 13.6295 4.34838 13.6102 4.34838Z" fill="#EFE8E1"/>
<path d="M14.079 3.84531C14.0597 3.84531 14.0469 3.82184 14.0469 3.78663V2.80075C14.0469 2.76554 14.0597 2.74207 14.079 2.74207C14.0982 2.74207 14.1111 2.76554 14.1111 2.80075V3.78663C14.1111 3.82184 14.0982 3.84531 14.079 3.84531Z" fill="#EFE8E1"/>
<path d="M5.97351 8.95078C5.96067 8.95078 5.94141 8.9273 5.94141 8.89209V7.90622C5.94141 7.87101 5.96067 7.84753 5.97351 7.84753C5.99277 7.84753 6.00561 7.87101 6.00561 7.90622V8.89209C6.00561 8.9273 5.99277 8.95078 5.97351 8.95078Z" fill="#EFE8E1"/>
<path d="M6.44226 8.46897C6.423 8.46897 6.41016 8.44549 6.41016 8.41028V7.42441C6.41016 7.3892 6.423 7.36572 6.44226 7.36572C6.4551 7.36572 6.47436 7.3892 6.47436 7.42441V8.41028C6.47436 8.44549 6.4551 8.46897 6.44226 8.46897Z" fill="#EFE8E1"/>
<path d="M6.95007 7.96435C6.93081 7.96435 6.91797 7.92914 6.91797 7.90566V6.90805C6.91797 6.87284 6.93081 6.84937 6.95007 6.84937C6.96291 6.84937 6.98218 6.87284 6.98218 6.90805V7.90566C6.98218 7.92914 6.96291 7.96435 6.95007 7.96435Z" fill="#EFE8E1"/>
<path d="M7.44031 7.38878C7.42104 7.38878 7.4082 7.35357 7.4082 7.3301V6.33249C7.4082 6.29728 7.42104 6.2738 7.44031 6.2738C7.45957 6.2738 7.47241 6.29728 7.47241 6.33249V7.3301C7.47241 7.35357 7.45957 7.38878 7.44031 7.38878Z" fill="#EFE8E1"/>
<path d="M7.94812 6.87235C7.92886 6.87235 7.91602 6.84887 7.91602 6.81366V5.82779C7.91602 5.79258 7.92886 5.7691 7.94812 5.7691C7.96738 5.7691 7.98022 5.79258 7.98022 5.82779V6.81366C7.98022 6.84887 7.96738 6.87235 7.94812 6.87235Z" fill="#EFE8E1"/>
<path d="M8.41882 6.32035C8.39956 6.32035 8.38672 6.29687 8.38672 6.26166V5.27579C8.38672 5.24058 8.39956 5.2171 8.41882 5.2171C8.43808 5.2171 8.45093 5.24058 8.45093 5.27579V6.26166C8.45093 6.29687 8.43808 6.32035 8.41882 6.32035Z" fill="#EFE8E1"/>
<path d="M8.92663 5.8145C8.90737 5.8145 8.89453 5.77929 8.89453 5.75582V4.75821C8.89453 4.723 8.90737 4.69952 8.92663 4.69952C8.9459 4.69952 8.95874 4.723 8.95874 4.75821V5.75582C8.95874 5.77929 8.9459 5.8145 8.92663 5.8145Z" fill="#EFE8E1"/>
<path d="M9.41687 5.25308C9.39761 5.25308 9.38477 5.22961 9.38477 5.1944V4.20852C9.38477 4.17331 9.39761 4.14984 9.41687 4.14984C9.42971 4.14984 9.44897 4.17331 9.44897 4.20852V5.1944C9.44897 5.22961 9.42971 5.25308 9.41687 5.25308Z" fill="#EFE8E1"/>
<path d="M9.92859 4.74724C9.90933 4.74724 9.89648 4.71203 9.89648 4.68856V3.69095C9.89648 3.65574 9.90933 3.63226 9.92859 3.63226C9.94143 3.63226 9.96069 3.65574 9.96069 3.69095V4.68856C9.96069 4.71203 9.94143 4.74724 9.92859 4.74724Z" fill="#EFE8E1"/>
<path d="M10.4286 4.23095C10.4093 4.23095 10.3965 4.20747 10.3965 4.17226V3.17465C10.3965 3.15118 10.4093 3.11597 10.4286 3.11597C10.4478 3.11597 10.4607 3.15118 10.4607 3.17465V4.17226C10.4607 4.20747 10.4478 4.23095 10.4286 4.23095Z" fill="#EFE8E1"/>
<path d="M10.9208 3.70385C10.9015 3.70385 10.8887 3.68037 10.8887 3.64516V2.64755C10.8887 2.62408 10.9015 2.58887 10.9208 2.58887C10.9336 2.58887 10.9529 2.62408 10.9529 2.64755V3.64516C10.9529 3.68037 10.9336 3.70385 10.9208 3.70385Z" fill="#EFE8E1"/>
<path d="M11.4286 3.16326C11.4093 3.16326 11.3965 3.13979 11.3965 3.10458V2.10696C11.3965 2.08349 11.4093 2.04828 11.4286 2.04828C11.4414 2.04828 11.4607 2.08349 11.4607 2.10696V3.10458C11.4607 3.13979 11.4414 3.16326 11.4286 3.16326Z" fill="#EFE8E1"/>
<path d="M11.9247 2.62481C11.9054 2.62481 11.8926 2.5896 11.8926 2.56612V1.56851C11.8926 1.5333 11.9054 1.50983 11.9247 1.50983C11.9439 1.50983 11.9568 1.5333 11.9568 1.56851V2.56612C11.9568 2.5896 11.9439 2.62481 11.9247 2.62481Z" fill="#EFE8E1"/>
<path d="M12.3934 2.11954C12.3742 2.11954 12.3613 2.09607 12.3613 2.06086V1.07498C12.3613 1.03977 12.3742 1.0163 12.3934 1.0163C12.4127 1.0163 12.4255 1.03977 12.4255 1.07498V2.06086C12.4255 2.09607 12.4127 2.11954 12.3934 2.11954Z" fill="#EFE8E1"/>
<path d="M6.15906 11.8363C6.13979 11.8363 6.12695 11.8011 6.12695 11.7776V10.78C6.12695 10.7448 6.13979 10.7213 6.15906 10.7213C6.1719 10.7213 6.19116 10.7448 6.19116 10.78V11.7776C6.19116 11.8011 6.1719 11.8363 6.15906 11.8363Z" fill="#EFE8E1"/>
<path d="M5.57898 11.7889C5.55972 11.7889 5.54688 11.7654 5.54688 11.7302V10.7443C5.54688 10.7091 5.55972 10.6856 5.57898 10.6856C5.59824 10.6856 5.61108 10.7091 5.61108 10.7443V11.7302C5.61108 11.7654 5.59824 11.7889 5.57898 11.7889Z" fill="#EFE8E1"/>
<path d="M5.13757 9.87693C5.12473 9.87693 5.10547 9.85345 5.10547 9.81824V8.83236C5.10547 8.79715 5.12473 8.77368 5.13757 8.77368C5.15683 8.77368 5.16968 8.79715 5.16968 8.83236V9.81824C5.16968 9.85345 5.15683 9.87693 5.13757 9.87693Z" fill="#EFE8E1"/>
<path d="M5.54578 9.38315C5.52651 9.38315 5.51367 9.35968 5.51367 9.32447V8.33859C5.51367 8.30338 5.52651 8.27991 5.54578 8.27991C5.56504 8.27991 5.57788 8.30338 5.57788 8.33859V9.32447C5.57788 9.35968 5.56504 9.38315 5.54578 9.38315Z" fill="#EFE8E1"/>
<path d="M5.10632 11.426C5.09348 11.426 5.07422 11.4025 5.07422 11.3673V10.3814C5.07422 10.3462 5.09348 10.3228 5.10632 10.3228C5.12558 10.3228 5.13843 10.3462 5.13843 10.3814V11.3673C5.13843 11.4025 5.12558 11.426 5.10632 11.426Z" fill="#EFE8E1"/>
<path d="M4.87781 10.6155C4.86497 10.6155 4.8457 10.592 4.8457 10.5568V9.57089C4.8457 9.53568 4.86497 9.51221 4.87781 9.51221C4.89707 9.51221 4.90991 9.53568 4.90991 9.57089V10.5568C4.90991 10.592 4.89707 10.6155 4.87781 10.6155Z" fill="#EFE8E1"/>
<path d="M15.9665 6.5079L14.9905 3.44464L14.9199 3.53853L15.8188 6.34359L15.9665 6.5079Z" fill="#EFE8E1"/>
<path d="M15.2616 3.72455L14.5875 4.42875L14.3242 4.15881L14.9984 3.44287L15.2616 3.72455Z" fill="#234156"/>
<path d="M15.2621 3.72559V3.78427L14.5879 4.5002V4.42978L15.2621 3.72559Z" fill="#183344"/>
<path d="M14.3242 4.15906V4.22948L14.5875 4.49942V4.429L14.3242 4.15906Z" fill="#122935"/>
<path d="M15.4491 4.32538L14.775 5.02958L14.5117 4.75964L15.1859 4.0437L15.4491 4.32538Z" fill="#234156"/>
<path d="M15.4496 4.3252V4.38388L14.7754 5.09981V5.02939L15.4496 4.3252Z" fill="#183344"/>
<path d="M14.5117 4.75879V4.81747L14.775 5.09915V5.02873L14.5117 4.75879Z" fill="#122935"/>
<path d="M15.6263 4.92237L14.9521 5.62656L14.6953 5.35662L15.3695 4.64069L15.6263 4.92237Z" fill="#234156"/>
<path d="M15.6273 4.9234V4.98208L14.9531 5.69802V5.6276L15.6273 4.9234Z" fill="#183344"/>
<path d="M14.6953 5.35638V5.41507L14.9521 5.69675V5.62633L14.6953 5.35638Z" fill="#122935"/>
<path d="M15.8144 5.5213L15.1402 6.2255L14.877 5.95556L15.5511 5.23962L15.8144 5.5213Z" fill="#234156"/>
<path d="M15.8148 5.52167V5.58035L15.1406 6.29629V6.22587L15.8148 5.52167Z" fill="#183344"/>
<path d="M14.877 5.95465V6.01333L15.1402 6.29501V6.22459L14.877 5.95465Z" fill="#122935"/>
<path d="M15.9999 6.10893L15.3257 6.82487L15.0625 6.55492L15.7367 5.83899L15.9999 6.10893Z" fill="#234156"/>
<path d="M16.0003 6.10858V6.179L15.3262 6.89494V6.82452L16.0003 6.10858Z" fill="#183344"/>
<path d="M15.0625 6.55444V6.61313L15.3257 6.89481V6.82439L15.0625 6.55444Z" fill="#122935"/>
<path d="M15.2034 6.46132C15.197 6.46132 15.1842 6.44958 15.1777 6.42611L14.067 2.81123C14.0606 2.77602 14.067 2.74081 14.0798 2.72907C14.0991 2.7056 14.1183 2.71733 14.1248 2.75254L15.2355 6.36743C15.2419 6.40264 15.2355 6.43785 15.2227 6.44958C15.2184 6.45741 15.212 6.46132 15.2034 6.46132Z" fill="#EFE8E1"/>
<path d="M15.3005 7.21241L14.3245 4.16089L14.2539 4.24304L15.1528 7.0481L15.3005 7.21241Z" fill="#EFE8E1"/>
<path d="M15.1091 6.81277C15.0963 6.81277 15.0898 6.80104 15.0898 6.7893V6.10857C15.0898 6.0851 15.0963 6.07336 15.1091 6.07336C15.1155 6.07336 15.1219 6.0851 15.1219 6.10857V6.7893C15.1219 6.80104 15.1155 6.81277 15.1091 6.81277Z" fill="#EFE8E1"/>
<path d="M14.5251 4.86398C14.5123 4.86398 14.5059 4.85224 14.5059 4.84051V4.15978C14.5059 4.13631 14.5123 4.12457 14.5251 4.12457C14.5315 4.12457 14.538 4.13631 14.538 4.15978V4.84051C14.538 4.85224 14.5315 4.86398 14.5251 4.86398Z" fill="#EFE8E1"/>
<path d="M14.3253 4.2425C14.3189 4.2425 14.3125 4.23077 14.3125 4.21903V3.5383C14.3125 3.52657 14.3189 3.51483 14.3253 3.51483C14.3382 3.51483 14.3446 3.52657 14.3446 3.5383V4.21903C14.3446 4.23077 14.3382 4.2425 14.3253 4.2425Z" fill="#EFE8E1"/>
<path d="M14.9015 6.13199C14.8951 6.13199 14.8887 6.12025 14.8887 6.10851V5.42779C14.8887 5.41605 14.8951 5.39258 14.9015 5.39258C14.9079 5.39258 14.9208 5.41605 14.9208 5.42779V6.10851C14.9208 6.12025 14.9079 6.13199 14.9015 6.13199Z" fill="#EFE8E1"/>
<path d="M14.7165 5.46304C14.7037 5.46304 14.6973 5.4513 14.6973 5.43957V4.75884C14.6973 4.74711 14.7037 4.72363 14.7165 4.72363C14.7229 4.72363 14.7294 4.74711 14.7294 4.75884V5.43957C14.7294 5.4513 14.7229 5.46304 14.7165 5.46304Z" fill="#EFE8E1"/>
</svg>
