<svg width="44" height="15" viewBox="0 0 44 15" fill="none" xmlns="http://www.w3.org/2000/svg">
<path d="M0.455268 1.463L0.48778 2.73086L2.57935 2.74872L4.66009 2.76062V2.08205C4.66009 1.45705 4.63841 1.37967 4.35665 1.088C3.80395 0.498716 2.74191 0.201097 1.22471 0.201097H0.433594L0.455268 1.463Z" fill="#D8F0F5"/>
<path d="M5.30859 1.68715V2.27644L5.85045 2.47287C6.19724 2.59787 7.55189 3.37763 9.58927 4.62167C11.3449 5.6931 12.7862 6.59191 12.7862 6.61572C12.7862 6.64548 12.732 6.6931 12.667 6.72882C12.5912 6.77048 13.0897 7.10977 14.3251 7.85382C15.3005 8.43715 16.2433 9.00858 16.4275 9.12167L16.7635 9.33L15.9724 9.64548C15.2571 9.92524 15.1054 9.96096 14.6286 9.96096H14.0867V11.3002V12.6395H14.8778H15.6581L15.6798 12.2645C15.7123 11.6871 16.0591 11.2467 16.8393 10.8181C17.327 10.5502 17.6738 10.4193 18.1506 10.3241C20.6974 9.80024 23.4825 10.7943 23.5042 12.2348L23.515 12.6395H25.0322H26.5494L26.5278 10.8657L26.4952 9.09786L25.9859 9.08L25.4657 9.06215V7.24667V5.43715H24.0894H22.7022L21.2934 6.97286C20.1338 8.23477 19.8737 8.56215 19.8304 8.83L19.7762 9.15739L19.2235 9.17524L18.6708 9.1931L17.5979 8.55024C17.0127 8.19905 16.5034 7.89548 16.4709 7.87762C16.4275 7.85382 15.7014 7.41334 13.9566 6.36572C13.7182 6.21691 13.6424 6.19905 13.5015 6.26453C13.3714 6.32405 13.2739 6.30024 12.9271 6.08596C9.88188 4.24072 8.47305 3.38358 8.49472 3.36572C8.51639 3.35977 11.139 4.20501 14.3251 5.25263C17.5112 6.30024 20.1772 7.16334 20.253 7.17524C20.3289 7.18715 20.6757 6.87762 21.0767 6.44905C21.456 6.04429 21.7594 5.70501 21.7486 5.69905C21.7377 5.6931 19.191 4.97286 16.0916 4.09787C12.9921 3.22287 9.32918 2.18715 7.95286 1.80025C6.5657 1.41334 5.41697 1.09191 5.37362 1.09191C5.34111 1.09191 5.30859 1.35977 5.30859 1.68715Z" fill="#D8F0F5"/>
<path d="M1.08398 4.18733V5.37781H2.38444H3.6849V4.18733V2.99686H2.38444H1.08398V4.18733Z" fill="#D8F0F5"/>
<path d="M30.127 7.49035V9.78201H30.8856H31.6442V9.36535V8.94868H31.9693H32.2944V9.36535V9.78796L33.4106 9.77011L34.516 9.75225L34.5485 8.93677C34.5702 8.18082 34.5594 8.10939 34.3534 7.9963C34.0392 7.82368 32.8254 7.82368 32.5111 7.9963C32.3919 8.06177 32.2944 8.13916 32.2944 8.17487C32.2944 8.20463 32.1535 8.23439 31.9693 8.23439C31.655 8.23439 31.6442 8.22249 31.6442 7.96654V7.69868H32.186H32.7279V6.72844V5.7582L32.2077 5.47844L31.6875 5.19868H30.9072H30.127V7.49035Z" fill="#D8F0F5"/>
<path d="M1.73395 6.20603V6.73579L1.24627 6.89651C0.682741 7.07508 0 7.39055 0 7.46793C0 7.53341 0.552695 7.53936 0.888647 7.46793C1.02953 7.44413 1.26795 7.40246 1.44134 7.37865L1.73395 7.34293V7.77151L1.72311 8.20603L1.01869 8.44412C0.140883 8.74174 -0.0866973 8.86674 0.0866973 8.96198C0.184232 9.01555 0.390138 9.00365 0.975345 8.90841L1.74478 8.78936L1.71227 9.23579L1.67976 9.68817L1.1379 9.86079C0.57437 10.0394 0 10.3072 0 10.3906C0 10.4679 0.693578 10.4441 1.19209 10.3489C1.44134 10.3013 1.66892 10.2596 1.6906 10.2596C1.71227 10.2596 1.73395 10.456 1.73395 10.7001V11.1406L1.17041 11.3191C0.162557 11.6286 -0.249255 11.9263 0.314278 11.9263C0.422649 11.9263 0.780276 11.8786 1.11623 11.8132L1.73395 11.706V12.1584V12.6108L1.26795 12.7477C0.715253 12.9084 0 13.2179 0 13.3013C0 13.3846 0.758601 13.3608 1.24627 13.2656C1.48469 13.2179 1.6906 13.1763 1.71227 13.1763C1.72311 13.1763 1.73395 13.2834 1.73395 13.4203C1.73395 13.5929 1.83148 13.7358 2.0699 13.9322L2.40585 14.2001L2.72013 13.9382C2.99106 13.7179 3.03441 13.6227 3.03441 13.2656V12.8489L3.5004 12.712C4.12896 12.5275 4.76835 12.2358 4.76835 12.1286C4.76835 12.0156 4.48659 12.0215 3.69547 12.1584L3.03441 12.2715V11.837V11.4084L3.70631 11.1822C4.41073 10.9382 4.76835 10.7715 4.76835 10.6763C4.76835 10.587 4.23733 10.6048 3.61961 10.706C3.32701 10.7536 3.07775 10.7953 3.06692 10.7953C3.04524 10.7953 3.03441 10.5989 3.03441 10.3608V9.92031L3.57626 9.7596C5.12598 9.29531 5.16933 8.95603 3.65212 9.24174L3.03441 9.36079V8.8965V8.43817L3.51124 8.31317C3.99891 8.18222 4.76835 7.84293 4.76835 7.7596C4.76835 7.64055 4.23733 7.66436 3.28366 7.84293C3.03441 7.8846 3.03441 7.87865 3.03441 7.43817V6.98579L3.44622 6.8727C4.08561 6.68817 4.76835 6.39651 4.76835 6.30127C4.76835 6.18817 4.41073 6.18817 3.72798 6.30127C3.43538 6.34889 3.16445 6.39055 3.1211 6.39055C3.06692 6.39055 3.03441 6.22984 3.03441 6.03341V5.67627H2.38418H1.73395V6.20603Z" fill="#D8F0F5"/>
<path d="M35.2222 8.11572V9.96096H32.3504H29.4785V11.3002V12.6395H31.7977H34.1168L34.1277 12.2586C34.1493 10.7407 37.1187 9.74072 39.7088 10.3717C40.3915 10.5383 41.1935 10.9669 41.5728 11.3717C41.822 11.6455 41.8979 11.8121 41.9304 12.1752L41.9629 12.6395H42.9816H44.0003V12.0145V11.3895H43.5668H43.1333V10.6812C43.1333 10.0443 43.0683 9.79429 42.4831 8.25262C42.1255 7.31215 41.8112 6.47882 41.7787 6.40143L41.7245 6.27048H38.4734H35.2222V8.11572ZM41.757 8.10381C42.1146 8.9431 42.4181 9.6931 42.4506 9.76453C42.5048 9.89548 42.4831 9.90143 41.692 9.90143H40.8792L40.4782 9.60381L40.0773 9.30619H38.2458H36.4143V7.93715V6.5681H38.7768H41.1285L41.757 8.10381Z" fill="#D8F0F5"/>
<path d="M11.5957 11.123V13.0575H12.4627H13.3188L13.3513 11.123L13.3838 9.18845H12.4952H11.5957V11.123Z" fill="#D8F0F5"/>
<path d="M27.0938 11.123V13.0575H27.9607H28.8277V11.123V9.18845H27.9607H27.0938V11.123Z" fill="#D8F0F5"/>
<path d="M18.153 10.664C17.3944 10.8664 16.8742 11.164 16.4949 11.6164C16.2673 11.8962 16.2348 11.9974 16.2782 12.4259C16.354 13.1938 16.9501 13.6938 18.153 14.0093C19.7894 14.4378 21.7184 14.0986 22.5962 13.2295C22.8888 12.9378 22.9214 12.8605 22.9214 12.3426C22.9214 11.8724 22.878 11.7355 22.6721 11.5271C22.3145 11.1521 21.8593 10.8962 21.2199 10.7057C20.7431 10.5628 20.4938 10.5271 19.7244 10.5093C18.8899 10.4914 18.749 10.5033 18.153 10.664ZM20.3855 11.6759C20.7973 11.8009 21.0249 12.0509 21.0249 12.3724C21.0249 12.6224 20.9707 12.6819 20.6022 12.8843C20.2337 13.0867 20.1254 13.1164 19.6702 13.1164C18.7707 13.1164 18.2072 12.8188 18.2072 12.3426C18.2072 11.6878 19.3234 11.3426 20.3855 11.6759Z" fill="#D8F0F5"/>
<path d="M36.5422 10.6769C35.8378 10.8733 35.361 11.1293 34.9817 11.5281C34.7758 11.7364 34.7324 11.8733 34.7324 12.3436C34.7324 12.8614 34.7649 12.9388 35.0575 13.2305C36.3472 14.5102 39.75 14.5102 41.018 13.2305C41.2672 12.9686 41.3431 12.8198 41.3756 12.4269C41.419 12.0043 41.3864 11.8972 41.1589 11.6174C40.7796 11.171 40.3027 10.8912 39.5333 10.6769C38.9698 10.5222 38.753 10.4983 38.0378 10.4983C37.3225 10.4983 37.1058 10.5222 36.5422 10.6769ZM38.818 11.671C39.2082 11.7722 39.4466 12.0341 39.4466 12.3436C39.4466 12.8198 38.8831 13.1174 37.9836 13.1174C37.5284 13.1174 37.42 13.0876 37.0516 12.8852C36.6831 12.6829 36.6289 12.6233 36.6289 12.3793C36.6289 11.6829 37.6693 11.3495 38.818 11.671Z" fill="#D8F0F5"/>
<path d="M12.0293 13.4141C12.0293 13.5867 12.051 13.5927 12.517 13.5927C12.983 13.5927 13.0046 13.5867 13.0046 13.4141C13.0046 13.2415 12.983 13.2355 12.517 13.2355C12.051 13.2355 12.0293 13.2415 12.0293 13.4141Z" fill="#D8F0F5"/>
<path d="M27.5256 13.4141C27.5256 13.5868 27.5472 13.5927 28.0132 13.5927C28.4792 13.5927 28.5009 13.5868 28.5009 13.4141C28.5009 13.2415 28.4792 13.2356 28.0132 13.2356C27.5472 13.2356 27.5256 13.2415 27.5256 13.4141Z" fill="#D8F0F5"/>
<path d="M10.6211 13.9503V14.1884H12.4634H14.3057V13.9503V13.7122H12.4634H10.6211V13.9503Z" fill="#D8F0F5"/>
<path d="M26.1172 13.9503V14.1884H27.9595H29.8018V13.9503V13.7122H27.9595H26.1172V13.9503Z" fill="#D8F0F5"/>
</svg>
