<svg width="13" height="22" viewBox="0 0 13 22" fill="none" xmlns="http://www.w3.org/2000/svg">
<path d="M7.51859 20.5635H5.48227V20.6935H7.51859V20.5635Z" fill="#D8F0F5"/>
<path d="M7.51859 20.7086C7.51859 21.045 7.06359 21.3201 6.50416 21.3201C5.93727 21.3201 5.48227 21.045 5.48227 20.7086C5.48227 20.3646 5.93727 20.0894 6.50416 20.0894C7.06359 20.0894 7.51859 20.3646 7.51859 20.7086Z" fill="#D8F0F5"/>
<path d="M7.51859 20.563C7.51859 20.8994 7.06359 21.1746 6.50416 21.1746C5.93727 21.1746 5.48227 20.8994 5.48227 20.563C5.48227 20.219 5.93727 19.9438 6.50416 19.9438C7.06359 19.9438 7.51859 20.219 7.51859 20.563Z" fill="#D8F0F5"/>
<path d="M7.24965 20.5098C7.24965 20.762 6.914 20.9608 6.50375 20.9608C6.08604 20.9608 5.75038 20.762 5.75038 20.5098C5.75038 20.2575 6.08604 20.0588 6.50375 20.0588C6.914 20.0588 7.24965 20.2575 7.24965 20.5098Z" fill="#D8F0F5"/>
<path d="M7.24965 20.5099H5.75038V16.2826H7.24965V20.5099Z" fill="#D8F0F5"/>
<path d="M12.272 17.4135H10.2357V17.5511H12.272V17.4135Z" fill="#D8F0F5"/>
<path d="M12.272 17.5662C12.272 17.9026 11.817 18.1777 11.2576 18.1777C10.6907 18.1777 10.2357 17.9026 10.2357 17.5662C10.2357 17.2222 10.6907 16.947 11.2576 16.947C11.817 16.947 12.272 17.2222 12.272 17.5662Z" fill="#D8F0F5"/>
<path d="M12.272 17.413C12.272 17.757 11.817 18.0322 11.2576 18.0322C10.6907 18.0322 10.2357 17.757 10.2357 17.413C10.2357 17.0766 10.6907 16.8015 11.2576 16.8015C11.817 16.8015 12.272 17.0766 12.272 17.413Z" fill="#D8F0F5"/>
<path d="M12.0031 17.3673C12.0031 17.612 11.6674 17.8184 11.2572 17.8184C10.8395 17.8184 10.5038 17.612 10.5038 17.3673C10.5038 17.1151 10.8395 16.9087 11.2572 16.9087C11.6674 16.9087 12.0031 17.1151 12.0031 17.3673Z" fill="#D8F0F5"/>
<path d="M12.0031 17.3675H10.5038V13.1402H12.0031V17.3675Z" fill="#D8F0F5"/>
<path d="M2.96133 17.077H0.925003V17.2146H2.96133V17.077Z" fill="#D8F0F5"/>
<path d="M2.96133 17.222C2.96133 17.566 2.50632 17.8412 1.94689 17.8412C1.38001 17.8412 0.925003 17.566 0.925003 17.222C0.925003 16.8857 1.38001 16.6105 1.94689 16.6105C2.50632 16.6105 2.96133 16.8857 2.96133 17.222Z" fill="#D8F0F5"/>
<path d="M2.96133 17.0764C2.96133 17.4128 2.50632 17.688 1.94689 17.688C1.38001 17.688 0.925003 17.4128 0.925003 17.0764C0.925003 16.7401 1.38001 16.4649 1.94689 16.4649C2.50632 16.4649 2.96133 16.7401 2.96133 17.0764Z" fill="#D8F0F5"/>
<path d="M2.69238 17.0232C2.69238 17.2754 2.35673 17.4818 1.94648 17.4818C1.52877 17.4818 1.19312 17.2754 1.19312 17.0232C1.19312 16.7785 1.52877 16.5721 1.94648 16.5721C2.35673 16.5721 2.69238 16.7785 2.69238 17.0232Z" fill="#D8F0F5"/>
<path d="M2.69238 17.0233H1.19312V12.8036H2.69238V17.0233Z" fill="#D8F0F5"/>
<path d="M8.26871 13.9356H6.23239V14.0732H8.26871V13.9356Z" fill="#D8F0F5"/>
<path d="M8.26871 14.0807C8.26871 14.417 7.81371 14.6922 7.24683 14.6922C6.6874 14.6922 6.23239 14.417 6.23239 14.0807C6.23239 13.7443 6.6874 13.4691 7.24683 13.4691C7.81371 13.4691 8.26871 13.7443 8.26871 14.0807Z" fill="#D8F0F5"/>
<path d="M8.26871 13.9359C8.26871 14.2722 7.81371 14.5474 7.24683 14.5474C6.6874 14.5474 6.23239 14.2722 6.23239 13.9359C6.23239 13.5919 6.6874 13.3167 7.24683 13.3167C7.81371 13.3167 8.26871 13.5919 8.26871 13.9359Z" fill="#D8F0F5"/>
<path d="M7.99977 13.8818C7.99977 14.1341 7.66412 14.3328 7.24641 14.3328C6.83616 14.3328 6.5005 14.1341 6.5005 13.8818C6.5005 13.6295 6.83616 13.4308 7.24641 13.4308C7.66412 13.4308 7.99977 13.6295 7.99977 13.8818Z" fill="#D8F0F5"/>
<path d="M7.99977 13.8819H6.5005V9.66229H7.99977V13.8819Z" fill="#D8F0F5"/>
<path d="M12.2722 13.7514C12.2722 15.6701 9.69133 17.2295 6.50631 17.2295C3.31384 17.2295 0.733002 15.6701 0.733002 13.7514C0.733002 11.825 3.31384 10.2656 6.50631 10.2656C9.69133 10.2656 12.2722 11.825 12.2722 13.7514Z" fill="#B7F2FF"/>
<path d="M12.8752 12.6507C12.8752 14.7758 10.0184 16.4958 6.50518 16.4958C2.9845 16.4958 0.127686 14.7758 0.127686 12.6507C0.127686 10.5256 2.9845 8.80566 6.50518 8.80566C10.0184 8.80566 12.8752 10.5256 12.8752 12.6507Z" fill="#D8F0F5"/>
<path d="M0.127686 4.78516V12.6511H12.8752V4.78516H0.127686Z" fill="#D8F0F5"/>
<path d="M12.8752 4.78513C12.8752 6.91024 10.0184 8.6302 6.50518 8.6302C2.9845 8.6302 0.127686 6.91024 0.127686 4.78513C0.127686 2.66002 2.9845 0.940063 6.50518 0.940063C10.0184 0.940063 12.8752 2.66002 12.8752 4.78513Z" fill="#F6F6F6"/>
<path d="M11.6608 4.08961C11.6608 5.80193 9.34846 7.20083 6.50656 7.20083C3.6572 7.20083 1.34489 5.80193 1.34489 4.08961C1.34489 2.36965 3.6572 0.978394 6.50656 0.978394C9.34846 0.978394 11.6608 2.36965 11.6608 4.08961Z" fill="#B7F2FF"/>
<path d="M10.8824 3.76123C10.8824 5.22129 8.92064 6.40615 6.50391 6.40615C4.07972 6.40615 2.11798 5.22129 2.11798 3.76123C2.11798 2.30118 4.07972 1.12396 6.50391 1.12396C8.92064 1.12396 10.8824 2.30118 10.8824 3.76123Z" fill="#D8F0F5"/>
<path d="M2.16932 8.56052V8.56816C2.29613 8.49172 2.46023 8.49936 2.63924 8.60638C3.03457 8.83571 3.34785 9.46254 3.34785 9.99764C3.34785 10.3187 3.24343 10.5327 3.06441 10.6092L3.07187 10.6168L1.774 11.3813L0.841614 9.34788L2.16932 8.56052Z" fill="#D4DFE2"/>
<path d="M0.580078 9.94446C0.580078 10.4872 0.900817 11.1064 1.28869 11.3434C1.68402 11.5727 2.00476 11.3281 2.00476 10.793C2.00476 10.2502 1.68402 9.62341 1.28869 9.39408C0.900817 9.15711 0.580078 9.40937 0.580078 9.94446Z" fill="#40D3F4"/>
<path d="M0.421066 9.85216C0.421066 10.5019 0.801478 11.2587 1.27886 11.5415C1.75624 11.8244 2.14411 11.5186 2.14411 10.8688C2.14411 10.2191 1.75624 9.46229 1.27886 9.17946C0.801478 8.90426 0.421066 9.20239 0.421066 9.85216Z" fill="#2BBCE7"/>
<path d="M0.608936 9.40843C0.608936 9.40079 0.564178 9.21732 0.564178 9.21732L0.71336 9.13324L0.884917 9.24026L0.608936 9.40843Z" fill="#2BBCE7"/>
<path d="M1.63828 11.7018L1.84713 11.5871L1.8695 11.4342L1.68303 11.4648L1.63828 11.7018Z" fill="#2BBCE7"/>
<path d="M0.332245 9.94421C0.332245 10.594 0.712657 11.3508 1.19004 11.6259C1.66742 11.9088 2.05528 11.6107 2.05528 10.9609C2.05528 10.3111 1.66742 9.55435 1.19004 9.27151C0.712657 8.98867 0.332245 9.2868 0.332245 9.94421Z" fill="#40D3F4"/>
<path d="M1.21497 10.3804C1.17767 10.3804 1.13292 10.3727 1.09563 10.3498L0.685378 10.1052C0.648083 10.0822 0.625702 10.0517 0.625702 10.0134C0.625702 9.98287 0.640623 9.95993 0.670459 9.94465L0.767426 9.88349C0.782344 9.87585 0.804719 9.88349 0.812178 9.89878C0.819637 9.91407 0.812182 9.937 0.797264 9.94465L0.707754 10.0058C0.697809 10.0109 0.692835 10.0134 0.692835 10.0134C0.692835 10.0211 0.700293 10.0287 0.715211 10.044L1.13292 10.2886C1.17022 10.3116 1.23735 10.3192 1.27464 10.2963L1.36415 10.2428C1.37907 10.2351 1.40144 10.2351 1.4089 10.2581C1.42382 10.2734 1.41636 10.2963 1.40145 10.3039L1.30448 10.3574C1.2821 10.3727 1.24481 10.3804 1.21497 10.3804Z" fill="#D4DFE2"/>
<path d="M1.21497 11.0684C1.17021 11.0684 1.13292 11.0607 1.09563 11.0378L0.685378 10.7932C0.648083 10.7702 0.625702 10.7397 0.625702 10.7091C0.625702 10.6785 0.640623 10.6479 0.670459 10.6326L0.767426 10.5791C0.782344 10.5638 0.804719 10.5715 0.812178 10.5868C0.819637 10.6097 0.812182 10.625 0.797264 10.6403L0.707754 10.6938C0.697809 10.6989 0.692835 10.704 0.692835 10.7091C0.692835 10.7091 0.700293 10.7244 0.715211 10.732L1.13292 10.9766C1.17022 11.0072 1.23735 11.0072 1.27464 10.9843L1.36415 10.9308C1.37907 10.9231 1.40144 10.9308 1.4089 10.9461C1.42382 10.9613 1.41636 10.9843 1.40145 10.9919L1.30448 11.0454C1.2821 11.0607 1.24481 11.0684 1.21497 11.0684Z" fill="#D4DFE2"/>
<path d="M2.06629 11.7563L2.07375 11.764C2.20801 11.6799 2.38703 11.6876 2.58097 11.8022C3.00613 12.0545 3.34925 12.7348 3.34925 13.3234C3.34925 13.6674 3.22991 13.8967 3.04343 13.9808L3.05089 13.9885L1.64113 14.8141L0.626694 12.6125L2.06629 11.7563Z" fill="#D4DFE2"/>
<path d="M0.343781 13.2618C0.343781 13.8428 0.686899 14.5231 1.11952 14.7754C1.54469 15.0276 1.89526 14.7601 1.89526 14.1791C1.89526 13.5905 1.54469 12.9102 1.11952 12.6579C0.686899 12.4057 0.343781 12.6732 0.343781 13.2618Z" fill="#40D3F4"/>
<path d="M0.171066 13.1555C0.171066 13.8665 0.588773 14.6844 1.10345 14.9902C1.62558 15.2959 2.04329 14.9749 2.04329 14.264C2.04329 13.5607 1.62558 12.7351 1.10345 12.4293C0.588773 12.1236 0.171066 12.4523 0.171066 13.1555Z" fill="#2BBCE7"/>
<path d="M0.379546 12.6743C0.379546 12.6667 0.327332 12.4756 0.327332 12.4756L0.491432 12.3839L0.677908 12.4985L0.379546 12.6743Z" fill="#2BBCE7"/>
<path d="M1.49025 15.1659L1.72148 15.0436L1.74385 14.8754L1.54246 14.906L1.49025 15.1659Z" fill="#2BBCE7"/>
<path d="M0 13.2552C0 13.9584 0.417705 14.784 0.939839 15.0898C1.45451 15.3955 1.87222 15.0668 1.87222 14.3636C1.87222 13.6527 1.45451 12.8347 0.939839 12.5289C0.417705 12.2232 0 12.5519 0 13.2552Z" fill="#40D3F4"/>
<path d="M1.0287 13.7293C0.983945 13.7293 0.939192 13.7217 0.909356 13.6987L0.454351 13.4312C0.417056 13.4083 0.387222 13.3777 0.387222 13.3395C0.387222 13.3012 0.409596 13.2783 0.439432 13.2554L0.543861 13.1942C0.558779 13.1866 0.581157 13.1942 0.596075 13.2095C0.603534 13.2248 0.596074 13.2554 0.581156 13.263L0.476727 13.3242C0.471755 13.3293 0.466786 13.3344 0.461813 13.3395C0.461813 13.3395 0.469269 13.3548 0.491646 13.37L0.946651 13.6299C0.983947 13.6605 1.05854 13.6605 1.09583 13.6452L1.1928 13.5841C1.21518 13.5688 1.23755 13.5764 1.24501 13.5994C1.25993 13.6147 1.25247 13.6376 1.23009 13.6452L1.13313 13.7064C1.10329 13.7217 1.06599 13.7293 1.0287 13.7293Z" fill="#D4DFE2"/>
<path d="M1.0287 14.4785C0.983945 14.4785 0.939192 14.4709 0.909356 14.4479L0.454351 14.1804C0.417056 14.1575 0.387222 14.1269 0.387222 14.0887C0.387222 14.0504 0.409596 14.0275 0.439432 14.0046L0.543861 13.9434C0.558779 13.9358 0.581157 13.9434 0.596075 13.9587C0.603534 13.974 0.596074 14.0046 0.581156 14.0122L0.476727 14.0734C0.471755 14.0785 0.466786 14.0836 0.461813 14.0887C0.461813 14.0887 0.469269 14.104 0.491646 14.1192L0.946651 14.3868C0.983947 14.4097 1.05854 14.4097 1.09583 14.3944L1.1928 14.3333C1.21518 14.318 1.23755 14.3256 1.24501 14.3486C1.25993 14.3639 1.25247 14.3868 1.23009 14.3944L1.13313 14.4556C1.10329 14.4709 1.06599 14.4785 1.0287 14.4785Z" fill="#D4DFE2"/>
</svg>
